<?xml version="1.0" encoding="UTF-8" standalone="no"?>
<svg
   width="100%"
   height="100%"
   viewBox="0 0 288 360"
   version="1.1"
   xml:space="preserve"
   style="fill-rule:evenodd;clip-rule:evenodd;stroke-linejoin:round;stroke-miterlimit:2;"
   id="svg135"
   sodipodi:docname="double-decker-bus-inbound.svg"
   inkscape:version="1.1 (c68e22c387, 2021-05-23)"
   xmlns:inkscape="http://www.inkscape.org/namespaces/inkscape"
   xmlns:sodipodi="http://sodipodi.sourceforge.net/DTD/sodipodi-0.dtd"
   xmlns="http://www.w3.org/2000/svg"
   xmlns:svg="http://www.w3.org/2000/svg"><defs
   id="defs139" /><sodipodi:namedview
   id="namedview137"
   pagecolor="#ffffff"
   bordercolor="#666666"
   borderopacity="1.0"
   inkscape:pageshadow="2"
   inkscape:pageopacity="0.0"
   inkscape:pagecheckerboard="0"
   showgrid="false"
   inkscape:zoom="1.4444444"
   inkscape:cx="143.65385"
   inkscape:cy="180.34615"
   inkscape:window-width="1366"
   inkscape:window-height="705"
   inkscape:window-x="-8"
   inkscape:window-y="-8"
   inkscape:window-maximized="1"
   inkscape:current-layer="svg135" />
    <g
   id="double-decker-bus-inbound">
        <g
   transform="matrix(1,0,0,1,240.281,162.389)"
   id="g4">
            <path
   d="M0,0.469L21.376,-0.64L21.587,7.181L25.815,6.548L25.793,-6.712L-0.21,-3.968L0,0.469Z"
   style="fill:rgb(114,14,26);fill-rule:nonzero;"
   id="path2" />
        </g>
        <g
   transform="matrix(-0.026145,0.999658,0.999658,0.026145,276.948,195.283)"
   id="g8">
            <path
   d="M-26.771,-8.382L5.587,-8.382L8.094,-23.332L-23.325,-26.903L-26.771,-8.382Z"
   style="fill:rgb(174,32,37);fill-rule:nonzero;"
   id="path6" />
        </g>
        <g
   transform="matrix(-0.0281035,0.999605,0.999605,0.0281035,263.509,181.619)"
   id="g12">
            <path
   d="M-13.368,5.386L-5.86,5.386L-5.249,-12.576L-9.992,-13.131L-13.368,5.386Z"
   style="fill:rgb(114,14,26);fill-rule:nonzero;"
   id="path10" />
        </g>
        <g
   transform="matrix(1,0,0,1,47.7188,162.389)"
   id="g16">
            <path
   d="M0,0.469L-21.376,-0.64L-21.587,7.181L-25.815,6.548L-25.793,-6.712L0.21,-3.968L0,0.469Z"
   style="fill:rgb(114,14,26);fill-rule:nonzero;"
   id="path14" />
        </g>
        <g
   transform="matrix(0.026145,0.999658,0.999658,-0.026145,45.0158,175.783)"
   id="g20">
            <path
   d="M-8.166,-26.08L24.192,-26.08L26.699,-11.13L-4.72,-7.559L-8.166,-26.08Z"
   style="fill:rgb(174,32,37);fill-rule:nonzero;"
   id="path18" />
        </g>
        <g
   transform="matrix(1,0,0,1,49.4746,340.338)"
   id="g24">
            <path
   d="M0,19.662L19.45,19.662L23.468,0L-1.691,0.213L0,19.662Z"
   style="fill:rgb(92,94,95);fill-rule:nonzero;"
   id="path22" />
        </g>
        <g
   transform="matrix(1,0,0,1,68.0801,360)"
   id="g28">
            <path
   d="M0,-19.874L0.845,0L6.864,-19.874L0,-19.874Z"
   style="fill:rgb(42,43,41);fill-rule:nonzero;"
   id="path26" />
        </g>
        <g
   transform="matrix(-1,0,0,1,214.734,340.339)"
   id="g32">
            <path
   d="M-21.777,19.661L-2.326,19.661L1.691,0L-23.468,0.211L-21.777,19.661Z"
   style="fill:rgb(92,94,95);fill-rule:nonzero;"
   id="path30" />
        </g>
        <g
   transform="matrix(1,0,0,1,217.905,359.788)"
   id="g36">
            <path
   d="M0,-19.449L-0.846,0L-6.864,-19.449L0,-19.449Z"
   style="fill:rgb(42,43,41);fill-rule:nonzero;"
   id="path34" />
        </g>
        <g
   transform="matrix(1,0,0,1,47.6534,59.6611)"
   id="g40">
            <path
   d="M0,280.876L190.708,280.876L194.896,0L-1.477,2L0,280.876Z"
   style="fill:rgb(174,32,37);fill-rule:nonzero;"
   id="path38" />
        </g>
        <g
   transform="matrix(1,0,0,1,46.1763,23.3237)"
   id="g44">
            <path
   d="M0,38.337L-0.333,16.068L15,0L181,0L196.808,16.253L196.35,37.308L0,38.337Z"
   style="fill:rgb(174,32,37);fill-rule:nonzero;"
   id="path42" />
        </g>
        <g
   transform="matrix(0.00400944,0.999992,0.999992,-0.00400944,194.653,143.115)"
   id="g48">
            <path
   d="M42.824,-144.755L144.584,-144.755L144.912,41.269L43.661,43.403L42.824,-144.755Z"
   style="fill:rgb(49,49,86);fill-rule:nonzero;"
   id="path46" />
        </g>
        <g
   transform="matrix(1,0,0,1,-25.8237,-73.4277)"
   id="g56">
            <g
   opacity="0.3"
   id="g54">
                <g
   transform="matrix(1,0,0,1,262.334,260.002)"
   id="g52">
                    <path
   d="M0,101.287L1.687,0L-103.64,101.047L0,101.287Z"
   style="fill:rgb(10,23,35);fill-rule:nonzero;"
   id="path50" />
                </g>
            </g>
        </g>
        <g
   transform="matrix(1,0,0,1,-25.8237,-73.4277)"
   id="g64">
            <g
   opacity="0.3"
   id="g62">
                <g
   transform="matrix(1,0,0,1,75.9307,331.507)"
   id="g60">
                    <path
   d="M0,-71.505L-0.144,0.027L71.358,-71.532L0,-71.505Z"
   style="fill:rgb(10,23,35);fill-rule:nonzero;"
   id="path58" />
                </g>
            </g>
        </g>
        <g
   transform="matrix(0.0282366,0.999601,0.999601,-0.0282366,31.5753,162.807)"
   id="g68">
            <path
   d="M5.236,-12.997L12.744,-12.997L13.357,4.964L8.614,5.52L5.236,-12.997Z"
   style="fill:rgb(114,14,26);fill-rule:nonzero;"
   id="path66" />
        </g>
        <g
   transform="matrix(0.703252,-0.710941,-0.710941,-0.703252,188.098,306.02)"
   id="g72">
            <path
   d="M-21.997,48.361L120.154,48.361L115.949,52.611L-26.275,52.715L-21.997,48.361Z"
   style="fill:rgb(73,74,114);fill-rule:nonzero;"
   id="path70" />
        </g>
        <g
   transform="matrix(0.00652726,0.999979,0.999979,-0.00652726,175.895,-22.6879)"
   id="g76">
            <path
   d="M62.798,-127.368L126.99,-127.368L127.808,61.815L64.013,63.628L62.798,-127.368Z"
   style="fill:rgb(49,49,86);fill-rule:nonzero;"
   id="path74" />
        </g>
        <g
   transform="matrix(0.315592,0.948895,0.948895,-0.315592,105.481,325.014)"
   id="g80">
            <path
   d="M-8.714,2.685L1.194,2.685L-4.671,-15.062L-12.705,-9.183L-8.714,2.685Z"
   style="fill:rgb(193,190,187);fill-rule:nonzero;"
   id="path78" />
        </g>
        <g
   transform="matrix(0.315592,-0.948895,-0.948895,-0.315592,87.3928,316.178)"
   id="g84">
            <path
   d="M-8.714,-2.685L1.194,-2.685L-4.671,15.062L-12.705,9.183L-8.714,-2.685Z"
   style="fill:rgb(246,241,225);fill-rule:nonzero;"
   id="path82" />
        </g>
        <g
   transform="matrix(0.315592,-0.948895,-0.948895,-0.315592,210.481,316.178)"
   id="g88">
            <path
   d="M-8.714,-2.685L1.194,-2.685L-4.671,15.062L-12.705,9.183L-8.714,-2.685Z"
   style="fill:rgb(246,241,225);fill-rule:nonzero;"
   id="path86" />
        </g>
        <g
   transform="matrix(0.315592,0.948895,0.948895,-0.315592,192.393,325.014)"
   id="g92">
            <path
   d="M-8.714,2.685L1.194,2.685L-4.671,-15.062L-12.705,-9.183L-8.714,2.685Z"
   style="fill:rgb(193,190,187);fill-rule:nonzero;"
   id="path90" />
        </g>
        <g
   transform="matrix(-0.0340782,0.999419,0.999419,0.0340782,234.209,330.19)"
   id="g96">
            <path
   d="M-14.643,4.527L-5.048,4.527L-4.376,-14.152L-13.953,-11.434L-14.643,4.527Z"
   style="fill:rgb(239,156,116);fill-rule:nonzero;"
   id="path94" />
        </g>
        <g
   transform="matrix(0.315592,0.948895,0.948895,-0.315592,62.825,324.961)"
   id="g100">
            <path
   d="M-8.801,2.785L1.107,2.785L-4.757,-14.962L-13.804,-12.191L-8.801,2.785Z"
   style="fill:rgb(239,156,116);fill-rule:nonzero;"
   id="path98" />
        </g>
        <g
   transform="matrix(1,0,0,1,-25.8237,-73.4277)"
   id="g108">
            <g
   opacity="0.3"
   id="g106">
                <g
   transform="matrix(1,0,0,1,264.398,114.322)"
   id="g104">
                    <path
   d="M0,63.737L1.365,0L-60.772,63.497L0,63.737Z"
   style="fill:rgb(10,23,35);fill-rule:nonzero;"
   id="path102" />
                </g>
            </g>
        </g>
        <g
   transform="matrix(1,0,0,1,-25.8237,-73.4277)"
   id="g116">
            <g
   opacity="0.3"
   id="g114">
                <g
   transform="matrix(1,0,0,1,74.7681,161.786)"
   id="g112">
                    <path
   d="M0,-47.416L0.375,0.021L47.774,-47.437L0,-47.416Z"
   style="fill:rgb(10,23,35);fill-rule:nonzero;"
   id="path110" />
                </g>
            </g>
        </g>
        <g
   transform="matrix(0.688921,-0.724837,-0.724837,-0.688921,210.981,114.206)"
   id="g120">
            <path
   d="M-14.578,29.543L73.043,29.543L68.924,33.877L-18.768,33.982L-14.578,29.543Z"
   style="fill:rgb(73,74,114);fill-rule:nonzero;"
   id="path118" />
        </g>
        <g
   transform="matrix(0.00170185,0.999999,0.999999,-0.00170185,156.471,52.6355)"
   id="g124">
            <path
   d="M69.604,-94.401L94.283,-94.401L94.195,69.723L70.112,69.444L69.604,-94.401Z"
   style="fill:rgb(42,43,41);fill-rule:nonzero;"
   id="path122" />
        </g>
        <g
   transform="matrix(1,0,0,1,211.273,143.667)"
   id="g128">
            <path
   d="M0,-17.7L11.113,-17.7L11.113,0L0.041,0L0.041,-3.516L7.355,-3.516L7.355,-14.265L0.041,-14.265L0,-17.7Z"
   style="fill:rgb(239,156,116);fill-rule:nonzero;"
   id="path126" />
        </g>
        <g
   transform="matrix(-1,0,0,1,457.435,-1283.28)"
   id="g132">
            <rect
   x="237.07"
   y="1416.19"
   width="9.119"
   height="3.47"
   style="fill:rgb(239,156,116);"
   id="rect130" />
        </g>
    </g>
<g
   transform="matrix(0.0050673,0,0,-0.0044784,185.18069,283.01972)"
   fill="#000000"
   stroke="none"
   id="g26"
   style="fill:#e3dbdb"><path
     d="m 7610,12773 c -48,-16 -79,-20 -117,-16 -49,5 -57,3 -127,-41 -126,-78 -185,-134 -201,-189 -13,-45 -147,-245 -184,-275 -16,-13 -175,-65 -331,-107 -58,-16 -140,-29 -211,-33 l -115,-8 -110,-61 c -60,-34 -193,-93 -294,-132 -101,-39 -193,-77 -204,-85 -12,-7 -57,-78 -101,-157 -43,-79 -151,-251 -239,-382 l -160,-238 -7,-123 c -8,-149 -16,-164 -110,-209 l -69,-32 6,-46 c 13,-99 -39,-138 -193,-147 l -92,-5 -16,-33 c -8,-18 -18,-47 -21,-66 -9,-47 -47,-83 -110,-103 -69,-22 -91,-53 -169,-235 -31,-74 -87,-191 -123,-259 -57,-105 -86,-144 -190,-260 -112,-123 -129,-147 -178,-251 -35,-74 -70,-131 -98,-160 -41,-43 -43,-49 -54,-132 -12,-99 -35,-150 -96,-217 -23,-25 -54,-65 -70,-88 -16,-23 -43,-51 -61,-61 -26,-16 -33,-28 -38,-63 -3,-24 -27,-86 -53,-138 -41,-83 -61,-109 -158,-207 -61,-61 -124,-121 -139,-132 -25,-18 -33,-39 -62,-156 -19,-74 -44,-154 -55,-178 -14,-26 -92,-112 -204,-223 -172,-171 -185,-187 -257,-310 -115,-195 -129,-227 -129,-285 0,-88 -21,-192 -57,-285 -37,-92 -43,-143 -28,-222 7,-37 3,-49 -29,-106 -20,-36 -36,-72 -36,-80 0,-9 16,-31 35,-49 32,-30 36,-40 45,-114 12,-93 0,-261 -25,-370 -49,-214 -124,-452 -175,-554 -32,-64 -70,-181 -70,-217 0,-6 15,-10 33,-9 27,1 33,-3 35,-23 3,-18 -11,-37 -62,-85 -71,-66 -70,-65 -67,-209 1,-45 30,-77 68,-77 16,0 51,-11 78,-24 44,-20 83,-49 252,-192 l 43,-35 v -95 c 0,-112 29,-209 81,-274 32,-39 33,-43 33,-139 1,-94 2,-100 35,-152 83,-130 102,-166 131,-241 40,-106 45,-143 26,-197 -14,-41 -13,-48 6,-105 50,-149 79,-192 222,-325 26,-23 73,-77 105,-120 79,-103 91,-112 219,-180 61,-33 166,-96 233,-141 67,-45 144,-90 173,-100 183,-63 348,-194 415,-332 17,-35 39,-96 49,-136 15,-59 27,-81 60,-115 22,-23 52,-64 66,-92 47,-95 142,-434 152,-548 l 7,-67 -57,-55 c -69,-68 -71,-86 -11,-145 65,-64 75,-90 63,-179 -10,-87 -7,-101 25,-101 19,0 26,7 30,29 4,17 19,44 35,62 26,29 35,33 80,32 43,-1 68,-10 149,-56 87,-49 163,-79 163,-63 0,3 -7,31 -15,63 -17,63 -12,123 12,161 8,13 40,49 71,80 57,57 122,169 122,210 0,11 -5,33 -11,49 -6,15 -19,68 -29,117 -16,74 -17,103 -9,173 5,46 14,158 19,248 9,158 8,166 -13,212 -16,36 -21,66 -21,118 1,77 4,88 109,320 37,83 114,259 171,392 93,220 107,248 158,305 38,42 54,67 50,78 -4,8 -12,32 -17,52 -21,72 -13,79 235,227 302,181 321,196 379,301 27,47 51,91 55,99 4,8 -4,34 -19,62 -15,26 -27,52 -27,57 0,23 54,72 105,96 92,42 139,95 209,235 34,69 99,183 144,253 72,110 125,212 185,350 12,26 32,46 74,71 47,27 58,38 56,58 -1,13 -2,83 -3,155 -2,142 9,186 55,234 13,14 47,73 76,130 28,58 67,130 88,160 39,57 103,227 146,390 18,64 29,140 35,235 10,154 15,178 66,297 31,72 34,89 32,157 -3,69 0,83 33,156 28,60 38,99 43,155 3,48 20,118 44,191 22,64 45,140 51,170 7,30 25,93 41,140 30,91 80,312 101,441 9,62 17,84 40,108 51,53 51,125 -1,184 -25,28 -30,43 -30,83 0,107 34,170 123,223 47,28 58,53 46,111 -24,128 -7,177 92,256 237,189 306,295 318,484 6,93 10,112 34,148 15,22 27,46 27,53 0,31 23,90 44,115 13,15 26,40 30,56 3,15 21,44 40,65 46,52 56,74 56,127 0,74 36,125 88,125 11,0 23,7 26,16 20,52 -14,240 -78,426 -25,73 -49,167 -54,209 -6,44 -19,93 -33,120 -48,90 -19,304 61,458 109,209 363,440 473,429 31,-3 32,-2 39,42 9,65 3,80 -31,74 -38,-8 -79,35 -131,137 l -40,81 v 125 c 0,111 -2,124 -16,119 -41,-16 -208,-36 -297,-36 -128,0 -234,22 -332,70 -69,34 -101,60 -242,197 -147,144 -163,162 -169,201 -7,42 -8,43 -108,95 l -101,52 z"
     id="path2-5"
     style="fill:#e3dbdb" /><path
     d="m 9089,11169 c -14,-27 4,-42 41,-33 33,7 34,9 20,33 -14,27 -46,27 -61,0 z"
     id="path4"
     style="fill:#e3dbdb" /><path
     d="m 521,6966 c -18,-19 -21,-30 -15,-49 10,-29 110,-111 124,-102 6,3 10,32 10,64 0,55 -2,60 -34,85 -43,32 -56,33 -85,2 z"
     id="path6-2"
     style="fill:#e3dbdb" /><path
     d="m 333,6858 c -11,-14 -19,-43 -35,-133 -13,-71 -52,-119 -110,-137 -49,-15 -39,-28 22,-28 43,0 53,4 85,37 19,20 35,46 35,57 0,12 7,30 15,40 9,12 15,42 15,76 0,31 5,61 11,67 13,13 4,33 -15,33 -8,0 -18,-6 -23,-12 z"
     id="path8"
     style="fill:#e3dbdb" /><path
     d="m 640,6713 c -14,-9 -46,-36 -72,-60 -26,-24 -52,-43 -57,-43 -25,0 -41,-33 -41,-84 0,-28 -5,-57 -12,-64 -8,-8 -8,-15 2,-27 12,-14 15,-14 31,1 27,24 63,15 67,-18 3,-26 7,-28 46,-28 41,0 42,1 80,66 30,52 46,70 79,85 52,23 95,24 119,2 17,-16 20,-16 35,0 16,16 14,20 -36,71 -42,42 -64,56 -110,69 -32,9 -64,23 -71,32 -16,19 -30,19 -60,-2 z"
     id="path10-6"
     style="fill:#e3dbdb" /><path
     d="m 2125,6399 -57,-82 11,-84 c 6,-46 13,-88 16,-93 17,-28 25,0 25,91 v 100 l 40,59 c 39,57 50,90 31,90 -5,0 -35,-37 -66,-81 z"
     id="path12"
     style="fill:#e3dbdb" /><path
     d="m 300,6394 c -11,-12 -10,-18 4,-32 16,-16 18,-16 31,2 11,14 12,23 4,33 -15,17 -24,16 -39,-3 z"
     id="path14-2"
     style="fill:#e3dbdb" /><path
     d="m 272,5858 c -19,-19 -15,-48 7,-48 20,0 37,32 26,50 -8,13 -18,13 -33,-2 z"
     id="path16"
     style="fill:#e3dbdb" /><path
     d="m 48,5275 c -15,-13 -33,-25 -40,-28 -23,-8 6,-42 40,-45 22,-2 34,3 46,20 37,52 1,93 -46,53 z"
     id="path18-2"
     style="fill:#e3dbdb" /><path
     d="m 7046,3349 c -22,-32 -21,-92 2,-112 10,-10 35,-17 55,-17 h 37 v 59 c 0,62 -8,75 -51,86 -21,5 -30,2 -43,-16 z"
     id="path20"
     style="fill:#e3dbdb" /><path
     d="m 3248,1956 c -10,-7 -18,-22 -18,-34 0,-11 -7,-23 -16,-26 -8,-3 -12,-10 -9,-16 9,-15 41,-12 55,5 7,9 28,23 47,32 44,21 41,47 -7,50 -19,2 -43,-3 -52,-11 z"
     id="path22-1"
     style="fill:#e3dbdb" /><path
     d="m 7233,1124 c -46,-17 -51,-25 -28,-44 9,-8 15,-29 15,-56 0,-43 0,-43 69,-83 81,-47 101,-56 159,-65 40,-6 42,-5 42,18 0,16 -17,40 -55,74 -56,52 -64,69 -42,91 10,10 9,14 -5,22 -10,6 -18,16 -18,24 0,18 -7,22 -55,28 -24,4 -57,0 -82,-9 z"
     id="path24"
     style="fill:#e3dbdb" /></g></svg>
