<?xml version="1.0" encoding="UTF-8" standalone="no"?>
<svg
   width="216px"
   height="288px"
   version="1.1"
   xml:space="preserve"
   style="fill-rule:evenodd;clip-rule:evenodd;stroke-linejoin:round;stroke-miterlimit:1.41421;"
   id="svg45"
   sodipodi:docname="transit-shelter-01-right.svg"
   inkscape:version="1.1 (c68e22c387, 2021-05-23)"
   xmlns:inkscape="http://www.inkscape.org/namespaces/inkscape"
   xmlns:sodipodi="http://sodipodi.sourceforge.net/DTD/sodipodi-0.dtd"
   xmlns="http://www.w3.org/2000/svg"
   xmlns:svg="http://www.w3.org/2000/svg"><defs
     id="defs49" /><sodipodi:namedview
     id="namedview47"
     pagecolor="#ffffff"
     bordercolor="#666666"
     borderopacity="1.0"
     inkscape:pageshadow="2"
     inkscape:pageopacity="0.0"
     inkscape:pagecheckerboard="0"
     showgrid="false"
     inkscape:zoom="1.8055556"
     inkscape:cx="107.72308"
     inkscape:cy="144.27692"
     inkscape:window-width="1366"
     inkscape:window-height="705"
     inkscape:window-x="-8"
     inkscape:window-y="-8"
     inkscape:window-maximized="1"
     inkscape:current-layer="svg45" /><g
     id="g43"><g
       id="transit-shelter-01-right"
       transform="matrix(0.5,0,0,0.5,-5.18465,-48)"><g
         id="pole"><path
           d="M23.5485,111.049l-2.808,560.951l24.163,0l-8.815,-566.29l-12.54,5.339Z"
           style="fill:#e4e2dc;fill-rule:nonzero;"
           id="path2" /><path
           d="M20.7387,672l24.167,0l-3.943,-203.396l-20.224,203.396Z"
           style="fill:#c1bebb;fill-rule:nonzero;"
           id="path4" /><path
           d="M22.8047,255.035l13.28,-149.325l-12.537,5.357l-0.743,143.968Z"
           style="fill:#c1bebb;fill-rule:nonzero;"
           id="path6" /><path
           d="M39,234l49,0l2,-99l-53,0l2,99Z"
           style="fill:#d8d3cb;fill-rule:nonzero;"
           id="path8" /><path
           d="M81.332,181.998l-14.375,0l-6.285,-0.012l-0.004,30.391l6.078,0.055l0.055,-13.742l10.433,-0.212l0.032,-5.917l-10.258,0l-0.02,-4.461l14.313,-0.184l0.031,-5.918Z"
           style="fill:#313156;fill-rule:nonzero;"
           id="path10" /><path
           d="M59.3535,145.252l0.057,16.543l16.277,0.211l0.055,13.742l6.076,-0.055l-0.002,-30.39l-6.287,0l-0.051,10.574l-10.256,0l0,-10.574l-5.869,-0.051Z"
           style="fill:#313156;fill-rule:nonzero;"
           id="path12" /></g><g
         id="seat"><path
           d="M334.416,622.016l45.293,3.902l4.292,46.082l10.205,0l-0.212,-55.442l-63.734,-5.054l4.156,10.512Z"
           style="fill:#5c5e5f;fill-rule:nonzero;"
           id="path15" /><path
           d="M291,611.508l98.25,4.801l1.125,-111.699l-10.355,5.361l-3.455,90.414l-85.565,4.725l0,6.398Z"
           style="fill:#ae2025;fill-rule:nonzero;"
           id="path17" /></g><g
         id="ad-panel"><path
           d="M408,300l0,372l21.001,0l-4.001,-372l-17,0Z"
           style="fill:#5c5e5f;fill-rule:nonzero;"
           id="path20" /><path
           d="M175,240l-4,432l21,0l0,-432l-17,0Z"
           style="fill:#5c5e5f;fill-rule:nonzero;"
           id="path22" /><path
           d="M171,672l21,0l-18.368,-237l-2.632,237Z"
           style="fill:#2a2b2a;fill-rule:nonzero;"
           id="path24" /><path
           d="M408,672l21.001,0l-21.001,-237l0,237Z"
           style="fill:#2a2b2a;fill-rule:nonzero;"
           id="path26" /><rect
           x="192"
           y="302"
           width="216"
           height="286"
           style="fill:#c1bebb;fill-rule:nonzero;"
           id="rect28" /><path
           d="M205.988,318.602l0,250.835l187.051,0l0,-250.343l-187.051,-0.492Z"
           style="fill:#f5f3e9;fill-rule:nonzero;"
           id="path30" /><path
           d="M390.101,318.947l-184.112,182.461l0,-182.807l184.112,0.346Z"
           style="fill:#e7e6de;fill-rule:nonzero;"
           id="path32" /><path
           d="M393.039,569.437l0.01,-152.499l-157.549,152.106l157.539,0.393Z"
           style="fill:#e7e6de;fill-rule:nonzero;"
           id="path34" /><path
           d="M241.111,569.478l103.005,-103.336l48.923,-48.922l0,-8.636l-160.734,160.861l8.806,0.033Z"
           style="fill:#d8d3cb;fill-rule:nonzero;"
           id="path36" /></g><g
         id="roof"><path
           d="M428.338,268l3.662,32l-24,0l-293,-58.5l1,-21.082l312.338,47.582Z"
           style="fill:#ae2025;fill-rule:nonzero;"
           id="path39" /></g></g></g><g
     transform="matrix(0.0058232,0,0,-0.0058232,114.01163,211.33407)"
     fill="#000000"
     stroke="none"
     id="g26"
     style="fill:#008000"><path
       d="m 7610,12773 c -48,-16 -79,-20 -117,-16 -49,5 -57,3 -127,-41 -126,-78 -185,-134 -201,-189 -13,-45 -147,-245 -184,-275 -16,-13 -175,-65 -331,-107 -58,-16 -140,-29 -211,-33 l -115,-8 -110,-61 c -60,-34 -193,-93 -294,-132 -101,-39 -193,-77 -204,-85 -12,-7 -57,-78 -101,-157 -43,-79 -151,-251 -239,-382 l -160,-238 -7,-123 c -8,-149 -16,-164 -110,-209 l -69,-32 6,-46 c 13,-99 -39,-138 -193,-147 l -92,-5 -16,-33 c -8,-18 -18,-47 -21,-66 -9,-47 -47,-83 -110,-103 -69,-22 -91,-53 -169,-235 -31,-74 -87,-191 -123,-259 -57,-105 -86,-144 -190,-260 -112,-123 -129,-147 -178,-251 -35,-74 -70,-131 -98,-160 -41,-43 -43,-49 -54,-132 -12,-99 -35,-150 -96,-217 -23,-25 -54,-65 -70,-88 -16,-23 -43,-51 -61,-61 -26,-16 -33,-28 -38,-63 -3,-24 -27,-86 -53,-138 -41,-83 -61,-109 -158,-207 -61,-61 -124,-121 -139,-132 -25,-18 -33,-39 -62,-156 -19,-74 -44,-154 -55,-178 -14,-26 -92,-112 -204,-223 -172,-171 -185,-187 -257,-310 -115,-195 -129,-227 -129,-285 0,-88 -21,-192 -57,-285 -37,-92 -43,-143 -28,-222 7,-37 3,-49 -29,-106 -20,-36 -36,-72 -36,-80 0,-9 16,-31 35,-49 32,-30 36,-40 45,-114 12,-93 0,-261 -25,-370 -49,-214 -124,-452 -175,-554 -32,-64 -70,-181 -70,-217 0,-6 15,-10 33,-9 27,1 33,-3 35,-23 3,-18 -11,-37 -62,-85 -71,-66 -70,-65 -67,-209 1,-45 30,-77 68,-77 16,0 51,-11 78,-24 44,-20 83,-49 252,-192 l 43,-35 v -95 c 0,-112 29,-209 81,-274 32,-39 33,-43 33,-139 1,-94 2,-100 35,-152 83,-130 102,-166 131,-241 40,-106 45,-143 26,-197 -14,-41 -13,-48 6,-105 50,-149 79,-192 222,-325 26,-23 73,-77 105,-120 79,-103 91,-112 219,-180 61,-33 166,-96 233,-141 67,-45 144,-90 173,-100 183,-63 348,-194 415,-332 17,-35 39,-96 49,-136 15,-59 27,-81 60,-115 22,-23 52,-64 66,-92 47,-95 142,-434 152,-548 l 7,-67 -57,-55 c -69,-68 -71,-86 -11,-145 65,-64 75,-90 63,-179 -10,-87 -7,-101 25,-101 19,0 26,7 30,29 4,17 19,44 35,62 26,29 35,33 80,32 43,-1 68,-10 149,-56 87,-49 163,-79 163,-63 0,3 -7,31 -15,63 -17,63 -12,123 12,161 8,13 40,49 71,80 57,57 122,169 122,210 0,11 -5,33 -11,49 -6,15 -19,68 -29,117 -16,74 -17,103 -9,173 5,46 14,158 19,248 9,158 8,166 -13,212 -16,36 -21,66 -21,118 1,77 4,88 109,320 37,83 114,259 171,392 93,220 107,248 158,305 38,42 54,67 50,78 -4,8 -12,32 -17,52 -21,72 -13,79 235,227 302,181 321,196 379,301 27,47 51,91 55,99 4,8 -4,34 -19,62 -15,26 -27,52 -27,57 0,23 54,72 105,96 92,42 139,95 209,235 34,69 99,183 144,253 72,110 125,212 185,350 12,26 32,46 74,71 47,27 58,38 56,58 -1,13 -2,83 -3,155 -2,142 9,186 55,234 13,14 47,73 76,130 28,58 67,130 88,160 39,57 103,227 146,390 18,64 29,140 35,235 10,154 15,178 66,297 31,72 34,89 32,157 -3,69 0,83 33,156 28,60 38,99 43,155 3,48 20,118 44,191 22,64 45,140 51,170 7,30 25,93 41,140 30,91 80,312 101,441 9,62 17,84 40,108 51,53 51,125 -1,184 -25,28 -30,43 -30,83 0,107 34,170 123,223 47,28 58,53 46,111 -24,128 -7,177 92,256 237,189 306,295 318,484 6,93 10,112 34,148 15,22 27,46 27,53 0,31 23,90 44,115 13,15 26,40 30,56 3,15 21,44 40,65 46,52 56,74 56,127 0,74 36,125 88,125 11,0 23,7 26,16 20,52 -14,240 -78,426 -25,73 -49,167 -54,209 -6,44 -19,93 -33,120 -48,90 -19,304 61,458 109,209 363,440 473,429 31,-3 32,-2 39,42 9,65 3,80 -31,74 -38,-8 -79,35 -131,137 l -40,81 v 125 c 0,111 -2,124 -16,119 -41,-16 -208,-36 -297,-36 -128,0 -234,22 -332,70 -69,34 -101,60 -242,197 -147,144 -163,162 -169,201 -7,42 -8,43 -108,95 l -101,52 z"
       id="path2-3"
       style="fill:#008000" /><path
       d="m 9089,11169 c -14,-27 4,-42 41,-33 33,7 34,9 20,33 -14,27 -46,27 -61,0 z"
       id="path4-2"
       style="fill:#008000" /><path
       d="m 521,6966 c -18,-19 -21,-30 -15,-49 10,-29 110,-111 124,-102 6,3 10,32 10,64 0,55 -2,60 -34,85 -43,32 -56,33 -85,2 z"
       id="path6-7"
       style="fill:#008000" /><path
       d="m 333,6858 c -11,-14 -19,-43 -35,-133 -13,-71 -52,-119 -110,-137 -49,-15 -39,-28 22,-28 43,0 53,4 85,37 19,20 35,46 35,57 0,12 7,30 15,40 9,12 15,42 15,76 0,31 5,61 11,67 13,13 4,33 -15,33 -8,0 -18,-6 -23,-12 z"
       id="path8-4"
       style="fill:#008000" /><path
       d="m 640,6713 c -14,-9 -46,-36 -72,-60 -26,-24 -52,-43 -57,-43 -25,0 -41,-33 -41,-84 0,-28 -5,-57 -12,-64 -8,-8 -8,-15 2,-27 12,-14 15,-14 31,1 27,24 63,15 67,-18 3,-26 7,-28 46,-28 41,0 42,1 80,66 30,52 46,70 79,85 52,23 95,24 119,2 17,-16 20,-16 35,0 16,16 14,20 -36,71 -42,42 -64,56 -110,69 -32,9 -64,23 -71,32 -16,19 -30,19 -60,-2 z"
       id="path10-3"
       style="fill:#008000" /><path
       d="m 2125,6399 -57,-82 11,-84 c 6,-46 13,-88 16,-93 17,-28 25,0 25,91 v 100 l 40,59 c 39,57 50,90 31,90 -5,0 -35,-37 -66,-81 z"
       id="path12-1"
       style="fill:#008000" /><path
       d="m 300,6394 c -11,-12 -10,-18 4,-32 16,-16 18,-16 31,2 11,14 12,23 4,33 -15,17 -24,16 -39,-3 z"
       id="path14"
       style="fill:#008000" /><path
       d="m 272,5858 c -19,-19 -15,-48 7,-48 20,0 37,32 26,50 -8,13 -18,13 -33,-2 z"
       id="path16"
       style="fill:#008000" /><path
       d="m 48,5275 c -15,-13 -33,-25 -40,-28 -23,-8 6,-42 40,-45 22,-2 34,3 46,20 37,52 1,93 -46,53 z"
       id="path18"
       style="fill:#008000" /><path
       d="m 7046,3349 c -22,-32 -21,-92 2,-112 10,-10 35,-17 55,-17 h 37 v 59 c 0,62 -8,75 -51,86 -21,5 -30,2 -43,-16 z"
       id="path20-6"
       style="fill:#008000" /><path
       d="m 3248,1956 c -10,-7 -18,-22 -18,-34 0,-11 -7,-23 -16,-26 -8,-3 -12,-10 -9,-16 9,-15 41,-12 55,5 7,9 28,23 47,32 44,21 41,47 -7,50 -19,2 -43,-3 -52,-11 z"
       id="path22-0"
       style="fill:#008000" /><path
       d="m 7233,1124 c -46,-17 -51,-25 -28,-44 9,-8 15,-29 15,-56 0,-43 0,-43 69,-83 81,-47 101,-56 159,-65 40,-6 42,-5 42,18 0,16 -17,40 -55,74 -56,52 -64,69 -42,91 10,10 9,14 -5,22 -10,6 -18,16 -18,24 0,18 -7,22 -55,28 -24,4 -57,0 -82,-9 z"
       id="path24-7"
       style="fill:#008000" /></g></svg>
