<?xml version="1.0" encoding="UTF-8" standalone="no"?>
<svg
   width="100%"
   height="100%"
   viewBox="0 0 288 360"
   version="1.1"
   xml:space="preserve"
   style="fill-rule:evenodd;clip-rule:evenodd;stroke-linejoin:round;stroke-miterlimit:2;"
   id="svg79"
   sodipodi:docname="av-inbound.svg"
   inkscape:version="1.1 (c68e22c387, 2021-05-23)"
   xmlns:inkscape="http://www.inkscape.org/namespaces/inkscape"
   xmlns:sodipodi="http://sodipodi.sourceforge.net/DTD/sodipodi-0.dtd"
   xmlns="http://www.w3.org/2000/svg"
   xmlns:svg="http://www.w3.org/2000/svg"><defs
   id="defs83" /><sodipodi:namedview
   id="namedview81"
   pagecolor="#ffffff"
   bordercolor="#666666"
   borderopacity="1.0"
   inkscape:pageshadow="2"
   inkscape:pageopacity="0.0"
   inkscape:pagecheckerboard="0"
   showgrid="false"
   inkscape:zoom="1.4444444"
   inkscape:cx="143.65385"
   inkscape:cy="180.34615"
   inkscape:window-width="1366"
   inkscape:window-height="705"
   inkscape:window-x="-8"
   inkscape:window-y="-8"
   inkscape:window-maximized="1"
   inkscape:current-layer="svg79" />
    <g
   id="av-inbound"
   transform="matrix(0.250921,0,0,0.250921,107.867,234.158)">
        <g
   transform="matrix(-4.16667,0,0,4.16667,115.559,-84.8808)"
   id="g4">
            <path
   d="M-13.541,2.228L0.001,2.228L1.793,0L-15.334,0L-13.541,2.228Z"
   style="fill:rgb(44,43,41);fill-rule:nonzero;"
   id="path2" />
        </g>
        <g
   transform="matrix(-4.16667,0,0,4.16667,86.5558,-111.165)"
   id="g8">
            <path
   d="M-27.658,2.228L0,2.228L1.793,0L-29.451,0L-27.658,2.228Z"
   style="fill:rgb(44,43,41);fill-rule:nonzero;"
   id="path6" />
        </g>
        <g
   transform="matrix(-4.16667,0,0,4.16667,57.5525,-137.448)"
   id="g12">
            <path
   d="M-41.775,2.228L0,2.228L1.793,0L-43.568,0L-41.775,2.228Z"
   style="fill:rgb(44,43,41);fill-rule:nonzero;"
   id="path10" />
        </g>
        <g
   transform="matrix(4.16667,0,0,4.16667,-47.2483,333.052)"
   id="g16">
            <path
   d="M0,40.432L13.719,10.901L2.484,0"
   style="fill:rgb(44,43,41);fill-rule:nonzero;"
   id="path14" />
        </g>
        <g
   transform="matrix(0.340174,4.15276,4.15276,-0.340174,6.93432,373.442)"
   id="g20">
            <path
   d="M-11.973,-27.438L28.594,-27.438L29.574,-15.47L-10.52,-9.693L-11.973,-27.438Z"
   style="fill:rgb(94,95,96);fill-rule:nonzero;"
   id="path18" />
        </g>
        <g
   transform="matrix(4.16667,0,0,4.16667,335.106,333.052)"
   id="g24">
            <path
   d="M0,40.432L-13.72,10.901L-2.484,0"
   style="fill:rgb(44,43,41);fill-rule:nonzero;"
   id="path22" />
        </g>
        <g
   transform="matrix(-0.340276,4.15275,4.15275,0.340276,442.768,461.133)"
   id="g28">
            <path
   d="M-29.777,-12.995L10.79,-12.995L11.771,-24.961L-28.323,-30.739L-29.777,-12.995Z"
   style="fill:rgb(94,95,96);fill-rule:nonzero;"
   id="path26" />
        </g>
        <g
   transform="matrix(4.16667,0,0,4.16667,405.712,433.738)"
   id="g32">
            <path
   d="M0,-18.307L-1.737,-12.255L-4.355,-3.11L-6.093,2.942L-23.679,4.838L-47.745,7.438L-62.825,9.427L-81.238,7.438L-105.228,4.621L-119.562,2.942L-121.299,-3.11L-123.917,-12.255L-125.654,-18.307L-124.087,-27.734L-1.567,-27.734L0,-18.307Z"
   style="fill:rgb(229,225,219);fill-rule:nonzero;"
   id="path30" />
        </g>
        <g
   transform="matrix(4.16667,0,0,4.16667,307.05,453.482)"
   id="g36">
            <path
   d="M0,0.099L-24.066,2.7L-39.146,4.689L-57.559,2.7L-81.549,-0.118L-80.011,-4.59L-1.614,-4.59L0,0.099Z"
   style="fill:rgb(163,159,155);fill-rule:nonzero;"
   id="path34" />
        </g>
        <g
   transform="matrix(4.16667,0,0,4.16667,-92.4633,272.485)"
   id="g40">
            <path
   d="M0,41.641L-9.427,39.025L-10.161,35.592L-12.109,26.449L-12.115,26.425L-7.144,5.534L1.89,0L0.995,10.968L0,41.641Z"
   style="fill:rgb(229,225,219);fill-rule:nonzero;"
   id="path38" />
        </g>
        <g
   transform="matrix(-4.16667,0,0,4.16667,-142.92,382.685)"
   id="g44">
            <path
   d="M-7.578,9.144L-1.949,9.144L0,0L-4.432,0L-7.578,9.144Z"
   style="fill:rgb(250,187,32);fill-rule:nonzero;"
   id="path42" />
        </g>
        <g
   transform="matrix(4.16667,0,0,4.16667,380.463,272.485)"
   id="g48">
            <path
   d="M0,41.641L9.428,39.025L10.161,35.592L12.109,26.449L12.115,26.425L7.144,5.534L-1.928,0L-1.035,10.967L0,41.641Z"
   style="fill:rgb(229,225,219);fill-rule:nonzero;"
   id="path46" />
        </g>
        <g
   transform="matrix(4.16667,0,0,4.16667,399.348,382.685)"
   id="g52">
            <path
   d="M0,9.144L5.629,9.144L7.577,0L3.146,0L0,9.144Z"
   style="fill:rgb(250,187,32);fill-rule:nonzero;"
   id="path50" />
        </g>
        <g
   transform="matrix(4.16667,0,0,4.16667,379.963,11.4175)"
   id="g56">
            <path
   d="M0,84.799L-8.435,93.229L-104.74,93.229L-113.292,84.676L-107.569,14.685L-106.272,-1.21L-56.649,-8.43L-7.031,-1.21L-6.562,4.536L-6.456,5.81L-6.033,10.993L0,84.799Z"
   style="fill:rgb(41,45,80);fill-rule:nonzero;"
   id="path54" />
        </g>
        <g
   transform="matrix(4.16667,0,0,4.16667,353.063,340.538)"
   id="g60">
            <path
   d="M0,-73.179L-84.043,14.24L-98.284,14.24L-106.836,5.687L-101.113,-64.304L-99.816,-80.199L-50.193,-87.419L-0.575,-80.199L-0.105,-74.452L0,-73.179Z"
   style="fill:rgb(49,49,85);fill-rule:nonzero;"
   id="path58" />
        </g>
        <g
   transform="matrix(4.16667,0,0,4.16667,354.825,372.967)"
   id="g64">
            <path
   d="M0,-75.779L-79.025,6.457L-85.787,6.457L-0.528,-82.236L-0.423,-80.962L0,-75.779Z"
   style="fill:rgb(75,75,115);fill-rule:nonzero;"
   id="path62" />
        </g>
        <g
   transform="matrix(-1.35519,-3.94012,-3.94012,1.35519,299.047,320.346)"
   id="g68">
            <path
   d="M-17.458,-3.317L-7.792,-3.317L-3.389,9.484L-11.011,15.431L-17.458,-3.317Z"
   style="fill:rgb(57,188,213);fill-rule:nonzero;"
   id="path66" />
        </g>
        <g
   transform="matrix(1.35519,-3.94012,-3.94012,-1.35519,-3.36535,410.847)"
   id="g72">
            <path
   d="M2.367,12.458L12.033,12.458L16.436,-0.343L8.814,-6.29L2.367,12.458Z"
   style="fill:rgb(57,188,213);fill-rule:nonzero;"
   id="path70" />
        </g>
        <g
   transform="matrix(1.35519,-3.94012,-3.94012,-1.35519,148.515,10.7025)"
   id="g76">
            <path
   d="M2.367,12.458L12.033,12.458L16.436,-0.343L8.814,-6.29L2.367,12.458Z"
   style="fill:rgb(44,43,41);fill-rule:nonzero;"
   id="path74" />
        </g>
    </g>
<g
   transform="matrix(0.00484053,0,0,-0.00453444,149.62571,314.80224)"
   fill="#000000"
   stroke="none"
   id="g26"
   style="fill:#e3dbdb"><path
     d="m 7610,12773 c -48,-16 -79,-20 -117,-16 -49,5 -57,3 -127,-41 -126,-78 -185,-134 -201,-189 -13,-45 -147,-245 -184,-275 -16,-13 -175,-65 -331,-107 -58,-16 -140,-29 -211,-33 l -115,-8 -110,-61 c -60,-34 -193,-93 -294,-132 -101,-39 -193,-77 -204,-85 -12,-7 -57,-78 -101,-157 -43,-79 -151,-251 -239,-382 l -160,-238 -7,-123 c -8,-149 -16,-164 -110,-209 l -69,-32 6,-46 c 13,-99 -39,-138 -193,-147 l -92,-5 -16,-33 c -8,-18 -18,-47 -21,-66 -9,-47 -47,-83 -110,-103 -69,-22 -91,-53 -169,-235 -31,-74 -87,-191 -123,-259 -57,-105 -86,-144 -190,-260 -112,-123 -129,-147 -178,-251 -35,-74 -70,-131 -98,-160 -41,-43 -43,-49 -54,-132 -12,-99 -35,-150 -96,-217 -23,-25 -54,-65 -70,-88 -16,-23 -43,-51 -61,-61 -26,-16 -33,-28 -38,-63 -3,-24 -27,-86 -53,-138 -41,-83 -61,-109 -158,-207 -61,-61 -124,-121 -139,-132 -25,-18 -33,-39 -62,-156 -19,-74 -44,-154 -55,-178 -14,-26 -92,-112 -204,-223 -172,-171 -185,-187 -257,-310 -115,-195 -129,-227 -129,-285 0,-88 -21,-192 -57,-285 -37,-92 -43,-143 -28,-222 7,-37 3,-49 -29,-106 -20,-36 -36,-72 -36,-80 0,-9 16,-31 35,-49 32,-30 36,-40 45,-114 12,-93 0,-261 -25,-370 -49,-214 -124,-452 -175,-554 -32,-64 -70,-181 -70,-217 0,-6 15,-10 33,-9 27,1 33,-3 35,-23 3,-18 -11,-37 -62,-85 -71,-66 -70,-65 -67,-209 1,-45 30,-77 68,-77 16,0 51,-11 78,-24 44,-20 83,-49 252,-192 l 43,-35 v -95 c 0,-112 29,-209 81,-274 32,-39 33,-43 33,-139 1,-94 2,-100 35,-152 83,-130 102,-166 131,-241 40,-106 45,-143 26,-197 -14,-41 -13,-48 6,-105 50,-149 79,-192 222,-325 26,-23 73,-77 105,-120 79,-103 91,-112 219,-180 61,-33 166,-96 233,-141 67,-45 144,-90 173,-100 183,-63 348,-194 415,-332 17,-35 39,-96 49,-136 15,-59 27,-81 60,-115 22,-23 52,-64 66,-92 47,-95 142,-434 152,-548 l 7,-67 -57,-55 c -69,-68 -71,-86 -11,-145 65,-64 75,-90 63,-179 -10,-87 -7,-101 25,-101 19,0 26,7 30,29 4,17 19,44 35,62 26,29 35,33 80,32 43,-1 68,-10 149,-56 87,-49 163,-79 163,-63 0,3 -7,31 -15,63 -17,63 -12,123 12,161 8,13 40,49 71,80 57,57 122,169 122,210 0,11 -5,33 -11,49 -6,15 -19,68 -29,117 -16,74 -17,103 -9,173 5,46 14,158 19,248 9,158 8,166 -13,212 -16,36 -21,66 -21,118 1,77 4,88 109,320 37,83 114,259 171,392 93,220 107,248 158,305 38,42 54,67 50,78 -4,8 -12,32 -17,52 -21,72 -13,79 235,227 302,181 321,196 379,301 27,47 51,91 55,99 4,8 -4,34 -19,62 -15,26 -27,52 -27,57 0,23 54,72 105,96 92,42 139,95 209,235 34,69 99,183 144,253 72,110 125,212 185,350 12,26 32,46 74,71 47,27 58,38 56,58 -1,13 -2,83 -3,155 -2,142 9,186 55,234 13,14 47,73 76,130 28,58 67,130 88,160 39,57 103,227 146,390 18,64 29,140 35,235 10,154 15,178 66,297 31,72 34,89 32,157 -3,69 0,83 33,156 28,60 38,99 43,155 3,48 20,118 44,191 22,64 45,140 51,170 7,30 25,93 41,140 30,91 80,312 101,441 9,62 17,84 40,108 51,53 51,125 -1,184 -25,28 -30,43 -30,83 0,107 34,170 123,223 47,28 58,53 46,111 -24,128 -7,177 92,256 237,189 306,295 318,484 6,93 10,112 34,148 15,22 27,46 27,53 0,31 23,90 44,115 13,15 26,40 30,56 3,15 21,44 40,65 46,52 56,74 56,127 0,74 36,125 88,125 11,0 23,7 26,16 20,52 -14,240 -78,426 -25,73 -49,167 -54,209 -6,44 -19,93 -33,120 -48,90 -19,304 61,458 109,209 363,440 473,429 31,-3 32,-2 39,42 9,65 3,80 -31,74 -38,-8 -79,35 -131,137 l -40,81 v 125 c 0,111 -2,124 -16,119 -41,-16 -208,-36 -297,-36 -128,0 -234,22 -332,70 -69,34 -101,60 -242,197 -147,144 -163,162 -169,201 -7,42 -8,43 -108,95 l -101,52 z"
     id="path2-0"
     style="fill:#e3dbdb" /><path
     d="m 9089,11169 c -14,-27 4,-42 41,-33 33,7 34,9 20,33 -14,27 -46,27 -61,0 z"
     id="path4"
     style="fill:#e3dbdb" /><path
     d="m 521,6966 c -18,-19 -21,-30 -15,-49 10,-29 110,-111 124,-102 6,3 10,32 10,64 0,55 -2,60 -34,85 -43,32 -56,33 -85,2 z"
     id="path6-7"
     style="fill:#e3dbdb" /><path
     d="m 333,6858 c -11,-14 -19,-43 -35,-133 -13,-71 -52,-119 -110,-137 -49,-15 -39,-28 22,-28 43,0 53,4 85,37 19,20 35,46 35,57 0,12 7,30 15,40 9,12 15,42 15,76 0,31 5,61 11,67 13,13 4,33 -15,33 -8,0 -18,-6 -23,-12 z"
     id="path8"
     style="fill:#e3dbdb" /><path
     d="m 640,6713 c -14,-9 -46,-36 -72,-60 -26,-24 -52,-43 -57,-43 -25,0 -41,-33 -41,-84 0,-28 -5,-57 -12,-64 -8,-8 -8,-15 2,-27 12,-14 15,-14 31,1 27,24 63,15 67,-18 3,-26 7,-28 46,-28 41,0 42,1 80,66 30,52 46,70 79,85 52,23 95,24 119,2 17,-16 20,-16 35,0 16,16 14,20 -36,71 -42,42 -64,56 -110,69 -32,9 -64,23 -71,32 -16,19 -30,19 -60,-2 z"
     id="path10-1"
     style="fill:#e3dbdb" /><path
     d="m 2125,6399 -57,-82 11,-84 c 6,-46 13,-88 16,-93 17,-28 25,0 25,91 v 100 l 40,59 c 39,57 50,90 31,90 -5,0 -35,-37 -66,-81 z"
     id="path12"
     style="fill:#e3dbdb" /><path
     d="m 300,6394 c -11,-12 -10,-18 4,-32 16,-16 18,-16 31,2 11,14 12,23 4,33 -15,17 -24,16 -39,-3 z"
     id="path14-4"
     style="fill:#e3dbdb" /><path
     d="m 272,5858 c -19,-19 -15,-48 7,-48 20,0 37,32 26,50 -8,13 -18,13 -33,-2 z"
     id="path16"
     style="fill:#e3dbdb" /><path
     d="m 48,5275 c -15,-13 -33,-25 -40,-28 -23,-8 6,-42 40,-45 22,-2 34,3 46,20 37,52 1,93 -46,53 z"
     id="path18-2"
     style="fill:#e3dbdb" /><path
     d="m 7046,3349 c -22,-32 -21,-92 2,-112 10,-10 35,-17 55,-17 h 37 v 59 c 0,62 -8,75 -51,86 -21,5 -30,2 -43,-16 z"
     id="path20"
     style="fill:#e3dbdb" /><path
     d="m 3248,1956 c -10,-7 -18,-22 -18,-34 0,-11 -7,-23 -16,-26 -8,-3 -12,-10 -9,-16 9,-15 41,-12 55,5 7,9 28,23 47,32 44,21 41,47 -7,50 -19,2 -43,-3 -52,-11 z"
     id="path22-4"
     style="fill:#e3dbdb" /><path
     d="m 7233,1124 c -46,-17 -51,-25 -28,-44 9,-8 15,-29 15,-56 0,-43 0,-43 69,-83 81,-47 101,-56 159,-65 40,-6 42,-5 42,18 0,16 -17,40 -55,74 -56,52 -64,69 -42,91 10,10 9,14 -5,22 -10,6 -18,16 -18,24 0,18 -7,22 -55,28 -24,4 -57,0 -82,-9 z"
     id="path24"
     style="fill:#e3dbdb" /></g></svg>
