<?xml version="1.0" encoding="UTF-8" standalone="no"?>
<svg
   width="100%"
   height="100%"
   viewBox="0 0 192 360"
   version="1.1"
   xml:space="preserve"
   style="fill-rule:evenodd;clip-rule:evenodd;stroke-linejoin:round;stroke-miterlimit:1.41421;"
   id="svg94"
   sodipodi:docname="car-outbound-turn-signal-left.svg"
   inkscape:version="1.1 (c68e22c387, 2021-05-23)"
   xmlns:inkscape="http://www.inkscape.org/namespaces/inkscape"
   xmlns:sodipodi="http://sodipodi.sourceforge.net/DTD/sodipodi-0.dtd"
   xmlns="http://www.w3.org/2000/svg"
   xmlns:svg="http://www.w3.org/2000/svg"><defs
   id="defs98" /><sodipodi:namedview
   id="namedview96"
   pagecolor="#ffffff"
   bordercolor="#666666"
   borderopacity="1.0"
   inkscape:pageshadow="2"
   inkscape:pageopacity="0.0"
   inkscape:pagecheckerboard="0"
   showgrid="false"
   inkscape:zoom="1.4444444"
   inkscape:cx="95.884615"
   inkscape:cy="180.34615"
   inkscape:window-width="1366"
   inkscape:window-height="705"
   inkscape:window-x="-8"
   inkscape:window-y="-8"
   inkscape:window-maximized="1"
   inkscape:current-layer="svg94" />
    <g
   transform="matrix(1,0,0,1,-48,0)"
   id="g92">
        <g
   id="car-outbound"
   transform="matrix(1,0,0,1,71.9798,166.584)">
            <g
   transform="matrix(1,0,0,1,0,-10.3296)"
   id="g4">
                <path
   d="M127.589,121.742L141.24,119.292L144.04,112.013L128.779,109.351L127.52,116.072L125.199,118.411L127.589,121.742Z"
   style="fill:rgb(228,226,220);fill-rule:nonzero;"
   id="path2" />
            </g>
            <g
   transform="matrix(1,0,0,1,0,-10.3296)"
   id="g8">
                <path
   d="M127.604,121.746L125.277,118.252L127.536,116.067L128.805,109.37L130.102,109.578L136.723,120.08L127.604,121.746L127.604,121.746Z"
   style="fill:rgb(193,190,187);fill-rule:nonzero;"
   id="path6" />
            </g>
            <g
   transform="matrix(1,0,0,1,0,-10.3296)"
   id="g12">
                <path
   d="M130.896,111.731L129.916,118.872L139.532,117.723L141.032,113.64L130.896,111.731Z"
   style="fill:rgb(42,43,42);fill-rule:nonzero;"
   id="path10" />
            </g>
            <g
   transform="matrix(1,0,0,1,0,-10.3296)"
   id="g16">
                <path
   d="M0,111.919L2.8,119.198L16.451,121.648L18.841,118.317L16.52,115.978L15.26,109.258L0,111.919Z"
   style="fill:rgb(228,226,220);fill-rule:nonzero;"
   id="path14" />
            </g>
            <g
   transform="matrix(1,0,0,1,0,-10.3296)"
   id="g20">
                <path
   d="M16.467,121.646L18.794,118.152L16.535,115.967L15.266,109.27L13.969,109.478L7.328,120.009L16.467,121.646Z"
   style="fill:rgb(193,190,187);fill-rule:nonzero;"
   id="path18" />
            </g>
            <g
   transform="matrix(1,0,0,1,0,-10.3296)"
   id="g24">
                <path
   d="M13.145,111.638L14.125,118.779L4.509,117.63L3.009,113.547L13.145,111.638Z"
   style="fill:rgb(42,43,42);fill-rule:nonzero;"
   id="path22" />
            </g>
            <path
   d="M3.89,173.884L5.57,193.416L24.891,193.416L28.882,173.674L3.89,173.884L3.89,173.884Z"
   style="fill:rgb(92,94,95);fill-rule:nonzero;"
   id="path26" />
            <path
   d="M24.052,173.674L24.892,193.416L30.884,173.674L24.052,173.674Z"
   style="fill:rgb(42,43,42);fill-rule:nonzero;"
   id="path28" />
            <path
   d="M117.358,193.416L136.708,193.416L138.388,174.095L113.395,173.884L117.358,193.416Z"
   style="fill:rgb(92,94,95);fill-rule:nonzero;"
   id="path30" />
            <path
   d="M111.394,173.884L117.358,193.416L118.227,173.884L111.394,173.884Z"
   style="fill:rgb(42,43,42);fill-rule:nonzero;"
   id="path32" />
            <g
   transform="matrix(1,-3.22153e-17,-3.22153e-17,1.13153,0,-22.926)"
   id="g36">
                <path
   d="M29.468,85.928L1.35,135.269L3.869,173.884L5.759,173.89L138.396,174.304L142.192,135.508L114.687,85.928L29.468,85.928L29.468,85.928Z"
   style="fill:rgb(228,226,220);fill-rule:nonzero;"
   id="path34" />
            </g>
            <g
   transform="matrix(1,0,0,1,0,-4.6582)"
   id="g40">
                <path
   d="M1.345,135.384L2.179,149.968L20.691,149.97L21.632,135.468L1.345,135.384L1.345,135.384Z"
   style="fill:rgb(174,32,37);fill-rule:nonzero;"
   id="path38" />
            </g>
            <g
   transform="matrix(1,0,0,1,0,-4.6582)"
   id="g44">
                <path
   d="M25.882,135.426L32.923,145.886L28.468,150.055L20.697,149.95L21.752,135.487L25.882,135.426L25.882,135.426Z"
   style="fill:rgb(246,241,225);fill-rule:nonzero;"
   id="path42" />
            </g>
            <g
   transform="matrix(1,0,0,1,0,-4.6582)"
   id="g48">
                <path
   d="M142.191,135.425L140.942,149.926L122.76,149.97L121.71,135.479L142.191,135.425L142.191,135.425Z"
   style="fill:rgb(174,32,37);fill-rule:nonzero;"
   id="path46" />
            </g>
            <g
   transform="matrix(1,0,0,1,0,-4.6582)"
   id="g52">
                <path
   d="M117.706,135.478L111.697,145.925L116.114,149.969L122.78,149.925L121.697,135.466L117.706,135.478Z"
   style="fill:rgb(246,241,225);fill-rule:nonzero;"
   id="path50" />
            </g>
            <g
   transform="matrix(1,-8.52366e-17,-8.52366e-17,1.348,1.39815e-14,-42.2467)"
   id="g56">
                <path
   d="M34.958,90.982L20.329,115.477L122.254,115.477L109.584,90.982L34.958,90.982L34.958,90.982Z"
   style="fill:rgb(49,49,86);fill-rule:nonzero;"
   id="path54" />
            </g>
            <path
   d="M43.968,171.364C43.968,174.147 41.711,176.405 38.928,176.405C36.145,176.405 33.887,174.147 33.887,171.364C33.887,168.581 36.145,166.324 38.928,166.324C41.711,166.324 43.968,168.581 43.968,171.364"
   style="fill:rgb(42,43,42);fill-rule:nonzero;"
   id="path58" />
            <g
   transform="matrix(1,0,0,1,0,-4.6582)"
   id="g62">
                <path
   d="M32.922,145.804L28.468,150.075L116.072,149.97L111.655,145.804L32.922,145.804L32.922,145.804Z"
   style="fill:rgb(193,190,187);fill-rule:nonzero;"
   id="path60" />
            </g>
            <g
   transform="matrix(1,0,0,1,0,-4.1445)"
   id="g66">
                <path
   d="M55.3,156.916L52.264,167.561L87.671,167.561L84.67,157.046L55.3,156.916L55.3,156.916Z"
   style="fill:rgb(244,242,237);fill-rule:nonzero;"
   id="path64" />
            </g>
            <g
   transform="matrix(1.35601,0,0,1.35601,-9.08601,-43.1939)"
   id="g70">
                <path
   d="M32.477,91.143L21.692,115.493L36.423,115.493L60.694,91.143L32.477,91.143L32.477,91.143Z"
   style="fill:rgb(15,35,66);fill-opacity:0.300003;fill-rule:nonzero;"
   id="path68" />
            </g>
            <path
   d="M109.62,80.397L105.969,80.397L72.75,113.417L122.254,113.417L109.62,80.397L109.62,80.397Z"
   style="fill:rgb(10,23,35);fill-opacity:0.300003;fill-rule:nonzero;"
   id="path72" />
            <g
   transform="matrix(1.34973,0,0,1.34973,-25.576,-42.4401)"
   id="g76">
                <path
   d="M73.249,115.472L97.46,91.008L91.32,91.008L67.526,115.472L73.249,115.472L73.249,115.472Z"
   style="fill:rgb(73,74,114);fill-rule:nonzero;"
   id="path74" />
            </g>
        </g>
        <g
   id="car-outbound-turn-signal-left"
   transform="matrix(1,0,0,1,-67.6539,162.046)">
            <g
   transform="matrix(1,0,0,1,-270.158,0)"
   id="g81">
                <path
   d="M411.131,135.384L411.965,149.968L430.477,149.97L431.418,135.468L411.131,135.384Z"
   style="fill:rgb(174,32,37);fill-rule:nonzero;"
   id="path79" />
            </g>
            <g
   transform="matrix(1,0,0,1,-270.158,0)"
   id="g85">
                <path
   d="M411.174,135.381L411.993,149.953L430.486,149.975L430.065,155.328L405.455,155.834L403.666,130.626L431.716,130.626L431.419,135.475L411.174,135.381Z"
   style="fill:rgb(173,33,38);fill-opacity:0.350006;fill-rule:nonzero;"
   id="path83" />
            </g>
            <g
   transform="matrix(1,0,0,1,-270.158,0)"
   id="g89">
                <path
   d="M403.648,130.625L405.44,155.833L429.981,155.327L429.627,160.665L398.827,161.827L396.285,125.416L432.032,125.333L431.72,130.625L403.648,130.625Z"
   style="fill:rgb(173,33,38);fill-opacity:0.199997;fill-rule:nonzero;"
   id="path87" />
            </g>
        </g>
    </g>
<g
   transform="matrix(0.00302638,0,0,-0.00279741,114.41211,341.62013)"
   fill="#000000"
   stroke="none"
   id="g26"
   style="fill:#008000"><path
     d="m 7610,12773 c -48,-16 -79,-20 -117,-16 -49,5 -57,3 -127,-41 -126,-78 -185,-134 -201,-189 -13,-45 -147,-245 -184,-275 -16,-13 -175,-65 -331,-107 -58,-16 -140,-29 -211,-33 l -115,-8 -110,-61 c -60,-34 -193,-93 -294,-132 -101,-39 -193,-77 -204,-85 -12,-7 -57,-78 -101,-157 -43,-79 -151,-251 -239,-382 l -160,-238 -7,-123 c -8,-149 -16,-164 -110,-209 l -69,-32 6,-46 c 13,-99 -39,-138 -193,-147 l -92,-5 -16,-33 c -8,-18 -18,-47 -21,-66 -9,-47 -47,-83 -110,-103 -69,-22 -91,-53 -169,-235 -31,-74 -87,-191 -123,-259 -57,-105 -86,-144 -190,-260 -112,-123 -129,-147 -178,-251 -35,-74 -70,-131 -98,-160 -41,-43 -43,-49 -54,-132 -12,-99 -35,-150 -96,-217 -23,-25 -54,-65 -70,-88 -16,-23 -43,-51 -61,-61 -26,-16 -33,-28 -38,-63 -3,-24 -27,-86 -53,-138 -41,-83 -61,-109 -158,-207 -61,-61 -124,-121 -139,-132 -25,-18 -33,-39 -62,-156 -19,-74 -44,-154 -55,-178 -14,-26 -92,-112 -204,-223 -172,-171 -185,-187 -257,-310 -115,-195 -129,-227 -129,-285 0,-88 -21,-192 -57,-285 -37,-92 -43,-143 -28,-222 7,-37 3,-49 -29,-106 -20,-36 -36,-72 -36,-80 0,-9 16,-31 35,-49 32,-30 36,-40 45,-114 12,-93 0,-261 -25,-370 -49,-214 -124,-452 -175,-554 -32,-64 -70,-181 -70,-217 0,-6 15,-10 33,-9 27,1 33,-3 35,-23 3,-18 -11,-37 -62,-85 -71,-66 -70,-65 -67,-209 1,-45 30,-77 68,-77 16,0 51,-11 78,-24 44,-20 83,-49 252,-192 l 43,-35 v -95 c 0,-112 29,-209 81,-274 32,-39 33,-43 33,-139 1,-94 2,-100 35,-152 83,-130 102,-166 131,-241 40,-106 45,-143 26,-197 -14,-41 -13,-48 6,-105 50,-149 79,-192 222,-325 26,-23 73,-77 105,-120 79,-103 91,-112 219,-180 61,-33 166,-96 233,-141 67,-45 144,-90 173,-100 183,-63 348,-194 415,-332 17,-35 39,-96 49,-136 15,-59 27,-81 60,-115 22,-23 52,-64 66,-92 47,-95 142,-434 152,-548 l 7,-67 -57,-55 c -69,-68 -71,-86 -11,-145 65,-64 75,-90 63,-179 -10,-87 -7,-101 25,-101 19,0 26,7 30,29 4,17 19,44 35,62 26,29 35,33 80,32 43,-1 68,-10 149,-56 87,-49 163,-79 163,-63 0,3 -7,31 -15,63 -17,63 -12,123 12,161 8,13 40,49 71,80 57,57 122,169 122,210 0,11 -5,33 -11,49 -6,15 -19,68 -29,117 -16,74 -17,103 -9,173 5,46 14,158 19,248 9,158 8,166 -13,212 -16,36 -21,66 -21,118 1,77 4,88 109,320 37,83 114,259 171,392 93,220 107,248 158,305 38,42 54,67 50,78 -4,8 -12,32 -17,52 -21,72 -13,79 235,227 302,181 321,196 379,301 27,47 51,91 55,99 4,8 -4,34 -19,62 -15,26 -27,52 -27,57 0,23 54,72 105,96 92,42 139,95 209,235 34,69 99,183 144,253 72,110 125,212 185,350 12,26 32,46 74,71 47,27 58,38 56,58 -1,13 -2,83 -3,155 -2,142 9,186 55,234 13,14 47,73 76,130 28,58 67,130 88,160 39,57 103,227 146,390 18,64 29,140 35,235 10,154 15,178 66,297 31,72 34,89 32,157 -3,69 0,83 33,156 28,60 38,99 43,155 3,48 20,118 44,191 22,64 45,140 51,170 7,30 25,93 41,140 30,91 80,312 101,441 9,62 17,84 40,108 51,53 51,125 -1,184 -25,28 -30,43 -30,83 0,107 34,170 123,223 47,28 58,53 46,111 -24,128 -7,177 92,256 237,189 306,295 318,484 6,93 10,112 34,148 15,22 27,46 27,53 0,31 23,90 44,115 13,15 26,40 30,56 3,15 21,44 40,65 46,52 56,74 56,127 0,74 36,125 88,125 11,0 23,7 26,16 20,52 -14,240 -78,426 -25,73 -49,167 -54,209 -6,44 -19,93 -33,120 -48,90 -19,304 61,458 109,209 363,440 473,429 31,-3 32,-2 39,42 9,65 3,80 -31,74 -38,-8 -79,35 -131,137 l -40,81 v 125 c 0,111 -2,124 -16,119 -41,-16 -208,-36 -297,-36 -128,0 -234,22 -332,70 -69,34 -101,60 -242,197 -147,144 -163,162 -169,201 -7,42 -8,43 -108,95 l -101,52 z"
     id="path2-0"
     style="fill:#008000" /><path
     d="m 9089,11169 c -14,-27 4,-42 41,-33 33,7 34,9 20,33 -14,27 -46,27 -61,0 z"
     id="path4"
     style="fill:#008000" /><path
     d="m 521,6966 c -18,-19 -21,-30 -15,-49 10,-29 110,-111 124,-102 6,3 10,32 10,64 0,55 -2,60 -34,85 -43,32 -56,33 -85,2 z"
     id="path6-5"
     style="fill:#008000" /><path
     d="m 333,6858 c -11,-14 -19,-43 -35,-133 -13,-71 -52,-119 -110,-137 -49,-15 -39,-28 22,-28 43,0 53,4 85,37 19,20 35,46 35,57 0,12 7,30 15,40 9,12 15,42 15,76 0,31 5,61 11,67 13,13 4,33 -15,33 -8,0 -18,-6 -23,-12 z"
     id="path8"
     style="fill:#008000" /><path
     d="m 640,6713 c -14,-9 -46,-36 -72,-60 -26,-24 -52,-43 -57,-43 -25,0 -41,-33 -41,-84 0,-28 -5,-57 -12,-64 -8,-8 -8,-15 2,-27 12,-14 15,-14 31,1 27,24 63,15 67,-18 3,-26 7,-28 46,-28 41,0 42,1 80,66 30,52 46,70 79,85 52,23 95,24 119,2 17,-16 20,-16 35,0 16,16 14,20 -36,71 -42,42 -64,56 -110,69 -32,9 -64,23 -71,32 -16,19 -30,19 -60,-2 z"
     id="path10-6"
     style="fill:#008000" /><path
     d="m 2125,6399 -57,-82 11,-84 c 6,-46 13,-88 16,-93 17,-28 25,0 25,91 v 100 l 40,59 c 39,57 50,90 31,90 -5,0 -35,-37 -66,-81 z"
     id="path12"
     style="fill:#008000" /><path
     d="m 300,6394 c -11,-12 -10,-18 4,-32 16,-16 18,-16 31,2 11,14 12,23 4,33 -15,17 -24,16 -39,-3 z"
     id="path14-9"
     style="fill:#008000" /><path
     d="m 272,5858 c -19,-19 -15,-48 7,-48 20,0 37,32 26,50 -8,13 -18,13 -33,-2 z"
     id="path16"
     style="fill:#008000" /><path
     d="m 48,5275 c -15,-13 -33,-25 -40,-28 -23,-8 6,-42 40,-45 22,-2 34,3 46,20 37,52 1,93 -46,53 z"
     id="path18-2"
     style="fill:#008000" /><path
     d="m 7046,3349 c -22,-32 -21,-92 2,-112 10,-10 35,-17 55,-17 h 37 v 59 c 0,62 -8,75 -51,86 -21,5 -30,2 -43,-16 z"
     id="path20"
     style="fill:#008000" /><path
     d="m 3248,1956 c -10,-7 -18,-22 -18,-34 0,-11 -7,-23 -16,-26 -8,-3 -12,-10 -9,-16 9,-15 41,-12 55,5 7,9 28,23 47,32 44,21 41,47 -7,50 -19,2 -43,-3 -52,-11 z"
     id="path22-7"
     style="fill:#008000" /><path
     d="m 7233,1124 c -46,-17 -51,-25 -28,-44 9,-8 15,-29 15,-56 0,-43 0,-43 69,-83 81,-47 101,-56 159,-65 40,-6 42,-5 42,18 0,16 -17,40 -55,74 -56,52 -64,69 -42,91 10,10 9,14 -5,22 -10,6 -18,16 -18,24 0,18 -7,22 -55,28 -24,4 -57,0 -82,-9 z"
     id="path24"
     style="fill:#008000" /></g></svg>
