<?xml version="1.0" encoding="UTF-8" standalone="no"?>
<svg
   width="100%"
   height="100%"
   viewBox="0 0 336 144"
   version="1.1"
   xml:space="preserve"
   style="fill-rule:evenodd;clip-rule:evenodd;stroke-linejoin:round;stroke-miterlimit:1.41421;"
   id="svg183"
   sodipodi:docname="car-angled-rear-left.svg"
   inkscape:version="1.1 (c68e22c387, 2021-05-23)"
   xmlns:inkscape="http://www.inkscape.org/namespaces/inkscape"
   xmlns:sodipodi="http://sodipodi.sourceforge.net/DTD/sodipodi-0.dtd"
   xmlns="http://www.w3.org/2000/svg"
   xmlns:svg="http://www.w3.org/2000/svg"><defs
   id="defs187" /><sodipodi:namedview
   id="namedview185"
   pagecolor="#ffffff"
   bordercolor="#666666"
   borderopacity="1.0"
   inkscape:pageshadow="2"
   inkscape:pageopacity="0.0"
   inkscape:pagecheckerboard="0"
   showgrid="false"
   inkscape:zoom="3.3422619"
   inkscape:cx="168"
   inkscape:cy="71.957257"
   inkscape:window-width="1366"
   inkscape:window-height="705"
   inkscape:window-x="-8"
   inkscape:window-y="-8"
   inkscape:window-maximized="1"
   inkscape:current-layer="svg183" />
    <g
   id="car-angled-rear-left"
   transform="matrix(1,0,0,1,-1256,-628.493)">
        <g
   transform="matrix(-1,0,0,1,2834.35,13.4928)"
   id="g4">
            <path
   d="M1512.4,718C1504.2,718 1498.8,727.2 1500.5,738.5C1502.2,749.8 1510.2,759 1518.4,759C1524.4,759 1531.4,759 1531.4,759C1531.9,756.4 1530.7,741.6 1530.3,738.5C1528.7,727.2 1520.7,718 1512.4,718Z"
   style="fill:rgb(42,43,42);fill-rule:nonzero;"
   id="path2" />
        </g>
        <g
   transform="matrix(-1,0,0,1,2834.35,13.4928)"
   id="g8">
            <path
   d="M1522.7,718C1514.5,718 1507.1,727.2 1506.1,738.5C1505.2,749.8 1511.1,759 1519.4,759C1525.4,759 1532.4,759 1532.4,759C1533.5,756.4 1535.7,741.6 1535.9,738.5C1536.9,727.2 1531,718 1522.7,718Z"
   style="fill:rgb(91,94,94);fill-rule:nonzero;"
   id="path6" />
        </g>
        <g
   transform="matrix(-1,0,0,1,2834.35,13.4928)"
   id="g12">
            <path
   d="M1441.5,718C1432.1,718 1424.5,727.2 1424.4,738.5C1424.4,749.8 1432,759 1441.5,759C1448.4,759 1456.4,759 1456.4,759C1457.4,756.4 1458.5,741.6 1458.5,738.5C1458.6,727.2 1450.9,718 1441.5,718Z"
   style="fill:rgb(91,94,94);fill-rule:nonzero;"
   id="path10" />
        </g>
        <g
   transform="matrix(-1,0,0,1,2834.35,13.4928)"
   id="g16">
            <rect
   x="1378"
   y="711"
   width="176"
   height="28"
   style="fill:rgb(91,94,94);"
   id="rect14" />
        </g>
        <g
   transform="matrix(-0.1526,-0.9883,-0.9883,0.1526,2263.79,2155.87)"
   id="g20">
            <ellipse
   cx="1534.6"
   cy="738.5"
   rx="20.6"
   ry="14.4"
   style="fill:rgb(42,43,42);"
   id="ellipse18" />
        </g>
        <g
   transform="matrix(-1,0,0,1,2834.35,13.4928)"
   id="g24">
            <path
   d="M1458.3,718C1449.2,718 1441.1,727.2 1440.1,738.5C1439.1,749.8 1445.6,759 1454.7,759C1463.8,759 1471.9,749.8 1472.9,738.5C1473.9,727.2 1467.4,718 1458.3,718Z"
   style="fill:rgb(42,43,42);fill-rule:nonzero;"
   id="path22" />
        </g>
        <g
   transform="matrix(-1,0,0,1,2834.35,13.4928)"
   id="g28">
            <path
   d="M1308.3,718C1299.2,718 1291.1,727.2 1290.1,738.5C1289.1,749.8 1295.6,759 1304.7,759C1311.3,759 1319,759 1319,759C1320.2,756.4 1322.6,741.6 1322.9,738.5C1323.9,727.2 1317.4,718 1308.3,718Z"
   style="fill:rgb(91,94,94);fill-rule:nonzero;"
   id="path26" />
        </g>
        <g
   transform="matrix(-1,0,0,1,2834.35,13.4928)"
   id="g32">
            <path
   d="M1377.3,718C1369.1,718 1363.7,727.2 1365.4,738.5C1367.1,749.8 1375.1,759 1383.3,759C1389.3,759 1396.3,759 1396.3,759C1396.8,756.4 1395.6,741.6 1395.2,738.5C1393.6,727.2 1385.6,718 1377.3,718Z"
   style="fill:rgb(42,43,42);fill-rule:nonzero;"
   id="path30" />
        </g>
        <g
   transform="matrix(-1,0,0,1,2834.35,13.4928)"
   id="g36">
            <path
   d="M1387.6,718C1379.4,718 1372,727.2 1371,738.5C1370.1,749.8 1376,759 1384.3,759C1390.3,759 1397.3,759 1397.3,759C1398.4,756.4 1400.6,741.6 1400.8,738.5C1401.8,727.2 1395.9,718 1387.6,718Z"
   style="fill:rgb(91,94,94);fill-rule:nonzero;"
   id="path34" />
        </g>
        <g
   transform="matrix(-1,0,0,1,2834.35,13.4928)"
   id="g40">
            <path
   d="M1322.3,718C1313.2,718 1305.1,727.2 1304.1,738.5C1303.1,749.8 1309.6,759 1318.7,759C1327.8,759 1335.9,749.8 1336.9,738.5C1337.9,727.2 1331.4,718 1322.3,718Z"
   style="fill:rgb(42,43,42);fill-rule:nonzero;"
   id="path38" />
        </g>
        <g
   transform="matrix(-0.1526,-0.9883,-0.9883,0.1526,2379.04,2021.46)"
   id="g44">
            <ellipse
   cx="1398.6"
   cy="738.5"
   rx="20.6"
   ry="14.4"
   style="fill:rgb(42,43,42);"
   id="ellipse42" />
        </g>
        <g
   id="rims">
            <g
   transform="matrix(-0.1526,-0.9883,-0.9883,0.1526,2379.04,2021.46)"
   id="g48">
                <ellipse
   cx="1398.6"
   cy="738.5"
   rx="13.1"
   ry="9.2"
   style="fill:rgb(243,241,237);"
   id="ellipse46" />
            </g>
            <g
   transform="matrix(-0.1526,-0.9883,-0.9883,0.1526,2263.79,2155.87)"
   id="g52">
                <ellipse
   cx="1534.6"
   cy="738.5"
   rx="13.1"
   ry="9.2"
   style="fill:rgb(243,241,237);"
   id="ellipse50" />
            </g>
        </g>
        <g
   id="body__x2B__mask">
            <g
   transform="matrix(-1,0,0,1,2834.35,13.4928)"
   id="g62">
                <clipPath
   id="_clip1">
                    <path
   d="M1571.7,689.3L1513.3,677L1457,640L1299,640L1251,681L1247,696L1254,739L1378.2,739L1388,715L1413,715L1417.6,739L1514.1,739L1523,715L1548,715L1554.2,739L1565,739L1573.7,696.3L1571.7,689.3Z"
   id="path55" />
                </clipPath>
                <g
   clip-path="url(#_clip1)"
   id="g60">
                    <path
   d="M1299,640L1457,640L1513.3,677L1571.7,689.3L1573.7,696.3L1565,739L1254,739L1247,696L1251,681L1299,640Z"
   style="fill:rgb(227,225,220);fill-rule:nonzero;"
   id="path58" />
                </g>
            </g>
            <g
   transform="matrix(-1,0,0,1,2834.35,13.4928)"
   id="g71">
                <clipPath
   id="_clip2">
                    <path
   d="M1571.7,689.3L1513.3,677L1457,640L1299,640L1251,681L1247,696L1254,739L1378.2,739L1388,715L1413,715L1417.6,739L1514.1,739L1523,715L1548,715L1554.2,739L1565,739L1573.7,696.3L1571.7,689.3Z"
   id="path64" />
                </clipPath>
                <g
   clip-path="url(#_clip2)"
   id="g69">
                    <path
   d="M1341.7,682.3L1346.7,696.3L1349,741.6L1574,741.6L1360.7,682C1360.7,682 1341.3,682.3 1341.7,682.3Z"
   style="fill:rgb(243,241,237);fill-rule:nonzero;"
   id="path67" />
                </g>
            </g>
            <g
   transform="matrix(-1,0,0,1,2834.35,13.4928)"
   id="g80">
                <clipPath
   id="_clip3">
                    <path
   d="M1571.7,689.3L1513.3,677L1457,640L1299,640L1251,681L1247,696L1254,739L1378.2,739L1388,715L1413,715L1417.6,739L1514.1,739L1523,715L1548,715L1554.2,739L1565,739L1573.7,696.3L1571.7,689.3Z"
   id="path73" />
                </clipPath>
                <g
   clip-path="url(#_clip3)"
   id="g78">
                    <path
   d="M1308,718L1287.1,718L1286.4,728.2L1311.2,728.2L1308,718Z"
   style="fill:rgb(243,241,237);fill-rule:nonzero;"
   id="path76" />
                </g>
            </g>
            <g
   transform="matrix(-1,0,0,1,2834.35,13.4928)"
   id="g89">
                <clipPath
   id="_clip4">
                    <path
   d="M1571.7,689.3L1513.3,677L1457,640L1299,640L1251,681L1247,696L1254,739L1378.2,739L1388,715L1413,715L1417.6,739L1514.1,739L1523,715L1548,715L1554.2,739L1565,739L1573.7,696.3L1571.7,689.3Z"
   id="path82" />
                </clipPath>
                <g
   clip-path="url(#_clip4)"
   id="g87">
                    <rect
   x="1266.9"
   y="706"
   width="76.4"
   height="4"
   style="fill:rgb(192,189,186);"
   id="rect85" />
                </g>
            </g>
            <g
   transform="matrix(-1,0,0,1,2834.35,13.4928)"
   id="g98">
                <clipPath
   id="_clip5">
                    <path
   d="M1571.7,689.3L1513.3,677L1457,640L1299,640L1251,681L1247,696L1254,739L1378.2,739L1388,715L1413,715L1417.6,739L1514.1,739L1523,715L1548,715L1554.2,739L1565,739L1573.7,696.3L1571.7,689.3Z"
   id="path91" />
                </clipPath>
                <g
   clip-path="url(#_clip5)"
   id="g96">
                    <path
   d="M1244,696L1261,696L1262,710L1246,710L1244,696Z"
   style="fill:rgb(173,32,36);fill-rule:nonzero;"
   id="path94" />
                </g>
            </g>
            <g
   transform="matrix(-1,0,0,1,2834.35,13.4928)"
   id="g107">
                <clipPath
   id="_clip6">
                    <path
   d="M1571.7,689.3L1513.3,677L1457,640L1299,640L1251,681L1247,696L1254,739L1378.2,739L1388,715L1413,715L1417.6,739L1514.1,739L1523,715L1548,715L1554.2,739L1565,739L1573.7,696.3L1571.7,689.3Z"
   id="path100" />
                </clipPath>
                <g
   clip-path="url(#_clip6)"
   id="g105">
                    <path
   d="M1332.7,696L1362,696L1357.3,710L1334.7,710L1332.7,696Z"
   style="fill:rgb(173,32,36);fill-rule:nonzero;"
   id="path103" />
                </g>
            </g>
            <g
   transform="matrix(-1,0,0,1,2834.35,13.4928)"
   id="g116">
                <clipPath
   id="_clip7">
                    <path
   d="M1571.7,689.3L1513.3,677L1457,640L1299,640L1251,681L1247,696L1254,739L1378.2,739L1388,715L1413,715L1417.6,739L1514.1,739L1523,715L1548,715L1554.2,739L1565,739L1573.7,696.3L1571.7,689.3Z"
   id="path109" />
                </clipPath>
                <g
   clip-path="url(#_clip7)"
   id="g114">
                    <path
   d="M1552.7,696.3L1552.2,710L1574.3,710L1577,696.3L1552.7,696.3Z"
   style="fill:rgb(255,237,204);fill-rule:nonzero;"
   id="path112" />
                </g>
            </g>
            <g
   transform="matrix(-1,0,0,1,2834.35,13.4928)"
   id="g125">
                <clipPath
   id="_clip8">
                    <path
   d="M1571.7,689.3L1513.3,677L1457,640L1299,640L1251,681L1247,696L1254,739L1378.2,739L1388,715L1413,715L1417.6,739L1514.1,739L1523,715L1548,715L1554.2,739L1565,739L1573.7,696.3L1571.7,689.3Z"
   id="path118" />
                </clipPath>
                <g
   clip-path="url(#_clip8)"
   id="g123">
                    <path
   d="M1261,696L1264,696L1270,706L1268,710L1262,710L1261,696Z"
   style="fill:rgb(255,237,204);fill-rule:nonzero;"
   id="path121" />
                </g>
            </g>
            <g
   transform="matrix(-1,0,0,1,2834.35,13.4928)"
   id="g134">
                <clipPath
   id="_clip9">
                    <path
   d="M1571.7,689.3L1513.3,677L1457,640L1299,640L1251,681L1247,696L1254,739L1378.2,739L1388,715L1413,715L1417.6,739L1514.1,739L1523,715L1548,715L1554.2,739L1565,739L1573.7,696.3L1571.7,689.3Z"
   id="path127" />
                </clipPath>
                <g
   clip-path="url(#_clip9)"
   id="g132">
                    <path
   d="M1333,696L1329,696L1326,706L1330,710L1335,710L1333,696Z"
   style="fill:rgb(255,237,204);fill-rule:nonzero;"
   id="path130" />
                </g>
            </g>
        </g>
        <g
   id="windows">
            <g
   transform="matrix(-1,0,0,1,2834.35,13.4928)"
   id="g139">
                <path
   d="M1426,644L1456,644L1506,677L1442,677L1426,644Z"
   style="fill:rgb(13,34,65);fill-rule:nonzero;"
   id="path137" />
            </g>
            <g
   transform="matrix(-1,0,0,1,2834.35,13.4928)"
   id="g143">
                <path
   d="M1423,644L1375,644L1373,677L1438,677L1423,644Z"
   style="fill:rgb(13,34,65);fill-rule:nonzero;"
   id="path141" />
            </g>
            <g
   transform="matrix(-1,0,0,1,2834.35,13.4928)"
   id="g147">
                <path
   d="M1350,646L1293,646L1261,679L1332,679L1350,646Z"
   style="fill:rgb(13,34,65);fill-rule:nonzero;"
   id="path145" />
            </g>
            <g
   transform="matrix(-1,0,0,1,2834.35,13.4928)"
   id="g163">
                <clipPath
   id="_clip10">
                    <path
   d="M1350,646L1293,646L1261,679L1332,679L1350,646Z"
   id="path149" />
                </clipPath>
                <g
   clip-path="url(#_clip10)"
   id="g154">
                    <path
   d="M1336.57,645.3L1296.2,681L1288.8,681L1329,645L1336.57,645.3Z"
   style="fill:rgb(72,74,113);fill-rule:nonzero;"
   id="path152" />
                </g>
                <clipPath
   id="_clip11">
                    <path
   d="M1350,646L1293,646L1261,679L1332,679L1350,646Z"
   id="path156" />
                </clipPath>
                <g
   clip-path="url(#_clip11)"
   id="g161">
                    <path
   d="M1273.3,680.3L1315.3,643.5L1330.8,644.8L1283.7,687L1273.3,680.3Z"
   style="fill:rgb(49,49,85);fill-rule:nonzero;"
   id="path159" />
                </g>
            </g>
        </g>
        <g
   id="mirror">
            <g
   transform="matrix(-1,0,0,1,2834.35,13.4928)"
   id="g168">
                <path
   d="M1476,662C1476,662 1495,664 1496,666C1497,668 1495,672 1489,673C1483,674 1476,673 1476,673C1476,673 1475,669 1475,666C1475,663 1476,662 1476,662"
   style="fill:rgb(227,225,220);fill-rule:nonzero;"
   id="path166" />
            </g>
            <g
   transform="matrix(-1,0,0,1,2834.35,13.4928)"
   id="g172">
                <path
   d="M1475,665C1475,665 1480,665 1482,666C1484,667 1482,670 1480,671C1478,672 1475,672 1475,669C1475,666 1475,665 1475,665Z"
   style="fill:rgb(42,43,42);fill-rule:nonzero;"
   id="path170" />
            </g>
            <g
   transform="matrix(-1,0,0,1,2834.35,13.4928)"
   id="g176">
                <path
   d="M1488,677L1488,672L1485,672L1485,677L1488,677"
   style="fill:rgb(227,225,220);fill-rule:nonzero;"
   id="path174" />
            </g>
        </g>
        <g
   id="exhaust"
   transform="matrix(-1,0,0,1,2834.35,13.4928)">
            <path
   d="M1280.9,737C1280.5,734.2 1278.6,732 1276.8,732C1275,732 1273.9,734.2 1274.3,737C1274.7,739.8 1276.6,742 1278.4,742C1280.2,742 1281.3,739.8 1280.9,737Z"
   style="fill:rgb(42,43,42);fill-rule:nonzero;"
   id="path179" />
        </g>
    </g>
<g
   transform="matrix(0.00467982,0,0,-0.00437023,79.344305,122.51071)"
   fill="#000000"
   stroke="none"
   id="g26"
   style="fill:#008000"><path
     d="m 7610,12773 c -48,-16 -79,-20 -117,-16 -49,5 -57,3 -127,-41 -126,-78 -185,-134 -201,-189 -13,-45 -147,-245 -184,-275 -16,-13 -175,-65 -331,-107 -58,-16 -140,-29 -211,-33 l -115,-8 -110,-61 c -60,-34 -193,-93 -294,-132 -101,-39 -193,-77 -204,-85 -12,-7 -57,-78 -101,-157 -43,-79 -151,-251 -239,-382 l -160,-238 -7,-123 c -8,-149 -16,-164 -110,-209 l -69,-32 6,-46 c 13,-99 -39,-138 -193,-147 l -92,-5 -16,-33 c -8,-18 -18,-47 -21,-66 -9,-47 -47,-83 -110,-103 -69,-22 -91,-53 -169,-235 -31,-74 -87,-191 -123,-259 -57,-105 -86,-144 -190,-260 -112,-123 -129,-147 -178,-251 -35,-74 -70,-131 -98,-160 -41,-43 -43,-49 -54,-132 -12,-99 -35,-150 -96,-217 -23,-25 -54,-65 -70,-88 -16,-23 -43,-51 -61,-61 -26,-16 -33,-28 -38,-63 -3,-24 -27,-86 -53,-138 -41,-83 -61,-109 -158,-207 -61,-61 -124,-121 -139,-132 -25,-18 -33,-39 -62,-156 -19,-74 -44,-154 -55,-178 -14,-26 -92,-112 -204,-223 -172,-171 -185,-187 -257,-310 -115,-195 -129,-227 -129,-285 0,-88 -21,-192 -57,-285 -37,-92 -43,-143 -28,-222 7,-37 3,-49 -29,-106 -20,-36 -36,-72 -36,-80 0,-9 16,-31 35,-49 32,-30 36,-40 45,-114 12,-93 0,-261 -25,-370 -49,-214 -124,-452 -175,-554 -32,-64 -70,-181 -70,-217 0,-6 15,-10 33,-9 27,1 33,-3 35,-23 3,-18 -11,-37 -62,-85 -71,-66 -70,-65 -67,-209 1,-45 30,-77 68,-77 16,0 51,-11 78,-24 44,-20 83,-49 252,-192 l 43,-35 v -95 c 0,-112 29,-209 81,-274 32,-39 33,-43 33,-139 1,-94 2,-100 35,-152 83,-130 102,-166 131,-241 40,-106 45,-143 26,-197 -14,-41 -13,-48 6,-105 50,-149 79,-192 222,-325 26,-23 73,-77 105,-120 79,-103 91,-112 219,-180 61,-33 166,-96 233,-141 67,-45 144,-90 173,-100 183,-63 348,-194 415,-332 17,-35 39,-96 49,-136 15,-59 27,-81 60,-115 22,-23 52,-64 66,-92 47,-95 142,-434 152,-548 l 7,-67 -57,-55 c -69,-68 -71,-86 -11,-145 65,-64 75,-90 63,-179 -10,-87 -7,-101 25,-101 19,0 26,7 30,29 4,17 19,44 35,62 26,29 35,33 80,32 43,-1 68,-10 149,-56 87,-49 163,-79 163,-63 0,3 -7,31 -15,63 -17,63 -12,123 12,161 8,13 40,49 71,80 57,57 122,169 122,210 0,11 -5,33 -11,49 -6,15 -19,68 -29,117 -16,74 -17,103 -9,173 5,46 14,158 19,248 9,158 8,166 -13,212 -16,36 -21,66 -21,118 1,77 4,88 109,320 37,83 114,259 171,392 93,220 107,248 158,305 38,42 54,67 50,78 -4,8 -12,32 -17,52 -21,72 -13,79 235,227 302,181 321,196 379,301 27,47 51,91 55,99 4,8 -4,34 -19,62 -15,26 -27,52 -27,57 0,23 54,72 105,96 92,42 139,95 209,235 34,69 99,183 144,253 72,110 125,212 185,350 12,26 32,46 74,71 47,27 58,38 56,58 -1,13 -2,83 -3,155 -2,142 9,186 55,234 13,14 47,73 76,130 28,58 67,130 88,160 39,57 103,227 146,390 18,64 29,140 35,235 10,154 15,178 66,297 31,72 34,89 32,157 -3,69 0,83 33,156 28,60 38,99 43,155 3,48 20,118 44,191 22,64 45,140 51,170 7,30 25,93 41,140 30,91 80,312 101,441 9,62 17,84 40,108 51,53 51,125 -1,184 -25,28 -30,43 -30,83 0,107 34,170 123,223 47,28 58,53 46,111 -24,128 -7,177 92,256 237,189 306,295 318,484 6,93 10,112 34,148 15,22 27,46 27,53 0,31 23,90 44,115 13,15 26,40 30,56 3,15 21,44 40,65 46,52 56,74 56,127 0,74 36,125 88,125 11,0 23,7 26,16 20,52 -14,240 -78,426 -25,73 -49,167 -54,209 -6,44 -19,93 -33,120 -48,90 -19,304 61,458 109,209 363,440 473,429 31,-3 32,-2 39,42 9,65 3,80 -31,74 -38,-8 -79,35 -131,137 l -40,81 v 125 c 0,111 -2,124 -16,119 -41,-16 -208,-36 -297,-36 -128,0 -234,22 -332,70 -69,34 -101,60 -242,197 -147,144 -163,162 -169,201 -7,42 -8,43 -108,95 l -101,52 z"
     id="path2-3"
     style="fill:#008000" /><path
     d="m 9089,11169 c -14,-27 4,-42 41,-33 33,7 34,9 20,33 -14,27 -46,27 -61,0 z"
     id="path4"
     style="fill:#008000" /><path
     d="m 521,6966 c -18,-19 -21,-30 -15,-49 10,-29 110,-111 124,-102 6,3 10,32 10,64 0,55 -2,60 -34,85 -43,32 -56,33 -85,2 z"
     id="path6-9"
     style="fill:#008000" /><path
     d="m 333,6858 c -11,-14 -19,-43 -35,-133 -13,-71 -52,-119 -110,-137 -49,-15 -39,-28 22,-28 43,0 53,4 85,37 19,20 35,46 35,57 0,12 7,30 15,40 9,12 15,42 15,76 0,31 5,61 11,67 13,13 4,33 -15,33 -8,0 -18,-6 -23,-12 z"
     id="path8"
     style="fill:#008000" /><path
     d="m 640,6713 c -14,-9 -46,-36 -72,-60 -26,-24 -52,-43 -57,-43 -25,0 -41,-33 -41,-84 0,-28 -5,-57 -12,-64 -8,-8 -8,-15 2,-27 12,-14 15,-14 31,1 27,24 63,15 67,-18 3,-26 7,-28 46,-28 41,0 42,1 80,66 30,52 46,70 79,85 52,23 95,24 119,2 17,-16 20,-16 35,0 16,16 14,20 -36,71 -42,42 -64,56 -110,69 -32,9 -64,23 -71,32 -16,19 -30,19 -60,-2 z"
     id="path10-1"
     style="fill:#008000" /><path
     d="m 2125,6399 -57,-82 11,-84 c 6,-46 13,-88 16,-93 17,-28 25,0 25,91 v 100 l 40,59 c 39,57 50,90 31,90 -5,0 -35,-37 -66,-81 z"
     id="path12"
     style="fill:#008000" /><path
     d="m 300,6394 c -11,-12 -10,-18 4,-32 16,-16 18,-16 31,2 11,14 12,23 4,33 -15,17 -24,16 -39,-3 z"
     id="path14"
     style="fill:#008000" /><path
     d="m 272,5858 c -19,-19 -15,-48 7,-48 20,0 37,32 26,50 -8,13 -18,13 -33,-2 z"
     id="path16"
     style="fill:#008000" /><path
     d="m 48,5275 c -15,-13 -33,-25 -40,-28 -23,-8 6,-42 40,-45 22,-2 34,3 46,20 37,52 1,93 -46,53 z"
     id="path18"
     style="fill:#008000" /><path
     d="m 7046,3349 c -22,-32 -21,-92 2,-112 10,-10 35,-17 55,-17 h 37 v 59 c 0,62 -8,75 -51,86 -21,5 -30,2 -43,-16 z"
     id="path20"
     style="fill:#008000" /><path
     d="m 3248,1956 c -10,-7 -18,-22 -18,-34 0,-11 -7,-23 -16,-26 -8,-3 -12,-10 -9,-16 9,-15 41,-12 55,5 7,9 28,23 47,32 44,21 41,47 -7,50 -19,2 -43,-3 -52,-11 z"
     id="path22-4"
     style="fill:#008000" /><path
     d="m 7233,1124 c -46,-17 -51,-25 -28,-44 9,-8 15,-29 15,-56 0,-43 0,-43 69,-83 81,-47 101,-56 159,-65 40,-6 42,-5 42,18 0,16 -17,40 -55,74 -56,52 -64,69 -42,91 10,10 9,14 -5,22 -10,6 -18,16 -18,24 0,18 -7,22 -55,28 -24,4 -57,0 -82,-9 z"
     id="path24"
     style="fill:#008000" /></g></svg>
