<?xml version="1.0" encoding="UTF-8" standalone="no"?>
<svg
   width="100%"
   height="100%"
   viewBox="0 0 360 360"
   version="1.1"
   xml:space="preserve"
   style="fill-rule:evenodd;clip-rule:evenodd;stroke-linejoin:round;stroke-miterlimit:2;"
   id="svg208"
   sodipodi:docname="foodtruck-left.svg"
   inkscape:version="1.1 (c68e22c387, 2021-05-23)"
   xmlns:inkscape="http://www.inkscape.org/namespaces/inkscape"
   xmlns:sodipodi="http://sodipodi.sourceforge.net/DTD/sodipodi-0.dtd"
   xmlns="http://www.w3.org/2000/svg"
   xmlns:svg="http://www.w3.org/2000/svg"><defs
   id="defs212" /><sodipodi:namedview
   id="namedview210"
   pagecolor="#ffffff"
   bordercolor="#666666"
   borderopacity="1.0"
   inkscape:pageshadow="2"
   inkscape:pageopacity="0.0"
   inkscape:pagecheckerboard="0"
   showgrid="false"
   inkscape:zoom="1.4444444"
   inkscape:cx="179.65385"
   inkscape:cy="180.34615"
   inkscape:window-width="1366"
   inkscape:window-height="705"
   inkscape:window-x="-8"
   inkscape:window-y="-8"
   inkscape:window-maximized="1"
   inkscape:current-layer="svg208" />
    <g
   id="foodtruck-left">
        <g
   transform="matrix(0.943534,0,0,0.943534,2.34361,20.3279)"
   id="g66">
            <g
   transform="matrix(-1,0,0,1,302.306,118.426)"
   id="g4">
                <path
   d="M242.164,133.24L233.164,127.574L234.664,125.324L243.664,131.657L242.164,133.24Z"
   style="fill:rgb(91,96,97);fill-rule:nonzero;"
   id="path2" />
            </g>
            <g
   transform="matrix(-1,0,0,1,302.306,118.426)"
   id="g8">
                <path
   d="M271.477,234.296L270.58,191.74L270.08,164.407L279.439,167.001L279.914,192.907L279.08,233.74L271.477,234.296Z"
   style="fill:rgb(170,139,126);fill-rule:nonzero;"
   id="path6" />
            </g>
            <g
   transform="matrix(-1,0,0,1,302.306,118.426)"
   id="g12">
                <path
   d="M281.604,110.125L279.402,103.942L273.918,105.562L274.124,111.416L281.604,110.125Z"
   style="fill:rgb(170,139,126);fill-rule:nonzero;"
   id="path10" />
            </g>
            <g
   transform="matrix(-1,0,0,1,302.306,118.426)"
   id="g16">
                <path
   d="M269.439,158.146L257.689,186.896L253.264,236.349L261.33,235.158L266.939,188.146L281.414,167.075L277.689,155.896L269.439,158.146Z"
   style="fill:rgb(206,172,153);fill-rule:nonzero;"
   id="path14" />
            </g>
            <g
   transform="matrix(-1,0,0,1,302.306,118.426)"
   id="g20">
                <path
   d="M253.439,197.146L286.689,196.896L279.689,151.396L281.562,110.073L273.666,111.439L262.439,124.116L263.397,154.116L253.439,197.146Z"
   style="fill:rgb(150,0,19);fill-rule:nonzero;"
   id="path18" />
            </g>
            <g
   transform="matrix(-1,0,0,1,302.306,118.426)"
   id="g24">
                <path
   d="M274.702,119.315L279.721,122.723L267.274,143.326L244.28,136.125L246.842,133.283L265.551,137.581L274.702,119.315Z"
   style="fill:rgb(206,172,153);fill-rule:nonzero;"
   id="path22" />
            </g>
            <g
   transform="matrix(-1,0,0,1,302.306,118.426)"
   id="g28">
                <path
   d="M273.699,115.107L272.689,122.445L279.273,124.634L281.768,113.52"
   style="fill:rgb(229,0,29);fill-rule:nonzero;"
   id="path26" />
            </g>
            <g
   transform="matrix(-1,0,0,1,302.306,118.426)"
   id="g32">
                <path
   d="M281.749,113.509L281.585,110.113L270.041,111.472L262.439,124.148L274.103,117.58L281.749,113.509Z"
   style="fill:rgb(229,0,29);fill-rule:nonzero;"
   id="path30" />
            </g>
            <g
   transform="matrix(-1,0,0,1,302.306,118.426)"
   id="g36">
                <path
   d="M279.659,104.867L280.88,95.216L265.756,94.197L265.187,102.801L267.13,102.69L268.92,108.178L274.175,106.485"
   style="fill:rgb(206,172,153);fill-rule:nonzero;"
   id="path34" />
            </g>
            <g
   transform="matrix(-1,0,0,1,302.306,118.426)"
   id="g40">
                <path
   d="M246.018,136.547L239.813,137.889L235.247,133.316L238.956,130.93L248.579,133.705L246.018,136.547Z"
   style="fill:rgb(206,172,153);fill-rule:nonzero;"
   id="path38" />
            </g>
            <g
   transform="matrix(-1,0,0,1,302.306,118.426)"
   id="g44">
                <path
   d="M243.296,129.923L241.823,131.735L247.29,133.474L243.296,129.923Z"
   style="fill:rgb(206,172,153);fill-rule:nonzero;"
   id="path42" />
            </g>
            <g
   transform="matrix(-1,0,0,1,302.306,118.426)"
   id="g48">
                <path
   d="M275.325,101.96L277.236,101.9L277.42,97.175L274.967,97.938L275.325,101.96Z"
   style="fill:rgb(206,172,153);fill-rule:nonzero;"
   id="path46" />
            </g>
            <g
   transform="matrix(-1,0,0,1,302.306,118.426)"
   id="g52">
                <path
   d="M273.984,106.957L274.213,102.074L276.965,101.838L277.33,97.195L274.422,97.871L274.538,95.263L280.956,95.539L279.764,104.95L273.984,106.957Z"
   style="fill:rgb(170,139,126);fill-rule:nonzero;"
   id="path50" />
            </g>
            <g
   transform="matrix(-1,0,0,1,302.306,118.426)"
   id="g56">
                <path
   d="M279.068,233.709L277.455,239.932L260.961,240.403L259.244,235.861L271.403,233.273L279.068,233.709Z"
   style="fill:rgb(110,87,70);fill-rule:nonzero;"
   id="path54" />
            </g>
            <g
   transform="matrix(-1,0,0,1,302.306,118.426)"
   id="g60">
                <path
   d="M265.756,94.197L265.439,89.396L281.856,87.896L288.439,106.646L287.939,125.146L282.189,126.396L276.439,111.646L276.773,97.563L274.523,98.063L271.439,94.896L265.756,94.197Z"
   style="fill:rgb(252,228,174);fill-rule:nonzero;"
   id="path58" />
            </g>
            <g
   transform="matrix(-1,0,0,1,302.306,118.426)"
   id="g64">
                <path
   d="M261.376,234.88L259.763,241.103L243.27,241.574L241.553,237.032L253.317,234.444L261.376,234.88Z"
   style="fill:rgb(133,112,88);fill-rule:nonzero;"
   id="path62" />
            </g>
        </g>
        <g
   transform="matrix(-1,0,0,1,302.306,118.426)"
   id="g70">
            <rect
   x="214.783"
   y="136.584"
   width="18.239"
   height="30"
   style="fill:rgb(55,130,63);fill-rule:nonzero;"
   id="rect68" />
        </g>
        <g
   transform="matrix(-1,0,0,1,302.306,118.426)"
   id="g74">
            <rect
   x="207.449"
   y="37.918"
   width="91.163"
   height="10.239"
   style="fill:rgb(55,130,63);fill-rule:nonzero;"
   id="rect72" />
        </g>
        <g
   transform="matrix(-1,0,0,1,302.306,118.426)"
   id="g78">
            <path
   d="M210.883,65.608L232.259,64.5L232.47,72.321L236.699,71.687L236.676,58.426L210.674,61.171L210.883,65.608Z"
   style="fill:rgb(42,43,42);fill-rule:nonzero;"
   id="path76" />
        </g>
        <g
   transform="matrix(-1,0,0,1,302.306,118.426)"
   id="g82">
            <path
   d="M239.87,71.051L239.024,103.4L224.014,105.515L221.265,74.012L239.87,71.051Z"
   style="fill:rgb(42,43,42);fill-rule:nonzero;"
   id="path80" />
        </g>
        <g
   transform="matrix(-1,0,0,1,302.306,118.426)"
   id="g86">
            <path
   d="M239.864,71.159L221.265,74.013L221.687,78.768L239.659,78.664L239.87,71.159L239.864,71.159Z"
   style="fill:rgb(91,94,95);fill-rule:nonzero;"
   id="path84" />
        </g>
        <g
   transform="matrix(-1,0,0,1,302.306,118.426)"
   id="g90">
            <path
   d="M28.987,65.608L7.611,64.5L7.4,72.321L3.172,71.687L3.194,58.426L29.197,61.171L28.987,65.608Z"
   style="fill:rgb(42,43,42);fill-rule:nonzero;"
   id="path88" />
        </g>
        <g
   transform="matrix(-1,0,0,1,302.306,118.426)"
   id="g94">
            <path
   d="M0.846,103.401L15.856,105.516L18.605,74.013L0,71.052L0.846,103.401Z"
   style="fill:rgb(42,43,42);fill-rule:nonzero;"
   id="path92" />
        </g>
        <g
   transform="matrix(-1,0,0,1,302.306,118.426)"
   id="g98">
            <path
   d="M0,71.159L0.212,78.664L18.184,78.768L18.605,74.013L0.006,71.159L0,71.159Z"
   style="fill:rgb(91,94,95);fill-rule:nonzero;"
   id="path96" />
        </g>
        <g
   transform="matrix(-1,0,0,1,302.306,118.426)"
   id="g102">
            <path
   d="M25.052,221.301L26.743,240.749L46.193,240.749L50.211,221.088L25.052,221.301Z"
   style="fill:rgb(91,94,95);fill-rule:nonzero;"
   id="path100" />
        </g>
        <g
   transform="matrix(-1,0,0,1,302.306,118.426)"
   id="g106">
            <path
   d="M45.349,220.876L46.194,240.75L52.212,220.876L45.349,220.876Z"
   style="fill:rgb(42,43,42);fill-rule:nonzero;"
   id="path104" />
        </g>
        <g
   transform="matrix(-1,0,0,1,302.306,118.426)"
   id="g110">
            <path
   d="M194.328,240.75L213.78,240.75L215.47,221.301L190.311,221.09L194.328,240.75Z"
   style="fill:rgb(91,94,95);fill-rule:nonzero;"
   id="path108" />
        </g>
        <g
   transform="matrix(-1,0,0,1,302.306,118.426)"
   id="g114">
            <path
   d="M195.174,221.089L194.328,240.538L188.31,221.089L195.174,221.089Z"
   style="fill:rgb(42,43,42);fill-rule:nonzero;"
   id="path112" />
        </g>
        <g
   transform="matrix(-1,0,0,1,302.306,118.426)"
   id="g118">
            <path
   d="M32.616,0.001L24.115,155.271L24.922,221.288L215.63,221.288L216.616,155.737L206.616,0.001L32.616,0.001Z"
   style="fill:rgb(103,154,68);fill-rule:nonzero;"
   id="path116" />
        </g>
        <g
   transform="matrix(-1,0,0,1,302.306,118.426)"
   id="g141">
            <path
   d="M37.048,45.717L32.616,134.749L208.283,134.381L203.116,46.649L37.048,45.717Z"
   style="fill:rgb(49,49,86);fill-rule:nonzero;"
   id="path120" />
            <clipPath
   id="_clip1">
                <path
   d="M37.048,45.717L32.616,134.749L208.283,134.381L203.116,46.649L37.048,45.717Z"
   clip-rule="nonzero"
   id="path122" />
            </clipPath>
            <g
   clip-path="url(#_clip1)"
   id="g139">
                <path
   d="M37.048,45.717L32.616,134.749L208.283,134.381L203.116,46.649L37.048,45.717Z"
   style="fill:rgb(49,49,86);fill-rule:nonzero;"
   id="path125" />
                <g
   transform="matrix(-1,0,0,1,241.919,0)"
   id="g129">
                    <path
   d="M100.361,134.594L100.802,134.594L209.303,134.749L204.871,45.717L194.367,45.717L100.361,134.594Z"
   style="fill:rgb(10,24,36);fill-opacity:0.3;fill-rule:nonzero;"
   id="path127" />
                </g>
                <g
   transform="matrix(-1,0,0,1,241.919,0)"
   id="g133">
                    <path
   d="M105.547,134.619L194.305,45.717L189.039,45.717L100.157,134.6L105.547,134.619Z"
   style="fill:rgb(73,74,115);fill-rule:nonzero;"
   id="path131" />
                </g>
                <g
   transform="matrix(-1,0,0,1,241.919,0)"
   id="g137">
                    <path
   d="M37.048,45.717L33.616,113.749L100.746,46.115L37.048,45.717Z"
   style="fill:rgb(10,24,36);fill-opacity:0.3;fill-rule:nonzero;"
   id="path135" />
                </g>
            </g>
        </g>
        <g
   transform="matrix(-1,0,0,1,302.306,118.426)"
   id="g145">
            <path
   d="M66.116,209.126L67.963,145.293L173.937,145.71L175.783,208.919L66.116,209.126Z"
   style="fill:rgb(42,43,42);fill-rule:nonzero;"
   id="path143" />
        </g>
        <g
   transform="matrix(-1,0,0,1,302.306,118.426)"
   id="g149">
            <path
   d="M202.417,178.647L205.544,188.049L186.853,188.085L189.896,178.606L202.417,178.647Z"
   style="fill:rgb(240,157,116);fill-rule:nonzero;"
   id="path147" />
        </g>
        <g
   transform="matrix(-1,0,0,1,302.306,118.426)"
   id="g153">
            <path
   d="M53.329,178.647L56.455,188.049L37.764,188.085L40.808,178.606L53.329,178.647Z"
   style="fill:rgb(240,157,116);fill-rule:nonzero;"
   id="path151" />
        </g>
        <g
   transform="matrix(-1,0,0,1,302.306,118.426)"
   id="g157">
            <path
   d="M205.559,163.527C205.559,169.201 200.956,173.804 195.283,173.804C189.605,173.804 185.006,169.201 185.006,163.527C185.006,157.849 189.605,153.251 195.283,153.251C200.956,153.251 205.559,157.849 205.559,163.527"
   style="fill:rgb(193,191,188);fill-rule:nonzero;"
   id="path155" />
        </g>
        <g
   transform="matrix(-1,0,0,1,302.306,118.426)"
   id="g161">
            <path
   d="M56.896,163.527C56.896,169.201 52.296,173.804 46.621,173.804C40.947,173.804 36.345,169.201 36.345,163.527C36.345,157.849 40.947,153.251 46.621,153.251C52.296,153.251 56.896,157.849 56.896,163.527"
   style="fill:rgb(193,191,188);fill-rule:nonzero;"
   id="path159" />
        </g>
        <g
   transform="matrix(-1,0,0,1,302.306,118.426)"
   id="g165">
            <path
   d="M78.621,193.38L74.167,197.651L167.783,197.546L163.366,193.38L78.621,193.38Z"
   style="fill:rgb(91,94,95);fill-rule:nonzero;"
   id="path163" />
        </g>
        <g
   transform="matrix(-1,0,0,1,302.306,118.426)"
   id="g169">
            <path
   d="M78.621,175.882L74.167,180.153L167.783,180.048L163.366,175.882L78.621,175.882Z"
   style="fill:rgb(91,94,95);fill-rule:nonzero;"
   id="path167" />
        </g>
        <g
   transform="matrix(-1,0,0,1,302.306,118.426)"
   id="g173">
            <path
   d="M78.621,157.047L74.167,161.318L167.783,161.213L163.366,157.047L78.621,157.047Z"
   style="fill:rgb(91,94,95);fill-rule:nonzero;"
   id="path171" />
        </g>
        <g
   transform="matrix(-1,0,0,1,302.306,118.426)"
   id="g177">
            <path
   d="M120.033,134.834L124.45,134.834L124.45,45.584L120.116,45.834L120.033,134.834Z"
   style="fill:rgb(103,154,68);fill-rule:nonzero;"
   id="path175" />
        </g>
        <g
   transform="matrix(-1,0,0,1,302.306,118.426)"
   id="g181">
            <path
   d="M149.608,20.271L149.815,19.253L141.234,17.01L141.449,16.172L150.133,18.12L150.391,17.114L141.864,14.552L142.065,13.769L150.658,15.966L150.966,14.974L140.975,11.875C140.975,11.875 138.485,12.906 138.289,12.848L122.373,8.262L121.323,12.396L137.472,16.036C137.671,16.081 139.358,18.182 139.358,18.182L149.608,20.271Z"
   style="fill:white;fill-rule:nonzero;"
   id="path179" />
        </g>
        <g
   transform="matrix(-1,0,0,1,302.306,118.426)"
   id="g185">
            <path
   d="M159.856,20.063C159.856,24.068 156.61,27.313 152.606,27.313C148.602,27.313 145.356,24.068 145.356,20.063C145.356,16.059 148.602,12.813 152.606,12.813C156.61,12.813 159.856,16.059 159.856,20.063"
   style="fill:rgb(252,228,174);fill-rule:nonzero;"
   id="path183" />
        </g>
        <g
   transform="matrix(-1,0,0,1,302.306,118.426)"
   id="g189">
            <path
   d="M159.322,12.979C157.788,14.999 154.909,15.391 152.891,13.858C150.872,12.325 150.479,9.446 152.013,7.426C153.546,5.409 156.426,5.014 158.444,6.548C160.463,8.083 160.856,10.96 159.322,12.979"
   style="fill:rgb(252,228,174);fill-rule:nonzero;"
   id="path187" />
        </g>
        <g
   transform="matrix(-1,0,0,1,302.306,118.426)"
   id="g193">
            <path
   d="M176.894,15.813C176.894,21.346 172.409,25.834 166.875,25.834C161.342,25.834 156.856,21.346 156.856,15.813C156.856,10.281 161.342,5.793 166.875,5.793C172.409,5.793 176.894,10.281 176.894,15.813"
   style="fill:rgb(252,228,174);fill-rule:nonzero;"
   id="path191" />
        </g>
        <g
   transform="matrix(-1,0,0,1,302.306,118.426)"
   id="g197">
            <path
   d="M180.189,14.558C182.953,24.777 176.911,35.3 166.693,38.066C156.475,40.829 145.951,34.787 143.186,24.57C150.405,22.617 174.467,16.107 180.189,14.558"
   style="fill:rgb(248,187,28);fill-rule:nonzero;"
   id="path195" />
        </g>
        <g
   transform="matrix(-1,0,0,1,302.306,118.426)"
   id="g201">
            <rect
   x="53.451"
   y="24.647"
   width="68.238"
   height="12.334"
   style="fill:rgb(55,130,63);fill-rule:nonzero;"
   id="rect199" />
        </g>
        <g
   transform="matrix(-1,0,0,1,302.306,118.426)"
   id="g205">
            <rect
   x="53.451"
   y="9.314"
   width="49.435"
   height="12.333"
   style="fill:rgb(55,130,63);fill-rule:nonzero;"
   id="rect203" />
        </g>
    </g>
<g
   transform="matrix(0.00484053,0,0,-0.00442237,219.79602,252.53355)"
   fill="#000000"
   stroke="none"
   id="g26"
   style="fill:#e3dbdb"><path
     d="m 7610,12773 c -48,-16 -79,-20 -117,-16 -49,5 -57,3 -127,-41 -126,-78 -185,-134 -201,-189 -13,-45 -147,-245 -184,-275 -16,-13 -175,-65 -331,-107 -58,-16 -140,-29 -211,-33 l -115,-8 -110,-61 c -60,-34 -193,-93 -294,-132 -101,-39 -193,-77 -204,-85 -12,-7 -57,-78 -101,-157 -43,-79 -151,-251 -239,-382 l -160,-238 -7,-123 c -8,-149 -16,-164 -110,-209 l -69,-32 6,-46 c 13,-99 -39,-138 -193,-147 l -92,-5 -16,-33 c -8,-18 -18,-47 -21,-66 -9,-47 -47,-83 -110,-103 -69,-22 -91,-53 -169,-235 -31,-74 -87,-191 -123,-259 -57,-105 -86,-144 -190,-260 -112,-123 -129,-147 -178,-251 -35,-74 -70,-131 -98,-160 -41,-43 -43,-49 -54,-132 -12,-99 -35,-150 -96,-217 -23,-25 -54,-65 -70,-88 -16,-23 -43,-51 -61,-61 -26,-16 -33,-28 -38,-63 -3,-24 -27,-86 -53,-138 -41,-83 -61,-109 -158,-207 -61,-61 -124,-121 -139,-132 -25,-18 -33,-39 -62,-156 -19,-74 -44,-154 -55,-178 -14,-26 -92,-112 -204,-223 -172,-171 -185,-187 -257,-310 -115,-195 -129,-227 -129,-285 0,-88 -21,-192 -57,-285 -37,-92 -43,-143 -28,-222 7,-37 3,-49 -29,-106 -20,-36 -36,-72 -36,-80 0,-9 16,-31 35,-49 32,-30 36,-40 45,-114 12,-93 0,-261 -25,-370 -49,-214 -124,-452 -175,-554 -32,-64 -70,-181 -70,-217 0,-6 15,-10 33,-9 27,1 33,-3 35,-23 3,-18 -11,-37 -62,-85 -71,-66 -70,-65 -67,-209 1,-45 30,-77 68,-77 16,0 51,-11 78,-24 44,-20 83,-49 252,-192 l 43,-35 v -95 c 0,-112 29,-209 81,-274 32,-39 33,-43 33,-139 1,-94 2,-100 35,-152 83,-130 102,-166 131,-241 40,-106 45,-143 26,-197 -14,-41 -13,-48 6,-105 50,-149 79,-192 222,-325 26,-23 73,-77 105,-120 79,-103 91,-112 219,-180 61,-33 166,-96 233,-141 67,-45 144,-90 173,-100 183,-63 348,-194 415,-332 17,-35 39,-96 49,-136 15,-59 27,-81 60,-115 22,-23 52,-64 66,-92 47,-95 142,-434 152,-548 l 7,-67 -57,-55 c -69,-68 -71,-86 -11,-145 65,-64 75,-90 63,-179 -10,-87 -7,-101 25,-101 19,0 26,7 30,29 4,17 19,44 35,62 26,29 35,33 80,32 43,-1 68,-10 149,-56 87,-49 163,-79 163,-63 0,3 -7,31 -15,63 -17,63 -12,123 12,161 8,13 40,49 71,80 57,57 122,169 122,210 0,11 -5,33 -11,49 -6,15 -19,68 -29,117 -16,74 -17,103 -9,173 5,46 14,158 19,248 9,158 8,166 -13,212 -16,36 -21,66 -21,118 1,77 4,88 109,320 37,83 114,259 171,392 93,220 107,248 158,305 38,42 54,67 50,78 -4,8 -12,32 -17,52 -21,72 -13,79 235,227 302,181 321,196 379,301 27,47 51,91 55,99 4,8 -4,34 -19,62 -15,26 -27,52 -27,57 0,23 54,72 105,96 92,42 139,95 209,235 34,69 99,183 144,253 72,110 125,212 185,350 12,26 32,46 74,71 47,27 58,38 56,58 -1,13 -2,83 -3,155 -2,142 9,186 55,234 13,14 47,73 76,130 28,58 67,130 88,160 39,57 103,227 146,390 18,64 29,140 35,235 10,154 15,178 66,297 31,72 34,89 32,157 -3,69 0,83 33,156 28,60 38,99 43,155 3,48 20,118 44,191 22,64 45,140 51,170 7,30 25,93 41,140 30,91 80,312 101,441 9,62 17,84 40,108 51,53 51,125 -1,184 -25,28 -30,43 -30,83 0,107 34,170 123,223 47,28 58,53 46,111 -24,128 -7,177 92,256 237,189 306,295 318,484 6,93 10,112 34,148 15,22 27,46 27,53 0,31 23,90 44,115 13,15 26,40 30,56 3,15 21,44 40,65 46,52 56,74 56,127 0,74 36,125 88,125 11,0 23,7 26,16 20,52 -14,240 -78,426 -25,73 -49,167 -54,209 -6,44 -19,93 -33,120 -48,90 -19,304 61,458 109,209 363,440 473,429 31,-3 32,-2 39,42 9,65 3,80 -31,74 -38,-8 -79,35 -131,137 l -40,81 v 125 c 0,111 -2,124 -16,119 -41,-16 -208,-36 -297,-36 -128,0 -234,22 -332,70 -69,34 -101,60 -242,197 -147,144 -163,162 -169,201 -7,42 -8,43 -108,95 l -101,52 z"
     id="path2-0"
     style="fill:#e3dbdb" /><path
     d="m 9089,11169 c -14,-27 4,-42 41,-33 33,7 34,9 20,33 -14,27 -46,27 -61,0 z"
     id="path4"
     style="fill:#e3dbdb" /><path
     d="m 521,6966 c -18,-19 -21,-30 -15,-49 10,-29 110,-111 124,-102 6,3 10,32 10,64 0,55 -2,60 -34,85 -43,32 -56,33 -85,2 z"
     id="path6-0"
     style="fill:#e3dbdb" /><path
     d="m 333,6858 c -11,-14 -19,-43 -35,-133 -13,-71 -52,-119 -110,-137 -49,-15 -39,-28 22,-28 43,0 53,4 85,37 19,20 35,46 35,57 0,12 7,30 15,40 9,12 15,42 15,76 0,31 5,61 11,67 13,13 4,33 -15,33 -8,0 -18,-6 -23,-12 z"
     id="path8"
     style="fill:#e3dbdb" /><path
     d="m 640,6713 c -14,-9 -46,-36 -72,-60 -26,-24 -52,-43 -57,-43 -25,0 -41,-33 -41,-84 0,-28 -5,-57 -12,-64 -8,-8 -8,-15 2,-27 12,-14 15,-14 31,1 27,24 63,15 67,-18 3,-26 7,-28 46,-28 41,0 42,1 80,66 30,52 46,70 79,85 52,23 95,24 119,2 17,-16 20,-16 35,0 16,16 14,20 -36,71 -42,42 -64,56 -110,69 -32,9 -64,23 -71,32 -16,19 -30,19 -60,-2 z"
     id="path10-5"
     style="fill:#e3dbdb" /><path
     d="m 2125,6399 -57,-82 11,-84 c 6,-46 13,-88 16,-93 17,-28 25,0 25,91 v 100 l 40,59 c 39,57 50,90 31,90 -5,0 -35,-37 -66,-81 z"
     id="path12"
     style="fill:#e3dbdb" /><path
     d="m 300,6394 c -11,-12 -10,-18 4,-32 16,-16 18,-16 31,2 11,14 12,23 4,33 -15,17 -24,16 -39,-3 z"
     id="path14-6"
     style="fill:#e3dbdb" /><path
     d="m 272,5858 c -19,-19 -15,-48 7,-48 20,0 37,32 26,50 -8,13 -18,13 -33,-2 z"
     id="path16"
     style="fill:#e3dbdb" /><path
     d="m 48,5275 c -15,-13 -33,-25 -40,-28 -23,-8 6,-42 40,-45 22,-2 34,3 46,20 37,52 1,93 -46,53 z"
     id="path18-9"
     style="fill:#e3dbdb" /><path
     d="m 7046,3349 c -22,-32 -21,-92 2,-112 10,-10 35,-17 55,-17 h 37 v 59 c 0,62 -8,75 -51,86 -21,5 -30,2 -43,-16 z"
     id="path20"
     style="fill:#e3dbdb" /><path
     d="m 3248,1956 c -10,-7 -18,-22 -18,-34 0,-11 -7,-23 -16,-26 -8,-3 -12,-10 -9,-16 9,-15 41,-12 55,5 7,9 28,23 47,32 44,21 41,47 -7,50 -19,2 -43,-3 -52,-11 z"
     id="path22-2"
     style="fill:#e3dbdb" /><path
     d="m 7233,1124 c -46,-17 -51,-25 -28,-44 9,-8 15,-29 15,-56 0,-43 0,-43 69,-83 81,-47 101,-56 159,-65 40,-6 42,-5 42,18 0,16 -17,40 -55,74 -56,52 -64,69 -42,91 10,10 9,14 -5,22 -10,6 -18,16 -18,24 0,18 -7,22 -55,28 -24,4 -57,0 -82,-9 z"
     id="path24"
     style="fill:#e3dbdb" /></g></svg>
