<?xml version="1.0" encoding="UTF-8" standalone="no"?>
<svg
   width="240px"
   height="288px"
   version="1.1"
   xml:space="preserve"
   style="fill-rule:evenodd;clip-rule:evenodd;stroke-linejoin:round;stroke-miterlimit:1.41421;"
   id="svg128"
   sodipodi:docname="truck-inbound.svg"
   inkscape:version="1.1 (c68e22c387, 2021-05-23)"
   xmlns:inkscape="http://www.inkscape.org/namespaces/inkscape"
   xmlns:sodipodi="http://sodipodi.sourceforge.net/DTD/sodipodi-0.dtd"
   xmlns="http://www.w3.org/2000/svg"
   xmlns:svg="http://www.w3.org/2000/svg"><defs
     id="defs132" /><sodipodi:namedview
     id="namedview130"
     pagecolor="#ffffff"
     bordercolor="#666666"
     borderopacity="1.0"
     inkscape:pageshadow="2"
     inkscape:pageopacity="0.0"
     inkscape:pagecheckerboard="0"
     showgrid="false"
     inkscape:zoom="1.8055556"
     inkscape:cx="119.90769"
     inkscape:cy="144.27692"
     inkscape:window-width="1366"
     inkscape:window-height="705"
     inkscape:window-x="-8"
     inkscape:window-y="-8"
     inkscape:window-maximized="1"
     inkscape:current-layer="svg128" /><g
     id="g126"><g
       id="truck-inbound"
       transform="matrix(1,0,0,1,12,0)"><g
         transform="matrix(1,0,0,1,-990.664,-575)"
         id="g4"><path
           d="M1010.4,843.337l1.692,19.663l19.45,0l4.017,-19.874l-25.159,0.211Z"
           style="fill:#5c5e5f;fill-rule:nonzero;"
           id="path2" /></g><g
         transform="matrix(1,0,0,1,-990.664,-575)"
         id="g8"><path
           d="M1030.7,843.127l0.845,19.45l6.018,-19.45l-6.863,0Z"
           style="fill:#2a2b2a;fill-rule:nonzero;"
           id="path6" /></g><g
         transform="matrix(1,0,0,1,-990.664,-575)"
         id="g12"><path
           d="M1167.26,862.789l19.45,0.211l1.692,-19.452l-25.158,-0.211l4.016,19.452Z"
           style="fill:#5c5e5f;fill-rule:nonzero;"
           id="path10" /></g><g
         transform="matrix(1,0,0,1,-990.664,-575)"
         id="g16"><path
           d="M1161.16,843.337l6.02,19.663l0.846,-19.663l-6.866,0Z"
           style="fill:#2a2b2a;fill-rule:nonzero;"
           id="path14" /></g><g
         transform="matrix(1,0,0,1,-990.664,-575)"
         id="g20"><path
           d="M1188.53,843.534l-178.21,0l-7.188,-251.802l190.039,0.058l-4.641,251.744Z"
           style="fill:#c2bfbb;fill-rule:nonzero;"
           id="path18" /></g><g
         transform="matrix(1,0,0,1,-990.664,-575)"
         id="g24"><path
           d="M1007.93,759.725l-2.705,-94.757l-2.091,-73.235l190.039,0.057"
           style="fill:#d9d4cc;fill-rule:nonzero;"
           id="path22" /></g><g
         transform="matrix(1,0,0,1,-990.664,-575)"
         id="g28"><path
           d="M1188.53,843.534l-178.21,0l-3.611,-91.325l18.923,-82.977l142.539,0.558l22.703,83.436l-2.344,90.308Z"
           style="fill:#e4e2dc;fill-rule:nonzero;"
           id="path26" /></g><g
         transform="matrix(1,0,0,1,-990.664,-575)"
         id="g32"><path
           d="M1032.95,798.273l3.127,-9.402l-18.691,-0.036l3.043,9.479l12.521,-0.041Z"
           style="fill:#f9f5e3;fill-rule:nonzero;"
           id="path30" /></g><g
         transform="matrix(1,0,0,1,-990.664,-575)"
         id="g36"><path
           d="M1033.31,812.531l3.127,-9.402l-18.691,-0.036l3.043,9.479l12.521,-0.041Z"
           style="fill:#f9f5e3;fill-rule:nonzero;"
           id="path34" /></g><g
         transform="matrix(1,0,0,1,-990.664,-575)"
         id="g40"><path
           d="M1023.72,768.916l3.127,9.402l-18.691,0.036l-0.226,-9.459l15.79,0.021Z"
           style="fill:#f19e75;fill-rule:nonzero;"
           id="path38" /></g><g
         transform="matrix(1,0,0,1,-990.664,-575)"
         id="g44"><path
           d="M1144.29,817.465l-90.038,0l-2.5,-62.01l95.038,0l-2.5,62.01Z"
           style="fill:#2a2b2a;fill-rule:nonzero;"
           id="path42" /></g><g
         transform="matrix(1,0,0,1,-990.664,-575)"
         id="g48"><path
           d="M1177.45,798.273l3.127,-9.402l-18.691,-0.036l3.043,9.479l12.521,-0.041Z"
           style="fill:#f9f5e3;fill-rule:nonzero;"
           id="path46" /></g><g
         transform="matrix(1,0,0,1,-990.664,-575)"
         id="g52"><path
           d="M1177.81,812.531l3.127,-9.402l-18.691,-0.036l3.043,9.479l12.521,-0.041Z"
           style="fill:#f9f5e3;fill-rule:nonzero;"
           id="path50" /></g><g
         transform="matrix(1,0,0,1,-990.664,-575)"
         id="g56"><path
           d="M1190.46,768.812l-0.327,9.59l-18.692,0.035l3.043,-9.479l15.976,-0.146Z"
           style="fill:#f19e75;fill-rule:nonzero;"
           id="path54" /></g><g
         transform="matrix(1,0,0,1,-990.664,-575)"
         id="g60"><path
           d="M1188.53,843.534l-178.378,-0.197l-0.665,-20.871l179.59,0l-0.547,21.068Z"
           style="fill:#f7f5f0;fill-rule:nonzero;"
           id="path58" /></g><g
         transform="matrix(1,0,0,1,-990.664,-575)"
         id="g64"><path
           d="M1170.95,680.004l32.452,-1.979l0.211,7.822l4.229,-0.633l-0.023,-13.261l-37.989,3.936l1.12,4.115Z"
           style="fill:#2a2b2a;fill-rule:nonzero;"
           id="path62" /></g><g
         transform="matrix(1,0,0,1,-990.664,-575)"
         id="g68"><path
           d="M1211.01,684.578l-0.846,32.348l-15.01,2.115l-2.749,-31.502l18.605,-2.961Z"
           style="fill:#2a2b2a;fill-rule:nonzero;"
           id="path66" /></g><g
         transform="matrix(1,0,0,1,-990.664,-575)"
         id="g74"><g
           opacity="0.300003"
           id="g72"><path
             d="M1211.01,684.685l-0.211,7.505l-17.972,0.105l-0.422,-4.756l18.605,-2.854Z"
             style="fill:#5c5e5f;fill-rule:nonzero;"
             id="path70" /></g></g><g
         transform="matrix(1,0,0,1,-990.664,-575)"
         id="g78"><path
           d="M1023.23,679.781l-29.303,-2.002l-0.211,7.821l-4.228,-0.632l0.022,-13.261l34.742,3.587l-1.022,4.487Z"
           style="fill:#2a2b2a;fill-rule:nonzero;"
           id="path76" /></g><g
         transform="matrix(1,0,0,1,-990.664,-575)"
         id="g82"><path
           d="M986.563,684.332l0.846,32.348l15.01,2.115l2.749,-31.502l-18.605,-2.961Z"
           style="fill:#2a2b2a;fill-rule:nonzero;"
           id="path80" /></g><g
         transform="matrix(1,0,0,1,-990.664,-575)"
         id="g88"><g
           opacity="0.300003"
           id="g86"><path
             d="M986.313,684.438l0.212,7.505l17.971,0.105l0.422,-4.756l-18.605,-2.854Z"
             style="fill:#5c5e5f;fill-rule:nonzero;"
             id="path84" /></g></g><g
         transform="matrix(1,0,0,1,-990.664,-575)"
         id="g92"><path
           d="M1136.49,770.365l-1.488,3.041l-71.91,0.043l-2.002,-3.303l75.4,0.219Z"
           style="fill:#5d5f60;fill-rule:nonzero;"
           id="path90" /></g><g
         transform="matrix(1,0,0,1,-990.664,-575)"
         id="g96"><path
           d="M1136.49,785.365l-1.488,3.041l-71.91,0.043l-2.002,-3.303l75.4,0.219Z"
           style="fill:#5d5f60;fill-rule:nonzero;"
           id="path94" /></g><g
         transform="matrix(1,0,0,1,-990.664,-575)"
         id="g100"><path
           d="M1136.49,800.365l-1.488,3.041l-71.91,0.043l-2.002,-3.303l75.4,0.219Z"
           style="fill:#5d5f60;fill-rule:nonzero;"
           id="path98" /></g><g
         transform="matrix(1,0,0,1,-990.664,-575)"
         id="g104"><path
           d="M1018.13,740.789l160.044,0l-16.282,-61.807l-128.516,-0.234l-15.246,62.041Z"
           style="fill:#313257;fill-rule:nonzero;"
           id="path102" /></g><g
         transform="matrix(1,0,0,1,-990.664,-575)"
         id="g119"><clipPath
           id="tag1"><path
             d="M1018.13,740.789l160.045,0l-16.282,-61.806l-128.517,-0.234l-15.246,62.04Z"
             id="path106" /></clipPath><g
           clip-path="url(#tag1)"
           id="g117"><g
             opacity="0.300003"
             id="g111"><path
               d="M1117.64,645.312l-168.551,169.653l62.188,-169.649l106.363,-0.004Z"
               style="fill:#0c1825;fill-rule:nonzero;"
               id="path109" /></g><g
             opacity="0.300003"
             id="g115"><path
               d="M1190.88,769.298l-26.557,-113.021l-99.996,95.487l-1.248,6.551l127.801,10.983Z"
               style="fill:#0c1825;fill-rule:nonzero;"
               id="path113" /></g></g></g><g
         transform="matrix(1,0,0,1,-990.664,-575)"
         id="g123"><path
           d="M1074.35,740.789l6.165,0l61.623,-61.843l-6.02,-0.011l-61.768,61.854Z"
           style="fill:#4a4b73;fill-rule:nonzero;"
           id="path121" /></g></g></g><g
     transform="matrix(0.00425094,0,0,-0.00420945,141.17563,163.72696)"
     fill="#000000"
     stroke="none"
     id="g26"
     style="fill:#e3dbdb"><path
       d="m 7610,12773 c -48,-16 -79,-20 -117,-16 -49,5 -57,3 -127,-41 -126,-78 -185,-134 -201,-189 -13,-45 -147,-245 -184,-275 -16,-13 -175,-65 -331,-107 -58,-16 -140,-29 -211,-33 l -115,-8 -110,-61 c -60,-34 -193,-93 -294,-132 -101,-39 -193,-77 -204,-85 -12,-7 -57,-78 -101,-157 -43,-79 -151,-251 -239,-382 l -160,-238 -7,-123 c -8,-149 -16,-164 -110,-209 l -69,-32 6,-46 c 13,-99 -39,-138 -193,-147 l -92,-5 -16,-33 c -8,-18 -18,-47 -21,-66 -9,-47 -47,-83 -110,-103 -69,-22 -91,-53 -169,-235 -31,-74 -87,-191 -123,-259 -57,-105 -86,-144 -190,-260 -112,-123 -129,-147 -178,-251 -35,-74 -70,-131 -98,-160 -41,-43 -43,-49 -54,-132 -12,-99 -35,-150 -96,-217 -23,-25 -54,-65 -70,-88 -16,-23 -43,-51 -61,-61 -26,-16 -33,-28 -38,-63 -3,-24 -27,-86 -53,-138 -41,-83 -61,-109 -158,-207 -61,-61 -124,-121 -139,-132 -25,-18 -33,-39 -62,-156 -19,-74 -44,-154 -55,-178 -14,-26 -92,-112 -204,-223 -172,-171 -185,-187 -257,-310 -115,-195 -129,-227 -129,-285 0,-88 -21,-192 -57,-285 -37,-92 -43,-143 -28,-222 7,-37 3,-49 -29,-106 -20,-36 -36,-72 -36,-80 0,-9 16,-31 35,-49 32,-30 36,-40 45,-114 12,-93 0,-261 -25,-370 -49,-214 -124,-452 -175,-554 -32,-64 -70,-181 -70,-217 0,-6 15,-10 33,-9 27,1 33,-3 35,-23 3,-18 -11,-37 -62,-85 -71,-66 -70,-65 -67,-209 1,-45 30,-77 68,-77 16,0 51,-11 78,-24 44,-20 83,-49 252,-192 l 43,-35 v -95 c 0,-112 29,-209 81,-274 32,-39 33,-43 33,-139 1,-94 2,-100 35,-152 83,-130 102,-166 131,-241 40,-106 45,-143 26,-197 -14,-41 -13,-48 6,-105 50,-149 79,-192 222,-325 26,-23 73,-77 105,-120 79,-103 91,-112 219,-180 61,-33 166,-96 233,-141 67,-45 144,-90 173,-100 183,-63 348,-194 415,-332 17,-35 39,-96 49,-136 15,-59 27,-81 60,-115 22,-23 52,-64 66,-92 47,-95 142,-434 152,-548 l 7,-67 -57,-55 c -69,-68 -71,-86 -11,-145 65,-64 75,-90 63,-179 -10,-87 -7,-101 25,-101 19,0 26,7 30,29 4,17 19,44 35,62 26,29 35,33 80,32 43,-1 68,-10 149,-56 87,-49 163,-79 163,-63 0,3 -7,31 -15,63 -17,63 -12,123 12,161 8,13 40,49 71,80 57,57 122,169 122,210 0,11 -5,33 -11,49 -6,15 -19,68 -29,117 -16,74 -17,103 -9,173 5,46 14,158 19,248 9,158 8,166 -13,212 -16,36 -21,66 -21,118 1,77 4,88 109,320 37,83 114,259 171,392 93,220 107,248 158,305 38,42 54,67 50,78 -4,8 -12,32 -17,52 -21,72 -13,79 235,227 302,181 321,196 379,301 27,47 51,91 55,99 4,8 -4,34 -19,62 -15,26 -27,52 -27,57 0,23 54,72 105,96 92,42 139,95 209,235 34,69 99,183 144,253 72,110 125,212 185,350 12,26 32,46 74,71 47,27 58,38 56,58 -1,13 -2,83 -3,155 -2,142 9,186 55,234 13,14 47,73 76,130 28,58 67,130 88,160 39,57 103,227 146,390 18,64 29,140 35,235 10,154 15,178 66,297 31,72 34,89 32,157 -3,69 0,83 33,156 28,60 38,99 43,155 3,48 20,118 44,191 22,64 45,140 51,170 7,30 25,93 41,140 30,91 80,312 101,441 9,62 17,84 40,108 51,53 51,125 -1,184 -25,28 -30,43 -30,83 0,107 34,170 123,223 47,28 58,53 46,111 -24,128 -7,177 92,256 237,189 306,295 318,484 6,93 10,112 34,148 15,22 27,46 27,53 0,31 23,90 44,115 13,15 26,40 30,56 3,15 21,44 40,65 46,52 56,74 56,127 0,74 36,125 88,125 11,0 23,7 26,16 20,52 -14,240 -78,426 -25,73 -49,167 -54,209 -6,44 -19,93 -33,120 -48,90 -19,304 61,458 109,209 363,440 473,429 31,-3 32,-2 39,42 9,65 3,80 -31,74 -38,-8 -79,35 -131,137 l -40,81 v 125 c 0,111 -2,124 -16,119 -41,-16 -208,-36 -297,-36 -128,0 -234,22 -332,70 -69,34 -101,60 -242,197 -147,144 -163,162 -169,201 -7,42 -8,43 -108,95 l -101,52 z"
       id="path2-1"
       style="fill:#e3dbdb" /><path
       d="m 9089,11169 c -14,-27 4,-42 41,-33 33,7 34,9 20,33 -14,27 -46,27 -61,0 z"
       id="path4"
       style="fill:#e3dbdb" /><path
       d="m 521,6966 c -18,-19 -21,-30 -15,-49 10,-29 110,-111 124,-102 6,3 10,32 10,64 0,55 -2,60 -34,85 -43,32 -56,33 -85,2 z"
       id="path6-9"
       style="fill:#e3dbdb" /><path
       d="m 333,6858 c -11,-14 -19,-43 -35,-133 -13,-71 -52,-119 -110,-137 -49,-15 -39,-28 22,-28 43,0 53,4 85,37 19,20 35,46 35,57 0,12 7,30 15,40 9,12 15,42 15,76 0,31 5,61 11,67 13,13 4,33 -15,33 -8,0 -18,-6 -23,-12 z"
       id="path8"
       style="fill:#e3dbdb" /><path
       d="m 640,6713 c -14,-9 -46,-36 -72,-60 -26,-24 -52,-43 -57,-43 -25,0 -41,-33 -41,-84 0,-28 -5,-57 -12,-64 -8,-8 -8,-15 2,-27 12,-14 15,-14 31,1 27,24 63,15 67,-18 3,-26 7,-28 46,-28 41,0 42,1 80,66 30,52 46,70 79,85 52,23 95,24 119,2 17,-16 20,-16 35,0 16,16 14,20 -36,71 -42,42 -64,56 -110,69 -32,9 -64,23 -71,32 -16,19 -30,19 -60,-2 z"
       id="path10-6"
       style="fill:#e3dbdb" /><path
       d="m 2125,6399 -57,-82 11,-84 c 6,-46 13,-88 16,-93 17,-28 25,0 25,91 v 100 l 40,59 c 39,57 50,90 31,90 -5,0 -35,-37 -66,-81 z"
       id="path12"
       style="fill:#e3dbdb" /><path
       d="m 300,6394 c -11,-12 -10,-18 4,-32 16,-16 18,-16 31,2 11,14 12,23 4,33 -15,17 -24,16 -39,-3 z"
       id="path14-1"
       style="fill:#e3dbdb" /><path
       d="m 272,5858 c -19,-19 -15,-48 7,-48 20,0 37,32 26,50 -8,13 -18,13 -33,-2 z"
       id="path16"
       style="fill:#e3dbdb" /><path
       d="m 48,5275 c -15,-13 -33,-25 -40,-28 -23,-8 6,-42 40,-45 22,-2 34,3 46,20 37,52 1,93 -46,53 z"
       id="path18-4"
       style="fill:#e3dbdb" /><path
       d="m 7046,3349 c -22,-32 -21,-92 2,-112 10,-10 35,-17 55,-17 h 37 v 59 c 0,62 -8,75 -51,86 -21,5 -30,2 -43,-16 z"
       id="path20"
       style="fill:#e3dbdb" /><path
       d="m 3248,1956 c -10,-7 -18,-22 -18,-34 0,-11 -7,-23 -16,-26 -8,-3 -12,-10 -9,-16 9,-15 41,-12 55,5 7,9 28,23 47,32 44,21 41,47 -7,50 -19,2 -43,-3 -52,-11 z"
       id="path22-7"
       style="fill:#e3dbdb" /><path
       d="m 7233,1124 c -46,-17 -51,-25 -28,-44 9,-8 15,-29 15,-56 0,-43 0,-43 69,-83 81,-47 101,-56 159,-65 40,-6 42,-5 42,18 0,16 -17,40 -55,74 -56,52 -64,69 -42,91 10,10 9,14 -5,22 -10,6 -18,16 -18,24 0,18 -7,22 -55,28 -24,4 -57,0 -82,-9 z"
       id="path24"
       style="fill:#e3dbdb" /></g></svg>
