<svg xmlns="http://www.w3.org/2000/svg" viewBox="0 0 136 21"><path fill="#ffffff" d="M7.01 9.69L7.01 9.69Q4.11 8.86 2.79 7.65Q1.48 6.43 1.48 4.65L1.48 4.65Q1.48 2.64 3.09 1.32Q4.70 0 7.28 0L7.28 0Q9.04 0 10.41 0.68Q11.79 1.36 12.54 2.55Q13.30 3.75 13.30 5.17L13.30 5.17L11.04 5.17Q11.04 3.62 10.05 2.74Q9.07 1.85 7.28 1.85L7.28 1.85Q5.61 1.85 4.68 2.58Q3.75 3.32 3.75 4.62L3.75 4.62Q3.75 5.66 4.63 6.38Q5.52 7.10 7.65 7.70Q9.77 8.30 10.97 9.02Q12.18 9.74 12.76 10.70Q13.34 11.66 13.34 12.96L13.34 12.96Q13.34 15.04 11.72 16.28Q10.10 17.53 7.39 17.53L7.39 17.53Q5.64 17.53 4.11 16.86Q2.59 16.18 1.76 15.01Q0.94 13.84 0.94 12.35L0.94 12.35L3.20 12.35Q3.20 13.90 4.34 14.79Q5.48 15.69 7.39 15.69L7.39 15.69Q9.18 15.69 10.13 14.96Q11.07 14.24 11.07 12.98Q11.07 11.73 10.20 11.04Q9.32 10.36 7.01 9.69ZM16.65 1.55L18.82 1.55L18.82 4.62L21.19 4.62L21.19 6.29L18.82 6.29L18.82 14.16Q18.82 14.92 19.14 15.30Q19.45 15.68 20.21 15.68L20.21 15.68Q20.59 15.68 21.25 15.54L21.25 15.54L21.25 17.30Q20.39 17.53 19.58 17.53L19.58 17.53Q18.13 17.53 17.39 16.65Q16.65 15.77 16.65 14.16L16.65 14.16L16.65 6.29L14.34 6.29L14.34 4.62L16.65 4.62L16.65 1.55ZM29.85 4.55L29.85 6.56Q29.36 6.48 28.78 6.48L28.78 6.48Q26.65 6.48 25.89 8.30L25.89 8.30L25.89 17.30L23.72 17.30L23.72 4.62L25.83 4.62L25.86 6.08Q26.93 4.38 28.89 4.38L28.89 4.38Q29.52 4.38 29.85 4.55L29.85 4.55ZM36.88 17.53L36.88 17.53Q34.30 17.53 32.68 15.84Q31.07 14.14 31.07 11.31L31.07 11.31L31.07 10.91Q31.07 9.02 31.79 7.54Q32.51 6.06 33.80 5.22Q35.10 4.38 36.61 4.38L36.61 4.38Q39.08 4.38 40.45 6.01Q41.82 7.64 41.82 10.68L41.82 10.68L41.82 11.58L33.23 11.58Q33.28 13.45 34.33 14.61Q35.38 15.76 37.00 15.76L37.00 15.76Q38.14 15.76 38.94 15.29Q39.74 14.82 40.34 14.05L40.34 14.05L41.66 15.08Q40.07 17.53 36.88 17.53ZM36.61 6.16L36.61 6.16Q35.30 6.16 34.41 7.12Q33.52 8.07 33.30 9.80L33.30 9.80L39.66 9.80L39.66 9.63Q39.56 7.98 38.77 7.07Q37.97 6.16 36.61 6.16ZM49.59 17.53L49.59 17.53Q47.02 17.53 45.40 15.84Q43.78 14.14 43.78 11.31L43.78 11.31L43.78 10.91Q43.78 9.02 44.50 7.54Q45.22 6.06 46.52 5.22Q47.81 4.38 49.32 4.38L49.32 4.38Q51.80 4.38 53.17 6.01Q54.54 7.64 54.54 10.68L54.54 10.68L54.54 11.58L45.95 11.58Q46.00 13.45 47.04 14.61Q48.09 15.76 49.71 15.76L49.71 15.76Q50.86 15.76 51.66 15.29Q52.45 14.82 53.05 14.05L53.05 14.05L54.38 15.08Q52.78 17.53 49.59 17.53ZM49.32 6.16L49.32 6.16Q48.01 6.16 47.12 7.12Q46.23 8.07 46.02 9.80L46.02 9.80L52.37 9.80L52.37 9.63Q52.28 7.98 51.48 7.07Q50.68 6.16 49.32 6.16ZM57.82 1.55L59.99 1.55L59.99 4.62L62.36 4.62L62.36 6.29L59.99 6.29L59.99 14.16Q59.99 14.92 60.30 15.30Q60.62 15.68 61.38 15.68L61.38 15.68Q61.76 15.68 62.41 15.54L62.41 15.54L62.41 17.30Q61.56 17.53 60.75 17.53L60.75 17.53Q59.30 17.53 58.56 16.65Q57.82 15.77 57.82 14.16L57.82 14.16L57.82 6.29L55.51 6.29L55.51 4.62L57.82 4.62L57.82 1.55ZM69.95 17.30L65.23 17.30L65.23 0.23L70.04 0.23Q72.27 0.23 73.98 1.22Q75.69 2.20 76.62 4.02Q77.55 5.84 77.57 8.19L77.57 8.19L77.57 9.28Q77.57 11.70 76.63 13.51Q75.70 15.33 73.97 16.30Q72.25 17.27 69.95 17.30L69.95 17.30ZM70.10 2.09L67.48 2.09L67.48 15.46L69.84 15.46Q72.45 15.46 73.89 13.84Q75.34 12.22 75.34 9.23L75.34 9.23L75.34 8.24Q75.34 5.33 73.97 3.72Q72.61 2.11 70.10 2.09L70.10 2.09ZM85.89 17.53L85.89 17.53Q83.31 17.53 81.69 15.84Q80.07 14.14 80.07 11.31L80.07 11.31L80.07 10.91Q80.07 9.02 80.79 7.54Q81.52 6.06 82.81 5.22Q84.11 4.38 85.62 4.38L85.62 4.38Q88.09 4.38 89.46 6.01Q90.83 7.64 90.83 10.68L90.83 10.68L90.83 11.58L82.24 11.58Q82.29 13.45 83.34 14.61Q84.39 15.76 86.00 15.76L86.00 15.76Q87.15 15.76 87.95 15.29Q88.75 14.82 89.34 14.05L89.34 14.05L90.67 15.08Q89.07 17.53 85.89 17.53ZM85.62 6.16L85.62 6.16Q84.30 6.16 83.41 7.12Q82.52 8.07 82.31 9.80L82.31 9.80L88.66 9.80L88.66 9.63Q88.57 7.98 87.77 7.07Q86.98 6.16 85.62 6.16ZM100.72 13.93L100.72 13.93Q100.72 13.05 100.06 12.57Q99.40 12.08 97.75 11.73Q96.11 11.38 95.14 10.89Q94.17 10.39 93.71 9.71Q93.25 9.04 93.25 8.10L93.25 8.10Q93.25 6.54 94.56 5.46Q95.88 4.38 97.93 4.38L97.93 4.38Q100.09 4.38 101.43 5.50Q102.77 6.61 102.77 8.34L102.77 8.34L100.59 8.34Q100.59 7.45 99.84 6.81Q99.08 6.16 97.93 6.16L97.93 6.16Q96.75 6.16 96.08 6.68Q95.41 7.20 95.41 8.03L95.41 8.03Q95.41 8.81 96.04 9.21Q96.66 9.61 98.28 9.97Q99.90 10.34 100.91 10.84Q101.92 11.34 102.40 12.05Q102.89 12.76 102.89 13.78L102.89 13.78Q102.89 15.48 101.53 16.51Q100.17 17.53 98.00 17.53L98.00 17.53Q96.48 17.53 95.31 16.99Q94.14 16.45 93.47 15.49Q92.81 14.52 92.81 13.39L92.81 13.39L94.98 13.39Q95.04 14.48 95.85 15.12Q96.67 15.76 98.00 15.76L98.00 15.76Q99.23 15.76 99.98 15.26Q100.72 14.77 100.72 13.93ZM108.07 4.62L108.07 17.30L105.90 17.30L105.90 4.62L108.07 4.62ZM105.73 1.25L105.73 1.25Q105.73 0.73 106.05 0.36Q106.37 0 107.00 0Q107.64 0 107.96 0.36Q108.29 0.73 108.29 1.25Q108.29 1.78 107.96 2.13Q107.64 2.48 107.00 2.48Q106.37 2.48 106.05 2.13Q105.73 1.78 105.73 1.25ZM111.02 10.85L111.02 10.85Q111.02 7.89 112.39 6.13Q113.77 4.38 116.03 4.38L116.03 4.38Q118.35 4.38 119.65 6.02L119.65 6.02L119.75 4.62L121.73 4.62L121.73 16.99Q121.73 19.45 120.28 20.87Q118.82 22.29 116.36 22.29L116.36 22.29Q114.98 22.29 113.67 21.70Q112.36 21.12 111.67 20.10L111.67 20.10L112.79 18.80Q114.19 20.52 116.20 20.52L116.20 20.52Q117.79 20.52 118.67 19.63Q119.55 18.74 119.55 17.12L119.55 17.12L119.55 16.03Q118.25 17.53 116.00 17.53L116.00 17.53Q113.78 17.53 112.40 15.74Q111.02 13.95 111.02 10.85ZM113.20 11.10L113.20 11.10Q113.20 13.24 114.08 14.47Q114.96 15.69 116.54 15.69L116.54 15.69Q118.59 15.69 119.55 13.83L119.55 13.83L119.55 8.04Q118.56 6.22 116.57 6.22L116.57 6.22Q114.98 6.22 114.09 7.45Q113.20 8.68 113.20 11.10ZM125.00 4.62L127.05 4.62L127.13 6.21Q128.58 4.38 130.92 4.38L130.92 4.38Q134.94 4.38 134.98 8.92L134.98 8.92L134.98 17.30L132.81 17.30L132.81 8.91Q132.80 7.54 132.18 6.88Q131.57 6.22 130.27 6.22L130.27 6.22Q129.21 6.22 128.41 6.79Q127.62 7.35 127.17 8.26L127.17 8.26L127.17 17.30L125.00 17.30L125.00 4.62Z"></path></svg>