<?xml version="1.0" encoding="UTF-8" standalone="no"?>
<svg
   width="144px"
   height="240px"
   version="1.1"
   xml:space="preserve"
   style="fill-rule:evenodd;clip-rule:evenodd;stroke-linejoin:round;stroke-miterlimit:1.41421;"
   id="svg116"
   sodipodi:docname="cafe-seating-occupied.svg"
   inkscape:version="1.1 (c68e22c387, 2021-05-23)"
   xmlns:inkscape="http://www.inkscape.org/namespaces/inkscape"
   xmlns:sodipodi="http://sodipodi.sourceforge.net/DTD/sodipodi-0.dtd"
   xmlns="http://www.w3.org/2000/svg"
   xmlns:svg="http://www.w3.org/2000/svg"><defs
     id="defs120" /><sodipodi:namedview
     id="namedview118"
     pagecolor="#ffffff"
     bordercolor="#666666"
     borderopacity="1.0"
     inkscape:pageshadow="2"
     inkscape:pageopacity="0.0"
     inkscape:pagecheckerboard="0"
     showgrid="false"
     inkscape:zoom="2.1666667"
     inkscape:cx="71.769231"
     inkscape:cy="120.23077"
     inkscape:window-width="1366"
     inkscape:window-height="705"
     inkscape:window-x="-8"
     inkscape:window-y="-8"
     inkscape:window-maximized="1"
     inkscape:current-layer="svg116" /><g
     id="g114"><g
       id="cafe-seating-occupied"
       transform="matrix(1,0,0,1,-12.5,27)"><g
         id="umbrella"
         transform="matrix(1,0,0,1,-7.07203,0)"><g
           transform="matrix(1,0,0,1.08664,2,-12.828)"
           id="g4"><path
             d="M93.1338,47.0547l-4.936,0.015l-0.056,100.598l5.273,0.389l-0.281,-101.002Z"
             style="fill:#564038;fill-rule:nonzero;"
             id="path2" /></g><g
           transform="matrix(0.996369,0,0,0.996369,0.211418,-9.81329)"
           id="g8"><path
             d="M93.0327,10l-66.2239,27.6l-1.36132,10.3874l48.1796,3.43658l84.3125,-1.798l-1.42378,-11.126l-63.4831,-28.5Z"
             style="fill:#ae1f25;fill-rule:nonzero;"
             id="path6" /></g><g
           transform="matrix(0.996369,0,0,0.996369,0.211418,-9.81329)"
           id="g12"><path
             d="M93,10l-18.4143,30.03l81.8953,-1.57903l-63.481,-28.451Z"
             style="fill:#6b151c;fill-rule:nonzero;"
             id="path10" /></g><g
           transform="matrix(0.996369,0,0,0.996369,0.211418,-9.81329)"
           id="g16"><path
             d="M26.762,37.6l47.8235,2.4307l-0.935572,11.3933l-48.2024,-3.43688l1.31452,-10.3871Z"
             style="fill:#6b151c;fill-rule:nonzero;"
             id="path14" /></g></g><g
         id="table"
         transform="matrix(1,0,0,1,-3.9863,0)"><path
           d="M85.6104,210l0.99,-60l6.954,0l0.991,60l-8.935,0Z"
           style="fill:#2a2b2a;fill-rule:nonzero;"
           id="path19" /><path
           d="M126.653,147.66l-1.507,5.936l-72.8,0.055l-2.027,-6.272l76.334,0.281Z"
           style="fill:#2a2b2a;fill-rule:nonzero;"
           id="path21" /><path
           d="M77.8611,213l23.676,0l-3.122,-8.389l-17.527,-0.04l-3.027,8.429Z"
           style="fill:#2a2b2a;fill-rule:nonzero;"
           id="path23" /></g><g
         id="salad"
         transform="matrix(1,0,0,1,60.4009,128.168)"><path
           d="M24.9844,10.0313l1.687,-1.734l-1.546,-2.438l4.468,0.531l1.532,1.688l2.625,-1.328l4.531,2.453l1.219,-1.078l1.625,2l-16.141,-0.094Z"
           style="fill:#679a45;fill-rule:nonzero;"
           id="path26" /><path
           d="M26.7959,19.3906l-3.127,-9.402l18.691,-0.036l-3.043,9.479l-12.521,-0.041Z"
           style="fill:#f6f1e1;fill-rule:nonzero;"
           id="path28" /></g><g
         id="coffee"
         transform="matrix(1,0,0,1,6.7397,128.068)"><path
           d="M69.751,15.1338l-1.372,0.456l0.583,-1.815l0.796,0.255l-0.007,1.104ZM71.445,12.6778l-1.932,-0.62l0.675,-2.105l-13.686,0.035l3.127,9.403l7.517,0.041l0.557,-1.738l3.721,-1.238l0.021,-3.778Z"
           style="fill:#f6f1e1;fill-rule:nonzero;"
           id="path31" /></g><g
         id="drink"
         transform="matrix(0.5,0,0,0.5,23.7039,-20.3)"><g
           transform="matrix(1,0,0,1,2,0)"
           id="g36"><path
             d="M192,296.25l-16,-4.373l-2.666,26.123l-4.334,0l3.875,-30.5l19.125,4.002l0,4.748Z"
             style="fill:#c1bebb;fill-rule:nonzero;"
             id="path34" /></g><g
           transform="matrix(2,0,0,2,150.749,296.747)"
           id="g42"><path
             d="M6.374,4l1.733,15l6.77,0l1.321,-15l-9.824,0Z"
             style="fill:#f6f1e1;fill-rule:nonzero;"
             id="path38" /><path
             d="M6.7207,6.9854l9.203,-0.016l-1.047,12.657l-6.986,-0.017l-1.17,-12.624Z"
             style="fill:#978974;fill-rule:nonzero;"
             id="path40" /></g></g><g
         id="person-right"
         transform="matrix(1,0,0,1,-6.4874,0)"><path
           d="M103.4,208.46l1.569,4.54l16.532,0l1.776,-6.124l-8.043,-0.666l-11.834,2.25Z"
           style="fill:#564038;fill-rule:nonzero;"
           id="path45" /><path
           d="M117.174,208.314l9.313,-36.515l3.833,2.494l-7.896,34.271l-5.25,-0.25Z"
           style="fill:#c0bdbb;fill-rule:nonzero;"
           id="path47" /><path
           d="M158.49,135l-7.365,38.959l-24.791,-0.042l-5.489,39.083l4.458,0l4.322,-33.999l20.94,-0.032l5.015,34.031l4.25,0l-4.528,-33.357l6.161,-44.643l-2.973,0Z"
           style="fill:#564038;fill-rule:nonzero;"
           id="path49" /><path
           d="M136.533,158.001l-20.75,5.625l-6.252,42.584l8.127,0.666l8.617,-32.883l24.849,-0.056l2.784,-14.561l-17.375,-1.375Z"
           style="fill:#e3e1db;fill-rule:nonzero;"
           id="path51" /><path
           d="M97.7346,208.46l1.569,4.54l16.531,0l1.776,-6.124l-8.042,-0.666l-11.834,2.25Z"
           style="fill:#745b4d;fill-rule:nonzero;"
           id="path53" /><path
           d="M136.486,158.001l17.437,1.391l6.396,-33.6l-8,-0.457l-7,7.792l-8.833,24.874Z"
           style="fill:#1f4d6b;fill-rule:nonzero;"
           id="path55" /><path
           d="M151.419,132.667l3.469,3.755l-14.149,14.534l-17.5,-10.3l2.646,-1.843l14.536,7.099l10.998,-13.245Z"
           style="fill:#cdaa97;fill-rule:nonzero;"
           id="path57" /><path
           d="M124.585,141.335l-5.349,-0.084l-2.875,-4.625l3.5,-1.25l7.369,4.115l-2.645,1.844Z"
           style="fill:#cdaa97;fill-rule:nonzero;"
           id="path59" /><path
           d="M123.615,135.379l-1.555,1.206l4.156,2.47l-2.601,-3.676Z"
           style="fill:#cdaa97;fill-rule:nonzero;"
           id="path61" /><path
           d="M151.486,128.876l-2.646,6.917l5.917,3.625l4.948,-10.261l-8.219,-0.281Z"
           style="fill:#366388;fill-rule:nonzero;"
           id="path63" /><path
           d="M159.689,129.142l0.609,-3.344l-7.979,-0.463l-7,7.792l6.001,-1.751l8.369,-2.234Z"
           style="fill:#366388;fill-rule:nonzero;"
           id="path65" /><path
           d="M159.611,120.252l3.376,-9.125l-14.501,-4.417l-2.502,8.25l1.917,0.333l0.501,5.75l5.501,-0.458"
           style="fill:#cdaa97;fill-rule:nonzero;"
           id="path67" /><path
           d="M160.314,125.814l-0.744,-6.521l-5.708,0.334l-1.519,5.717l7.971,0.47Z"
           style="fill:#aa8b7e;fill-rule:nonzero;"
           id="path69" /><path
           d="M153.61,121.002l1.329,-4.704l2.734,0.392l1.407,-4.439l-2.985,0l0.703,-2.516l6.189,1.725l-3.293,8.896l-6.084,0.646Z"
           style="fill:#aa8b7e;fill-rule:nonzero;"
           id="path71" /><path
           d="M157.174,119.688l-2.023,-1.562l-6.834,1l-0.08,3.833l8.937,-3.271Z"
           style="fill:#2a2b2a;fill-rule:nonzero;"
           id="path73" /><path
           d="M152.024,107.784l-9.786,-0.034l-1.835,-3.499l9.64,-0.286l1.981,3.819Z"
           style="fill:#694;fill-rule:nonzero;"
           id="path75" /><path
           d="M149.113,107.585l13.874,3.875l-0.291,-7.793l-9.917,-2.375l-4.584,2.834l0.918,3.459Z"
           style="fill:#694;fill-rule:nonzero;"
           id="path77" /><path
           d="M156.799,109.735l5.897,-6.068l0.291,7.793l-6.188,-1.725Z"
           style="fill:#36803f;fill-rule:nonzero;"
           id="path79" /></g><g
         id="person-left"
         transform="matrix(1,0,0,1,6.5,0)"><path
           d="M48.4443,206.876l1.777,6.124l16.531,0l1.569,-4.54l-11.834,-2.25l-8.043,0.666Z"
           style="fill:#2a2b2a;fill-rule:nonzero;"
           id="path82" /><path
           d="M54.5479,208.314l-9.313,-36.515l-3.833,2.494l7.896,34.271l5.25,-0.25Z"
           style="fill:#679a45;fill-rule:nonzero;"
           id="path84" /><path
           d="M10.2591,135l6.161,44.643l-4.528,33.357l4.249,0l5.016,-34.031l20.94,0.032l4.322,33.999l4.458,0l-5.489,-39.083l-24.792,0.042l-7.364,-38.959l-2.973,0Z"
           style="fill:#564038;fill-rule:nonzero;"
           id="path86" /><path
           d="M32.0005,160.502l20.935,4.125l9.255,41.583l-8.127,0.666l-8.617,-32.883l-24.849,-0.056l-2.784,-14.561l14.187,1.126Z"
           style="fill:#89ba6a;fill-rule:nonzero;"
           id="path88" /><path
           d="M54.1107,206.876l1.777,6.124l16.53,0l1.569,-4.54l-11.834,-2.25l-8.042,0.666Z"
           style="fill:#5c5e5f;fill-rule:nonzero;"
           id="path90" /><path
           d="M31.8335,160.502l-14.036,0.892l-6.395,-35.602l8,-0.457l8.223,9.54l0.375,6.375l3.833,19.252Z"
           style="fill:#ef9c74;fill-rule:nonzero;"
           id="path92" /><path
           d="M20.3027,132.667l-3.469,3.755l20.041,12.641l22.521,-6.844l-2.646,-1.844l-19.556,3.644l-16.891,-11.352Z"
           style="fill:#e1c5b5;fill-rule:nonzero;"
           id="path94" /><path
           d="M59.3867,142.21l5.349,-0.084l2.875,-4.625l-3.5,-1.25l-7.369,4.115l2.645,1.844Z"
           style="fill:#e1c5b5;fill-rule:nonzero;"
           id="path96" /><path
           d="M60.3564,136.254l1.555,1.206l-4.156,2.47l2.601,-3.676Z"
           style="fill:#e1c5b5;fill-rule:nonzero;"
           id="path98" /><path
           d="M12.125,131.188l7.25,8.625l5.875,-4l-3.812,-4.313l-8.626,-2.562l-0.687,2.25Z"
           style="fill:#f3ac8a;fill-rule:nonzero;"
           id="path100" /><path
           d="M12.0322,129.142l-0.609,-3.344l7.979,-0.463l8.254,9.603l-7.255,-3.562l-8.369,-2.234Z"
           style="fill:#f3ac8a;fill-rule:nonzero;"
           id="path102" /><path
           d="M12.1104,120.252l-3.376,-9.125l14.501,-4.417l2.502,8.25l-1.917,0.333l-0.501,5.75l-5.501,-0.458"
           style="fill:#e1c5b5;fill-rule:nonzero;"
           id="path104" /><path
           d="M11.4072,125.814l0.744,-6.521l5.552,0.348l1.675,5.703l3.841,4.375l-11.812,-3.905Z"
           style="fill:#ceab97;fill-rule:nonzero;"
           id="path106" /><path
           d="M18.1113,121.002l-1.329,-4.704l-2.734,0.392l-1.407,-4.856l2.985,0l-0.703,-2.099l-6.189,1.725l3.293,8.896l6.084,0.646Z"
           style="fill:#ceab97;fill-rule:nonzero;"
           id="path108" /><path
           d="M23.625,107.75l-5.91,5.437l-2.089,-1.187l-2.626,0l1.125,4.25l2.657,0.048l-4.345,14.952l-6.437,0.125l2.625,-25.75l6.875,-4l6.75,1.5l1.375,4.625Z"
           style="fill:#2a2b2a;fill-rule:nonzero;"
           id="path110" /></g></g></g><g
     transform="matrix(0.00199332,0,0,-0.00175146,68.545984,56.914862)"
     fill="#000000"
     stroke="none"
     id="g26"
     style="fill:#e3dbdb"><path
       d="m 7610,12773 c -48,-16 -79,-20 -117,-16 -49,5 -57,3 -127,-41 -126,-78 -185,-134 -201,-189 -13,-45 -147,-245 -184,-275 -16,-13 -175,-65 -331,-107 -58,-16 -140,-29 -211,-33 l -115,-8 -110,-61 c -60,-34 -193,-93 -294,-132 -101,-39 -193,-77 -204,-85 -12,-7 -57,-78 -101,-157 -43,-79 -151,-251 -239,-382 l -160,-238 -7,-123 c -8,-149 -16,-164 -110,-209 l -69,-32 6,-46 c 13,-99 -39,-138 -193,-147 l -92,-5 -16,-33 c -8,-18 -18,-47 -21,-66 -9,-47 -47,-83 -110,-103 -69,-22 -91,-53 -169,-235 -31,-74 -87,-191 -123,-259 -57,-105 -86,-144 -190,-260 -112,-123 -129,-147 -178,-251 -35,-74 -70,-131 -98,-160 -41,-43 -43,-49 -54,-132 -12,-99 -35,-150 -96,-217 -23,-25 -54,-65 -70,-88 -16,-23 -43,-51 -61,-61 -26,-16 -33,-28 -38,-63 -3,-24 -27,-86 -53,-138 -41,-83 -61,-109 -158,-207 -61,-61 -124,-121 -139,-132 -25,-18 -33,-39 -62,-156 -19,-74 -44,-154 -55,-178 -14,-26 -92,-112 -204,-223 -172,-171 -185,-187 -257,-310 -115,-195 -129,-227 -129,-285 0,-88 -21,-192 -57,-285 -37,-92 -43,-143 -28,-222 7,-37 3,-49 -29,-106 -20,-36 -36,-72 -36,-80 0,-9 16,-31 35,-49 32,-30 36,-40 45,-114 12,-93 0,-261 -25,-370 -49,-214 -124,-452 -175,-554 -32,-64 -70,-181 -70,-217 0,-6 15,-10 33,-9 27,1 33,-3 35,-23 3,-18 -11,-37 -62,-85 -71,-66 -70,-65 -67,-209 1,-45 30,-77 68,-77 16,0 51,-11 78,-24 44,-20 83,-49 252,-192 l 43,-35 v -95 c 0,-112 29,-209 81,-274 32,-39 33,-43 33,-139 1,-94 2,-100 35,-152 83,-130 102,-166 131,-241 40,-106 45,-143 26,-197 -14,-41 -13,-48 6,-105 50,-149 79,-192 222,-325 26,-23 73,-77 105,-120 79,-103 91,-112 219,-180 61,-33 166,-96 233,-141 67,-45 144,-90 173,-100 183,-63 348,-194 415,-332 17,-35 39,-96 49,-136 15,-59 27,-81 60,-115 22,-23 52,-64 66,-92 47,-95 142,-434 152,-548 l 7,-67 -57,-55 c -69,-68 -71,-86 -11,-145 65,-64 75,-90 63,-179 -10,-87 -7,-101 25,-101 19,0 26,7 30,29 4,17 19,44 35,62 26,29 35,33 80,32 43,-1 68,-10 149,-56 87,-49 163,-79 163,-63 0,3 -7,31 -15,63 -17,63 -12,123 12,161 8,13 40,49 71,80 57,57 122,169 122,210 0,11 -5,33 -11,49 -6,15 -19,68 -29,117 -16,74 -17,103 -9,173 5,46 14,158 19,248 9,158 8,166 -13,212 -16,36 -21,66 -21,118 1,77 4,88 109,320 37,83 114,259 171,392 93,220 107,248 158,305 38,42 54,67 50,78 -4,8 -12,32 -17,52 -21,72 -13,79 235,227 302,181 321,196 379,301 27,47 51,91 55,99 4,8 -4,34 -19,62 -15,26 -27,52 -27,57 0,23 54,72 105,96 92,42 139,95 209,235 34,69 99,183 144,253 72,110 125,212 185,350 12,26 32,46 74,71 47,27 58,38 56,58 -1,13 -2,83 -3,155 -2,142 9,186 55,234 13,14 47,73 76,130 28,58 67,130 88,160 39,57 103,227 146,390 18,64 29,140 35,235 10,154 15,178 66,297 31,72 34,89 32,157 -3,69 0,83 33,156 28,60 38,99 43,155 3,48 20,118 44,191 22,64 45,140 51,170 7,30 25,93 41,140 30,91 80,312 101,441 9,62 17,84 40,108 51,53 51,125 -1,184 -25,28 -30,43 -30,83 0,107 34,170 123,223 47,28 58,53 46,111 -24,128 -7,177 92,256 237,189 306,295 318,484 6,93 10,112 34,148 15,22 27,46 27,53 0,31 23,90 44,115 13,15 26,40 30,56 3,15 21,44 40,65 46,52 56,74 56,127 0,74 36,125 88,125 11,0 23,7 26,16 20,52 -14,240 -78,426 -25,73 -49,167 -54,209 -6,44 -19,93 -33,120 -48,90 -19,304 61,458 109,209 363,440 473,429 31,-3 32,-2 39,42 9,65 3,80 -31,74 -38,-8 -79,35 -131,137 l -40,81 v 125 c 0,111 -2,124 -16,119 -41,-16 -208,-36 -297,-36 -128,0 -234,22 -332,70 -69,34 -101,60 -242,197 -147,144 -163,162 -169,201 -7,42 -8,43 -108,95 l -101,52 z"
       id="path2-3"
       style="fill:#e3dbdb" /><path
       d="m 9089,11169 c -14,-27 4,-42 41,-33 33,7 34,9 20,33 -14,27 -46,27 -61,0 z"
       id="path4"
       style="fill:#e3dbdb" /><path
       d="m 521,6966 c -18,-19 -21,-30 -15,-49 10,-29 110,-111 124,-102 6,3 10,32 10,64 0,55 -2,60 -34,85 -43,32 -56,33 -85,2 z"
       id="path6-4"
       style="fill:#e3dbdb" /><path
       d="m 333,6858 c -11,-14 -19,-43 -35,-133 -13,-71 -52,-119 -110,-137 -49,-15 -39,-28 22,-28 43,0 53,4 85,37 19,20 35,46 35,57 0,12 7,30 15,40 9,12 15,42 15,76 0,31 5,61 11,67 13,13 4,33 -15,33 -8,0 -18,-6 -23,-12 z"
       id="path8"
       style="fill:#e3dbdb" /><path
       d="m 640,6713 c -14,-9 -46,-36 -72,-60 -26,-24 -52,-43 -57,-43 -25,0 -41,-33 -41,-84 0,-28 -5,-57 -12,-64 -8,-8 -8,-15 2,-27 12,-14 15,-14 31,1 27,24 63,15 67,-18 3,-26 7,-28 46,-28 41,0 42,1 80,66 30,52 46,70 79,85 52,23 95,24 119,2 17,-16 20,-16 35,0 16,16 14,20 -36,71 -42,42 -64,56 -110,69 -32,9 -64,23 -71,32 -16,19 -30,19 -60,-2 z"
       id="path10-5"
       style="fill:#e3dbdb" /><path
       d="m 2125,6399 -57,-82 11,-84 c 6,-46 13,-88 16,-93 17,-28 25,0 25,91 v 100 l 40,59 c 39,57 50,90 31,90 -5,0 -35,-37 -66,-81 z"
       id="path12"
       style="fill:#e3dbdb" /><path
       d="m 300,6394 c -11,-12 -10,-18 4,-32 16,-16 18,-16 31,2 11,14 12,23 4,33 -15,17 -24,16 -39,-3 z"
       id="path14-7"
       style="fill:#e3dbdb" /><path
       d="m 272,5858 c -19,-19 -15,-48 7,-48 20,0 37,32 26,50 -8,13 -18,13 -33,-2 z"
       id="path16"
       style="fill:#e3dbdb" /><path
       d="m 48,5275 c -15,-13 -33,-25 -40,-28 -23,-8 6,-42 40,-45 22,-2 34,3 46,20 37,52 1,93 -46,53 z"
       id="path18"
       style="fill:#e3dbdb" /><path
       d="m 7046,3349 c -22,-32 -21,-92 2,-112 10,-10 35,-17 55,-17 h 37 v 59 c 0,62 -8,75 -51,86 -21,5 -30,2 -43,-16 z"
       id="path20"
       style="fill:#e3dbdb" /><path
       d="m 3248,1956 c -10,-7 -18,-22 -18,-34 0,-11 -7,-23 -16,-26 -8,-3 -12,-10 -9,-16 9,-15 41,-12 55,5 7,9 28,23 47,32 44,21 41,47 -7,50 -19,2 -43,-3 -52,-11 z"
       id="path22"
       style="fill:#e3dbdb" /><path
       d="m 7233,1124 c -46,-17 -51,-25 -28,-44 9,-8 15,-29 15,-56 0,-43 0,-43 69,-83 81,-47 101,-56 159,-65 40,-6 42,-5 42,18 0,16 -17,40 -55,74 -56,52 -64,69 -42,91 10,10 9,14 -5,22 -10,6 -18,16 -18,24 0,18 -7,22 -55,28 -24,4 -57,0 -82,-9 z"
       id="path24"
       style="fill:#e3dbdb" /></g></svg>
