<?xml version="1.0" encoding="UTF-8" standalone="no"?>
<!-- Generator: Adobe Illustrator 23.0.0, SVG Export Plug-In . SVG Version: 6.00 Build 0)  -->

<svg
   version="1.1"
   id="圖層_1"
   x="0px"
   y="0px"
   viewBox="0 0 380 420"
   xml:space="preserve"
   sodipodi:docname="bus-stop-right.svg"
   inkscape:version="1.1 (c68e22c387, 2021-05-23)"
   width="380"
   height="420"
   xmlns:inkscape="http://www.inkscape.org/namespaces/inkscape"
   xmlns:sodipodi="http://sodipodi.sourceforge.net/DTD/sodipodi-0.dtd"
   xmlns="http://www.w3.org/2000/svg"
   xmlns:svg="http://www.w3.org/2000/svg"><defs
   id="defs71" /><sodipodi:namedview
   id="namedview69"
   pagecolor="#ffffff"
   bordercolor="#666666"
   borderopacity="1.0"
   inkscape:pageshadow="2"
   inkscape:pageopacity="0.0"
   inkscape:pagecheckerboard="0"
   showgrid="false"
   inkscape:zoom="1.7239937"
   inkscape:cx="107.30898"
   inkscape:cy="320.47681"
   inkscape:window-width="1920"
   inkscape:window-height="1009"
   inkscape:window-x="1358"
   inkscape:window-y="-8"
   inkscape:window-maximized="1"
   inkscape:current-layer="g38"
   width="380px" />
<style
   type="text/css"
   id="style2">
	.st0{fill:#A45940;}
	.st1{fill:#5E4A4C;}
	.st2{fill:#F6AF49;}
	.st3{fill:#CAEBE0;}
	.st4{fill:#7D9894;}
	.st5{opacity:0.5;}
	.st6{fill:#FFFFFF;}
	.st7{fill:#EDDFC8;}
</style>
<g
   id="g66">
	<g
   id="g38">
		<rect
   x="120.69368"
   y="347.00082"
   class="st0"
   width="160.90099"
   height="11.83329"
   id="rect4"
   style="stroke-width:1.98545" />
		<g
   id="g8"
   transform="matrix(1.9854514,0,0,1.9854514,-80.114867,7.925422)">
			<rect
   x="90.120003"
   y="62.200001"
   class="st1"
   width="11.22"
   height="145.56"
   id="rect6" />
		</g>
		<rect
   x="61.150002"
   y="111.70497"
   class="st1"
   width="220.44467"
   height="19.715532"
   id="rect10"
   style="stroke-width:1.98545" />
		<path
   class="st2"
   d="M 281.59467,73.3659 H 99.09198 C 78.125609,73.3659 61.15,90.361364 61.15,111.30788 v 0.37723 h 220.44467 z"
   id="path12"
   style="stroke-width:1.98545" />
		<rect
   x="129.58852"
   y="137.43642"
   class="st3"
   width="123.99144"
   height="203.34993"
   id="rect14"
   style="stroke-width:1.98545" />
		<rect
   x="261.26364"
   y="56.43"
   class="st1"
   width="31.886349"
   height="363.9928"
   id="rect16"
   style="stroke-width:1.98545" />
		
		<g
   id="g24"
   transform="matrix(1.9854514,0,0,1.9854514,-80.114867,7.925422)">
			<rect
   x="119.58"
   y="62.200001"
   class="st4"
   width="3.45"
   height="5.6199999"
   id="rect20" />
			<rect
   x="150.67"
   y="62.200001"
   class="st4"
   width="3.45"
   height="5.6199999"
   id="rect22" />
		</g>
		<g
   id="g30"
   transform="matrix(1.9854514,0,0,1.9854514,-80.114867,7.925422)">
			<rect
   x="119.58"
   y="164.84"
   class="st4"
   width="3.45"
   height="5.6199999"
   id="rect26" />
			<rect
   x="150.67"
   y="164.84"
   class="st4"
   width="3.45"
   height="5.6199999"
   id="rect28" />
		</g>
		<g
   class="st5"
   id="g36"
   transform="matrix(1.9854514,0,0,1.9854514,-80.114867,7.925422)">
			<polygon
   class="st6"
   points="140.1,162.59 164.5,69.11 140.74,69.11 116.72,162.59 "
   id="polygon32" />
			<polygon
   class="st6"
   points="114.4,162.59 138.24,69.11 132.17,69.11 108.44,162.59 "
   id="polygon34" />
		</g>
	</g>
	
	
	
	
</g>
</svg>
