<?xml version="1.0" encoding="UTF-8" standalone="no"?>
<!-- Generator: Adobe Illustrator 23.0.0, SVG Export Plug-In . SVG Version: 6.00 Build 0)  -->

<svg
   version="1.1"
   id="圖層_1"
   x="0px"
   y="0px"
   viewBox="0 0 600 600"
   style="enable-background:new 0 0 600 600;"
   xml:space="preserve"
   sodipodi:docname="transformer-box.svg"
   inkscape:version="1.1 (c68e22c387, 2021-05-23)"
   xmlns:inkscape="http://www.inkscape.org/namespaces/inkscape"
   xmlns:sodipodi="http://sodipodi.sourceforge.net/DTD/sodipodi-0.dtd"
   xmlns="http://www.w3.org/2000/svg"
   xmlns:svg="http://www.w3.org/2000/svg"><defs
   id="defs153" /><sodipodi:namedview
   id="namedview151"
   pagecolor="#ffffff"
   bordercolor="#666666"
   borderopacity="1.0"
   inkscape:pageshadow="2"
   inkscape:pageopacity="0.0"
   inkscape:pagecheckerboard="0"
   showgrid="false"
   inkscape:zoom="0.85333333"
   inkscape:cx="318.75"
   inkscape:cy="252.53906"
   inkscape:window-width="1920"
   inkscape:window-height="1009"
   inkscape:window-x="1358"
   inkscape:window-y="-8"
   inkscape:window-maximized="1"
   inkscape:current-layer="圖層_1" />
<style
   type="text/css"
   id="style2">
	.st0{fill:#0E2D47;}
	.st1{fill:#9BC1F9;}
	.st2{fill:#7192CC;}
	.st3{fill:#284166;}
	.st4{fill:#32517F;}
	.st5{fill:#F47458;}
	.st6{fill:#13375B;}
	.st7{fill:#B9D7FC;}
	.st8{fill:#89A6E5;}
</style>
<g
   id="g148"
   transform="matrix(0.49884353,0,0,0.32123284,124.8246,406.63969)">
	
		
	
		
	
		<rect
   x="-581.8476"
   y="-597.203"
   transform="scale(-1)"
   class="st1"
   width="213.58"
   height="548.0899"
   id="rect8"
   style="fill:#536c5d;stroke-width:0.959795" />
	
		<rect
   x="-581.84601"
   y="-597.203"
   transform="scale(-1)"
   class="st2"
   width="112.51"
   height="548.0899"
   id="rect10"
   style="fill:#6f917c;stroke-width:0.959795" />
	
		<rect
   x="-368.27188"
   y="-597.203"
   transform="scale(-1)"
   class="st3"
   width="95.349998"
   height="548.0899"
   id="rect12"
   style="fill:#37483e;stroke-width:0.959795" />
	
		<rect
   x="-272.923"
   y="-597.203"
   transform="scale(-1)"
   class="st4"
   width="51.91"
   height="548.0899"
   id="rect14"
   style="fill:#37483e;stroke-width:0.959795" />
	
		
	
		<rect
   x="-566.80713"
   y="-576.32294"
   transform="scale(-1)"
   class="st1"
   width="8.0500002"
   height="121.40573"
   id="rect18"
   style="fill:#536c5d;stroke-width:0.959795" />
	
		<rect
   x="-551.97363"
   y="-576.32294"
   transform="scale(-1)"
   class="st1"
   width="8.0500002"
   height="121.40573"
   id="rect20"
   style="fill:#536c5d;stroke-width:0.959795" />
	
		<rect
   x="-537.13947"
   y="-576.32294"
   transform="scale(-1)"
   class="st1"
   width="8.0500002"
   height="121.40573"
   id="rect22"
   style="fill:#536c5d;stroke-width:0.959795" />
	
		<rect
   x="-522.30591"
   y="-576.32294"
   transform="scale(-1)"
   class="st1"
   width="8.0500002"
   height="121.40573"
   id="rect24"
   style="fill:#536c5d;stroke-width:0.959795" />
	
		<rect
   x="-507.47241"
   y="-576.32294"
   transform="scale(-1)"
   class="st1"
   width="8.0500002"
   height="121.40573"
   id="rect26"
   style="fill:#536c5d;stroke-width:0.959795" />
	
		<rect
   x="-492.6488"
   y="-576.32294"
   transform="scale(-1)"
   class="st1"
   width="8.0500002"
   height="121.40573"
   id="rect28"
   style="fill:#536c5d;stroke-width:0.959795" />
	<g
   id="g34"
   transform="matrix(1,0,0,1.0280288,0,29.357641)">
		<path
   class="st5"
   d="m 415.57,168.34 28.92,72.59 c 1.3,3.27 -0.52,7.18 -3.36,7.18 h -28.92 -28.92 c -2.84,0 -4.66,-3.91 -3.36,-7.18 l 28.92,-72.59 c 1.42,-3.54 5.31,-3.54 6.72,0 z"
   id="path30"
   style="fill:#d4aa00" />
		<polygon
   class="st6"
   points="409.88,181.63 412.96,180.09 421.51,209.22 407.46,209.22 413.13,231.91 415.78,228.91 414.71,245.2 406.49,232.84 409.99,233.24 402.92,204.93 416.72,204.93 "
   id="polygon32" />
	</g>
	<rect
   x="462.56"
   y="49.120079"
   class="st7"
   width="6.7800002"
   height="548.0899"
   id="rect36"
   style="fill:#93ac9d;stroke-width:0.959795" />
	
		<rect
   x="-472.09631"
   y="-96.088226"
   transform="scale(-1)"
   class="st0"
   width="5.5100002"
   height="16.397465"
   id="rect38"
   style="stroke-width:0.959795" />
	
		<rect
   x="-472.09631"
   y="-548.60229"
   transform="scale(-1)"
   class="st0"
   width="5.5100002"
   height="16.397465"
   id="rect40"
   style="stroke-width:0.959795" />
	
		
	<g
   id="g62"
   transform="matrix(1,0,0,0.92120598,0,47.056577)">
		<g
   id="g46">
			<path
   class="st0"
   d="m 325.66,262.54 h 2.86 v -25.02 c 0,-6.62 5.39,-12.01 12.01,-12.01 8.2,0 14.87,-6.67 14.87,-14.87 v -49.49 h -2.86 v 49.49 c 0,6.62 -5.39,12.01 -12.01,12.01 -8.2,0 -14.87,6.67 -14.87,14.87 z"
   id="path44" />
		</g>
		<g
   id="g50">
			<path
   class="st0"
   d="M 307.86,262.54 H 305 v -25.02 c 0,-6.62 -5.39,-12.01 -12.01,-12.01 -8.2,0 -14.87,-6.67 -14.87,-14.87 v -49.49 h 2.86 v 49.49 c 0,6.62 5.39,12.01 12.01,12.01 8.2,0 14.87,6.67 14.87,14.87 z"
   id="path48" />
		</g>
		<g
   id="g54">
			<path
   class="st0"
   d="m 320.44,262.54 h 2.86 v -42.16 c 0,-2.6 2.12,-4.72 4.72,-4.72 4.18,0 7.58,-3.4 7.58,-7.58 v -42.39 h -2.86 v 42.39 c 0,2.6 -2.12,4.72 -4.72,4.72 -4.18,0 -7.58,3.4 -7.58,7.58 z"
   id="path52" />
		</g>
		<g
   id="g58">
			<path
   class="st0"
   d="m 314.72,262.54 h -2.86 v -42.16 c 0,-2.6 -2.12,-4.72 -4.72,-4.72 -4.18,0 -7.58,-3.4 -7.58,-7.58 v -42.39 h 2.86 v 42.39 c 0,2.6 2.12,4.72 4.72,4.72 4.18,0 7.58,3.4 7.58,7.58 z"
   id="path56" />
		</g>
		
			<rect
   x="316.14999"
   y="164.75"
   transform="rotate(180,317.5786,213.6436)"
   class="st0"
   width="2.8599999"
   height="97.779999"
   id="rect60" />
	</g>
	<g
   id="g82"
   transform="matrix(1,0,0,0.92120598,0,47.056577)">
		<g
   id="g66">
			<path
   class="st0"
   d="M 307.86,257.96 H 305 v 25.02 c 0,6.62 -5.39,12.01 -12.01,12.01 -8.2,0 -14.87,6.67 -14.87,14.87 v 49.49 h 2.86 v -49.49 c 0,-6.62 5.39,-12.01 12.01,-12.01 8.2,0 14.87,-6.67 14.87,-14.87 z"
   id="path64" />
		</g>
		<g
   id="g70">
			<path
   class="st0"
   d="m 325.66,257.96 h 2.86 v 25.02 c 0,6.62 5.39,12.01 12.01,12.01 8.2,0 14.87,6.67 14.87,14.87 v 49.49 h -2.86 v -49.49 c 0,-6.62 -5.39,-12.01 -12.01,-12.01 -8.2,0 -14.87,-6.67 -14.87,-14.87 z"
   id="path68" />
		</g>
		<g
   id="g74">
			<path
   class="st0"
   d="m 314.72,257.96 h -2.86 v 42.16 c 0,2.6 -2.12,4.72 -4.72,4.72 -4.18,0 -7.58,3.4 -7.58,7.58 v 42.39 h 2.86 v -42.39 c 0,-2.6 2.12,-4.72 4.72,-4.72 4.18,0 7.58,-3.4 7.58,-7.58 z"
   id="path72" />
		</g>
		<g
   id="g78">
			<path
   class="st0"
   d="m 320.44,257.96 h 2.86 v 42.16 c 0,2.6 2.12,4.72 4.72,4.72 4.18,0 7.58,3.4 7.58,7.58 v 42.39 h -2.86 v -42.39 c 0,-2.6 -2.12,-4.72 -4.72,-4.72 -4.18,0 -7.58,-3.4 -7.58,-7.58 z"
   id="path76" />
		</g>
		<rect
   x="316.14999"
   y="257.95999"
   class="st0"
   width="2.8599999"
   height="97.779999"
   id="rect80" />
	</g>
	<g
   id="g88"
   transform="matrix(1,0,0,0.92120598,0,47.056577)">
		
			<rect
   x="285.91"
   y="319.25"
   transform="rotate(180,292.9893,351.168)"
   class="st8"
   width="14.15"
   height="63.830002"
   id="rect84" />
		
			<rect
   x="275.94"
   y="319.25"
   transform="rotate(180,283.01345,351.168)"
   class="st1"
   width="14.15"
   height="63.830002"
   id="rect86"
   style="fill:#93ac9d" />
	</g>
	<g
   id="g94"
   transform="matrix(1,0,0,0.92120598,0,47.056577)">
		
			<rect
   x="302.97"
   y="319.25"
   transform="rotate(180,310.04045,351.168)"
   class="st8"
   width="14.15"
   height="63.830002"
   id="rect90" />
		
			<rect
   x="292.98999"
   y="319.25"
   transform="rotate(180,300.06465,351.168)"
   class="st1"
   width="14.15"
   height="63.830002"
   id="rect92"
   style="fill:#93ac9d" />
	</g>
	<g
   id="g100"
   transform="matrix(1,0,0,0.92120598,0,47.056577)">
		
			<rect
   x="320.01999"
   y="319.25"
   transform="rotate(180,327.0918,351.168)"
   class="st8"
   width="14.15"
   height="63.830002"
   id="rect96" />
		
			<rect
   x="310.04001"
   y="319.25"
   transform="rotate(180,317.11595,351.168)"
   class="st1"
   width="14.15"
   height="63.830002"
   id="rect98"
   style="fill:#93ac9d" />
	</g>
	<g
   id="g106"
   transform="matrix(1,0,0,0.92120598,0,47.056577)">
		
			<rect
   x="337.07001"
   y="319.25"
   transform="rotate(180,344.1431,351.168)"
   class="st8"
   width="14.15"
   height="63.830002"
   id="rect102" />
		
			<rect
   x="327.09"
   y="319.25"
   transform="rotate(180,334.16725,351.168)"
   class="st1"
   width="14.15"
   height="63.830002"
   id="rect104"
   style="fill:#93ac9d" />
	</g>
	<g
   id="g112"
   transform="matrix(1,0,0,0.92120598,0,47.056577)">
		
			<rect
   x="354.12"
   y="319.25"
   transform="rotate(180,361.1943,351.168)"
   class="st8"
   width="14.15"
   height="63.830002"
   id="rect108"
   style="fill:#677821" />
		
			<rect
   x="344.14001"
   y="319.25"
   transform="rotate(180,351.2185,351.168)"
   class="st1"
   width="14.15"
   height="63.830002"
   id="rect110"
   style="fill:#93ac9d" />
	</g>
	<g
   id="g118"
   transform="matrix(1,0,0,0.92120598,0,47.056577)">
		
			<rect
   x="285.91"
   y="101.86"
   transform="rotate(180,292.9893,133.7754)"
   class="st8"
   width="14.15"
   height="63.830002"
   id="rect114" />
		
			<rect
   x="275.94"
   y="101.86"
   transform="rotate(180,283.01345,133.7754)"
   class="st1"
   width="14.15"
   height="63.830002"
   id="rect116"
   style="fill:#93ac9d" />
	</g>
	<g
   id="g124"
   transform="matrix(1,0,0,0.92120598,0,47.056577)">
		
			<rect
   x="302.97"
   y="101.86"
   transform="rotate(180,310.04045,133.7754)"
   class="st8"
   width="14.15"
   height="63.830002"
   id="rect120" />
		
			<rect
   x="292.98999"
   y="101.86"
   transform="rotate(180,300.06465,133.7754)"
   class="st1"
   width="14.15"
   height="63.830002"
   id="rect122"
   style="fill:#93ac9d" />
	</g>
	<g
   id="g130"
   transform="matrix(1,0,0,0.92120598,0,47.056577)">
		
			<rect
   x="320.01999"
   y="101.86"
   transform="rotate(180,327.0918,133.7754)"
   class="st8"
   width="14.15"
   height="63.830002"
   id="rect126" />
		
			<rect
   x="310.04001"
   y="101.86"
   transform="rotate(180,317.11595,133.7754)"
   class="st1"
   width="14.15"
   height="63.830002"
   id="rect128"
   style="fill:#93ac9d" />
	</g>
	<g
   id="g136"
   transform="matrix(1,0,0,0.92120598,0,47.056577)">
		
			<rect
   x="337.07001"
   y="101.86"
   transform="rotate(180,344.1431,133.7754)"
   class="st8"
   width="14.15"
   height="63.830002"
   id="rect132" />
		
			<rect
   x="327.09"
   y="101.86"
   transform="rotate(180,334.16725,133.7754)"
   class="st1"
   width="14.15"
   height="63.830002"
   id="rect134"
   style="fill:#93ac9d" />
	</g>
	<g
   id="g142"
   transform="matrix(1,0,0,0.92120598,0,47.056577)">
		
			<rect
   x="354.12"
   y="101.86"
   transform="rotate(180,361.1943,133.7754)"
   class="st8"
   width="14.15"
   height="63.830002"
   id="rect138"
   style="fill:#677821" />
		
			<rect
   x="344.14001"
   y="101.86"
   transform="rotate(180,351.2185,133.7754)"
   class="st1"
   width="14.15"
   height="63.830002"
   id="rect140"
   style="fill:#93ac9d" />
	</g>
	
		<rect
   x="-330.44791"
   y="-272.9313"
   transform="scale(-1)"
   class="st1"
   width="26.379999"
   height="4.3757286"
   id="rect144"
   style="fill:#6f917c;stroke-width:0.959795" />
	
		<rect
   x="-330.44791"
   y="-297.23071"
   transform="scale(-1)"
   class="st1"
   width="26.379999"
   height="4.3757286"
   id="rect146"
   style="fill:#6f917c;stroke-width:0.959795" />
</g>
</svg>
