<?xml version="1.0" encoding="UTF-8" standalone="no"?>
<!-- Generator: Adobe Illustrator 23.0.0, SVG Export Plug-In . SVG Version: 6.00 Build 0)  -->

<svg
   version="1.1"
   id="圖層_1"
   x="0px"
   y="0px"
   viewBox="0 0 190 210"
   style="enable-background:new 0 0 190 210;"
   xml:space="preserve"
   sodipodi:docname="bus-stop.svg"
   inkscape:version="1.1 (c68e22c387, 2021-05-23)"
   xmlns:inkscape="http://www.inkscape.org/namespaces/inkscape"
   xmlns:sodipodi="http://sodipodi.sourceforge.net/DTD/sodipodi-0.dtd"
   xmlns="http://www.w3.org/2000/svg"
   xmlns:svg="http://www.w3.org/2000/svg"><defs
   id="defs71" /><sodipodi:namedview
   id="namedview69"
   pagecolor="#ffffff"
   bordercolor="#666666"
   borderopacity="1.0"
   inkscape:pageshadow="2"
   inkscape:pageopacity="0.0"
   inkscape:pagecheckerboard="0"
   showgrid="false"
   inkscape:zoom="1.7239937"
   inkscape:cx="107.30898"
   inkscape:cy="134.86128"
   inkscape:window-width="1920"
   inkscape:window-height="1009"
   inkscape:window-x="1358"
   inkscape:window-y="-8"
   inkscape:window-maximized="1"
   inkscape:current-layer="g38" />
<style
   type="text/css"
   id="style2">
	.st0{fill:#A45940;}
	.st1{fill:#5E4A4C;}
	.st2{fill:#F6AF49;}
	.st3{fill:#CAEBE0;}
	.st4{fill:#7D9894;}
	.st5{opacity:0.5;}
	.st6{fill:#FFFFFF;}
	.st7{fill:#EDDFC8;}
</style>
<g
   id="g66">
	<g
   id="g38">
		<rect
   x="-128.01001"
   y="170.78"
   class="st0"
   width="81.040001"
   height="5.96"
   id="rect4"
   transform="scale(-1,1)"
   style="fill:#000000" />
		<g
   id="g8"
   transform="matrix(-1,0,0,1,229.15,0)"
   style="fill:#000000">
			<rect
   x="90.120003"
   y="62.200001"
   class="st1"
   width="11.22"
   height="145.56"
   id="rect6"
   style="fill:#000000" />
		</g>
		<rect
   x="-158"
   y="52.27"
   class="st1"
   width="111.03"
   height="9.9300003"
   id="rect10"
   transform="scale(-1,1)"
   style="fill:#000000" />
		<path
   class="st2"
   d="M 46.970002,32.96 H 138.89 c 10.56,0 19.11,8.56 19.11,19.11 v 0.19 H 46.970002 Z"
   id="path12"
   style="fill:#000000" />
		<rect
   x="-123.53"
   y="65.230003"
   class="st3"
   width="62.450001"
   height="102.42"
   id="rect14"
   transform="scale(-1,1)"
   style="fill:#000000" />
		<rect
   x="-57.209999"
   y="24.43"
   class="st1"
   width="16.059999"
   height="183.33"
   id="rect16"
   transform="scale(-1,1)"
   style="fill:#000000" />
		
		<g
   id="g24"
   transform="matrix(-1,0,0,1,229.15,0)"
   style="fill:#000000">
			<rect
   x="119.58"
   y="62.200001"
   class="st4"
   width="3.45"
   height="5.6199999"
   id="rect20"
   style="fill:#000000" />
			<rect
   x="150.67"
   y="62.200001"
   class="st4"
   width="3.45"
   height="5.6199999"
   id="rect22"
   style="fill:#000000" />
		</g>
		<g
   id="g30"
   transform="matrix(-1,0,0,1,229.15,0)"
   style="fill:#000000">
			<rect
   x="119.58"
   y="164.84"
   class="st4"
   width="3.45"
   height="5.6199999"
   id="rect26"
   style="fill:#000000" />
			<rect
   x="150.67"
   y="164.84"
   class="st4"
   width="3.45"
   height="5.6199999"
   id="rect28"
   style="fill:#000000" />
		</g>
		<g
   class="st5"
   id="g36"
   transform="matrix(-1,0,0,1,229.15,0)"
   style="fill:#000000">
			<polygon
   class="st6"
   points="140.74,69.11 116.72,162.59 140.1,162.59 164.5,69.11 "
   id="polygon32"
   style="fill:#000000" />
			<polygon
   class="st6"
   points="132.17,69.11 108.44,162.59 114.4,162.59 138.24,69.11 "
   id="polygon34"
   style="fill:#000000" />
		</g>
	</g>
	
	
	
	
</g>
</svg>
