<?xml version="1.0" encoding="UTF-8" standalone="no"?>
<svg
   width="100%"
   height="100%"
   viewBox="0 0 768 624"
   version="1.1"
   xml:space="preserve"
   style="fill-rule:evenodd;clip-rule:evenodd;stroke-linejoin:round;stroke-miterlimit:1.41421;"
   id="svg496"
   sodipodi:docname="apartments-wide-left.svg"
   inkscape:version="1.1 (c68e22c387, 2021-05-23)"
   xmlns:inkscape="http://www.inkscape.org/namespaces/inkscape"
   xmlns:sodipodi="http://sodipodi.sourceforge.net/DTD/sodipodi-0.dtd"
   xmlns="http://www.w3.org/2000/svg"
   xmlns:svg="http://www.w3.org/2000/svg"><defs
   id="defs500" /><sodipodi:namedview
   id="namedview498"
   pagecolor="#ffffff"
   bordercolor="#666666"
   borderopacity="1.0"
   inkscape:pageshadow="2"
   inkscape:pageopacity="0.0"
   inkscape:pagecheckerboard="0"
   showgrid="false"
   inkscape:zoom="0.83333333"
   inkscape:cx="383.4"
   inkscape:cy="311.4"
   inkscape:window-width="1366"
   inkscape:window-height="705"
   inkscape:window-x="-8"
   inkscape:window-y="-8"
   inkscape:window-maximized="1"
   inkscape:current-layer="svg496" />
    <g
   id="apartments-wide-left"
   transform="matrix(1,0,0,1,0,24)">
        <g
   transform="matrix(1,0,0,1,1.9815,-320.875)"
   id="g4">
            <path
   d="M725.216,673.209L752.419,672.146L726.02,585.571L725.216,673.209Z"
   style="fill:rgb(206,173,128);fill-rule:nonzero;"
   id="path2" />
        </g>
        <g
   transform="matrix(1,0,0,1,-0.6273,-320.875)"
   id="g8">
            <path
   d="M0.627,342.875L0.627,908.856L728.617,908.875L728.627,342.875L0.627,342.875Z"
   style="fill:rgb(236,219,177);fill-rule:nonzero;"
   id="path6" />
        </g>
        <g
   transform="matrix(1,0,0,1,0,-320.875)"
   id="g12">
            <path
   d="M456.154,868.392L677.594,868.392L677.355,630.217L456.299,630.194L456.154,868.392Z"
   style="fill:rgb(246,241,225);fill-rule:nonzero;"
   id="path10" />
        </g>
        <g
   transform="matrix(1,0,0,1,0,-320.875)"
   id="g16">
            <path
   d="M462.342,861.436L564.442,861.436L564.006,634.068L462.426,633.784L462.342,861.436Z"
   style="fill:rgb(49,49,86);fill-rule:nonzero;"
   id="path14" />
        </g>
        <g
   transform="matrix(1,0,0,1,0,-320.875)"
   id="g20">
            <path
   d="M571.038,861.319L671.241,861.319L671.241,633.951L571.038,633.667L571.038,861.319Z"
   style="fill:rgb(49,49,86);fill-rule:nonzero;"
   id="path18" />
        </g>
        <g
   transform="matrix(1,0,0,1,0,-320.875)"
   id="g33">
            <clipPath
   id="_clip1">
                <path
   d="M0.627,908.857L753.016,908.859L753.016,584.786L0.627,584.784L0.627,908.857Z"
   id="path22" />
            </clipPath>
            <g
   clip-path="url(#_clip1)"
   id="g31">
                <g
   id="g29">
                    <g
   opacity="0.300003"
   id="g27">
                        <path
   d="M568.789,633.949L462.357,740.031L462.426,633.953L568.789,633.949Z"
   style="fill:rgb(10,23,35);fill-rule:nonzero;"
   id="path25" />
                    </g>
                </g>
            </g>
        </g>
        <g
   transform="matrix(1,0,0,1,0,-320.875)"
   id="g37">
            <path
   d="M0.653,741.031L456.185,740.03L456.273,633.486L0.628,633.424L0.653,741.031Z"
   style="fill:rgb(224,206,168);fill-rule:nonzero;"
   id="path35" />
        </g>
        <g
   transform="matrix(1,0,0,1,0,-320.875)"
   id="g41">
            <path
   d="M677.425,633.975L677.425,662.437L705.905,633.952L677.425,633.975Z"
   style="fill:rgb(224,206,168);fill-rule:nonzero;"
   id="path39" />
        </g>
        <g
   transform="matrix(1.00086,0,0,1,-0.631445,-322.875)"
   id="g45">
            <path
   d="M0.631,330.403L0.631,339.575L726.486,339.575L730.795,330.193L0.631,330.403Z"
   style="fill:rgb(206,173,128);fill-rule:nonzero;"
   id="path43" />
        </g>
        <g
   transform="matrix(1,0,0,1,0,-322.875)"
   id="g49">
            <path
   d="M728.656,305.492L728.669,316.84L0,315.429L0,330.637L730.811,330.427L735.283,316.845L735.283,305.492L728.656,305.492Z"
   style="fill:rgb(246,241,225);fill-rule:nonzero;"
   id="path47" />
        </g>
        <g
   transform="matrix(1,0,0,1,0,-320.875)"
   id="g53">
            <path
   d="M433.666,473.564L482.658,473.623L482.691,415.838L433.6,415.808L433.666,473.564Z"
   style="fill:rgb(246,241,225);fill-rule:nonzero;"
   id="path51" />
        </g>
        <g
   transform="matrix(1,0,0,1,0,-320.875)"
   id="g57">
            <path
   d="M439.051,468.146L477.202,468.266L477.202,421.8L439.051,421.762L439.051,468.146Z"
   style="fill:rgb(49,49,86);fill-rule:nonzero;"
   id="path55" />
        </g>
        <g
   transform="matrix(1,0,0,1,0,-320.875)"
   id="g61">
            <path
   d="M598.291,401.539L535.02,401.481L535.112,539.055L604.047,539.195L604.047,539.066L667.318,539.195L667.363,401.545L598.291,401.481L598.291,401.539Z"
   style="fill:rgb(246,241,225);fill-rule:nonzero;"
   id="path59" />
        </g>
        <g
   transform="matrix(1,0,0,1,0,-320.875)"
   id="g65">
            <path
   d="M603.957,533.813L662.105,533.969L662.105,473.721L603.74,473.668L603.957,533.813Z"
   style="fill:rgb(49,49,86);fill-rule:nonzero;"
   id="path63" />
        </g>
        <g
   transform="matrix(1,0,0,1,0,-320.875)"
   id="g69">
            <path
   d="M603.711,407.465L603.733,451.301L603.74,468.409L662.139,468.352L662.105,406.827L603.711,407.465Z"
   style="fill:rgb(49,49,86);fill-rule:nonzero;"
   id="path67" />
        </g>
        <g
   transform="matrix(1,0,0,1,0,-320.875)"
   id="g73">
            <path
   d="M540.472,533.813L598.375,533.969L598.835,473.721L540.472,473.668L540.472,533.813Z"
   style="fill:rgb(49,49,86);fill-rule:nonzero;"
   id="path71" />
        </g>
        <g
   transform="matrix(1,0,0,1,0,-320.875)"
   id="g77">
            <path
   d="M540.444,407.465L540.472,468.407L598.868,468.352L598.859,451.47L598.835,406.827L540.444,407.465Z"
   style="fill:rgb(49,49,86);fill-rule:nonzero;"
   id="path75" />
        </g>
        <g
   transform="matrix(1,0,0,1,0,-320.875)"
   id="g81">
            <rect
   x="539.908"
   y="468.392"
   width="59.168"
   height="5.135"
   style="fill:rgb(246,241,225);fill-rule:nonzero;"
   id="rect79" />
        </g>
        <g
   transform="matrix(1,0,0,1,0,-320.875)"
   id="g85">
            <path
   d="M200.962,539.055L132.026,539.196L131.979,401.545L201.054,401.481L200.962,539.055Z"
   style="fill:rgb(246,241,225);fill-rule:nonzero;"
   id="path83" />
        </g>
        <g
   transform="matrix(1,0,0,1,0,-320.875)"
   id="g89">
            <path
   d="M195.603,533.813L137.24,533.969L137.24,473.721L195.603,473.668L195.603,533.813Z"
   style="fill:rgb(49,49,86);fill-rule:nonzero;"
   id="path87" />
        </g>
        <g
   transform="matrix(1,0,0,1,0,-320.875)"
   id="g93">
            <path
   d="M195.603,468.406L137.207,468.351L137.24,406.826L195.63,407.465L195.603,468.406Z"
   style="fill:rgb(49,49,86);fill-rule:nonzero;"
   id="path91" />
        </g>
        <g
   transform="matrix(1,0,0,1,0,-320.875)"
   id="g97">
            <path
   d="M302.408,473.565L253.416,473.624L253.384,415.838L302.473,415.809L302.408,473.565Z"
   style="fill:rgb(246,241,225);fill-rule:nonzero;"
   id="path95" />
        </g>
        <g
   transform="matrix(1,0,0,1,0,-320.875)"
   id="g101">
            <path
   d="M297.023,468.147L258.873,468.266L258.873,421.801L297.023,421.762L297.023,468.147Z"
   style="fill:rgb(49,49,86);fill-rule:nonzero;"
   id="path99" />
        </g>
        <g
   transform="matrix(1,0,0,1,0,-320.875)"
   id="g107">
            <g
   opacity="0.300003"
   id="g105">
                <path
   d="M258.873,433.865L293.186,468.146L258.85,468.217L258.873,433.865Z"
   style="fill:rgb(10,23,35);fill-rule:nonzero;"
   id="path103" />
            </g>
        </g>
        <g
   transform="matrix(1,0,0,1,0,-320.875)"
   id="g113">
            <g
   opacity="0.300003"
   id="g111">
                <path
   d="M477.162,433.865L442.849,468.146L477.185,468.217L477.162,433.865Z"
   style="fill:rgb(10,23,35);fill-rule:nonzero;"
   id="path109" />
            </g>
        </g>
        <g
   transform="matrix(1,0,0,1,0,-320.875)"
   id="g117">
            <path
   d="M137.692,539.055L68.755,539.196L68.711,401.545L137.783,401.481L137.692,539.055Z"
   style="fill:rgb(246,241,225);fill-rule:nonzero;"
   id="path115" />
        </g>
        <g
   transform="matrix(1,0,0,1,0,-320.875)"
   id="g121">
            <path
   d="M132.334,533.813L73.97,533.969L73.97,473.721L132.334,473.668L132.334,533.813Z"
   style="fill:rgb(49,49,86);fill-rule:nonzero;"
   id="path119" />
        </g>
        <g
   transform="matrix(1,0,0,1,0,-320.875)"
   id="g125">
            <path
   d="M132.334,468.408L73.936,468.351L73.97,406.826L132.363,407.465L132.334,468.408Z"
   style="fill:rgb(49,49,86);fill-rule:nonzero;"
   id="path123" />
        </g>
        <g
   transform="matrix(1,0,0,1,0,-320.875)"
   id="g129">
            <rect
   x="136.998"
   y="468.393"
   width="59.168"
   height="5.135"
   style="fill:rgb(246,241,225);fill-rule:nonzero;"
   id="rect127" />
        </g>
        <g
   transform="matrix(1,0,0,1,0,-320.875)"
   id="g133">
            <path
   d="M244.953,406.887L248.701,415.879L307.701,415.879L311.449,406.887L244.953,406.887Z"
   style="fill:rgb(206,173,128);fill-rule:nonzero;"
   id="path131" />
        </g>
        <g
   transform="matrix(1,0,0,1,0,-320.875)"
   id="g137">
            <path
   d="M209.569,392.553L205.821,401.545L63.373,401.545L59.625,392.553L209.569,392.553Z"
   style="fill:rgb(206,173,128);fill-rule:nonzero;"
   id="path135" />
        </g>
        <g
   transform="matrix(1,0,0,1,0,-320.875)"
   id="g141">
            <path
   d="M207.84,690.032L204.092,699.024L102.09,699.024L98.342,690.032L207.84,690.032Z"
   style="fill:rgb(206,173,128);fill-rule:nonzero;"
   id="path139" />
        </g>
        <g
   transform="matrix(1,0,0,1,0,-320.875)"
   id="g145">
            <rect
   x="564.124"
   y="633.364"
   width="6.833"
   height="228.662"
   style="fill:rgb(246,241,225);fill-rule:nonzero;"
   id="rect143" />
        </g>
        <g
   transform="matrix(1,0,0,1,0,-320.875)"
   id="g149">
            <path
   d="M491.121,406.887L487.373,415.879L428.373,415.879L424.625,406.887L491.121,406.887Z"
   style="fill:rgb(206,173,128);fill-rule:nonzero;"
   id="path147" />
        </g>
        <g
   transform="matrix(1,0,0,1,0,-320.875)"
   id="g153">
            <path
   d="M526.505,392.553L530.253,401.545L672.701,401.545L676.449,392.553L526.505,392.553Z"
   style="fill:rgb(206,173,128);fill-rule:nonzero;"
   id="path151" />
        </g>
        <g
   transform="matrix(1,0,0,1,0,-322.875)"
   id="g157">
            <path
   d="M0.686,330.474L0.622,339.574L11.998,339.552L10.488,330.443L0.686,330.474Z"
   style="fill:rgb(246,241,225);fill-rule:nonzero;"
   id="path155" />
        </g>
        <g
   transform="matrix(1,0,0,1,0,-322.875)"
   id="g161">
            <path
   d="M52.31,330.474L50.919,339.574L63.623,339.553L62.112,330.443L52.31,330.474Z"
   style="fill:rgb(246,241,225);fill-rule:nonzero;"
   id="path159" />
        </g>
        <g
   transform="matrix(1,0,0,1,0,-322.875)"
   id="g165">
            <path
   d="M103.936,330.474L102.545,339.574L115.249,339.553L113.738,330.443L103.936,330.474Z"
   style="fill:rgb(246,241,225);fill-rule:nonzero;"
   id="path163" />
        </g>
        <g
   transform="matrix(1,0,0,1,0,-322.875)"
   id="g169">
            <path
   d="M155.56,330.474L154.169,339.574L166.873,339.553L165.362,330.443L155.56,330.474Z"
   style="fill:rgb(246,241,225);fill-rule:nonzero;"
   id="path167" />
        </g>
        <g
   transform="matrix(1,0,0,1,0,-322.875)"
   id="g173">
            <path
   d="M206.812,330.474L205.421,339.574L218.124,339.553L216.614,330.443L206.812,330.474Z"
   style="fill:rgb(246,241,225);fill-rule:nonzero;"
   id="path171" />
        </g>
        <g
   transform="matrix(1,0,0,1,0,-322.875)"
   id="g177">
            <path
   d="M258.435,330.474L257.044,339.574L269.748,339.553L268.237,330.443L258.435,330.474Z"
   style="fill:rgb(246,241,225);fill-rule:nonzero;"
   id="path175" />
        </g>
        <g
   transform="matrix(1,0,0,1,0,-322.875)"
   id="g181">
            <path
   d="M309.936,330.474L308.545,339.574L321.249,339.553L319.738,330.443L309.936,330.474Z"
   style="fill:rgb(246,241,225);fill-rule:nonzero;"
   id="path179" />
        </g>
        <g
   transform="matrix(1,0,0,1,0,-322.875)"
   id="g185">
            <path
   d="M361.561,330.474L360.17,339.574L372.874,339.553L371.363,330.443L361.561,330.474Z"
   style="fill:rgb(246,241,225);fill-rule:nonzero;"
   id="path183" />
        </g>
        <g
   transform="matrix(1,0,0,1,0,-322.875)"
   id="g189">
            <path
   d="M412.311,330.474L410.92,339.574L423.624,339.553L422.114,330.443L412.311,330.474Z"
   style="fill:rgb(246,241,225);fill-rule:nonzero;"
   id="path187" />
        </g>
        <g
   transform="matrix(1,0,0,1,0,-322.875)"
   id="g193">
            <path
   d="M463.935,330.474L462.544,339.574L475.248,339.553L473.737,330.443L463.935,330.474Z"
   style="fill:rgb(246,241,225);fill-rule:nonzero;"
   id="path191" />
        </g>
        <g
   transform="matrix(1,0,0,1,0,-322.875)"
   id="g197">
            <path
   d="M514.936,330.474L513.545,339.574L526.249,339.553L524.738,330.443L514.936,330.474Z"
   style="fill:rgb(246,241,225);fill-rule:nonzero;"
   id="path195" />
        </g>
        <g
   transform="matrix(1,0,0,1,0,-322.875)"
   id="g201">
            <path
   d="M566.56,330.474L565.17,339.574L577.873,339.553L576.363,330.443L566.56,330.474Z"
   style="fill:rgb(246,241,225);fill-rule:nonzero;"
   id="path199" />
        </g>
        <g
   transform="matrix(1,0,0,1,0,-322.875)"
   id="g205">
            <path
   d="M618.061,330.474L616.671,339.574L629.374,339.553L627.863,330.443L618.061,330.474Z"
   style="fill:rgb(246,241,225);fill-rule:nonzero;"
   id="path203" />
        </g>
        <g
   transform="matrix(1,0,0,1,0,-322.875)"
   id="g209">
            <path
   d="M669.686,330.474L668.295,339.574L680.999,339.553L679.488,330.443L669.686,330.474Z"
   style="fill:rgb(246,241,225);fill-rule:nonzero;"
   id="path207" />
        </g>
        <g
   transform="matrix(1,0,0,1,0,-322.875)"
   id="g213">
            <path
   d="M720.603,330.474L719.212,339.574L732.29,339.553L730.78,330.443L720.603,330.474Z"
   style="fill:rgb(246,241,225);fill-rule:nonzero;"
   id="path211" />
        </g>
        <g
   transform="matrix(1,0,0,1,0,-322.875)"
   id="g217">
            <path
   d="M0,344.844L733.87,344.875L733.87,339.594L0,339.575L0,344.844Z"
   style="fill:rgb(206,173,128);fill-rule:nonzero;"
   id="path215" />
        </g>
        <g
   transform="matrix(1,0,0,1,0,-320.875)"
   id="g221">
            <path
   d="M0,584.875L0.652,674.004L723.663,674.004L712.823,584.875L0,584.875Z"
   style="fill:rgb(206,173,128);fill-rule:nonzero;"
   id="path219" />
        </g>
        <g
   transform="matrix(1,0,0,1,0,-322.875)"
   id="g225">
            <path
   d="M63.501,330.156L66.628,339.558L47.937,339.594L50.98,330.115L63.501,330.156Z"
   style="fill:rgb(246,241,225);fill-rule:nonzero;"
   id="path223" />
        </g>
        <g
   transform="matrix(1,0,0,1,0,-322.875)"
   id="g229">
            <path
   d="M114.876,330.156L118.003,339.558L99.312,339.594L102.355,330.115L114.876,330.156Z"
   style="fill:rgb(246,241,225);fill-rule:nonzero;"
   id="path227" />
        </g>
        <g
   transform="matrix(1,0,0,1,0,-322.875)"
   id="g233">
            <path
   d="M166.751,330.156L169.878,339.558L151.187,339.594L154.23,330.115L166.751,330.156Z"
   style="fill:rgb(246,241,225);fill-rule:nonzero;"
   id="path231" />
        </g>
        <g
   transform="matrix(1,0,0,1,0,-322.875)"
   id="g237">
            <path
   d="M217.876,330.156L221.003,339.558L202.312,339.594L205.355,330.115L217.876,330.156Z"
   style="fill:rgb(246,241,225);fill-rule:nonzero;"
   id="path235" />
        </g>
        <g
   transform="matrix(1,0,0,1,0,-322.875)"
   id="g241">
            <path
   d="M269.501,330.156L272.628,339.558L253.937,339.594L256.98,330.115L269.501,330.156Z"
   style="fill:rgb(246,241,225);fill-rule:nonzero;"
   id="path239" />
        </g>
        <g
   transform="matrix(1,0,0,1,0,-322.875)"
   id="g245">
            <path
   d="M320.876,330.156L324.003,339.558L305.312,339.594L308.355,330.115L320.876,330.156Z"
   style="fill:rgb(246,241,225);fill-rule:nonzero;"
   id="path243" />
        </g>
        <g
   transform="matrix(1,0,0,1,0,-322.875)"
   id="g249">
            <path
   d="M372.626,330.156L375.753,339.558L357.062,339.594L360.105,330.115L372.626,330.156Z"
   style="fill:rgb(246,241,225);fill-rule:nonzero;"
   id="path247" />
        </g>
        <g
   transform="matrix(1,0,0,1,0,-322.875)"
   id="g253">
            <path
   d="M423.376,330.156L426.503,339.558L407.812,339.594L410.855,330.115L423.376,330.156Z"
   style="fill:rgb(246,241,225);fill-rule:nonzero;"
   id="path251" />
        </g>
        <g
   transform="matrix(1,0,0,1,0,-322.875)"
   id="g257">
            <path
   d="M475.126,330.156L478.253,339.558L459.562,339.594L462.605,330.115L475.126,330.156Z"
   style="fill:rgb(246,241,225);fill-rule:nonzero;"
   id="path255" />
        </g>
        <g
   transform="matrix(1,0,0,1,0,-322.875)"
   id="g261">
            <path
   d="M526.001,330.156L529.128,339.558L510.437,339.594L513.48,330.115L526.001,330.156Z"
   style="fill:rgb(246,241,225);fill-rule:nonzero;"
   id="path259" />
        </g>
        <g
   transform="matrix(1,0,0,1,0,-322.875)"
   id="g265">
            <path
   d="M577.626,330.156L580.753,339.558L562.062,339.594L565.105,330.115L577.626,330.156Z"
   style="fill:rgb(246,241,225);fill-rule:nonzero;"
   id="path263" />
        </g>
        <g
   transform="matrix(1,0,0,1,0,-322.875)"
   id="g269">
            <path
   d="M629.126,330.156L632.253,339.558L613.562,339.594L616.605,330.115L629.126,330.156Z"
   style="fill:rgb(246,241,225);fill-rule:nonzero;"
   id="path267" />
        </g>
        <g
   transform="matrix(1,0,0,1,0,-322.875)"
   id="g273">
            <path
   d="M730.751,330.156L733.878,339.558L715.187,339.594L718.23,330.115L730.751,330.156Z"
   style="fill:rgb(246,241,225);fill-rule:nonzero;"
   id="path271" />
        </g>
        <g
   transform="matrix(1,0,0,1,0,-322.875)"
   id="g277">
            <path
   d="M680.751,330.156L683.878,339.558L665.187,339.594L668.23,330.115L680.751,330.156Z"
   style="fill:rgb(246,241,225);fill-rule:nonzero;"
   id="path275" />
        </g>
        <g
   transform="matrix(1,0,0,1,0,-322.875)"
   id="g281">
            <path
   d="M0,339.586L14.904,339.558L11.779,330.156L0,330.12L0,339.586Z"
   style="fill:rgb(246,241,225);fill-rule:nonzero;"
   id="path279" />
        </g>
        <g
   transform="matrix(1,0,0,1,0,-320.875)"
   id="g287">
            <g
   opacity="0.300003"
   id="g285">
                <path
   d="M195.579,522.475L195.613,412.479L79.998,522.881L195.579,522.475Z"
   style="fill:rgb(10,23,35);fill-rule:nonzero;"
   id="path283" />
            </g>
        </g>
        <g
   transform="matrix(1,0,0,1,0,-320.875)"
   id="g291">
            <path
   d="M85.288,523.512L195.608,412.895L195.623,412.912L195.639,407.459L195.06,407.448L79.184,523.491L85.288,523.512Z"
   style="fill:rgb(73,74,114);fill-rule:nonzero;"
   id="path289" />
        </g>
        <g
   transform="matrix(1,0,0,1,0,-320.875)"
   id="g295">
            <rect
   x="132.373"
   y="462.135"
   width="5.417"
   height="54.25"
   style="fill:rgb(246,241,225);fill-rule:nonzero;"
   id="rect293" />
        </g>
        <g
   transform="matrix(1,0,0,1,0,-320.875)"
   id="g299">
            <rect
   x="73.789"
   y="468.301"
   width="122.209"
   height="5.416"
   style="fill:rgb(246,241,225);fill-rule:nonzero;"
   id="rect297" />
        </g>
        <g
   transform="matrix(1,0,0,1,0,-320.875)"
   id="g303">
            <path
   d="M203.145,535.555L202.273,539.352L192.811,548.803L49.061,548.803L71.435,526.428"
   style="fill:rgb(224,206,168);fill-rule:nonzero;"
   id="path301" />
        </g>
        <g
   transform="matrix(1,0,0,1,0,-320.875)"
   id="g307">
            <path
   d="M204.239,776.961L203.367,780.758L193.905,790.209L87.887,790.209L110.261,767.834"
   style="fill:rgb(224,206,168);fill-rule:nonzero;"
   id="path305" />
        </g>
        <g
   transform="matrix(1,0,0,1,0,-320.875)"
   id="g311">
            <path
   d="M202.636,539.221L66.426,539.221L60.121,522.219L209.125,522.219L202.636,539.221Z"
   style="fill:rgb(206,173,128);fill-rule:nonzero;"
   id="path309" />
        </g>
        <g
   transform="matrix(1,0,0,1,0,-320.875)"
   id="g315">
            <path
   d="M198.467,522.209L193.655,517.459L175.807,516.225L172.248,512.709L166.623,516.135L162.217,514.459L152.016,513.223L149.916,514.719L147.416,512.26L144.101,512.951L142.937,509.676L134.817,512.613L121.249,509.553L114.166,516.596L93.118,513.094L87.498,507.512L80.549,513.912L71.236,515.82L69.373,522.225L198.467,522.209Z"
   style="fill:rgb(103,154,69);fill-rule:nonzero;"
   id="path313" />
        </g>
        <g
   transform="matrix(1,0,0,1,0,-320.875)"
   id="g319">
            <path
   d="M141.748,522.262L139.017,520.43L138.248,516.844L122.873,518.135L120.706,522.219L141.748,522.262Z"
   style="fill:rgb(53,129,63);fill-rule:nonzero;"
   id="path317" />
        </g>
        <g
   transform="matrix(1,0,0,1,0,-320.875)"
   id="g323">
            <path
   d="M193.457,522.26L174.165,519.303L167.207,520.594L158.582,519.219L157.124,522.176L193.457,522.26Z"
   style="fill:rgb(53,129,63);fill-rule:nonzero;"
   id="path321" />
        </g>
        <g
   transform="matrix(1,0,0,1,0,-320.875)"
   id="g327">
            <path
   d="M103.498,515.553L103.748,496.053L88.123,485.553L81.873,487.803L86.623,479.553L108.123,493.553L108.873,516.803"
   style="fill:rgb(103,154,69);fill-rule:nonzero;"
   id="path325" />
        </g>
        <g
   transform="matrix(1,0,0,1,0,-320.875)"
   id="g331">
            <path
   d="M114.123,517.678L120.623,488.928L110.123,480.678L111.748,475.178L104.373,480.928L115.998,490.178L108.123,515.928"
   style="fill:rgb(103,154,69);fill-rule:nonzero;"
   id="path329" />
        </g>
        <g
   transform="matrix(1,0,0,1,0,-320.875)"
   id="g335">
            <path
   d="M105.248,514.303L92.498,494.928L83.873,501.678L91.748,500.053L99.623,515.803L105.248,514.303Z"
   style="fill:rgb(103,154,69);fill-rule:nonzero;"
   id="path333" />
        </g>
        <g
   transform="matrix(1,0,0,1,0,-320.875)"
   id="g339">
            <path
   d="M117.623,498.303L129.498,493.053L135.498,500.928L128.748,497.803L116.123,504.178L117.623,498.303Z"
   style="fill:rgb(103,154,69);fill-rule:nonzero;"
   id="path337" />
        </g>
        <g
   transform="matrix(1,0,0,1,0,-320.875)"
   id="g343">
            <path
   d="M120.499,522.24L118.373,519.386L104.748,513.677L102.248,509.802L95.476,519.427L88.331,522.22L120.499,522.24Z"
   style="fill:rgb(53,129,63);fill-rule:nonzero;"
   id="path341" />
        </g>
        <g
   transform="matrix(1,0,0,1,0,-320.875)"
   id="g347">
            <path
   d="M159.979,515.656L159.404,501.806L144.645,495.011L140.651,496.873L142.689,490.949L162.907,499.523L164.321,515.342"
   style="fill:rgb(103,154,69);fill-rule:nonzero;"
   id="path345" />
        </g>
        <g
   transform="matrix(1,0,0,1,0,-320.875)"
   id="g351">
            <path
   d="M153.697,496.795L151.733,485.211L164.967,470.543L175.52,476.951L165.952,474.856L155.461,485.762L158.509,498.262L153.697,496.795Z"
   style="fill:rgb(103,154,69);fill-rule:nonzero;"
   id="path349" />
        </g>
        <g
   transform="matrix(1,0,0,1,0,-320.875)"
   id="g355">
            <path
   d="M163.188,516.338L169.61,490.652L177.027,490.283L172.968,494.014L167.689,516.715L163.188,516.338Z"
   style="fill:rgb(103,154,69);fill-rule:nonzero;"
   id="path353" />
        </g>
        <g
   transform="matrix(1,0,0,1,0,-320.875)"
   id="g361">
            <g
   opacity="0.300003"
   id="g359">
                <path
   d="M73.951,442.975L73.951,406.827L109.701,407.209"
   style="fill:rgb(10,23,35);fill-rule:nonzero;"
   id="path357" />
            </g>
        </g>
        <g
   transform="matrix(1,0,0,1,0,-320.875)"
   id="g367">
            <g
   opacity="0.300003"
   id="g365">
                <path
   d="M662.245,522.807L662.279,412.811L546.664,523.213L662.245,522.807Z"
   style="fill:rgb(10,23,35);fill-rule:nonzero;"
   id="path363" />
            </g>
        </g>
        <g
   transform="matrix(1,0,0,1,0,-320.875)"
   id="g371">
            <path
   d="M551.954,523.844L662.274,413.227L662.289,413.244L662.305,407.791L661.726,407.781L545.85,523.824L551.954,523.844Z"
   style="fill:rgb(73,74,114);fill-rule:nonzero;"
   id="path369" />
        </g>
        <g
   transform="matrix(1,0,0,1,0,-320.875)"
   id="g377">
            <g
   opacity="0.300003"
   id="g375">
                <path
   d="M671.186,861.316L671.217,759.305L571.221,854.793L571.03,861.343L671.186,861.316Z"
   style="fill:rgb(10,23,35);fill-rule:nonzero;"
   id="path373" />
            </g>
        </g>
        <g
   transform="matrix(1,0,0,1,0,-320.875)"
   id="g381">
            <path
   d="M571.06,860.219L671.211,759.722L671.227,759.74L671.248,753.695L571.026,854.059L571.06,860.219Z"
   style="fill:rgb(73,74,114);fill-rule:nonzero;"
   id="path379" />
        </g>
        <g
   transform="matrix(1,0,0,1,0,-320.875)"
   id="g387">
            <g
   opacity="0.300003"
   id="g385">
                <path
   d="M540.617,443.307L540.617,407.159L576.367,407.541"
   style="fill:rgb(10,23,35);fill-rule:nonzero;"
   id="path383" />
            </g>
        </g>
        <g
   transform="matrix(1,0,0,1,0,-320.875)"
   id="g391">
            <rect
   x="598.665"
   y="406.303"
   width="5.417"
   height="110"
   style="fill:rgb(246,241,225);fill-rule:nonzero;"
   id="rect389" />
        </g>
        <g
   transform="matrix(1,0,0,1,0,-320.875)"
   id="g395">
            <rect
   x="540.081"
   y="468.219"
   width="122.209"
   height="5.416"
   style="fill:rgb(246,241,225);fill-rule:nonzero;"
   id="rect393" />
        </g>
        <g
   transform="matrix(1,0,0,1,0,-320.875)"
   id="g399">
            <path
   d="M670.041,535.555L669.619,539.256L660.062,548.803L516.312,548.803L538.686,526.428"
   style="fill:rgb(224,206,168);fill-rule:nonzero;"
   id="path397" />
        </g>
        <g
   transform="matrix(1,0,0,1,0,-320.875)"
   id="g403">
            <path
   d="M533.61,539.221L669.82,539.221L676.125,522.219L527.121,522.219L533.61,539.221Z"
   style="fill:rgb(206,173,128);fill-rule:nonzero;"
   id="path401" />
        </g>
        <g
   transform="matrix(1,0,0,1,0,-320.875)"
   id="g407">
            <path
   d="M537.873,522.209L546.623,518L560.439,516.256L566.404,512.928L569.623,516.166L571.623,514.166L584.529,512.615L587.373,515.438L588.537,512.162L592.145,512.982L593.31,509.707L600.033,512.371L601.43,512.645L616.295,509.381L623.34,516.398L643.128,513.125L649.788,507.5L655.697,513.943L665.011,515.852L666.873,522.256L537.873,522.209Z"
   style="fill:rgb(103,154,69);fill-rule:nonzero;"
   id="path405" />
        </g>
        <g
   transform="matrix(1,0,0,1,0,-320.875)"
   id="g411">
            <path
   d="M602.295,522.225L602.98,520.43L615.623,519.866L616.915,517.866L621.29,522.219L602.295,522.225Z"
   style="fill:rgb(53,129,63);fill-rule:nonzero;"
   id="path409" />
        </g>
        <g
   transform="matrix(1,0,0,1,0,-320.875)"
   id="g415">
            <path
   d="M639.448,522.338L640.145,520.43L650.04,517.053L651.873,519.471L658.456,522.219L639.448,522.338Z"
   style="fill:rgb(53,129,63);fill-rule:nonzero;"
   id="path413" />
        </g>
        <g
   transform="matrix(1,0,0,1,0,-320.875)"
   id="g419">
            <path
   d="M562.092,522.23L565.592,518.312L570.015,519.337L581.248,519.052L585.279,522.209L575.425,522.23L562.092,522.23Z"
   style="fill:rgb(53,129,63);fill-rule:nonzero;"
   id="path417" />
        </g>
        <g
   transform="matrix(1,0,0,1,0,-320.875)"
   id="g423">
            <path
   d="M630.511,503.926L632.814,503.926L633.236,518.549L628.783,519.24L630.511,503.926Z"
   style="fill:rgb(103,154,69);fill-rule:nonzero;"
   id="path421" />
        </g>
        <g
   transform="matrix(1,0,0,1,0,-320.875)"
   id="g427">
            <path
   d="M613.777,480.891L616.158,480.659L616.253,511.002L611.797,512.053L613.777,480.891Z"
   style="fill:rgb(103,154,69);fill-rule:nonzero;"
   id="path425" />
        </g>
        <g
   transform="matrix(1,0,0,1,0,-320.875)"
   id="g431">
            <path
   d="M644.568,487.668L646.951,487.414L646.948,514.24L642.488,515.404L644.568,487.668Z"
   style="fill:rgb(103,154,69);fill-rule:nonzero;"
   id="path429" />
        </g>
        <g
   transform="matrix(1,0,0,1,0,-320.875)"
   id="g435">
            <path
   d="M639.565,488.303L636.438,478.901L655.128,478.865L652.085,488.344L639.565,488.303Z"
   style="fill:rgb(174,32,37);fill-rule:nonzero;"
   id="path433" />
        </g>
        <g
   transform="matrix(1,0,0,1,0,-320.875)"
   id="g439">
            <path
   d="M608.565,480.803L605.438,471.401L624.128,471.365L621.085,480.844L608.565,480.803Z"
   style="fill:rgb(174,32,37);fill-rule:nonzero;"
   id="path437" />
        </g>
        <g
   transform="matrix(1,0,0,1,0,-320.875)"
   id="g443">
            <path
   d="M625.315,504.053L622.188,494.651L640.878,494.615L637.835,504.094L625.315,504.053Z"
   style="fill:rgb(174,32,37);fill-rule:nonzero;"
   id="path441" />
        </g>
        <g
   transform="matrix(1,0,0,1,0,-320.875)"
   id="g447">
            <path
   d="M551.761,499.926L554.064,499.926L554.486,519.086L550.033,519.99L551.761,499.926Z"
   style="fill:rgb(103,154,69);fill-rule:nonzero;"
   id="path445" />
        </g>
        <g
   transform="matrix(1,0,0,1,0,-320.875)"
   id="g451">
            <path
   d="M546.565,500.053L543.438,490.651L562.128,490.615L559.085,500.094L546.565,500.053Z"
   style="fill:rgb(174,32,37);fill-rule:nonzero;"
   id="path449" />
        </g>
        <g
   transform="matrix(1,0,0,1,0,-320.875)"
   id="g455">
            <path
   d="M591.011,505.926L593.314,505.926L593.736,520.549L589.283,521.24L591.011,505.926Z"
   style="fill:rgb(103,154,69);fill-rule:nonzero;"
   id="path453" />
        </g>
        <g
   transform="matrix(1,0,0,1,0,-320.875)"
   id="g459">
            <path
   d="M574.277,491.141L576.658,490.909L576.753,514.875L572.297,515.926L574.277,491.141Z"
   style="fill:rgb(103,154,69);fill-rule:nonzero;"
   id="path457" />
        </g>
        <g
   transform="matrix(1,0,0,1,0,-320.875)"
   id="g463">
            <path
   d="M569.065,491.053L565.938,481.651L584.628,481.615L581.585,491.094L569.065,491.053Z"
   style="fill:rgb(174,32,37);fill-rule:nonzero;"
   id="path461" />
        </g>
        <g
   transform="matrix(1,0,0,1,0,-320.875)"
   id="g467">
            <path
   d="M585.815,506.053L582.688,496.651L601.378,496.615L598.335,506.094L585.815,506.053Z"
   style="fill:rgb(174,32,37);fill-rule:nonzero;"
   id="path465" />
        </g>
        <g
   transform="matrix(1,0,0,1,-0.594,-320.875)"
   id="g471">
            <path
   d="M0.594,920.875L728.614,920.875L728.594,908.875L0.594,908.875L0.594,920.875Z"
   style="fill:rgb(53,45,39);fill-rule:nonzero;"
   id="path469" />
        </g>
        <g
   transform="matrix(1,0,0,1,0,-320.875)"
   id="g475">
            <path
   d="M198.006,769.716L108.172,769.774L108.107,699.028L198.137,698.996L198.006,769.716Z"
   style="fill:rgb(246,241,225);fill-rule:nonzero;"
   id="path473" />
        </g>
        <g
   transform="matrix(1,0,0,1,0,-320.875)"
   id="g479">
            <path
   d="M192.325,764.297L113.895,764.416L113.895,704.787L192.325,704.746L192.325,764.297Z"
   style="fill:rgb(49,49,86);fill-rule:nonzero;"
   id="path477" />
        </g>
        <g
   transform="matrix(1,0,0,1,0,-320.875)"
   id="g483">
            <path
   d="M203.335,780.78L102.776,780.78L98.122,763.778L208.126,763.778L203.335,780.78Z"
   style="fill:rgb(206,173,128);fill-rule:nonzero;"
   id="path481" />
        </g>
        <g
   transform="matrix(1,0,0,1,0,-320.875)"
   id="g489">
            <g
   opacity="0.300003"
   id="g487">
                <path
   d="M192.373,763.791L192.324,704.734L189.363,704.742L131.996,763.766L192.373,763.791Z"
   style="fill:rgb(10,23,35);fill-rule:nonzero;"
   id="path485" />
            </g>
        </g>
        <g
   transform="matrix(1,0,0,1,0,-320.875)"
   id="g493">
            <path
   d="M131.963,763.783L190.888,704.735L184.858,704.753L125.881,763.795L131.963,763.783Z"
   style="fill:rgb(73,74,114);fill-rule:nonzero;"
   id="path491" />
        </g>
    </g>
<g
   transform="matrix(0.0058232,0,0,-0.0058232,335.73471,264.13407)"
   fill="#000000"
   stroke="none"
   id="g26"
   style="fill:#008000"><path
     d="m 7610,12773 c -48,-16 -79,-20 -117,-16 -49,5 -57,3 -127,-41 -126,-78 -185,-134 -201,-189 -13,-45 -147,-245 -184,-275 -16,-13 -175,-65 -331,-107 -58,-16 -140,-29 -211,-33 l -115,-8 -110,-61 c -60,-34 -193,-93 -294,-132 -101,-39 -193,-77 -204,-85 -12,-7 -57,-78 -101,-157 -43,-79 -151,-251 -239,-382 l -160,-238 -7,-123 c -8,-149 -16,-164 -110,-209 l -69,-32 6,-46 c 13,-99 -39,-138 -193,-147 l -92,-5 -16,-33 c -8,-18 -18,-47 -21,-66 -9,-47 -47,-83 -110,-103 -69,-22 -91,-53 -169,-235 -31,-74 -87,-191 -123,-259 -57,-105 -86,-144 -190,-260 -112,-123 -129,-147 -178,-251 -35,-74 -70,-131 -98,-160 -41,-43 -43,-49 -54,-132 -12,-99 -35,-150 -96,-217 -23,-25 -54,-65 -70,-88 -16,-23 -43,-51 -61,-61 -26,-16 -33,-28 -38,-63 -3,-24 -27,-86 -53,-138 -41,-83 -61,-109 -158,-207 -61,-61 -124,-121 -139,-132 -25,-18 -33,-39 -62,-156 -19,-74 -44,-154 -55,-178 -14,-26 -92,-112 -204,-223 -172,-171 -185,-187 -257,-310 -115,-195 -129,-227 -129,-285 0,-88 -21,-192 -57,-285 -37,-92 -43,-143 -28,-222 7,-37 3,-49 -29,-106 -20,-36 -36,-72 -36,-80 0,-9 16,-31 35,-49 32,-30 36,-40 45,-114 12,-93 0,-261 -25,-370 -49,-214 -124,-452 -175,-554 -32,-64 -70,-181 -70,-217 0,-6 15,-10 33,-9 27,1 33,-3 35,-23 3,-18 -11,-37 -62,-85 -71,-66 -70,-65 -67,-209 1,-45 30,-77 68,-77 16,0 51,-11 78,-24 44,-20 83,-49 252,-192 l 43,-35 v -95 c 0,-112 29,-209 81,-274 32,-39 33,-43 33,-139 1,-94 2,-100 35,-152 83,-130 102,-166 131,-241 40,-106 45,-143 26,-197 -14,-41 -13,-48 6,-105 50,-149 79,-192 222,-325 26,-23 73,-77 105,-120 79,-103 91,-112 219,-180 61,-33 166,-96 233,-141 67,-45 144,-90 173,-100 183,-63 348,-194 415,-332 17,-35 39,-96 49,-136 15,-59 27,-81 60,-115 22,-23 52,-64 66,-92 47,-95 142,-434 152,-548 l 7,-67 -57,-55 c -69,-68 -71,-86 -11,-145 65,-64 75,-90 63,-179 -10,-87 -7,-101 25,-101 19,0 26,7 30,29 4,17 19,44 35,62 26,29 35,33 80,32 43,-1 68,-10 149,-56 87,-49 163,-79 163,-63 0,3 -7,31 -15,63 -17,63 -12,123 12,161 8,13 40,49 71,80 57,57 122,169 122,210 0,11 -5,33 -11,49 -6,15 -19,68 -29,117 -16,74 -17,103 -9,173 5,46 14,158 19,248 9,158 8,166 -13,212 -16,36 -21,66 -21,118 1,77 4,88 109,320 37,83 114,259 171,392 93,220 107,248 158,305 38,42 54,67 50,78 -4,8 -12,32 -17,52 -21,72 -13,79 235,227 302,181 321,196 379,301 27,47 51,91 55,99 4,8 -4,34 -19,62 -15,26 -27,52 -27,57 0,23 54,72 105,96 92,42 139,95 209,235 34,69 99,183 144,253 72,110 125,212 185,350 12,26 32,46 74,71 47,27 58,38 56,58 -1,13 -2,83 -3,155 -2,142 9,186 55,234 13,14 47,73 76,130 28,58 67,130 88,160 39,57 103,227 146,390 18,64 29,140 35,235 10,154 15,178 66,297 31,72 34,89 32,157 -3,69 0,83 33,156 28,60 38,99 43,155 3,48 20,118 44,191 22,64 45,140 51,170 7,30 25,93 41,140 30,91 80,312 101,441 9,62 17,84 40,108 51,53 51,125 -1,184 -25,28 -30,43 -30,83 0,107 34,170 123,223 47,28 58,53 46,111 -24,128 -7,177 92,256 237,189 306,295 318,484 6,93 10,112 34,148 15,22 27,46 27,53 0,31 23,90 44,115 13,15 26,40 30,56 3,15 21,44 40,65 46,52 56,74 56,127 0,74 36,125 88,125 11,0 23,7 26,16 20,52 -14,240 -78,426 -25,73 -49,167 -54,209 -6,44 -19,93 -33,120 -48,90 -19,304 61,458 109,209 363,440 473,429 31,-3 32,-2 39,42 9,65 3,80 -31,74 -38,-8 -79,35 -131,137 l -40,81 v 125 c 0,111 -2,124 -16,119 -41,-16 -208,-36 -297,-36 -128,0 -234,22 -332,70 -69,34 -101,60 -242,197 -147,144 -163,162 -169,201 -7,42 -8,43 -108,95 l -101,52 z"
     id="path2-5"
     style="fill:#008000" /><path
     d="m 9089,11169 c -14,-27 4,-42 41,-33 33,7 34,9 20,33 -14,27 -46,27 -61,0 z"
     id="path4"
     style="fill:#008000" /><path
     d="m 521,6966 c -18,-19 -21,-30 -15,-49 10,-29 110,-111 124,-102 6,3 10,32 10,64 0,55 -2,60 -34,85 -43,32 -56,33 -85,2 z"
     id="path6-4"
     style="fill:#008000" /><path
     d="m 333,6858 c -11,-14 -19,-43 -35,-133 -13,-71 -52,-119 -110,-137 -49,-15 -39,-28 22,-28 43,0 53,4 85,37 19,20 35,46 35,57 0,12 7,30 15,40 9,12 15,42 15,76 0,31 5,61 11,67 13,13 4,33 -15,33 -8,0 -18,-6 -23,-12 z"
     id="path8"
     style="fill:#008000" /><path
     d="m 640,6713 c -14,-9 -46,-36 -72,-60 -26,-24 -52,-43 -57,-43 -25,0 -41,-33 -41,-84 0,-28 -5,-57 -12,-64 -8,-8 -8,-15 2,-27 12,-14 15,-14 31,1 27,24 63,15 67,-18 3,-26 7,-28 46,-28 41,0 42,1 80,66 30,52 46,70 79,85 52,23 95,24 119,2 17,-16 20,-16 35,0 16,16 14,20 -36,71 -42,42 -64,56 -110,69 -32,9 -64,23 -71,32 -16,19 -30,19 -60,-2 z"
     id="path10-7"
     style="fill:#008000" /><path
     d="m 2125,6399 -57,-82 11,-84 c 6,-46 13,-88 16,-93 17,-28 25,0 25,91 v 100 l 40,59 c 39,57 50,90 31,90 -5,0 -35,-37 -66,-81 z"
     id="path12"
     style="fill:#008000" /><path
     d="m 300,6394 c -11,-12 -10,-18 4,-32 16,-16 18,-16 31,2 11,14 12,23 4,33 -15,17 -24,16 -39,-3 z"
     id="path14-6"
     style="fill:#008000" /><path
     d="m 272,5858 c -19,-19 -15,-48 7,-48 20,0 37,32 26,50 -8,13 -18,13 -33,-2 z"
     id="path16"
     style="fill:#008000" /><path
     d="m 48,5275 c -15,-13 -33,-25 -40,-28 -23,-8 6,-42 40,-45 22,-2 34,3 46,20 37,52 1,93 -46,53 z"
     id="path18-7"
     style="fill:#008000" /><path
     d="m 7046,3349 c -22,-32 -21,-92 2,-112 10,-10 35,-17 55,-17 h 37 v 59 c 0,62 -8,75 -51,86 -21,5 -30,2 -43,-16 z"
     id="path20"
     style="fill:#008000" /><path
     d="m 3248,1956 c -10,-7 -18,-22 -18,-34 0,-11 -7,-23 -16,-26 -8,-3 -12,-10 -9,-16 9,-15 41,-12 55,5 7,9 28,23 47,32 44,21 41,47 -7,50 -19,2 -43,-3 -52,-11 z"
     id="path22-5"
     style="fill:#008000" /><path
     d="m 7233,1124 c -46,-17 -51,-25 -28,-44 9,-8 15,-29 15,-56 0,-43 0,-43 69,-83 81,-47 101,-56 159,-65 40,-6 42,-5 42,18 0,16 -17,40 -55,74 -56,52 -64,69 -42,91 10,10 9,14 -5,22 -10,6 -18,16 -18,24 0,18 -7,22 -55,28 -24,4 -57,0 -82,-9 z"
     id="path24"
     style="fill:#008000" /></g></svg>
