<?xml version="1.0" encoding="UTF-8" standalone="no"?>
<svg
   width="100%"
   height="100%"
   viewBox="0 0 768 732"
   version="1.1"
   xml:space="preserve"
   style="fill-rule:evenodd;clip-rule:evenodd;stroke-linejoin:round;stroke-miterlimit:1.41421;"
   id="svg832"
   sodipodi:docname="residential-left.svg"
   inkscape:version="1.1 (c68e22c387, 2021-05-23)"
   xmlns:inkscape="http://www.inkscape.org/namespaces/inkscape"
   xmlns:sodipodi="http://sodipodi.sourceforge.net/DTD/sodipodi-0.dtd"
   xmlns="http://www.w3.org/2000/svg"
   xmlns:svg="http://www.w3.org/2000/svg"><defs
   id="defs836" /><sodipodi:namedview
   id="namedview834"
   pagecolor="#ffffff"
   bordercolor="#666666"
   borderopacity="1.0"
   inkscape:pageshadow="2"
   inkscape:pageopacity="0.0"
   inkscape:pagecheckerboard="0"
   showgrid="false"
   inkscape:zoom="0.71038251"
   inkscape:cx="383.59615"
   inkscape:cy="365.29615"
   inkscape:window-width="1366"
   inkscape:window-height="705"
   inkscape:window-x="-8"
   inkscape:window-y="-8"
   inkscape:window-maximized="1"
   inkscape:current-layer="svg832" />
    <g
   id="residential-left"
   transform="matrix(0.5,0,0,0.5,-96,-228)">
        <g
   id="stoop">
            <g
   transform="matrix(1,0,0,1,47.991,0)"
   id="g4">
                <path
   d="M1330,1897L1636.01,1897L1638.01,1869L1330,1869L1330,1897Z"
   style="fill:rgb(216,211,203);fill-rule:nonzero;"
   id="path2" />
            </g>
            <g
   transform="matrix(1,0,0,1,47.991,0)"
   id="g8">
                <path
   d="M1330,1869L1592.01,1869L1594.01,1842L1330,1842L1330,1869Z"
   style="fill:rgb(216,211,203);fill-rule:nonzero;"
   id="path6" />
            </g>
            <g
   transform="matrix(1,0,0,1,47.991,0)"
   id="g12">
                <path
   d="M1330,1842L1548.01,1842L1550.01,1814L1330,1814L1330,1842Z"
   style="fill:rgb(216,211,203);fill-rule:nonzero;"
   id="path10" />
            </g>
            <g
   transform="matrix(1,0,0,1,47.991,0)"
   id="g16">
                <path
   d="M1330,1814L1504.01,1814L1506.01,1787L1330,1787L1330,1814Z"
   style="fill:rgb(216,211,203);fill-rule:nonzero;"
   id="path14" />
            </g>
            <g
   transform="matrix(1,0,0,1,47.991,0)"
   id="g20">
                <path
   d="M1330,1787L1460.01,1787L1462.01,1758L1330,1758L1330,1787Z"
   style="fill:rgb(216,211,203);fill-rule:nonzero;"
   id="path18" />
            </g>
            <g
   transform="matrix(1,0,0,1,47.991,0)"
   id="g24">
                <path
   d="M1330,1760L1416.01,1760L1418.01,1733L1330,1733L1330,1760Z"
   style="fill:rgb(216,211,203);fill-rule:nonzero;"
   id="path22" />
            </g>
            <g
   transform="matrix(1,0,0,1,47.991,0)"
   id="g28">
                <path
   d="M1330,1733L1372.01,1733L1374.01,1705L1330,1705L1330,1733Z"
   style="fill:rgb(216,211,203);fill-rule:nonzero;"
   id="path26" />
            </g>
            <g
   transform="matrix(1,0,0,1,47.991,0)"
   id="g32">
                <rect
   x="1038"
   y="1704"
   width="332"
   height="193"
   style="fill:rgb(216,211,203);fill-rule:nonzero;"
   id="rect30" />
            </g>
            <g
   transform="matrix(1,0,0,1,47.991,0)"
   id="g36">
                <path
   d="M1338,1704L1373.76,1704.55L1372.01,1733L1418.01,1733L1416.16,1758L1462.01,1758L1460.01,1787L1506.01,1787L1504.01,1814L1550.01,1814L1548.01,1842L1594.01,1842L1592.01,1869L1638.01,1869L1635.76,1897L1338,1896L1338,1704Z"
   style="fill:rgb(216,211,203);fill-rule:nonzero;"
   id="path34" />
            </g>
        </g>
        <g
   id="stoop-railings">
            <g
   transform="matrix(1,0,0,1,47.991,0)"
   id="g41">
                <path
   d="M1376.93,1595.23L1383.75,1598.81L1385.43,1689.67L1377.72,1684.99L1376.93,1595.23Z"
   style="fill:rgb(92,94,95);fill-rule:nonzero;"
   id="path39" />
            </g>
            <g
   transform="matrix(1,0,0,1,47.991,0)"
   id="g45">
                <path
   d="M1421.03,1624.07L1427.84,1627.65L1429.53,1718.51L1421.82,1713.83L1421.03,1624.07Z"
   style="fill:rgb(92,94,95);fill-rule:nonzero;"
   id="path43" />
            </g>
            <g
   transform="matrix(1,0,0,1,47.991,0)"
   id="g49">
                <path
   d="M1465.13,1651.78L1471.94,1655.36L1473.63,1746.21L1465.92,1741.53L1465.13,1651.78Z"
   style="fill:rgb(92,94,95);fill-rule:nonzero;"
   id="path47" />
            </g>
            <g
   transform="matrix(1,0,0,1,47.991,0)"
   id="g53">
                <path
   d="M1509.23,1678.46L1516.04,1682.04L1517.73,1772.89L1510.02,1768.21L1509.23,1678.46Z"
   style="fill:rgb(92,94,95);fill-rule:nonzero;"
   id="path51" />
            </g>
            <g
   transform="matrix(1,0,0,1,47.991,0)"
   id="g57">
                <path
   d="M1553.33,1711.14L1560.14,1714.72L1561.83,1805.58L1554.12,1800.89L1553.33,1711.14Z"
   style="fill:rgb(92,94,95);fill-rule:nonzero;"
   id="path55" />
            </g>
            <g
   transform="matrix(1,0,0,1,47.991,0)"
   id="g61">
                <path
   d="M1597.43,1740.98L1604.25,1744.56L1605.93,1835.42L1598.22,1830.74L1597.43,1740.98Z"
   style="fill:rgb(92,94,95);fill-rule:nonzero;"
   id="path59" />
            </g>
            <g
   transform="matrix(1,0,0,1,47.991,0)"
   id="g65">
                <path
   d="M1331.29,1556.57L1632.31,1755.56L1628.03,1762.92L1329.86,1564.39L1331.29,1556.57Z"
   style="fill:rgb(92,94,95);fill-rule:nonzero;"
   id="path63" />
            </g>
            <g
   transform="matrix(1,0,0,1,47.991,0)"
   id="g69">
                <path
   d="M1331.13,1649.23L1631.79,1848.76L1628.21,1855.09L1330.29,1656.17L1331.13,1649.23Z"
   style="fill:rgb(92,94,95);fill-rule:nonzero;"
   id="path67" />
            </g>
            <g
   transform="matrix(1,0,0,1,47.991,0)"
   id="g73">
                <path
   d="M1267.07,1575.98L1273.14,1575.56L1274.65,1681.42L1266.15,1681.74L1267.07,1575.98Z"
   style="fill:rgb(92,94,95);fill-rule:nonzero;"
   id="path71" />
            </g>
            <g
   transform="matrix(1,0,0,1,47.991,0)"
   id="g77">
                <path
   d="M1067.27,1575.98L1072.98,1575.56L1074.4,1681.42L1066.4,1681.74L1067.27,1575.98Z"
   style="fill:rgb(92,94,95);fill-rule:nonzero;"
   id="path75" />
            </g>
            <g
   transform="matrix(1,0,0,1,47.991,0)"
   id="g81">
                <path
   d="M1117.07,1575.98L1123.14,1575.56L1124.65,1681.42L1116.15,1681.74L1117.07,1575.98Z"
   style="fill:rgb(92,94,95);fill-rule:nonzero;"
   id="path79" />
            </g>
            <g
   transform="matrix(1,0,0,1,47.991,0)"
   id="g85">
                <path
   d="M1167.07,1575.98L1173.14,1575.56L1174.65,1681.42L1166.15,1681.74L1167.07,1575.98Z"
   style="fill:rgb(92,94,95);fill-rule:nonzero;"
   id="path83" />
            </g>
            <g
   transform="matrix(1,0,0,1,47.991,0)"
   id="g89">
                <path
   d="M1217.07,1575.98L1223.14,1575.56L1224.65,1681.42L1216.15,1681.74L1217.07,1575.98Z"
   style="fill:rgb(92,94,95);fill-rule:nonzero;"
   id="path87" />
            </g>
            <g
   transform="matrix(1,0,0,1,47.991,0)"
   id="g93">
                <path
   d="M956.729,1569.77L1317.57,1569.93L1318.07,1578.27L959.853,1576.95L956.729,1569.77Z"
   style="fill:rgb(92,94,95);fill-rule:nonzero;"
   id="path91" />
            </g>
            <g
   transform="matrix(1,0,0,1,47.991,0)"
   id="g97">
                <path
   d="M967.672,1676.68L1328.51,1676.84L1329.02,1685.18L970.796,1683.86L967.672,1676.68Z"
   style="fill:rgb(92,94,95);fill-rule:nonzero;"
   id="path95" />
            </g>
            <g
   transform="matrix(1,0,0,1,47.991,0)"
   id="g101">
                <path
   d="M1322.19,1309L1316.26,1563L1340.85,1563L1335.81,1309L1322.19,1309Z"
   style="fill:rgb(84,62,54);fill-rule:nonzero;"
   id="path99" />
            </g>
            <g
   transform="matrix(1,0,0,1,47.991,0)"
   id="g105">
                <path
   d="M1677.55,1897.46L1672.22,1747.76L1679.04,1739.78L1677.83,1725.93L1621.15,1725.62L1620.37,1739.65L1627.44,1747.76L1621.15,1896L1677.55,1897.46Z"
   style="fill:rgb(231,230,222);fill-rule:nonzero;"
   id="path103" />
            </g>
            <g
   transform="matrix(1,0,0,1,47.991,0)"
   id="g109">
                <path
   d="M1627.01,1748L1672.01,1748L1679.04,1739.78L1620.37,1739.65L1627.01,1748Z"
   style="fill:rgb(216,211,203);fill-rule:nonzero;"
   id="path107" />
            </g>
            <g
   transform="matrix(1,0,0,1,47.991,0)"
   id="g113">
                <path
   d="M1358.55,1705.46L1353.21,1555.76L1360.04,1547.78L1358.83,1533.93L1302.15,1533.62L1301.37,1547.65L1308.44,1555.76L1302.15,1704L1358.55,1705.46Z"
   style="fill:rgb(231,230,222);fill-rule:nonzero;"
   id="path111" />
            </g>
            <g
   transform="matrix(1,0,0,1,47.991,0)"
   id="g117">
                <path
   d="M1308.01,1556L1353.01,1556L1360.04,1547.78L1301.37,1547.65L1308.01,1556Z"
   style="fill:rgb(216,211,203);fill-rule:nonzero;"
   id="path115" />
            </g>
        </g>
        <g
   id="plants">
            <g
   transform="matrix(1,0,0,1,47.991,0)"
   id="g122">
                <path
   d="M1365.99,1853.54L1370.6,1853.54L1371.44,1882.79L1362.53,1884.17L1365.99,1853.54Z"
   style="fill:rgb(103,154,69);fill-rule:nonzero;"
   id="path120" />
            </g>
            <g
   transform="matrix(1,0,0,1,47.991,0)"
   id="g126">
                <path
   d="M1355.6,1853.79L1349.34,1834.99L1386.73,1834.92L1380.64,1853.87L1355.6,1853.79Z"
   style="fill:rgb(174,32,37);fill-rule:nonzero;"
   id="path124" />
            </g>
            <g
   transform="matrix(1,0,0,1,47.991,0)"
   id="g130">
                <path
   d="M1274.14,1867.87L1278.75,1867.87L1279.59,1897.12L1270.68,1898.5L1274.14,1867.87Z"
   style="fill:rgb(103,154,69);fill-rule:nonzero;"
   id="path128" />
            </g>
            <g
   transform="matrix(1,0,0,1,47.991,0)"
   id="g134">
                <path
   d="M1263.75,1868.12L1257.49,1849.32L1294.88,1849.25L1288.79,1868.21L1263.75,1868.12Z"
   style="fill:rgb(174,32,37);fill-rule:nonzero;"
   id="path132" />
            </g>
            <g
   transform="matrix(1,0,0,1,47.991,0)"
   id="g138">
                <path
   d="M1311.11,1830.23L1315.88,1829.72L1315.87,1883.38L1306.95,1885.7L1311.11,1830.23Z"
   style="fill:rgb(103,154,69);fill-rule:nonzero;"
   id="path136" />
            </g>
            <g
   transform="matrix(1,0,0,1,47.991,0)"
   id="g142">
                <path
   d="M1301.1,1831.5L1294.85,1812.69L1332.23,1812.62L1326.15,1831.58L1301.1,1831.5Z"
   style="fill:rgb(174,32,37);fill-rule:nonzero;"
   id="path140" />
            </g>
            <g
   transform="matrix(1,0,0,1,47.991,0)"
   id="g146">
                <path
   d="M1312.57,1845.6L1288.86,1834.68L1282.45,1837.67L1285.72,1828.16L1310.56,1839"
   style="fill:rgb(103,154,69);fill-rule:nonzero;"
   id="path144" />
            </g>
            <g
   transform="matrix(1,0,0,1,47.991,0)"
   id="g150">
                <path
   d="M1308.66,1868.36L1329.91,1844.81L1346.86,1855.1L1331.49,1851.73L1314.65,1869.25L1308.66,1868.36Z"
   style="fill:rgb(103,154,69);fill-rule:nonzero;"
   id="path148" />
            </g>
            <g
   transform="matrix(1,0,0,1,47.991,0)"
   id="g154">
                <path
   d="M1239.87,1826.3L1244.63,1825.84L1244.82,1886.53L1235.9,1888.62L1239.87,1826.3Z"
   style="fill:rgb(103,154,69);fill-rule:nonzero;"
   id="path152" />
            </g>
            <g
   transform="matrix(1,0,0,1,47.991,0)"
   id="g158">
                <path
   d="M1229.44,1826.12L1223.19,1807.32L1260.57,1807.25L1254.48,1826.21L1229.44,1826.12Z"
   style="fill:rgb(174,32,37);fill-rule:nonzero;"
   id="path156" />
            </g>
            <g
   transform="matrix(1,0,0,1,47.991,0)"
   id="g162">
                <path
   d="M1240.63,1846.92L1256.62,1839.56L1263.03,1842.55L1259.76,1833.03L1239.82,1841.49"
   style="fill:rgb(103,154,69);fill-rule:nonzero;"
   id="path160" />
            </g>
            <g
   transform="matrix(1,0,0,1,47.991,0)"
   id="g166">
                <path
   d="M1243.67,1877.14L1233.36,1835.89L1221.45,1835.3L1227.96,1841.29L1237.14,1883.71L1243.67,1877.14Z"
   style="fill:rgb(103,154,69);fill-rule:nonzero;"
   id="path164" />
            </g>
            <g
   transform="matrix(1,0,0,1,47.991,0)"
   id="g170">
                <path
   d="M1075.1,1879.11L1115.59,1846.22L1083.72,1806.72L1063.88,1803.87L1085.2,1791.79L1130.36,1846.2L1089.13,1888.5"
   style="fill:rgb(103,154,69);fill-rule:nonzero;"
   id="path168" />
            </g>
            <g
   transform="matrix(1,0,0,1,47.991,0)"
   id="g174">
                <path
   d="M1155.51,1846.56L1192.21,1834.08L1218.47,1852.81L1189.9,1845.37L1127.75,1866.46L1155.51,1846.56Z"
   style="fill:rgb(103,154,69);fill-rule:nonzero;"
   id="path172" />
            </g>
            <g
   transform="matrix(1,0,0,1,47.991,0)"
   id="g178">
                <path
   d="M1084.77,1871.04L1079.69,1820.69L1130.07,1808.35L1164.34,1819.71L1182.3,1800.7L1207,1818.23L1184.23,1813.29L1163.38,1867.59L1173.33,1888.57L1143.15,1887.33L1084.77,1871.04Z"
   style="fill:rgb(53,129,63);fill-rule:nonzero;"
   id="path176" />
            </g>
            <g
   transform="matrix(1,0,0,1,47.991,0)"
   id="g182">
                <path
   d="M1131.39,1890.54L1165.42,1819.33L1133.37,1805.39L1129.81,1794.04L1115.35,1806.63L1151.12,1822.31L1103.67,1883.54"
   style="fill:rgb(103,154,69);fill-rule:nonzero;"
   id="path180" />
            </g>
            <g
   transform="matrix(1,0,0,1,47.991,0)"
   id="g186">
                <path
   d="M1104.73,1870.3L1065.31,1824.22L1038.65,1840.27L1063,1836.41L1087.34,1873.86L1104.73,1870.3Z"
   style="fill:rgb(103,154,69);fill-rule:nonzero;"
   id="path184" />
            </g>
            <g
   transform="matrix(1,0,0,1,47.991,0)"
   id="g190">
                <path
   d="M1132.54,1841.22L1117.27,1780.13L1099.63,1779.26L1109.28,1788.13L1122.88,1850.94L1132.54,1841.22Z"
   style="fill:rgb(103,154,69);fill-rule:nonzero;"
   id="path188" />
            </g>
            <g
   transform="matrix(1,0,0,1,47.991,0)"
   id="g194">
                <path
   d="M1099.8,1879.68L1124.54,1874.75L1152.47,1839.2L1071.09,1832.37"
   style="fill:rgb(103,154,69);fill-rule:nonzero;"
   id="path192" />
            </g>
            <g
   transform="matrix(1,0,0,1,47.991,0)"
   id="g198">
                <path
   d="M1106.99,1861.87L1070.28,1843.46L1051.73,1862.18L1072.6,1854.75L1106.74,1869.91L1106.99,1861.87Z"
   style="fill:rgb(53,129,63);fill-rule:nonzero;"
   id="path196" />
            </g>
            <g
   transform="matrix(1,0,0,1,47.991,0)"
   id="g202">
                <path
   d="M1444.97,1899.87L1444.27,1882.96L1455.68,1880.23L1461.96,1884.6L1464.29,1878.05L1471.51,1879.68L1473.84,1873.14L1487.29,1878.46L1490.08,1879.01L1516.68,1873.14C1516.68,1873.14 1532.74,1885.97 1533.9,1886.52C1535.06,1887.06 1573.48,1879.97 1573.48,1879.97L1581.16,1873.14L1598.61,1881.61L1617.24,1885.43L1620.97,1898.23L1444.97,1899.87Z"
   style="fill:rgb(103,154,69);fill-rule:nonzero;"
   id="path200" />
            </g>
            <g
   transform="matrix(1,0,0,1,47.991,0)"
   id="g206">
                <path
   d="M1450.68,1895.78L1458.12,1884.05L1470.41,1895.92L1450.68,1895.78Z"
   style="fill:rgb(53,129,63);fill-rule:nonzero;"
   id="path204" />
            </g>
            <g
   transform="matrix(1,0,0,1,47.991,0)"
   id="g210">
                <path
   d="M1485.36,1895.78L1490.66,1889.23L1494.15,1889.23L1503.4,1883.91L1505.67,1890.05L1529.77,1888.01L1539.37,1895.37L1485.36,1895.78Z"
   style="fill:rgb(53,129,63);fill-rule:nonzero;"
   id="path208" />
            </g>
            <g
   transform="matrix(1,0,0,1,47.991,0)"
   id="g214">
                <path
   d="M1563.12,1894.96L1564.51,1891.14L1574.52,1889.5L1577.44,1885.41L1601.18,1895.37L1563.12,1894.96Z"
   style="fill:rgb(53,129,63);fill-rule:nonzero;"
   id="path212" />
            </g>
            <g
   transform="matrix(1,0,0,1,47.991,0)"
   id="g218">
                <path
   d="M1308.95,1899.87L1308.25,1882.96L1319.66,1880.23L1325.94,1884.6L1328.27,1878.05L1335.49,1879.68L1337.82,1873.14L1351.26,1878.46L1354.06,1879.01L1380.65,1873.14C1380.65,1873.14 1396.71,1885.97 1397.88,1886.52C1399.04,1887.06 1437.45,1879.97 1437.45,1879.97L1445.13,1873.14L1462.59,1881.61L1481.22,1885.43L1484.94,1898.23L1308.95,1899.87Z"
   style="fill:rgb(103,154,69);fill-rule:nonzero;"
   id="path216" />
            </g>
            <g
   transform="matrix(1,0,0,1,47.991,0)"
   id="g222">
                <path
   d="M1314.65,1895.78L1322.1,1884.05L1334.38,1895.92L1314.65,1895.78Z"
   style="fill:rgb(53,129,63);fill-rule:nonzero;"
   id="path220" />
            </g>
            <g
   transform="matrix(1,0,0,1,47.991,0)"
   id="g226">
                <path
   d="M1349.34,1895.78L1354.63,1889.23L1358.13,1889.23L1367.38,1883.91L1369.65,1890.05L1393.75,1888.01L1403.35,1895.37L1349.34,1895.78Z"
   style="fill:rgb(53,129,63);fill-rule:nonzero;"
   id="path224" />
            </g>
            <g
   transform="matrix(1,0,0,1,47.991,0)"
   id="g230">
                <path
   d="M1427.1,1894.96L1428.49,1891.14L1438.5,1889.5L1441.42,1885.41L1465.15,1895.37L1427.1,1894.96Z"
   style="fill:rgb(53,129,63);fill-rule:nonzero;"
   id="path228" />
            </g>
            <g
   transform="matrix(1,0,0,1,47.991,0)"
   id="g234">
                <path
   d="M1146.01,1899.87L1145.31,1882.96L1156.72,1880.23L1163,1884.6L1165.33,1878.05L1172.55,1879.68L1174.88,1873.14L1188.32,1878.46L1191.12,1879.01L1217.71,1873.14C1217.71,1873.14 1233.77,1885.97 1234.94,1886.52C1236.1,1887.06 1274.51,1879.97 1274.51,1879.97L1282.19,1873.14L1299.65,1881.61L1318.28,1885.43L1322,1898.23L1146.01,1899.87Z"
   style="fill:rgb(103,154,69);fill-rule:nonzero;"
   id="path232" />
            </g>
            <g
   transform="matrix(1,0,0,1,47.991,0)"
   id="g238">
                <path
   d="M1151.71,1895.78L1159.16,1884.05L1171.44,1895.92L1151.71,1895.78Z"
   style="fill:rgb(53,129,63);fill-rule:nonzero;"
   id="path236" />
            </g>
            <g
   transform="matrix(1,0,0,1,47.991,0)"
   id="g242">
                <path
   d="M1186.4,1895.78L1191.69,1889.23L1195.18,1889.23L1204.44,1883.91L1206.71,1890.05L1230.81,1888.01L1240.41,1895.37L1186.4,1895.78Z"
   style="fill:rgb(53,129,63);fill-rule:nonzero;"
   id="path240" />
            </g>
            <g
   transform="matrix(1,0,0,1,47.991,0)"
   id="g246">
                <path
   d="M1264.15,1894.96L1265.55,1891.14L1275.56,1889.5L1278.47,1885.41L1302.21,1895.37L1264.15,1894.96Z"
   style="fill:rgb(53,129,63);fill-rule:nonzero;"
   id="path244" />
            </g>
            <g
   transform="matrix(1,0,0,1,47.991,0)"
   id="g250">
                <path
   d="M974.518,1899.87L973.823,1882.96L985.229,1880.23L991.514,1884.6L993.842,1878.05L1001.06,1879.68L1003.39,1873.14L1016.83,1878.46L1019.63,1879.01L1046.22,1873.14C1046.22,1873.14 1062.28,1885.97 1063.45,1886.52C1064.61,1887.06 1103.03,1879.97 1103.03,1879.97L1110.7,1873.14L1128.16,1881.61L1146.79,1885.43L1150.51,1898.23L974.518,1899.87Z"
   style="fill:rgb(103,154,69);fill-rule:nonzero;"
   id="path248" />
            </g>
            <g
   transform="matrix(1,0,0,1,47.991,0)"
   id="g254">
                <path
   d="M980.225,1895.78L987.674,1884.05L999.956,1895.92L980.225,1895.78Z"
   style="fill:rgb(53,129,63);fill-rule:nonzero;"
   id="path252" />
            </g>
            <g
   transform="matrix(1,0,0,1,47.991,0)"
   id="g258">
                <path
   d="M1014.91,1895.78L1020.21,1889.23L1023.7,1889.23L1032.95,1883.91L1035.22,1890.05L1059.32,1888.01L1068.92,1895.37L1014.91,1895.78Z"
   style="fill:rgb(53,129,63);fill-rule:nonzero;"
   id="path256" />
            </g>
            <g
   transform="matrix(1,0,0,1,47.991,0)"
   id="g262">
                <path
   d="M1092.67,1894.96L1094.06,1891.14L1104.07,1889.5L1106.99,1885.41L1130.73,1895.37L1092.67,1894.96Z"
   style="fill:rgb(53,129,63);fill-rule:nonzero;"
   id="path260" />
            </g>
        </g>
        <g
   id="chimney">
            <g
   transform="matrix(1,0,0,1,47.991,0)"
   id="g267">
                <path
   d="M545.178,637.482L538.936,487.779L548.035,479.803L545.721,465.946L436.873,465.643L435.373,479.667L444.955,487.779L436.873,636.02L545.178,637.482Z"
   style="fill:rgb(231,230,222);fill-rule:nonzero;"
   id="path265" />
            </g>
            <g
   transform="matrix(1,0,0,1,47.991,0)"
   id="g271">
                <path
   d="M444.119,488L538.542,488L548.035,479.793L435.373,479.651L444.119,488Z"
   style="fill:rgb(216,211,203);fill-rule:nonzero;"
   id="path269" />
            </g>
        </g>
        <g
   transform="matrix(1,0,0,1,47.991,0)"
   id="g277">
            <g
   id="base">
                <path
   d="M224,715L880,715L880,1263L1038,1263L1038,1898L224,1898L224,715Z"
   style="fill:rgb(55,100,137);fill-rule:nonzero;"
   id="path274" />
            </g>
        </g>
        <g
   id="shadows">
            <g
   transform="matrix(1,0,0,1,47.991,0)"
   id="g283">
                <g
   opacity="0.300003"
   id="g281">
                    <path
   d="M880,742.495L862.305,760L224,760L224,718L880,718L880,742.495Z"
   style="fill:rgb(10,23,35);fill-rule:nonzero;"
   id="path279" />
                </g>
            </g>
            <g
   transform="matrix(1,0,0,1,47.991,0)"
   id="g289">
                <g
   opacity="0.300003"
   id="g287">
                    <path
   d="M1021.01,1380L880,1380L880,1329L1038.96,1327L1038.31,1363.18L1021.01,1380Z"
   style="fill:rgb(10,23,35);fill-rule:nonzero;"
   id="path285" />
                </g>
            </g>
            <g
   transform="matrix(1,0,0,1,47.991,0)"
   id="g295">
                <g
   opacity="0.300003"
   id="g293">
                    <path
   d="M880.01,1222.68L862.305,1240L224,1240L224,1209L879.365,1209L880.01,1222.68Z"
   style="fill:rgb(10,23,35);fill-rule:nonzero;"
   id="path291" />
                </g>
            </g>
            <g
   transform="matrix(1,0,0,1,47.991,0)"
   id="g301">
                <g
   opacity="0.300003"
   id="g299">
                    <path
   d="M1038.01,1721.92L1018.31,1741L224,1741L224,1706.88L1038.31,1705.94L1038.01,1721.92Z"
   style="fill:rgb(10,23,35);fill-rule:nonzero;"
   id="path297" />
                </g>
            </g>
            <g
   transform="matrix(1,0,0,1,47.991,0)"
   id="g307">
                <g
   opacity="0.300003"
   id="g305">
                    <path
   d="M1337,1348L1321.01,1348L1319.58,1417.37L1337,1386.37L1337,1348Z"
   style="fill:rgb(10,23,35);fill-rule:nonzero;"
   id="path303" />
                </g>
            </g>
        </g>
        <g
   transform="matrix(1,0,0,1,47.991,0)"
   id="g313">
            <g
   id="roof">
                <path
   d="M224,708.095L750.479,718.095L1002.01,708L874.698,564.095L224,563.095L224,708.095Z"
   style="fill:rgb(114,89,75);fill-rule:nonzero;"
   id="path310" />
            </g>
        </g>
        <g
   id="trim">
            <g
   transform="matrix(1,0,0,1,47.991,0)"
   id="g317">
                <path
   d="M224,1704L1047.01,1704L1042.01,1724L224,1724.92L224,1704Z"
   style="fill:rgb(84,62,54);fill-rule:nonzero;"
   id="path315" />
            </g>
            <g
   transform="matrix(1,0,0,1,47.991,0)"
   id="g321">
                <path
   d="M224,1203L888.01,1203L883.005,1224L224,1224L224,1203Z"
   style="fill:rgb(84,62,54);fill-rule:nonzero;"
   id="path319" />
            </g>
            <g
   transform="matrix(1,0,0,1,47.991,0)"
   id="g325">
                <path
   d="M224,708L1002.01,708L997.005,728.047L224,728.949L224,708Z"
   style="fill:rgb(84,62,54);fill-rule:nonzero;"
   id="path323" />
            </g>
            <g
   transform="matrix(1,0,0,1,47.991,0)"
   id="g329">
                <path
   d="M957.547,744L954.286,728.113L977.732,728.054L974.613,744L957.547,744Z"
   style="fill:rgb(42,43,42);fill-rule:nonzero;"
   id="path327" />
            </g>
            <g
   transform="matrix(1,0,0,1,47.991,0)"
   id="g333">
                <path
   d="M346.348,743.931L343.086,728.113L366.534,728.054L363.414,744L346.348,743.931Z"
   style="fill:rgb(42,43,42);fill-rule:nonzero;"
   id="path331" />
            </g>
            <g
   transform="matrix(1,0,0,1,47.991,0)"
   id="g337">
                <path
   d="M499.147,743.931L495.887,728.113L519.333,728.054L516.213,744L499.147,743.931Z"
   style="fill:rgb(42,43,42);fill-rule:nonzero;"
   id="path335" />
            </g>
            <g
   transform="matrix(1,0,0,1,47.991,0)"
   id="g341">
                <path
   d="M651.947,743.931L648.685,728.113L672.133,728.054L669.013,744L651.947,743.931Z"
   style="fill:rgb(42,43,42);fill-rule:nonzero;"
   id="path339" />
            </g>
            <g
   transform="matrix(1,0,0,1,47.991,0)"
   id="g345">
                <path
   d="M804.747,743.931L801.485,728.113L824.932,728.054L821.813,744L804.747,743.931Z"
   style="fill:rgb(42,43,42);fill-rule:nonzero;"
   id="path343" />
            </g>
            <g
   transform="matrix(1,0,0,1,47.991,0)"
   id="g349">
                <path
   d="M1347.82,1363.11L1344.56,1347.29L1368.01,1347.23L1364.89,1363.18L1347.82,1363.11Z"
   style="fill:rgb(42,43,42);fill-rule:nonzero;"
   id="path347" />
            </g>
            <g
   transform="matrix(1,0,0,1,47.991,0)"
   id="g353">
                <path
   d="M889.424,1363.11L886.162,1347.29L909.61,1347.23L906.49,1363.18L889.424,1363.11Z"
   style="fill:rgb(42,43,42);fill-rule:nonzero;"
   id="path351" />
            </g>
            <g
   transform="matrix(1,0,0,1,47.991,0)"
   id="g357">
                <path
   d="M1042.22,1363.11L1038.96,1347.29L1062.41,1347.23L1059.29,1363.18L1042.22,1363.11Z"
   style="fill:rgb(42,43,42);fill-rule:nonzero;"
   id="path355" />
            </g>
            <g
   transform="matrix(1,0,0,1,47.991,0)"
   id="g361">
                <path
   d="M1195.02,1363.11L1191.76,1347.29L1215.21,1347.23L1212.09,1363.18L1195.02,1363.11Z"
   style="fill:rgb(42,43,42);fill-rule:nonzero;"
   id="path359" />
            </g>
        </g>
        <g
   id="stoop-roof">
            <g
   transform="matrix(1,0,0,1,47.991,0)"
   id="g366">
                <path
   d="M874.01,1329L1131.49,1339L1382.01,1329L1285.7,1225L879.01,1224L874.01,1329Z"
   style="fill:rgb(114,89,75);fill-rule:nonzero;"
   id="path364" />
            </g>
            <g
   transform="matrix(1,0,0,1,47.991,0)"
   id="g370">
                <path
   d="M874.01,1329L1382.01,1329L1377.01,1349L878.01,1349.93L874.01,1329Z"
   style="fill:rgb(84,62,54);fill-rule:nonzero;"
   id="path368" />
            </g>
        </g>
        <g
   id="windows">
            <g
   transform="matrix(1,0,0,1,47.991,0)"
   id="g375">
                <path
   d="M875.705,1855.9L758.097,1855.96L758.01,1807.99L875.879,1807.97L875.705,1855.9Z"
   style="fill:rgb(216,211,203);fill-rule:nonzero;"
   id="path373" />
            </g>
            <g
   transform="matrix(1,0,0,1,47.991,0)"
   id="g379">
                <path
   d="M869.156,1850.17L764.731,1850.27L764.731,1813.68L869.156,1813.65L869.156,1850.17Z"
   style="fill:rgb(49,49,86);fill-rule:nonzero;"
   id="path377" />
            </g>
            <g
   transform="matrix(1,0,0,1,47.991,0)"
   id="g383">
                <rect
   x="815"
   y="1809"
   width="4"
   height="46"
   style="fill:rgb(216,211,203);fill-rule:nonzero;"
   id="rect381" />
            </g>
            <g
   transform="matrix(1,0,0,1,47.991,0)"
   id="g387">
                <path
   d="M408.705,1855.9L291.097,1855.96L291.01,1807.99L408.879,1807.97L408.705,1855.9Z"
   style="fill:rgb(216,211,203);fill-rule:nonzero;"
   id="path385" />
            </g>
            <g
   transform="matrix(1,0,0,1,47.991,0)"
   id="g391">
                <path
   d="M402.156,1850.17L297.731,1850.27L297.731,1813.68L402.156,1813.65L402.156,1850.17Z"
   style="fill:rgb(49,49,86);fill-rule:nonzero;"
   id="path389" />
            </g>
            <g
   transform="matrix(1,0,0,1,47.991,0)"
   id="g395">
                <rect
   x="348"
   y="1809"
   width="4"
   height="46"
   style="fill:rgb(216,211,203);fill-rule:nonzero;"
   id="rect393" />
            </g>
            <g
   transform="matrix(1,0,0,1,47.991,0)"
   id="g401">
                <g
   opacity="0.300003"
   id="g399">
                    <path
   d="M579.029,1048.78L571.009,1064L729.42,1064L740.55,1047.46L579.029,1048.78Z"
   style="fill:rgb(10,23,35);fill-rule:nonzero;"
   id="path397" />
                </g>
            </g>
            <g
   transform="matrix(1,0,0,1,47.991,0)"
   id="g407">
                <g
   opacity="0.300003"
   id="g405">
                    <path
   d="M516.286,1027.88L510.01,1040L799.42,1040L806.985,1027.73L516.286,1027.88Z"
   style="fill:rgb(10,23,35);fill-rule:nonzero;"
   id="path403" />
                </g>
            </g>
            <g
   transform="matrix(1,0,0,1,47.991,0)"
   id="g411">
                <path
   d="M738.424,1030.84L660.089,1031L660.034,874.583L738.528,874.51L738.424,1030.84Z"
   style="fill:rgb(216,211,203);fill-rule:nonzero;"
   id="path409" />
            </g>
            <g
   transform="matrix(1,0,0,1,47.991,0)"
   id="g415">
                <path
   d="M732.334,1024.89L666.013,1025.07L666.013,956.603L732.334,956.542L732.334,1024.89Z"
   style="fill:rgb(49,49,86);fill-rule:nonzero;"
   id="path413" />
            </g>
            <g
   transform="matrix(1,0,0,1,47.991,0)"
   id="g419">
                <path
   d="M732.334,950.562L665.975,950.501L666.013,880.585L732.366,881.311L732.334,950.562Z"
   style="fill:rgb(49,49,86);fill-rule:nonzero;"
   id="path417" />
            </g>
            <g
   transform="matrix(1,0,0,1,47.991,0)"
   id="g423">
                <path
   d="M666.527,1030.84L588.19,1031L588.139,874.583L666.631,874.51L666.527,1030.84Z"
   style="fill:rgb(216,211,203);fill-rule:nonzero;"
   id="path421" />
            </g>
            <g
   transform="matrix(1,0,0,1,47.991,0)"
   id="g427">
                <path
   d="M660.439,1024.89L594.116,1025.07L594.116,956.603L660.439,956.542L660.439,1024.89Z"
   style="fill:rgb(49,49,86);fill-rule:nonzero;"
   id="path425" />
            </g>
            <g
   transform="matrix(1,0,0,1,47.991,0)"
   id="g431">
                <path
   d="M660.439,950.565L594.077,950.501L594.116,880.585L660.472,881.311L660.439,950.565Z"
   style="fill:rgb(49,49,86);fill-rule:nonzero;"
   id="path429" />
            </g>
            <g
   transform="matrix(1,0,0,1,47.991,0)"
   id="g435">
                <rect
   x="665.739"
   y="950.548"
   width="67.236"
   height="5.834"
   style="fill:rgb(246,241,225);fill-rule:nonzero;"
   id="rect433" />
            </g>
            <g
   transform="matrix(1,0,0,1,47.991,0)"
   id="g439">
                <path
   d="M748.205,864.365L743.946,874.583L582.074,874.583L577.814,864.365L748.205,864.365Z"
   style="fill:rgb(84,62,54);fill-rule:nonzero;"
   id="path437" />
            </g>
            <g
   transform="matrix(1,0,0,1,47.991,0)"
   id="g445">
                <g
   opacity="0.300003"
   id="g443">
                    <path
   d="M732.334,1024.89L732.347,887.009L594.115,1019.01L594.115,1025.07L732.334,1024.89Z"
   style="fill:rgb(10,23,35);fill-rule:nonzero;"
   id="path441" />
                </g>
            </g>
            <g
   transform="matrix(1,0,0,1,47.991,0)"
   id="g449">
                <path
   d="M595.403,1025.04L732.339,887.755L732.356,887.776L732.375,881.305L731.688,881.292L594.143,1019.03L594.115,1025.07L595.403,1025.04Z"
   style="fill:rgb(73,74,114);fill-rule:nonzero;"
   id="path447" />
            </g>
            <g
   transform="matrix(1,0,0,1,47.991,0)"
   id="g453">
                <rect
   x="660.483"
   y="943.437"
   width="6.156"
   height="84.063"
   style="fill:rgb(216,211,203);fill-rule:nonzero;"
   id="rect451" />
            </g>
            <g
   transform="matrix(1,0,0,1,47.991,0)"
   id="g457">
                <rect
   x="593.91"
   y="950.443"
   width="138.873"
   height="6.155"
   style="fill:rgb(216,211,203);fill-rule:nonzero;"
   id="rect455" />
            </g>
            <g
   transform="matrix(1,0,0,1,47.991,0)"
   id="g461">
                <path
   d="M740.326,1050.33L585.543,1050.33L578.379,1031.01L747.7,1031.01L740.326,1050.33Z"
   style="fill:rgb(84,62,54);fill-rule:nonzero;"
   id="path459" />
            </g>
            <g
   transform="matrix(1,0,0,1,47.991,0)"
   id="g467">
                <g
   opacity="0.300003"
   id="g465">
                    <path
   d="M594.094,921.663L594.094,880.585L634.719,881.02"
   style="fill:rgb(10,23,35);fill-rule:nonzero;"
   id="path463" />
                </g>
            </g>
            <g
   transform="matrix(1,0,0,1,47.991,0)"
   id="g471">
                <rect
   x="518"
   y="876"
   width="70"
   height="153"
   style="fill:rgb(231,230,222);fill-rule:nonzero;"
   id="rect469" />
            </g>
            <g
   transform="matrix(1,0,0,1,47.991,0)"
   id="g475">
                <path
   d="M580.568,892.532L576.716,884.661L529.716,884.55L524.533,893.094L580.568,892.532Z"
   style="fill:rgb(216,211,203);fill-rule:nonzero;"
   id="path473" />
            </g>
            <g
   transform="matrix(1,0,0,1,47.991,0)"
   id="g479">
                <path
   d="M580.568,1021.93L576.716,1014.06L529.716,1013.95L524.533,1022.49L580.568,1021.93Z"
   style="fill:rgb(216,211,203);fill-rule:nonzero;"
   id="path477" />
            </g>
            <g
   transform="matrix(1,0,0,1,47.991,0)"
   id="g483">
                <path
   d="M580.568,996.05L576.716,988.179L529.716,988.068L524.533,996.612L580.568,996.05Z"
   style="fill:rgb(216,211,203);fill-rule:nonzero;"
   id="path481" />
            </g>
            <g
   transform="matrix(1,0,0,1,47.991,0)"
   id="g487">
                <path
   d="M580.568,970.17L576.716,962.299L529.716,962.188L524.533,970.732L580.568,970.17Z"
   style="fill:rgb(216,211,203);fill-rule:nonzero;"
   id="path485" />
            </g>
            <g
   transform="matrix(1,0,0,1,47.991,0)"
   id="g491">
                <path
   d="M580.568,944.291L576.716,936.42L529.716,936.309L524.533,944.853L580.568,944.291Z"
   style="fill:rgb(216,211,203);fill-rule:nonzero;"
   id="path489" />
            </g>
            <g
   transform="matrix(1,0,0,1,47.991,0)"
   id="g495">
                <path
   d="M580.568,918.412L576.716,910.541L529.716,910.43L524.533,918.974L580.568,918.412Z"
   style="fill:rgb(216,211,203);fill-rule:nonzero;"
   id="path493" />
            </g>
            <g
   transform="matrix(1,0,0,1,47.991,0)"
   id="g499">
                <rect
   x="738"
   y="876"
   width="70"
   height="153"
   style="fill:rgb(231,230,222);fill-rule:nonzero;"
   id="rect497" />
            </g>
            <g
   transform="matrix(1,0,0,1,47.991,0)"
   id="g503">
                <path
   d="M800.568,892.532L796.716,884.661L749.716,884.55L744.533,893.094L800.568,892.532Z"
   style="fill:rgb(216,211,203);fill-rule:nonzero;"
   id="path501" />
            </g>
            <g
   transform="matrix(1,0,0,1,47.991,0)"
   id="g507">
                <path
   d="M800.568,1021.93L796.716,1014.06L749.716,1013.95L744.533,1022.49L800.568,1021.93Z"
   style="fill:rgb(216,211,203);fill-rule:nonzero;"
   id="path505" />
            </g>
            <g
   transform="matrix(1,0,0,1,47.991,0)"
   id="g511">
                <path
   d="M800.568,996.05L796.716,988.179L749.716,988.068L744.533,996.612L800.568,996.05Z"
   style="fill:rgb(216,211,203);fill-rule:nonzero;"
   id="path509" />
            </g>
            <g
   transform="matrix(1,0,0,1,47.991,0)"
   id="g515">
                <path
   d="M800.568,970.17L796.716,962.299L749.716,962.188L744.533,970.732L800.568,970.17Z"
   style="fill:rgb(216,211,203);fill-rule:nonzero;"
   id="path513" />
            </g>
            <g
   transform="matrix(1,0,0,1,47.991,0)"
   id="g519">
                <path
   d="M800.568,944.291L796.716,936.42L749.716,936.309L744.533,944.853L800.568,944.291Z"
   style="fill:rgb(216,211,203);fill-rule:nonzero;"
   id="path517" />
            </g>
            <g
   transform="matrix(1,0,0,1,47.991,0)"
   id="g523">
                <path
   d="M800.568,918.412L796.716,910.541L749.716,910.43L744.533,918.974L800.568,918.412Z"
   style="fill:rgb(216,211,203);fill-rule:nonzero;"
   id="path521" />
            </g>
            <g
   transform="matrix(1,0,0,1,47.991,0)"
   id="g529">
                <g
   opacity="0.300003"
   id="g527">
                    <path
   d="M296.143,1025.22L291.151,1041L370.01,1041L376.551,1024.31L296.143,1025.22Z"
   style="fill:rgb(10,23,35);fill-rule:nonzero;"
   id="path525" />
                </g>
            </g>
            <g
   transform="matrix(1,0,0,1,47.991,0)"
   id="g533">
                <path
   d="M374.554,1008.51L306.235,1008.65L306.189,874.219L374.643,874.157L374.554,1008.51Z"
   style="fill:rgb(216,211,203);fill-rule:nonzero;"
   id="path531" />
            </g>
            <g
   transform="matrix(1,0,0,1,47.991,0)"
   id="g537">
                <path
   d="M368.398,1002.47L312.251,1002.62L312.251,944.657L368.398,944.605L368.398,1002.47Z"
   style="fill:rgb(49,49,86);fill-rule:nonzero;"
   id="path535" />
            </g>
            <g
   transform="matrix(1,0,0,1,47.991,0)"
   id="g541">
                <path
   d="M368.685,939.544L312.504,939.492L312.537,880.3L368.713,880.915L368.685,939.544Z"
   style="fill:rgb(49,49,86);fill-rule:nonzero;"
   id="path539" />
            </g>
            <g
   transform="matrix(1,0,0,1,47.991,0)"
   id="g545">
                <rect
   x="312.016"
   y="939.531"
   width="56.924"
   height="4.939"
   style="fill:rgb(246,241,225);fill-rule:nonzero;"
   id="rect543" />
            </g>
            <g
   transform="matrix(1,0,0,1,47.991,0)"
   id="g551">
                <g
   opacity="0.300003"
   id="g549">
                    <path
   d="M368.398,1002.47L368.778,922.345L312.78,977.66L312.251,1002.62L368.398,1002.47Z"
   style="fill:rgb(10,23,35);fill-rule:nonzero;"
   id="path547" />
                </g>
            </g>
            <g
   transform="matrix(1,0,0,1,47.991,0)"
   id="g555">
                <path
   d="M312.288,981.117L368.691,924.492L368.713,918.372L312.602,974.648L312.288,981.117Z"
   style="fill:rgb(73,74,114);fill-rule:nonzero;"
   id="path553" />
            </g>
            <g
   transform="matrix(1,0,0,1,47.991,0)"
   id="g559">
                <rect
   x="311.593"
   y="939.395"
   width="59.071"
   height="5.211"
   style="fill:rgb(216,211,203);fill-rule:nonzero;"
   id="rect557" />
            </g>
            <g
   transform="matrix(1,0,0,1,47.991,0)"
   id="g565">
                <g
   opacity="0.300003"
   id="g563">
                    <path
   d="M312.25,919.972L312.25,880.3L351.484,880.72"
   style="fill:rgb(10,23,35);fill-rule:nonzero;"
   id="path561" />
                </g>
            </g>
            <g
   transform="matrix(1,0,0,1,47.991,0)"
   id="g569">
                <path
   d="M385.358,864.365L381.1,874.583L299.41,874.583L295.15,864.365L385.358,864.365Z"
   style="fill:rgb(84,62,54);fill-rule:nonzero;"
   id="path567" />
            </g>
            <g
   transform="matrix(1,0,0,1,47.991,0)"
   id="g573">
                <path
   d="M377.48,1027.97L302.314,1027.97L295.15,1008.65L384.855,1008.65L377.48,1027.97Z"
   style="fill:rgb(84,62,54);fill-rule:nonzero;"
   id="path571" />
            </g>
            <g
   transform="matrix(1,0,0,1,47.991,0)"
   id="g579">
                <g
   opacity="0.300003"
   id="g577">
                    <path
   d="M332.02,1570.78L324,1586L482.411,1586L493.541,1569.46L332.02,1570.78Z"
   style="fill:rgb(10,23,35);fill-rule:nonzero;"
   id="path575" />
                </g>
            </g>
            <g
   transform="matrix(1,0,0,1,47.991,0)"
   id="g583">
                <path
   d="M491.414,1552.84L413.079,1553L413.024,1396.58L491.518,1396.51L491.414,1552.84Z"
   style="fill:rgb(216,211,203);fill-rule:nonzero;"
   id="path581" />
            </g>
            <g
   transform="matrix(1,0,0,1,47.991,0)"
   id="g587">
                <path
   d="M485.324,1546.89L419.003,1547.07L419.003,1478.6L485.324,1478.54L485.324,1546.89Z"
   style="fill:rgb(49,49,86);fill-rule:nonzero;"
   id="path585" />
            </g>
            <g
   transform="matrix(1,0,0,1,47.991,0)"
   id="g591">
                <path
   d="M485.324,1472.56L418.965,1472.5L419.003,1402.59L485.356,1403.31L485.324,1472.56Z"
   style="fill:rgb(49,49,86);fill-rule:nonzero;"
   id="path589" />
            </g>
            <g
   transform="matrix(1,0,0,1,47.991,0)"
   id="g595">
                <path
   d="M419.518,1552.84L341.181,1553L341.13,1396.58L419.622,1396.51L419.518,1552.84Z"
   style="fill:rgb(216,211,203);fill-rule:nonzero;"
   id="path593" />
            </g>
            <g
   transform="matrix(1,0,0,1,47.991,0)"
   id="g599">
                <path
   d="M413.429,1546.89L347.106,1547.07L347.106,1478.6L413.429,1478.54L413.429,1546.89Z"
   style="fill:rgb(49,49,86);fill-rule:nonzero;"
   id="path597" />
            </g>
            <g
   transform="matrix(1,0,0,1,47.991,0)"
   id="g603">
                <path
   d="M413.429,1472.57L347.067,1472.5L347.106,1402.59L413.462,1403.31L413.429,1472.57Z"
   style="fill:rgb(49,49,86);fill-rule:nonzero;"
   id="path601" />
            </g>
            <g
   transform="matrix(1,0,0,1,47.991,0)"
   id="g607">
                <rect
   x="418.729"
   y="1472.55"
   width="67.236"
   height="5.834"
   style="fill:rgb(246,241,225);fill-rule:nonzero;"
   id="rect605" />
            </g>
            <g
   transform="matrix(1,0,0,1,47.991,0)"
   id="g611">
                <path
   d="M501.195,1386.37L496.936,1396.58L335.064,1396.58L330.804,1386.37L501.195,1386.37Z"
   style="fill:rgb(84,62,54);fill-rule:nonzero;"
   id="path609" />
            </g>
            <g
   transform="matrix(1,0,0,1,47.991,0)"
   id="g617">
                <g
   opacity="0.300003"
   id="g615">
                    <path
   d="M485.324,1546.89L485.337,1409.01L347.105,1541.01L347.105,1547.07L485.324,1546.89Z"
   style="fill:rgb(10,23,35);fill-rule:nonzero;"
   id="path613" />
                </g>
            </g>
            <g
   transform="matrix(1,0,0,1,47.991,0)"
   id="g621">
                <path
   d="M348.394,1547.04L485.33,1409.76L485.347,1409.78L485.366,1403.31L484.679,1403.29L347.134,1541.04L347.106,1547.07L348.394,1547.04Z"
   style="fill:rgb(73,74,114);fill-rule:nonzero;"
   id="path619" />
            </g>
            <g
   transform="matrix(1,0,0,1,47.991,0)"
   id="g625">
                <rect
   x="413.473"
   y="1465.44"
   width="6.156"
   height="84.063"
   style="fill:rgb(216,211,203);fill-rule:nonzero;"
   id="rect623" />
            </g>
            <g
   transform="matrix(1,0,0,1,47.991,0)"
   id="g629">
                <rect
   x="346.9"
   y="1472.44"
   width="138.873"
   height="6.155"
   style="fill:rgb(216,211,203);fill-rule:nonzero;"
   id="rect627" />
            </g>
            <g
   transform="matrix(1,0,0,1,47.991,0)"
   id="g633">
                <path
   d="M493.316,1572.33L338.533,1572.33L331.369,1553.01L500.69,1553.01L493.316,1572.33Z"
   style="fill:rgb(84,62,54);fill-rule:nonzero;"
   id="path631" />
            </g>
            <g
   transform="matrix(1,0,0,1,47.991,0)"
   id="g639">
                <g
   opacity="0.300003"
   id="g637">
                    <path
   d="M347.084,1443.66L347.084,1402.59L387.709,1403.02"
   style="fill:rgb(10,23,35);fill-rule:nonzero;"
   id="path635" />
                </g>
            </g>
            <g
   transform="matrix(1,0,0,1,47.991,0)"
   id="g643">
                <rect
   x="345"
   y="1398"
   width="70"
   height="153"
   style="fill:rgb(231,230,222);fill-rule:nonzero;"
   id="rect641" />
            </g>
            <g
   transform="matrix(1,0,0,1,47.991,0)"
   id="g647">
                <path
   d="M407.568,1414.53L403.716,1406.66L356.716,1406.55L351.533,1415.09L407.568,1414.53Z"
   style="fill:rgb(216,211,203);fill-rule:nonzero;"
   id="path645" />
            </g>
            <g
   transform="matrix(1,0,0,1,47.991,0)"
   id="g651">
                <path
   d="M407.568,1543.93L403.716,1536.06L356.716,1535.95L351.533,1544.49L407.568,1543.93Z"
   style="fill:rgb(216,211,203);fill-rule:nonzero;"
   id="path649" />
            </g>
            <g
   transform="matrix(1,0,0,1,47.991,0)"
   id="g655">
                <path
   d="M407.568,1518.05L403.716,1510.18L356.716,1510.07L351.533,1518.61L407.568,1518.05Z"
   style="fill:rgb(216,211,203);fill-rule:nonzero;"
   id="path653" />
            </g>
            <g
   transform="matrix(1,0,0,1,47.991,0)"
   id="g659">
                <path
   d="M407.568,1492.17L403.716,1484.3L356.716,1484.19L351.533,1492.73L407.568,1492.17Z"
   style="fill:rgb(216,211,203);fill-rule:nonzero;"
   id="path657" />
            </g>
            <g
   transform="matrix(1,0,0,1,47.991,0)"
   id="g663">
                <path
   d="M407.568,1466.29L403.716,1458.42L356.716,1458.31L351.533,1466.85L407.568,1466.29Z"
   style="fill:rgb(216,211,203);fill-rule:nonzero;"
   id="path661" />
            </g>
            <g
   transform="matrix(1,0,0,1,47.991,0)"
   id="g667">
                <path
   d="M407.568,1440.41L403.716,1432.54L356.716,1432.43L351.533,1440.97L407.568,1440.41Z"
   style="fill:rgb(216,211,203);fill-rule:nonzero;"
   id="path665" />
            </g>
            <g
   transform="matrix(1,0,0,1,47.991,0)"
   id="g671">
                <rect
   x="418"
   y="1398"
   width="70"
   height="153"
   style="fill:rgb(231,230,222);fill-rule:nonzero;"
   id="rect669" />
            </g>
            <g
   transform="matrix(1,0,0,1,47.991,0)"
   id="g675">
                <path
   d="M480.568,1414.53L476.716,1406.66L429.716,1406.55L424.533,1415.09L480.568,1414.53Z"
   style="fill:rgb(216,211,203);fill-rule:nonzero;"
   id="path673" />
            </g>
            <g
   transform="matrix(1,0,0,1,47.991,0)"
   id="g679">
                <path
   d="M480.568,1543.93L476.716,1536.06L429.716,1535.95L424.533,1544.49L480.568,1543.93Z"
   style="fill:rgb(216,211,203);fill-rule:nonzero;"
   id="path677" />
            </g>
            <g
   transform="matrix(1,0,0,1,47.991,0)"
   id="g683">
                <path
   d="M480.568,1518.05L476.716,1510.18L429.716,1510.07L424.533,1518.61L480.568,1518.05Z"
   style="fill:rgb(216,211,203);fill-rule:nonzero;"
   id="path681" />
            </g>
            <g
   transform="matrix(1,0,0,1,47.991,0)"
   id="g687">
                <path
   d="M480.568,1492.17L476.716,1484.3L429.716,1484.19L424.533,1492.73L480.568,1492.17Z"
   style="fill:rgb(216,211,203);fill-rule:nonzero;"
   id="path685" />
            </g>
            <g
   transform="matrix(1,0,0,1,47.991,0)"
   id="g691">
                <path
   d="M480.568,1466.29L476.716,1458.42L429.716,1458.31L424.533,1466.85L480.568,1466.29Z"
   style="fill:rgb(216,211,203);fill-rule:nonzero;"
   id="path689" />
            </g>
            <g
   transform="matrix(1,0,0,1,47.991,0)"
   id="g695">
                <path
   d="M480.568,1440.41L476.716,1432.54L429.716,1432.43L424.533,1440.97L480.568,1440.41Z"
   style="fill:rgb(216,211,203);fill-rule:nonzero;"
   id="path693" />
            </g>
            <g
   transform="matrix(1,0,0,1,47.991,0)"
   id="g701">
                <g
   opacity="0.300003"
   id="g699">
                    <path
   d="M736.029,1570.78L728.009,1586L886.42,1586L897.55,1569.46L736.029,1570.78Z"
   style="fill:rgb(10,23,35);fill-rule:nonzero;"
   id="path697" />
                </g>
            </g>
            <g
   transform="matrix(1,0,0,1,47.991,0)"
   id="g707">
                <g
   opacity="0.300003"
   id="g705">
                    <path
   d="M673.286,1549.88L667.01,1562L956.42,1562L963.985,1549.73L673.286,1549.88Z"
   style="fill:rgb(10,23,35);fill-rule:nonzero;"
   id="path703" />
                </g>
            </g>
            <g
   transform="matrix(1,0,0,1,47.991,0)"
   id="g711">
                <path
   d="M895.424,1552.84L817.089,1553L817.034,1396.58L895.528,1396.51L895.424,1552.84Z"
   style="fill:rgb(216,211,203);fill-rule:nonzero;"
   id="path709" />
            </g>
            <g
   transform="matrix(1,0,0,1,47.991,0)"
   id="g715">
                <path
   d="M889.334,1546.89L823.013,1547.07L823.013,1478.6L889.334,1478.54L889.334,1546.89Z"
   style="fill:rgb(49,49,86);fill-rule:nonzero;"
   id="path713" />
            </g>
            <g
   transform="matrix(1,0,0,1,47.991,0)"
   id="g719">
                <path
   d="M889.334,1472.56L822.975,1472.5L823.013,1402.59L889.366,1403.31L889.334,1472.56Z"
   style="fill:rgb(49,49,86);fill-rule:nonzero;"
   id="path717" />
            </g>
            <g
   transform="matrix(1,0,0,1,47.991,0)"
   id="g723">
                <path
   d="M823.527,1552.84L745.19,1553L745.139,1396.58L823.631,1396.51L823.527,1552.84Z"
   style="fill:rgb(216,211,203);fill-rule:nonzero;"
   id="path721" />
            </g>
            <g
   transform="matrix(1,0,0,1,47.991,0)"
   id="g727">
                <path
   d="M817.439,1546.89L751.116,1547.07L751.116,1478.6L817.439,1478.54L817.439,1546.89Z"
   style="fill:rgb(49,49,86);fill-rule:nonzero;"
   id="path725" />
            </g>
            <g
   transform="matrix(1,0,0,1,47.991,0)"
   id="g731">
                <path
   d="M817.439,1472.57L751.077,1472.5L751.116,1402.59L817.472,1403.31L817.439,1472.57Z"
   style="fill:rgb(49,49,86);fill-rule:nonzero;"
   id="path729" />
            </g>
            <g
   transform="matrix(1,0,0,1,47.991,0)"
   id="g735">
                <rect
   x="822.739"
   y="1472.55"
   width="67.236"
   height="5.834"
   style="fill:rgb(246,241,225);fill-rule:nonzero;"
   id="rect733" />
            </g>
            <g
   transform="matrix(1,0,0,1,47.991,0)"
   id="g739">
                <path
   d="M905.205,1386.37L900.946,1396.58L739.074,1396.58L734.814,1386.37L905.205,1386.37Z"
   style="fill:rgb(84,62,54);fill-rule:nonzero;"
   id="path737" />
            </g>
            <g
   transform="matrix(1,0,0,1,47.991,0)"
   id="g745">
                <g
   opacity="0.300003"
   id="g743">
                    <path
   d="M889.334,1546.89L889.347,1409.01L751.115,1541.01L751.115,1547.07L889.334,1546.89Z"
   style="fill:rgb(10,23,35);fill-rule:nonzero;"
   id="path741" />
                </g>
            </g>
            <g
   transform="matrix(1,0,0,1,47.991,0)"
   id="g749">
                <path
   d="M752.403,1547.04L889.339,1409.76L889.356,1409.78L889.375,1403.31L888.688,1403.29L751.143,1541.04L751.115,1547.07L752.403,1547.04Z"
   style="fill:rgb(73,74,114);fill-rule:nonzero;"
   id="path747" />
            </g>
            <g
   transform="matrix(1,0,0,1,47.991,0)"
   id="g753">
                <rect
   x="817.483"
   y="1465.44"
   width="6.156"
   height="84.063"
   style="fill:rgb(216,211,203);fill-rule:nonzero;"
   id="rect751" />
            </g>
            <g
   transform="matrix(1,0,0,1,47.991,0)"
   id="g757">
                <rect
   x="750.91"
   y="1472.44"
   width="138.873"
   height="6.155"
   style="fill:rgb(216,211,203);fill-rule:nonzero;"
   id="rect755" />
            </g>
            <g
   transform="matrix(1,0,0,1,47.991,0)"
   id="g761">
                <path
   d="M897.326,1572.33L742.543,1572.33L735.379,1553.01L904.7,1553.01L897.326,1572.33Z"
   style="fill:rgb(84,62,54);fill-rule:nonzero;"
   id="path759" />
            </g>
            <g
   transform="matrix(1,0,0,1,47.991,0)"
   id="g767">
                <g
   opacity="0.300003"
   id="g765">
                    <path
   d="M751.094,1443.66L751.094,1402.59L791.719,1403.02"
   style="fill:rgb(10,23,35);fill-rule:nonzero;"
   id="path763" />
                </g>
            </g>
            <g
   transform="matrix(1,0,0,1,47.991,0)"
   id="g771">
                <rect
   x="675"
   y="1398"
   width="70"
   height="153"
   style="fill:rgb(231,230,222);fill-rule:nonzero;"
   id="rect769" />
            </g>
            <g
   transform="matrix(1,0,0,1,47.991,0)"
   id="g775">
                <path
   d="M737.568,1414.53L733.716,1406.66L686.716,1406.55L681.533,1415.09L737.568,1414.53Z"
   style="fill:rgb(216,211,203);fill-rule:nonzero;"
   id="path773" />
            </g>
            <g
   transform="matrix(1,0,0,1,47.991,0)"
   id="g779">
                <path
   d="M737.568,1543.93L733.716,1536.06L686.716,1535.95L681.533,1544.49L737.568,1543.93Z"
   style="fill:rgb(216,211,203);fill-rule:nonzero;"
   id="path777" />
            </g>
            <g
   transform="matrix(1,0,0,1,47.991,0)"
   id="g783">
                <path
   d="M737.568,1518.05L733.716,1510.18L686.716,1510.07L681.533,1518.61L737.568,1518.05Z"
   style="fill:rgb(216,211,203);fill-rule:nonzero;"
   id="path781" />
            </g>
            <g
   transform="matrix(1,0,0,1,47.991,0)"
   id="g787">
                <path
   d="M737.568,1492.17L733.716,1484.3L686.716,1484.19L681.533,1492.73L737.568,1492.17Z"
   style="fill:rgb(216,211,203);fill-rule:nonzero;"
   id="path785" />
            </g>
            <g
   transform="matrix(1,0,0,1,47.991,0)"
   id="g791">
                <path
   d="M737.568,1466.29L733.716,1458.42L686.716,1458.31L681.533,1466.85L737.568,1466.29Z"
   style="fill:rgb(216,211,203);fill-rule:nonzero;"
   id="path789" />
            </g>
            <g
   transform="matrix(1,0,0,1,47.991,0)"
   id="g795">
                <path
   d="M737.568,1440.41L733.716,1432.54L686.716,1432.43L681.533,1440.97L737.568,1440.41Z"
   style="fill:rgb(216,211,203);fill-rule:nonzero;"
   id="path793" />
            </g>
            <g
   transform="matrix(1,0,0,1,47.991,0)"
   id="g799">
                <rect
   x="895"
   y="1398"
   width="70"
   height="153"
   style="fill:rgb(231,230,222);fill-rule:nonzero;"
   id="rect797" />
            </g>
            <g
   transform="matrix(1,0,0,1,47.991,0)"
   id="g803">
                <path
   d="M957.568,1414.53L953.716,1406.66L906.716,1406.55L901.533,1415.09L957.568,1414.53Z"
   style="fill:rgb(216,211,203);fill-rule:nonzero;"
   id="path801" />
            </g>
            <g
   transform="matrix(1,0,0,1,47.991,0)"
   id="g807">
                <path
   d="M957.568,1543.93L953.716,1536.06L906.716,1535.95L901.533,1544.49L957.568,1543.93Z"
   style="fill:rgb(216,211,203);fill-rule:nonzero;"
   id="path805" />
            </g>
            <g
   transform="matrix(1,0,0,1,47.991,0)"
   id="g811">
                <path
   d="M957.568,1518.05L953.716,1510.18L906.716,1510.07L901.533,1518.61L957.568,1518.05Z"
   style="fill:rgb(216,211,203);fill-rule:nonzero;"
   id="path809" />
            </g>
            <g
   transform="matrix(1,0,0,1,47.991,0)"
   id="g815">
                <path
   d="M957.568,1492.17L953.716,1484.3L906.716,1484.19L901.533,1492.73L957.568,1492.17Z"
   style="fill:rgb(216,211,203);fill-rule:nonzero;"
   id="path813" />
            </g>
            <g
   transform="matrix(1,0,0,1,47.991,0)"
   id="g819">
                <path
   d="M957.568,1466.29L953.716,1458.42L906.716,1458.31L901.533,1466.85L957.568,1466.29Z"
   style="fill:rgb(216,211,203);fill-rule:nonzero;"
   id="path817" />
            </g>
            <g
   transform="matrix(1,0,0,1,47.991,0)"
   id="g823">
                <path
   d="M957.568,1440.41L953.716,1432.54L906.716,1432.43L901.533,1440.97L957.568,1440.41Z"
   style="fill:rgb(216,211,203);fill-rule:nonzero;"
   id="path821" />
            </g>
        </g>
        <g
   transform="matrix(1,0,0,1,47.991,0)"
   id="g829">
            <g
   id="ground">
                <rect
   x="224.009"
   y="1896"
   width="1456"
   height="24"
   style="fill:rgb(53,45,39);fill-rule:nonzero;"
   id="rect826" />
            </g>
        </g>
    </g>
<g
   transform="matrix(0.0058232,0,0,-0.0058232,191.37629,477.54528)"
   fill="#000000"
   stroke="none"
   id="g26"
   style="fill:#e3dbdb"><path
     d="m 7610,12773 c -48,-16 -79,-20 -117,-16 -49,5 -57,3 -127,-41 -126,-78 -185,-134 -201,-189 -13,-45 -147,-245 -184,-275 -16,-13 -175,-65 -331,-107 -58,-16 -140,-29 -211,-33 l -115,-8 -110,-61 c -60,-34 -193,-93 -294,-132 -101,-39 -193,-77 -204,-85 -12,-7 -57,-78 -101,-157 -43,-79 -151,-251 -239,-382 l -160,-238 -7,-123 c -8,-149 -16,-164 -110,-209 l -69,-32 6,-46 c 13,-99 -39,-138 -193,-147 l -92,-5 -16,-33 c -8,-18 -18,-47 -21,-66 -9,-47 -47,-83 -110,-103 -69,-22 -91,-53 -169,-235 -31,-74 -87,-191 -123,-259 -57,-105 -86,-144 -190,-260 -112,-123 -129,-147 -178,-251 -35,-74 -70,-131 -98,-160 -41,-43 -43,-49 -54,-132 -12,-99 -35,-150 -96,-217 -23,-25 -54,-65 -70,-88 -16,-23 -43,-51 -61,-61 -26,-16 -33,-28 -38,-63 -3,-24 -27,-86 -53,-138 -41,-83 -61,-109 -158,-207 -61,-61 -124,-121 -139,-132 -25,-18 -33,-39 -62,-156 -19,-74 -44,-154 -55,-178 -14,-26 -92,-112 -204,-223 -172,-171 -185,-187 -257,-310 -115,-195 -129,-227 -129,-285 0,-88 -21,-192 -57,-285 -37,-92 -43,-143 -28,-222 7,-37 3,-49 -29,-106 -20,-36 -36,-72 -36,-80 0,-9 16,-31 35,-49 32,-30 36,-40 45,-114 12,-93 0,-261 -25,-370 -49,-214 -124,-452 -175,-554 -32,-64 -70,-181 -70,-217 0,-6 15,-10 33,-9 27,1 33,-3 35,-23 3,-18 -11,-37 -62,-85 -71,-66 -70,-65 -67,-209 1,-45 30,-77 68,-77 16,0 51,-11 78,-24 44,-20 83,-49 252,-192 l 43,-35 v -95 c 0,-112 29,-209 81,-274 32,-39 33,-43 33,-139 1,-94 2,-100 35,-152 83,-130 102,-166 131,-241 40,-106 45,-143 26,-197 -14,-41 -13,-48 6,-105 50,-149 79,-192 222,-325 26,-23 73,-77 105,-120 79,-103 91,-112 219,-180 61,-33 166,-96 233,-141 67,-45 144,-90 173,-100 183,-63 348,-194 415,-332 17,-35 39,-96 49,-136 15,-59 27,-81 60,-115 22,-23 52,-64 66,-92 47,-95 142,-434 152,-548 l 7,-67 -57,-55 c -69,-68 -71,-86 -11,-145 65,-64 75,-90 63,-179 -10,-87 -7,-101 25,-101 19,0 26,7 30,29 4,17 19,44 35,62 26,29 35,33 80,32 43,-1 68,-10 149,-56 87,-49 163,-79 163,-63 0,3 -7,31 -15,63 -17,63 -12,123 12,161 8,13 40,49 71,80 57,57 122,169 122,210 0,11 -5,33 -11,49 -6,15 -19,68 -29,117 -16,74 -17,103 -9,173 5,46 14,158 19,248 9,158 8,166 -13,212 -16,36 -21,66 -21,118 1,77 4,88 109,320 37,83 114,259 171,392 93,220 107,248 158,305 38,42 54,67 50,78 -4,8 -12,32 -17,52 -21,72 -13,79 235,227 302,181 321,196 379,301 27,47 51,91 55,99 4,8 -4,34 -19,62 -15,26 -27,52 -27,57 0,23 54,72 105,96 92,42 139,95 209,235 34,69 99,183 144,253 72,110 125,212 185,350 12,26 32,46 74,71 47,27 58,38 56,58 -1,13 -2,83 -3,155 -2,142 9,186 55,234 13,14 47,73 76,130 28,58 67,130 88,160 39,57 103,227 146,390 18,64 29,140 35,235 10,154 15,178 66,297 31,72 34,89 32,157 -3,69 0,83 33,156 28,60 38,99 43,155 3,48 20,118 44,191 22,64 45,140 51,170 7,30 25,93 41,140 30,91 80,312 101,441 9,62 17,84 40,108 51,53 51,125 -1,184 -25,28 -30,43 -30,83 0,107 34,170 123,223 47,28 58,53 46,111 -24,128 -7,177 92,256 237,189 306,295 318,484 6,93 10,112 34,148 15,22 27,46 27,53 0,31 23,90 44,115 13,15 26,40 30,56 3,15 21,44 40,65 46,52 56,74 56,127 0,74 36,125 88,125 11,0 23,7 26,16 20,52 -14,240 -78,426 -25,73 -49,167 -54,209 -6,44 -19,93 -33,120 -48,90 -19,304 61,458 109,209 363,440 473,429 31,-3 32,-2 39,42 9,65 3,80 -31,74 -38,-8 -79,35 -131,137 l -40,81 v 125 c 0,111 -2,124 -16,119 -41,-16 -208,-36 -297,-36 -128,0 -234,22 -332,70 -69,34 -101,60 -242,197 -147,144 -163,162 -169,201 -7,42 -8,43 -108,95 l -101,52 z"
     id="path2-0"
     style="fill:#e3dbdb" /><path
     d="m 9089,11169 c -14,-27 4,-42 41,-33 33,7 34,9 20,33 -14,27 -46,27 -61,0 z"
     id="path4"
     style="fill:#e3dbdb" /><path
     d="m 521,6966 c -18,-19 -21,-30 -15,-49 10,-29 110,-111 124,-102 6,3 10,32 10,64 0,55 -2,60 -34,85 -43,32 -56,33 -85,2 z"
     id="path6-8"
     style="fill:#e3dbdb" /><path
     d="m 333,6858 c -11,-14 -19,-43 -35,-133 -13,-71 -52,-119 -110,-137 -49,-15 -39,-28 22,-28 43,0 53,4 85,37 19,20 35,46 35,57 0,12 7,30 15,40 9,12 15,42 15,76 0,31 5,61 11,67 13,13 4,33 -15,33 -8,0 -18,-6 -23,-12 z"
     id="path8"
     style="fill:#e3dbdb" /><path
     d="m 640,6713 c -14,-9 -46,-36 -72,-60 -26,-24 -52,-43 -57,-43 -25,0 -41,-33 -41,-84 0,-28 -5,-57 -12,-64 -8,-8 -8,-15 2,-27 12,-14 15,-14 31,1 27,24 63,15 67,-18 3,-26 7,-28 46,-28 41,0 42,1 80,66 30,52 46,70 79,85 52,23 95,24 119,2 17,-16 20,-16 35,0 16,16 14,20 -36,71 -42,42 -64,56 -110,69 -32,9 -64,23 -71,32 -16,19 -30,19 -60,-2 z"
     id="path10-1"
     style="fill:#e3dbdb" /><path
     d="m 2125,6399 -57,-82 11,-84 c 6,-46 13,-88 16,-93 17,-28 25,0 25,91 v 100 l 40,59 c 39,57 50,90 31,90 -5,0 -35,-37 -66,-81 z"
     id="path12"
     style="fill:#e3dbdb" /><path
     d="m 300,6394 c -11,-12 -10,-18 4,-32 16,-16 18,-16 31,2 11,14 12,23 4,33 -15,17 -24,16 -39,-3 z"
     id="path14-7"
     style="fill:#e3dbdb" /><path
     d="m 272,5858 c -19,-19 -15,-48 7,-48 20,0 37,32 26,50 -8,13 -18,13 -33,-2 z"
     id="path16"
     style="fill:#e3dbdb" /><path
     d="m 48,5275 c -15,-13 -33,-25 -40,-28 -23,-8 6,-42 40,-45 22,-2 34,3 46,20 37,52 1,93 -46,53 z"
     id="path18-7"
     style="fill:#e3dbdb" /><path
     d="m 7046,3349 c -22,-32 -21,-92 2,-112 10,-10 35,-17 55,-17 h 37 v 59 c 0,62 -8,75 -51,86 -21,5 -30,2 -43,-16 z"
     id="path20"
     style="fill:#e3dbdb" /><path
     d="m 3248,1956 c -10,-7 -18,-22 -18,-34 0,-11 -7,-23 -16,-26 -8,-3 -12,-10 -9,-16 9,-15 41,-12 55,5 7,9 28,23 47,32 44,21 41,47 -7,50 -19,2 -43,-3 -52,-11 z"
     id="path22-2"
     style="fill:#e3dbdb" /><path
     d="m 7233,1124 c -46,-17 -51,-25 -28,-44 9,-8 15,-29 15,-56 0,-43 0,-43 69,-83 81,-47 101,-56 159,-65 40,-6 42,-5 42,18 0,16 -17,40 -55,74 -56,52 -64,69 -42,91 10,10 9,14 -5,22 -10,6 -18,16 -18,24 0,18 -7,22 -55,28 -24,4 -57,0 -82,-9 z"
     id="path24"
     style="fill:#e3dbdb" /></g></svg>
