<?xml version="1.0" encoding="UTF-8" standalone="no"?>
<svg
   width="192px"
   height="192px"
   version="1.1"
   xml:space="preserve"
   style="fill-rule:evenodd;clip-rule:evenodd;stroke-linejoin:round;stroke-miterlimit:1.41421;"
   id="svg226"
   sodipodi:docname="yerba-buena-parklet-left.svg"
   inkscape:version="1.1 (c68e22c387, 2021-05-23)"
   xmlns:inkscape="http://www.inkscape.org/namespaces/inkscape"
   xmlns:sodipodi="http://sodipodi.sourceforge.net/DTD/sodipodi-0.dtd"
   xmlns="http://www.w3.org/2000/svg"
   xmlns:svg="http://www.w3.org/2000/svg"><defs
     id="defs230" /><sodipodi:namedview
     id="namedview228"
     pagecolor="#ffffff"
     bordercolor="#666666"
     borderopacity="1.0"
     inkscape:pageshadow="2"
     inkscape:pageopacity="0.0"
     inkscape:pagecheckerboard="0"
     showgrid="false"
     inkscape:zoom="2.7083333"
     inkscape:cx="95.815385"
     inkscape:cy="96.184615"
     inkscape:window-width="1366"
     inkscape:window-height="705"
     inkscape:window-x="-8"
     inkscape:window-y="-8"
     inkscape:window-maximized="1"
     inkscape:current-layer="svg226" /><g
     id="g224"><g
       id="parklet-left"
       transform="matrix(0.5,0,0,0.5,-0.5,-48)"><g
         id="shrub-bg"><g
           transform="matrix(1,0,0,1,-94,0)"
           id="g4"><path
             d="M352.625,241.926l-6.479,7.936l6.26,16.926l-15.293,8.228l1.905,-10.758l-12.009,-0.587l-2.39,7.712l-12.465,2.285l-9.82,-10.334l-7.334,-11.082l-12,8.151l-10.334,-10.602l1.667,-4.295l-4.333,-5.506l-5,0l-9.31,5.506l-8.357,-10.506l-19,-3.744l7.693,-12.256l-14.026,-10.495l7.666,-11.377l-1.666,-12.128l9,0l-4.786,-14l16.119,-13.333l7.357,13.667l12.719,1l13.257,-1.334l-1.666,-3.333l-11.591,-3.333l4.257,-17.575l5,-2.425l2,-11l9.334,-6.667l7,13.667l7.666,2.333l12,-14.667l11.126,10.334l1.775,10.333l7.578,9.333l13.855,-10l2.625,18.27l9.947,-2.281l3.428,-6.655l12.988,3.333l3.082,10.667l-8.912,6.333l11.508,4.667l14.334,-2.667l-7.211,14l9.211,11.333l-13.334,17.667l-7.333,-12.667l-7.175,16.667l-7.158,-4l-3.428,10.333l8.094,4.549l-8.094,2.451l-9.947,1.926Z"
             style="fill:#35813f;fill-rule:nonzero;"
             id="path2" /></g></g><g
         id="shrub-stem"><g
           transform="matrix(1,0,0,1,-94,0)"
           id="g9"><path
             d="M318.188,299.567l7.479,-37.959l29.099,-30.856l3.235,-42.348l-7.395,-4.649l-4.461,43.997l-27.957,28.5l-6.035,40.273l6.035,3.042Z"
             style="fill:#645849;fill-rule:nonzero;"
             id="path7" /></g><g
           transform="matrix(1,0,0,1,-94,0)"
           id="g13"><path
             d="M318.188,286.693l-26.592,-27.05l-2.929,-38.921l-24,-30.22l7.146,-2.098l23.783,29.348l4.905,38l21.89,22.486l-4.203,8.455Z"
             style="fill:#645849;fill-rule:nonzero;"
             id="path11" /></g><g
           transform="matrix(1,0,0,1,-94,0)"
           id="g17"><path
             d="M292,238.5l-19.985,-4.426l-22.025,-36.382l-11.022,-1.686l29.015,45.334l24.017,4.166l0,-7.006Z"
             style="fill:#645849;fill-rule:nonzero;"
             id="path15" /></g><g
           transform="matrix(1,0,0,1,-94,0)"
           id="g21"><path
             d="M313.152,191.502l-7.485,2.75l3.333,41.223l20.811,15.287l5.877,-7.756l-18.501,-12.092"
             style="fill:#645849;fill-rule:nonzero;"
             id="path19" /></g><g
           transform="matrix(1,0,0,1,-94,0)"
           id="g25"><path
             d="M330.488,206.667l6.588,-19.415l-7.588,-2.496l-5.098,19.455l-12.238,8.456l1.539,7.933l16.797,-13.933Z"
             style="fill:#645849;fill-rule:nonzero;"
             id="path23" /></g></g><g
         id="shrub"><g
           transform="matrix(1,0,0,1,-94,0)"
           id="g30"><path
             d="M334.08,181l-13.626,22.424l18.092,7.38l10.018,-16.488l-14.484,-13.316Z"
             style="fill:#699b48;fill-rule:nonzero;"
             id="path28" /></g><g
           transform="matrix(1,0,0,1,-94,0)"
           id="g34"><path
             d="M320.058,248.438l15.777,-29.771l-23.747,-8.098l-11.6,21.89l19.57,15.979Z"
             style="fill:#699b48;fill-rule:nonzero;"
             id="path32" /></g><g
           transform="matrix(1,0,0,1,-94,0)"
           id="g38"><path
             d="M290.838,158.869l19.323,7.92l3.55,-15.14l-14.208,-5.824l-8.665,13.044Z"
             style="fill:#699b48;fill-rule:nonzero;"
             id="path36" /></g><g
           transform="matrix(1,0,0,1,-94,0)"
           id="g42"><path
             d="M276.967,190.497l22.446,-4.618l-6.036,-15.961l-16.504,3.395l0.094,17.184Z"
             style="fill:#699b48;fill-rule:nonzero;"
             id="path40" /></g><g
           transform="matrix(1,0,0,1,-94,0)"
           id="g46"><path
             d="M253.981,173.867l-11.25,28.256l22.101,4.948l8.272,-20.777l-19.123,-12.427Z"
             style="fill:#699b48;fill-rule:nonzero;"
             id="path44" /></g><g
           transform="matrix(1,0,0,1,-94,0)"
           id="g50"><path
             d="M275.795,153.771l-13.906,18.238l15.046,8.08l10.225,-13.41l-11.365,-12.908Z"
             style="fill:#699b48;fill-rule:nonzero;"
             id="path48" /></g><g
           transform="matrix(1,0,0,1,-94,0)"
           id="g54"><path
             d="M264.206,228.328l-11.42,-25.464l-17.38,11.393l8.398,18.723l20.402,-4.652Z"
             style="fill:#699b48;fill-rule:nonzero;"
             id="path52" /></g><g
           transform="matrix(1,0,0,1,-94,0)"
           id="g58"><path
             d="M276.947,194.156l-22.201,20.214l17.474,13.946l16.325,-14.862l-11.598,-19.298Z"
             style="fill:#699b48;fill-rule:nonzero;"
             id="path56" /></g><g
           transform="matrix(1,0,0,1,-94,0)"
           id="g62"><path
             d="M302.977,217.135l-25.586,1.875l4.388,18.592l18.813,-1.379l2.385,-19.088Z"
             style="fill:#699b48;fill-rule:nonzero;"
             id="path60" /></g><g
           transform="matrix(1,0,0,1,-94,0)"
           id="g66"><path
             d="M291.58,180.166l3.762,32.086l23.149,-6.54l-2.765,-23.592l-24.146,-1.954Z"
             style="fill:#699b48;fill-rule:nonzero;"
             id="path64" /></g><g
           transform="matrix(1,0,0,1,-94,0)"
           id="g70"><path
             d="M263.703,229.441l-3.241,20.453l15.421,-0.022l2.383,-15.039l-14.563,-5.392Z"
             style="fill:#699b48;fill-rule:nonzero;"
             id="path68" /></g><g
           transform="matrix(1,0,0,1,-94,0)"
           id="g74"><path
             d="M298.794,262.873l18.404,-11.297l-10.471,-12.203l-13.534,8.307l5.601,15.193Z"
             style="fill:#699b48;fill-rule:nonzero;"
             id="path72" /></g><g
           transform="matrix(1,0,0,1,-94,0)"
           id="g78"><path
             d="M322.236,239.886l21.897,19.488l11.753,-18.392l-16.1,-14.33l-17.55,13.234Z"
             style="fill:#699b48;fill-rule:nonzero;"
             id="path76" /></g><g
           transform="matrix(1,0,0,1,-94,0)"
           id="g82"><path
             d="M300.57,178.778l27.354,5.121l0.546,-20.715l-20.112,-3.765l-7.788,19.359Z"
             style="fill:#699b48;fill-rule:nonzero;"
             id="path80" /></g><g
           transform="matrix(1,0,0,1,-94,0)"
           id="g86"><path
             d="M358.672,182.073l-4.089,29.652l22.284,-0.481l3.006,-21.803l-21.201,-7.368Z"
             style="fill:#699b48;fill-rule:nonzero;"
             id="path84" /></g><g
           transform="matrix(1,0,0,1,-94,0)"
           id="g90"><path
             d="M338.13,209.84l5.058,23.553l16.724,-6.491l-3.72,-17.318l-18.062,0.256Z"
             style="fill:#699b48;fill-rule:nonzero;"
             id="path88" /></g><g
           transform="matrix(1,0,0,1,-94,0)"
           id="g94"><path
             d="M365.168,170.99l-31.021,-12.359l-5.439,24.264l22.81,9.088l13.65,-20.993Z"
             style="fill:#699b48;fill-rule:nonzero;"
             id="path92" /></g></g><g
         id="plants"><g
           transform="matrix(1,0,0,1,-94,0)"
           id="g99"><path
             d="M246.561,278.109l-4.605,0l-0.844,29.246l8.904,1.381l-3.455,-30.627Z"
             style="fill:#679a45;fill-rule:nonzero;"
             id="path97" /></g><g
           transform="matrix(1,0,0,1,-94,0)"
           id="g103"><path
             d="M200.32,253.381l-4.762,-0.467l-0.189,60.69l8.912,2.099l-3.961,-62.322Z"
             style="fill:#679a45;fill-rule:nonzero;"
             id="path101" /></g><g
           transform="matrix(1,0,0,1,-94,0)"
           id="g107"><path
             d="M210.746,253.203l6.254,-18.805l-37.383,-0.07l6.086,18.957l25.043,-0.082Z"
             style="fill:#ae2025;fill-rule:nonzero;"
             id="path105" /></g><g
           transform="matrix(1,0,0,1,-94,0)"
           id="g111"><path
             d="M256.954,278.361l6.254,-18.805l-37.383,-0.07l6.086,18.957l25.043,-0.082Z"
             style="fill:#ae2025;fill-rule:nonzero;"
             id="path109" /></g><g
           transform="matrix(1,0,0,1,-94,0)"
           id="g115"><path
             d="M381.206,276.145l-4.605,0l-0.844,38.318l8.904,1.809l-3.455,-40.127Z"
             style="fill:#679a45;fill-rule:nonzero;"
             id="path113" /></g><g
           transform="matrix(1,0,0,1,-94,0)"
           id="g119"><path
             d="M391.599,276.398l6.254,-18.805l-37.383,-0.07l6.086,18.957l25.043,-0.082Z"
             style="fill:#ae2025;fill-rule:nonzero;"
             id="path117" /></g><g
           transform="matrix(1,0,0,1,-94,0)"
           id="g123"><path
             d="M426.645,262.347l-4.762,-0.467l-0.189,47.936l8.912,2.099l-3.961,-49.568Z"
             style="fill:#679a45;fill-rule:nonzero;"
             id="path121" /></g><g
           transform="matrix(1,0,0,1,-94,0)"
           id="g127"><path
             d="M437.07,262.169l6.254,-18.805l-37.383,-0.07l6.086,18.957l25.043,-0.082Z"
             style="fill:#ae2025;fill-rule:nonzero;"
             id="path125" /></g><g
           transform="matrix(1,0,0,1,-94,0)"
           id="g131"><path
             d="M207.051,313.506l9.625,-9.5l35.695,-2.469l7.118,-7.031l11.25,6.854l8.812,-3.354l20.402,-2.471l4.2,2.991l5,-4.916l6.63,1.38l2.329,-6.548l16.24,5.873l27.135,-6.12l14.166,14.084l42.095,-7.003l11.24,-11.165l13.899,12.801l18.627,3.819l3.724,12.808l-258.187,-0.033Z"
             style="fill:#679a45;fill-rule:nonzero;"
             id="path129" /></g><g
           transform="matrix(1,0,0,1,-94,0)"
           id="g135"><path
             d="M378.988,313.57l4.252,-5.709l27.25,-1.418l19,-13.75l3.545,15.252l10.289,5.584l-64.336,0.041Z"
             style="fill:#35813f;fill-rule:nonzero;"
             id="path133" /></g><g
           transform="matrix(1,0,0,1,-94,0)"
           id="g139"><path
             d="M364.917,312.471l-17.5,-8.418l-27.633,-3.488l-11.93,-6.656l-6.437,6.478l-4,-4l-25.813,-3.103l-5.687,5.644l-2.328,-6.549l-7.217,1.639l-6.328,-6.549l-9.447,5.326l-2.793,0.547l-29.731,-6.527l-10.09,10.035l-16.544,6.989l-4.939,8.728l188.417,-0.096Z"
             style="fill:#679a45;fill-rule:nonzero;"
             id="path137" /></g><g
           transform="matrix(1,0,0,1,-94,0)"
           id="g143"><path
             d="M231.892,312.729l-1.395,-3.816l-19.789,-6.752l-3.666,4.834l-13.166,5.498l38.016,0.236Z"
             style="fill:#35813f;fill-rule:nonzero;"
             id="path141" /></g><g
           transform="matrix(1,0,0,1,-94,0)"
           id="g147"><path
             d="M299.188,312.514l-7,-7.834l-8.846,2.049l-22.467,-0.57l-8.062,6.312l19.709,0.043l26.666,0Z"
             style="fill:#35813f;fill-rule:nonzero;"
             id="path145" /></g><g
           transform="matrix(1,0,0,1,-94,0)"
           id="g151"><path
             d="M320.488,313.611l5.463,-3.664l1.537,-7.17l30.75,2.582l4.334,8.168l-42.084,0.084Z"
             style="fill:#35813f;fill-rule:nonzero;"
             id="path149" /></g></g><g
         id="parklet-with-seat"><g
           transform="matrix(1,0,0,1,-94,0)"
           id="g156"><path
             d="M159,312l316,0l2,24l-320,0l2,-24Z"
             style="fill:#ae2025;fill-rule:nonzero;"
             id="path154" /></g><g
           transform="matrix(1,0,0,1,-94,0)"
           id="g160"><path
             d="M99,460l376,0l2,-24l-380,0l2,24Z"
             style="fill:#ae2025;fill-rule:nonzero;"
             id="path158" /></g><g
           transform="matrix(1,0,0,1,-94,0)"
           id="g164"><path
             d="M105,440l362,0l-2,-116l-307,0l-5,58l-47.027,1.649l-0.973,56.351Z"
             style="fill:#ae2025;fill-rule:nonzero;"
             id="path162" /></g><g
           transform="matrix(1,0,0,1,-94,0)"
           id="g168"><rect
             x="350"
             y="359"
             width="16"
             height="121"
             style="fill:#ae2025;fill-rule:nonzero;"
             id="rect166" /></g><g
           transform="matrix(1,0,0,1,-94,0)"
           id="g172"><rect
             x="350"
             y="336"
             width="16"
             height="24"
             style="fill:#ae2025;fill-rule:nonzero;"
             id="rect170" /></g><g
           transform="matrix(1,0,0,1,-94,0)"
           id="g176"><rect
             x="209"
             y="336"
             width="16"
             height="24"
             style="fill:#ae2025;fill-rule:nonzero;"
             id="rect174" /></g><g
           transform="matrix(1,0,0,1,-94,0)"
           id="g180"><rect
             x="209"
             y="359"
             width="16"
             height="121"
             style="fill:#ae2025;fill-rule:nonzero;"
             id="rect178" /></g><g
           transform="matrix(1,0,0,1,-94,0)"
           id="g184"><path
             d="M230,336l0,83.5l114,-59.5l0,-24.333l-114,0.333Z"
             style="fill:#6b151b;fill-rule:nonzero;"
             id="path182" /></g><g
           transform="matrix(1,0,0,1,-94,0)"
           id="g188"><path
             d="M372,336l0,73.5l78,-39.273l0,-34.56l-78,0.333Z"
             style="fill:#6b151b;fill-rule:nonzero;"
             id="path186" /></g><g
           transform="matrix(1,0,0,1,-94,0)"
           id="g192"><path
             d="M204,336l0,31l-31.3,22.635l4.98,-53.968l26.32,0.333Z"
             style="fill:#6b151b;fill-rule:nonzero;"
             id="path190" /></g><g
           transform="matrix(1,0,0,1,-94,0)"
           id="g196"><path
             d="M225,460l0,20l6,-20l-6,0Z"
             style="fill:#6b151b;fill-rule:nonzero;"
             id="path194" /></g><g
           transform="matrix(1,0,0,1,-94,0)"
           id="g200"><path
             d="M366,460l0,20l5.999,-20l-5.999,0Z"
             style="fill:#6b151b;fill-rule:nonzero;"
             id="path198" /></g><g
           transform="matrix(1,0,0,1,-94,0)"
           id="g204"><path
             d="M451,437l-79,0l0.113,-8l78.887,0l0,8Z"
             style="fill:#6b151b;fill-rule:nonzero;"
             id="path202" /></g><g
           transform="matrix(1,0,0,1,-94,0)"
           id="g208"><path
             d="M204,437l-82,0l0.117,-8l81.883,0l0,8Z"
             style="fill:#6b151b;fill-rule:nonzero;"
             id="path206" /></g><g
           transform="matrix(1,0,0,1,-94,0)"
           id="g212"><path
             d="M344,437l-114.066,0l0.169,-8l113.897,0l0,8Z"
             style="fill:#6b151b;fill-rule:nonzero;"
             id="path210" /></g><g
           transform="matrix(1,0,0,1,-94,0)"
           id="g216"><path
             d="M461.965,329.263l3.502,-10.531l-20.934,-0.039l3.409,10.616l14.023,-0.046Z"
             style="fill:#c1bebb;fill-rule:nonzero;"
             id="path214" /></g><g
           transform="matrix(1,0,0,1,-94,0)"
           id="g220"><path
             d="M166.7,309l-7.7,80l-62,-1l0,-9l49.759,-3.75l8.908,-66.25l11.033,0Z"
             style="fill:#543e36;fill-rule:nonzero;"
             id="path218" /></g></g></g></g><g
     transform="matrix(0.00376508,0,0,-0.00347352,77.088083,166.73175)"
     fill="#000000"
     stroke="none"
     id="g26"
     style="fill:#e3dbdb"><path
       d="m 7610,12773 c -48,-16 -79,-20 -117,-16 -49,5 -57,3 -127,-41 -126,-78 -185,-134 -201,-189 -13,-45 -147,-245 -184,-275 -16,-13 -175,-65 -331,-107 -58,-16 -140,-29 -211,-33 l -115,-8 -110,-61 c -60,-34 -193,-93 -294,-132 -101,-39 -193,-77 -204,-85 -12,-7 -57,-78 -101,-157 -43,-79 -151,-251 -239,-382 l -160,-238 -7,-123 c -8,-149 -16,-164 -110,-209 l -69,-32 6,-46 c 13,-99 -39,-138 -193,-147 l -92,-5 -16,-33 c -8,-18 -18,-47 -21,-66 -9,-47 -47,-83 -110,-103 -69,-22 -91,-53 -169,-235 -31,-74 -87,-191 -123,-259 -57,-105 -86,-144 -190,-260 -112,-123 -129,-147 -178,-251 -35,-74 -70,-131 -98,-160 -41,-43 -43,-49 -54,-132 -12,-99 -35,-150 -96,-217 -23,-25 -54,-65 -70,-88 -16,-23 -43,-51 -61,-61 -26,-16 -33,-28 -38,-63 -3,-24 -27,-86 -53,-138 -41,-83 -61,-109 -158,-207 -61,-61 -124,-121 -139,-132 -25,-18 -33,-39 -62,-156 -19,-74 -44,-154 -55,-178 -14,-26 -92,-112 -204,-223 -172,-171 -185,-187 -257,-310 -115,-195 -129,-227 -129,-285 0,-88 -21,-192 -57,-285 -37,-92 -43,-143 -28,-222 7,-37 3,-49 -29,-106 -20,-36 -36,-72 -36,-80 0,-9 16,-31 35,-49 32,-30 36,-40 45,-114 12,-93 0,-261 -25,-370 -49,-214 -124,-452 -175,-554 -32,-64 -70,-181 -70,-217 0,-6 15,-10 33,-9 27,1 33,-3 35,-23 3,-18 -11,-37 -62,-85 -71,-66 -70,-65 -67,-209 1,-45 30,-77 68,-77 16,0 51,-11 78,-24 44,-20 83,-49 252,-192 l 43,-35 v -95 c 0,-112 29,-209 81,-274 32,-39 33,-43 33,-139 1,-94 2,-100 35,-152 83,-130 102,-166 131,-241 40,-106 45,-143 26,-197 -14,-41 -13,-48 6,-105 50,-149 79,-192 222,-325 26,-23 73,-77 105,-120 79,-103 91,-112 219,-180 61,-33 166,-96 233,-141 67,-45 144,-90 173,-100 183,-63 348,-194 415,-332 17,-35 39,-96 49,-136 15,-59 27,-81 60,-115 22,-23 52,-64 66,-92 47,-95 142,-434 152,-548 l 7,-67 -57,-55 c -69,-68 -71,-86 -11,-145 65,-64 75,-90 63,-179 -10,-87 -7,-101 25,-101 19,0 26,7 30,29 4,17 19,44 35,62 26,29 35,33 80,32 43,-1 68,-10 149,-56 87,-49 163,-79 163,-63 0,3 -7,31 -15,63 -17,63 -12,123 12,161 8,13 40,49 71,80 57,57 122,169 122,210 0,11 -5,33 -11,49 -6,15 -19,68 -29,117 -16,74 -17,103 -9,173 5,46 14,158 19,248 9,158 8,166 -13,212 -16,36 -21,66 -21,118 1,77 4,88 109,320 37,83 114,259 171,392 93,220 107,248 158,305 38,42 54,67 50,78 -4,8 -12,32 -17,52 -21,72 -13,79 235,227 302,181 321,196 379,301 27,47 51,91 55,99 4,8 -4,34 -19,62 -15,26 -27,52 -27,57 0,23 54,72 105,96 92,42 139,95 209,235 34,69 99,183 144,253 72,110 125,212 185,350 12,26 32,46 74,71 47,27 58,38 56,58 -1,13 -2,83 -3,155 -2,142 9,186 55,234 13,14 47,73 76,130 28,58 67,130 88,160 39,57 103,227 146,390 18,64 29,140 35,235 10,154 15,178 66,297 31,72 34,89 32,157 -3,69 0,83 33,156 28,60 38,99 43,155 3,48 20,118 44,191 22,64 45,140 51,170 7,30 25,93 41,140 30,91 80,312 101,441 9,62 17,84 40,108 51,53 51,125 -1,184 -25,28 -30,43 -30,83 0,107 34,170 123,223 47,28 58,53 46,111 -24,128 -7,177 92,256 237,189 306,295 318,484 6,93 10,112 34,148 15,22 27,46 27,53 0,31 23,90 44,115 13,15 26,40 30,56 3,15 21,44 40,65 46,52 56,74 56,127 0,74 36,125 88,125 11,0 23,7 26,16 20,52 -14,240 -78,426 -25,73 -49,167 -54,209 -6,44 -19,93 -33,120 -48,90 -19,304 61,458 109,209 363,440 473,429 31,-3 32,-2 39,42 9,65 3,80 -31,74 -38,-8 -79,35 -131,137 l -40,81 v 125 c 0,111 -2,124 -16,119 -41,-16 -208,-36 -297,-36 -128,0 -234,22 -332,70 -69,34 -101,60 -242,197 -147,144 -163,162 -169,201 -7,42 -8,43 -108,95 l -101,52 z"
       id="path2-2"
       style="fill:#e3dbdb" /><path
       d="m 9089,11169 c -14,-27 4,-42 41,-33 33,7 34,9 20,33 -14,27 -46,27 -61,0 z"
       id="path4"
       style="fill:#e3dbdb" /><path
       d="m 521,6966 c -18,-19 -21,-30 -15,-49 10,-29 110,-111 124,-102 6,3 10,32 10,64 0,55 -2,60 -34,85 -43,32 -56,33 -85,2 z"
       id="path6"
       style="fill:#e3dbdb" /><path
       d="m 333,6858 c -11,-14 -19,-43 -35,-133 -13,-71 -52,-119 -110,-137 -49,-15 -39,-28 22,-28 43,0 53,4 85,37 19,20 35,46 35,57 0,12 7,30 15,40 9,12 15,42 15,76 0,31 5,61 11,67 13,13 4,33 -15,33 -8,0 -18,-6 -23,-12 z"
       id="path8"
       style="fill:#e3dbdb" /><path
       d="m 640,6713 c -14,-9 -46,-36 -72,-60 -26,-24 -52,-43 -57,-43 -25,0 -41,-33 -41,-84 0,-28 -5,-57 -12,-64 -8,-8 -8,-15 2,-27 12,-14 15,-14 31,1 27,24 63,15 67,-18 3,-26 7,-28 46,-28 41,0 42,1 80,66 30,52 46,70 79,85 52,23 95,24 119,2 17,-16 20,-16 35,0 16,16 14,20 -36,71 -42,42 -64,56 -110,69 -32,9 -64,23 -71,32 -16,19 -30,19 -60,-2 z"
       id="path10"
       style="fill:#e3dbdb" /><path
       d="m 2125,6399 -57,-82 11,-84 c 6,-46 13,-88 16,-93 17,-28 25,0 25,91 v 100 l 40,59 c 39,57 50,90 31,90 -5,0 -35,-37 -66,-81 z"
       id="path12"
       style="fill:#e3dbdb" /><path
       d="m 300,6394 c -11,-12 -10,-18 4,-32 16,-16 18,-16 31,2 11,14 12,23 4,33 -15,17 -24,16 -39,-3 z"
       id="path14"
       style="fill:#e3dbdb" /><path
       d="m 272,5858 c -19,-19 -15,-48 7,-48 20,0 37,32 26,50 -8,13 -18,13 -33,-2 z"
       id="path16"
       style="fill:#e3dbdb" /><path
       d="m 48,5275 c -15,-13 -33,-25 -40,-28 -23,-8 6,-42 40,-45 22,-2 34,3 46,20 37,52 1,93 -46,53 z"
       id="path18"
       style="fill:#e3dbdb" /><path
       d="m 7046,3349 c -22,-32 -21,-92 2,-112 10,-10 35,-17 55,-17 h 37 v 59 c 0,62 -8,75 -51,86 -21,5 -30,2 -43,-16 z"
       id="path20"
       style="fill:#e3dbdb" /><path
       d="m 3248,1956 c -10,-7 -18,-22 -18,-34 0,-11 -7,-23 -16,-26 -8,-3 -12,-10 -9,-16 9,-15 41,-12 55,5 7,9 28,23 47,32 44,21 41,47 -7,50 -19,2 -43,-3 -52,-11 z"
       id="path22"
       style="fill:#e3dbdb" /><path
       d="m 7233,1124 c -46,-17 -51,-25 -28,-44 9,-8 15,-29 15,-56 0,-43 0,-43 69,-83 81,-47 101,-56 159,-65 40,-6 42,-5 42,18 0,16 -17,40 -55,74 -56,52 -64,69 -42,91 10,10 9,14 -5,22 -10,6 -18,16 -18,24 0,18 -7,22 -55,28 -24,4 -57,0 -82,-9 z"
       id="path24"
       style="fill:#e3dbdb" /></g></svg>
