<?xml version="1.0" encoding="UTF-8" standalone="no"?>
<svg
   width="144px"
   height="144px"
   version="1.1"
   xml:space="preserve"
   style="fill-rule:evenodd;clip-rule:evenodd;stroke-linejoin:round;stroke-miterlimit:1.41421;"
   id="svg155"
   sodipodi:docname="bike-rack-perpendicular-right.svg"
   inkscape:version="1.1 (c68e22c387, 2021-05-23)"
   xmlns:inkscape="http://www.inkscape.org/namespaces/inkscape"
   xmlns:sodipodi="http://sodipodi.sourceforge.net/DTD/sodipodi-0.dtd"
   xmlns="http://www.w3.org/2000/svg"
   xmlns:svg="http://www.w3.org/2000/svg"><defs
     id="defs159" /><sodipodi:namedview
     id="namedview157"
     pagecolor="#ffffff"
     bordercolor="#666666"
     borderopacity="1.0"
     inkscape:pageshadow="2"
     inkscape:pageopacity="0.0"
     inkscape:pagecheckerboard="0"
     showgrid="false"
     inkscape:zoom="3.6111111"
     inkscape:cx="71.861538"
     inkscape:cy="72.138462"
     inkscape:window-width="1366"
     inkscape:window-height="705"
     inkscape:window-x="-8"
     inkscape:window-y="-8"
     inkscape:window-maximized="1"
     inkscape:current-layer="svg155" /><g
     id="g153"><g
       id="bike-rack-perpendicular-right"
       transform="matrix(0.5,0,0,0.5,0,-156)"><g
         transform="matrix(1.99969,9.86076e-32,1.97215e-31,1.99969,7.7645,-623.809)"
         id="g4"><path
           d="M37.1553,570.728l1.905,2.396l-11.826,11.887l-2.666,-2.006l12.587,-12.277Z"
           style="fill:#e4e2dc;fill-rule:nonzero;"
           id="path2" /></g><g
         transform="matrix(1.99969,9.86076e-32,1.97215e-31,1.99969,7.7645,-623.809)"
         id="g8"><path
           d="M19.6553,588.229l1.905,2.396l-11.826,11.887l-2.666,-2.006l12.587,-12.277Z"
           style="fill:#e4e2dc;fill-rule:nonzero;"
           id="path6" /></g><g
         transform="matrix(1.99969,9.86076e-32,1.97215e-31,1.99969,7.7645,-623.809)"
         id="g12"><path
           d="M10.9736,570.728l-1.905,2.396l11.826,11.887l2.666,-2.006l-12.587,-12.277Z"
           style="fill:#e4e2dc;fill-rule:nonzero;"
           id="path10" /></g><g
         transform="matrix(1.99969,9.86076e-32,1.97215e-31,1.99969,7.7645,-623.809)"
         id="g16"><path
           d="M27.2236,586.979l-1.88,2.422l13.018,13.078l2.699,-1.973l-13.837,-13.527Z"
           style="fill:#e4e2dc;fill-rule:nonzero;"
           id="path14" /></g><g
         transform="matrix(1.99969,9.86076e-32,1.97215e-31,1.99969,7.7645,-623.809)"
         id="g20"><path
           d="M3.9453,588.602l0.348,-3.042l16.767,-0.043l0.467,3.304l-17.582,-0.219Z"
           style="fill:#e4e2dc;fill-rule:nonzero;"
           id="path18" /></g><g
         transform="matrix(1.99969,9.86076e-32,1.97215e-31,1.99969,7.7645,-623.809)"
         id="g24"><path
           d="M28.6934,588.602l0.348,-3.043l16.767,-0.043l0.467,3.305l-17.582,-0.219Z"
           style="fill:#e4e2dc;fill-rule:nonzero;"
           id="path22" /></g><g
         transform="matrix(1.99969,9.86076e-32,1.97215e-31,1.99969,7.7645,-623.809)"
         id="g28"><path
           d="M22.459,607.864l3.041,-0.361l0.043,-17.484l-3.303,-0.486l0.219,18.331Z"
           style="fill:#e4e2dc;fill-rule:nonzero;"
           id="path26" /></g><g
         transform="matrix(1.99969,9.86076e-32,1.97215e-31,1.99969,7.7645,-623.809)"
         id="g32"><path
           d="M22.459,582.365l3.041,-0.348l0.043,-16.767l-3.303,-0.467l0.219,17.582Z"
           style="fill:#e4e2dc;fill-rule:nonzero;"
           id="path30" /></g><g
         transform="matrix(1.99969,9.86076e-32,1.97215e-31,1.99969,7.7645,-623.809)"
         id="g36"><path
           d="M24.6289,607.37c-11.046,0 -20,-8.954 -20,-20c0,-11.046 8.954,-20 20,-20c11.046,0 20,8.954 20,20c0,11.046 -8.954,20 -20,20M24.6289,562.742c-13.603,0 -24.629,11.026 -24.629,24.629c0,13.602 11.026,24.628 24.629,24.628c13.602,0 24.628,-11.026 24.628,-24.628c0,-13.603 -11.026,-24.629 -24.628,-24.629"
           style="fill:#373837;fill-rule:nonzero;"
           id="path34" /></g><g
         transform="matrix(1.99969,9.86076e-32,1.97215e-31,1.99969,7.7645,-623.809)"
         id="g40"><path
           d="M58.7139,584.538l32.294,-38.626l2.595,2.218l-32.081,38.266l-2.808,-1.858Z"
           style="fill:#ecdbb1;fill-rule:nonzero;"
           id="path38" /></g><g
         transform="matrix(1.99969,9.86076e-32,1.97215e-31,1.99969,7.7645,-623.809)"
         id="g44"><path
           d="M47.5146,555.21l42.622,-17.507l1.261,3.172l-42.297,17.301l-1.586,-2.966Z"
           style="fill:#ecdbb1;fill-rule:nonzero;"
           id="path42" /></g><g
         transform="matrix(1.99969,9.86076e-32,1.97215e-31,1.99969,7.7645,-623.809)"
         id="g48"><path
           d="M87.0361,536.727l8.768,-3.857l1.273,3.167l-8.721,3.763l-1.32,-3.073Z"
           style="fill:#ecdbb1;fill-rule:nonzero;"
           id="path46" /></g><g
         transform="matrix(1.99969,9.86076e-32,1.97215e-31,1.99969,7.7645,-623.809)"
         id="g52"><path
           d="M56.6025,586.017l-15.789,-46.584l3.246,-1.058l15.594,46.221l-3.051,1.421Z"
           style="fill:#ecdbb1;fill-rule:nonzero;"
           id="path50" /></g><g
         transform="matrix(1.99969,9.86076e-32,1.97215e-31,1.99969,7.7645,-623.809)"
         id="g56"><path
           d="M33.4463,537.741l0.579,4.002l15.626,-0.001l4.628,-4.001l-20.833,0Z"
           style="fill:#c09e3e;fill-rule:nonzero;"
           id="path54" /></g><g
         transform="matrix(1.99969,9.86076e-32,1.97215e-31,1.99969,7.7645,-623.809)"
         id="g60"><path
           d="M60.4189,579.514l0.521,1.564l5.254,0.076l-1.353,1.763l4.147,2.67l-1.563,1.404l0.595,5.416l-2.124,-0.188l-2.869,3.576l-1.602,-1.751l-4.769,1.23l-0.372,-1.938l-3.614,-2.422l1.862,-1.117l-1.378,-3.465l1.9,-0.931l0.186,-3.317l1.826,0.224l3.353,-2.794Z"
           style="fill:#373837;fill-rule:nonzero;"
           id="path58" /></g><g
         transform="matrix(1.99969,9.86076e-32,1.97215e-31,1.99969,7.7645,-623.809)"
         id="g71"><clipPath
           id="tag1"><rect
             x="86.8197"
             y="532.87"
             width="9.726"
             height="5.706"
             id="rect62" /></clipPath><g
           clip-path="url(#tag1)"
           id="g69"><g
             opacity="0.5"
             id="g67"><path
               d="M95.8037,532.87l0.742,3.456l-5.25,2.25l-4.476,-2.01l8.984,-3.696Z"
               style="fill:#171817;fill-rule:nonzero;"
               id="path65" /></g></g></g><g
         transform="matrix(1.99969,9.86076e-32,1.97215e-31,1.99969,7.7645,-623.809)"
         id="g75"><path
           d="M99.1904,537.41l-3.331,0.083l-1.418,-5.417l6.333,-0.083l-1.584,5.417Z"
           style="fill:#cead80;fill-rule:nonzero;"
           id="path73" /></g><g
         transform="matrix(1.99969,9.86076e-32,1.97215e-31,1.99969,7.7645,-623.809)"
         id="g79"><path
           d="M124.155,570.728l1.905,2.396l-11.826,11.887l-2.666,-2.006l12.587,-12.277Z"
           style="fill:#e4e2dc;fill-rule:nonzero;"
           id="path77" /></g><g
         transform="matrix(1.99969,9.86076e-32,1.97215e-31,1.99969,7.7645,-623.809)"
         id="g83"><path
           d="M106.655,588.229l1.905,2.396l-11.826,11.887l-2.666,-2.006l12.587,-12.277Z"
           style="fill:#e4e2dc;fill-rule:nonzero;"
           id="path81" /></g><g
         transform="matrix(1.99969,9.86076e-32,1.97215e-31,1.99969,7.7645,-623.809)"
         id="g87"><path
           d="M97.9736,570.728l-1.905,2.396l11.826,11.887l2.666,-2.006l-12.587,-12.277Z"
           style="fill:#e4e2dc;fill-rule:nonzero;"
           id="path85" /></g><g
         transform="matrix(1.99969,9.86076e-32,1.97215e-31,1.99969,7.7645,-623.809)"
         id="g91"><path
           d="M114.224,586.979l-1.88,2.422l13.018,13.078l2.699,-1.973l-13.837,-13.527Z"
           style="fill:#e4e2dc;fill-rule:nonzero;"
           id="path89" /></g><g
         transform="matrix(1.99969,9.86076e-32,1.97215e-31,1.99969,7.7645,-623.809)"
         id="g95"><path
           d="M90.9453,588.602l0.348,-3.042l16.767,-0.043l0.467,3.304l-17.582,-0.219Z"
           style="fill:#e4e2dc;fill-rule:nonzero;"
           id="path93" /></g><g
         transform="matrix(1.99969,9.86076e-32,1.97215e-31,1.99969,7.7645,-623.809)"
         id="g99"><path
           d="M115.693,588.602l0.348,-3.043l16.767,-0.043l0.467,3.305l-17.582,-0.219Z"
           style="fill:#e4e2dc;fill-rule:nonzero;"
           id="path97" /></g><g
         transform="matrix(1.99969,9.86076e-32,1.97215e-31,1.99969,7.7645,-623.809)"
         id="g103"><path
           d="M109.459,607.864l3.041,-0.361l0.043,-17.484l-3.303,-0.486l0.219,18.331Z"
           style="fill:#e4e2dc;fill-rule:nonzero;"
           id="path101" /></g><g
         transform="matrix(1.99969,9.86076e-32,1.97215e-31,1.99969,7.7645,-623.809)"
         id="g107"><path
           d="M109.459,582.365l3.041,-0.348l0.043,-16.767l-3.303,-0.467l0.219,17.582Z"
           style="fill:#e4e2dc;fill-rule:nonzero;"
           id="path105" /></g><g
         transform="matrix(1.99969,9.86076e-32,1.97215e-31,1.99969,7.7645,-623.809)"
         id="g111"><path
           d="M23.1064,579.327l-5,6.75l5.375,8l8.125,-7l-8.5,-7.75Z"
           style="fill:#373837;fill-rule:nonzero;"
           id="path109" /></g><g
         transform="matrix(1.99969,9.86076e-32,1.97215e-31,1.99969,7.7645,-623.809)"
         id="g115"><path
           d="M112.358,579.701l-8.917,6.208l5.375,8l8.125,-7l-4.583,-7.208Z"
           style="fill:#373837;fill-rule:nonzero;"
           id="path113" /></g><g
         transform="matrix(1.99969,9.86076e-32,1.97215e-31,1.99969,7.7645,-623.809)"
         id="g119"><path
           d="M23.9102,585.615l24.456,-27.629l2.528,2.293l-24.305,27.357l-2.679,-2.021Z"
           style="fill:#ecdbb1;fill-rule:nonzero;"
           id="path117" /></g><g
         transform="matrix(1.99969,9.86076e-32,1.97215e-31,1.99969,7.7645,-623.809)"
         id="g123"><path
           d="M111.629,607.37c-11.046,0 -20,-8.954 -20,-20c0,-11.046 8.954,-20 20,-20c11.046,0 20,8.954 20,20c0,11.046 -8.954,20 -20,20M111.629,562.742c-13.603,0 -24.629,11.026 -24.629,24.629c0,13.602 11.026,24.628 24.629,24.628c13.602,0 24.628,-11.026 24.628,-24.628c0,-13.603 -11.026,-24.629 -24.628,-24.629"
           style="fill:#373837;fill-rule:nonzero;"
           id="path121" /></g><g
         transform="matrix(1.99969,9.86076e-32,1.97215e-31,1.99969,7.7645,-623.809)"
         id="g127"><path
           d="M107.907,586.932l-21.088,-50.365l3.166,-1.281l20.848,49.974l-2.926,1.672Z"
           style="fill:#ecdbb1;fill-rule:nonzero;"
           id="path125" /></g><g
         transform="matrix(1.99969,9.86076e-32,1.97215e-31,1.99969,7.7645,-623.809)"
         id="g131"><path
           d="M62.8662,588.464l0.485,3.01l10.054,-0.879l-0.02,-3.315l-10.519,1.184Z"
           style="fill:#e4e2dc;fill-rule:nonzero;"
           id="path129" /></g><g
         transform="matrix(1.99969,9.86076e-32,1.97215e-31,1.99969,7.7645,-623.809)"
         id="g135"><path
           d="M73.4863,585.076l-0.667,5.666l11.171,-0.5l1.333,-6.333l-11.837,1.167Z"
           style="fill:#373837;fill-rule:nonzero;"
           id="path133" /></g><g
         transform="matrix(1.99969,9.86076e-32,1.97215e-31,1.99969,7.7645,-623.809)"
         id="g146"><clipPath
           id="tag2"><rect
             x="41.6094"
             y="541.66"
             width="5.749"
             height="16.916"
             id="rect137" /></clipPath><g
           clip-path="url(#tag2)"
           id="g144"><g
             opacity="0.5"
             id="g142"><path
               d="M45.2344,541.743l2.124,16.833l-5.749,-16.916l3.625,0.083Z"
               style="fill:#171817;fill-rule:nonzero;"
               id="path140" /></g></g></g><g
         transform="matrix(1.99969,9.86076e-32,1.97215e-31,1.99969,7.7645,-623.809)"
         id="g150"><path
           d="M107.863,612l-0.001,-64.424l-5.854,0.022l-64.147,64.402l7.456,0l47.891,-47.893l9.235,-9.365l0.252,57.257l5.168,0.001Z"
           style="fill:#7c705b;fill-rule:nonzero;"
           id="path148" /></g></g></g><g
     transform="matrix(0.00231364,0,0,-0.00197188,110.77247,91.38669)"
     fill="#000000"
     stroke="none"
     id="g26"
     style="fill:#008000"><path
       d="m 7610,12773 c -48,-16 -79,-20 -117,-16 -49,5 -57,3 -127,-41 -126,-78 -185,-134 -201,-189 -13,-45 -147,-245 -184,-275 -16,-13 -175,-65 -331,-107 -58,-16 -140,-29 -211,-33 l -115,-8 -110,-61 c -60,-34 -193,-93 -294,-132 -101,-39 -193,-77 -204,-85 -12,-7 -57,-78 -101,-157 -43,-79 -151,-251 -239,-382 l -160,-238 -7,-123 c -8,-149 -16,-164 -110,-209 l -69,-32 6,-46 c 13,-99 -39,-138 -193,-147 l -92,-5 -16,-33 c -8,-18 -18,-47 -21,-66 -9,-47 -47,-83 -110,-103 -69,-22 -91,-53 -169,-235 -31,-74 -87,-191 -123,-259 -57,-105 -86,-144 -190,-260 -112,-123 -129,-147 -178,-251 -35,-74 -70,-131 -98,-160 -41,-43 -43,-49 -54,-132 -12,-99 -35,-150 -96,-217 -23,-25 -54,-65 -70,-88 -16,-23 -43,-51 -61,-61 -26,-16 -33,-28 -38,-63 -3,-24 -27,-86 -53,-138 -41,-83 -61,-109 -158,-207 -61,-61 -124,-121 -139,-132 -25,-18 -33,-39 -62,-156 -19,-74 -44,-154 -55,-178 -14,-26 -92,-112 -204,-223 -172,-171 -185,-187 -257,-310 -115,-195 -129,-227 -129,-285 0,-88 -21,-192 -57,-285 -37,-92 -43,-143 -28,-222 7,-37 3,-49 -29,-106 -20,-36 -36,-72 -36,-80 0,-9 16,-31 35,-49 32,-30 36,-40 45,-114 12,-93 0,-261 -25,-370 -49,-214 -124,-452 -175,-554 -32,-64 -70,-181 -70,-217 0,-6 15,-10 33,-9 27,1 33,-3 35,-23 3,-18 -11,-37 -62,-85 -71,-66 -70,-65 -67,-209 1,-45 30,-77 68,-77 16,0 51,-11 78,-24 44,-20 83,-49 252,-192 l 43,-35 v -95 c 0,-112 29,-209 81,-274 32,-39 33,-43 33,-139 1,-94 2,-100 35,-152 83,-130 102,-166 131,-241 40,-106 45,-143 26,-197 -14,-41 -13,-48 6,-105 50,-149 79,-192 222,-325 26,-23 73,-77 105,-120 79,-103 91,-112 219,-180 61,-33 166,-96 233,-141 67,-45 144,-90 173,-100 183,-63 348,-194 415,-332 17,-35 39,-96 49,-136 15,-59 27,-81 60,-115 22,-23 52,-64 66,-92 47,-95 142,-434 152,-548 l 7,-67 -57,-55 c -69,-68 -71,-86 -11,-145 65,-64 75,-90 63,-179 -10,-87 -7,-101 25,-101 19,0 26,7 30,29 4,17 19,44 35,62 26,29 35,33 80,32 43,-1 68,-10 149,-56 87,-49 163,-79 163,-63 0,3 -7,31 -15,63 -17,63 -12,123 12,161 8,13 40,49 71,80 57,57 122,169 122,210 0,11 -5,33 -11,49 -6,15 -19,68 -29,117 -16,74 -17,103 -9,173 5,46 14,158 19,248 9,158 8,166 -13,212 -16,36 -21,66 -21,118 1,77 4,88 109,320 37,83 114,259 171,392 93,220 107,248 158,305 38,42 54,67 50,78 -4,8 -12,32 -17,52 -21,72 -13,79 235,227 302,181 321,196 379,301 27,47 51,91 55,99 4,8 -4,34 -19,62 -15,26 -27,52 -27,57 0,23 54,72 105,96 92,42 139,95 209,235 34,69 99,183 144,253 72,110 125,212 185,350 12,26 32,46 74,71 47,27 58,38 56,58 -1,13 -2,83 -3,155 -2,142 9,186 55,234 13,14 47,73 76,130 28,58 67,130 88,160 39,57 103,227 146,390 18,64 29,140 35,235 10,154 15,178 66,297 31,72 34,89 32,157 -3,69 0,83 33,156 28,60 38,99 43,155 3,48 20,118 44,191 22,64 45,140 51,170 7,30 25,93 41,140 30,91 80,312 101,441 9,62 17,84 40,108 51,53 51,125 -1,184 -25,28 -30,43 -30,83 0,107 34,170 123,223 47,28 58,53 46,111 -24,128 -7,177 92,256 237,189 306,295 318,484 6,93 10,112 34,148 15,22 27,46 27,53 0,31 23,90 44,115 13,15 26,40 30,56 3,15 21,44 40,65 46,52 56,74 56,127 0,74 36,125 88,125 11,0 23,7 26,16 20,52 -14,240 -78,426 -25,73 -49,167 -54,209 -6,44 -19,93 -33,120 -48,90 -19,304 61,458 109,209 363,440 473,429 31,-3 32,-2 39,42 9,65 3,80 -31,74 -38,-8 -79,35 -131,137 l -40,81 v 125 c 0,111 -2,124 -16,119 -41,-16 -208,-36 -297,-36 -128,0 -234,22 -332,70 -69,34 -101,60 -242,197 -147,144 -163,162 -169,201 -7,42 -8,43 -108,95 l -101,52 z"
       id="path2-4"
       style="fill:#008000" /><path
       d="m 9089,11169 c -14,-27 4,-42 41,-33 33,7 34,9 20,33 -14,27 -46,27 -61,0 z"
       id="path4"
       style="fill:#008000" /><path
       d="m 521,6966 c -18,-19 -21,-30 -15,-49 10,-29 110,-111 124,-102 6,3 10,32 10,64 0,55 -2,60 -34,85 -43,32 -56,33 -85,2 z"
       id="path6-6"
       style="fill:#008000" /><path
       d="m 333,6858 c -11,-14 -19,-43 -35,-133 -13,-71 -52,-119 -110,-137 -49,-15 -39,-28 22,-28 43,0 53,4 85,37 19,20 35,46 35,57 0,12 7,30 15,40 9,12 15,42 15,76 0,31 5,61 11,67 13,13 4,33 -15,33 -8,0 -18,-6 -23,-12 z"
       id="path8"
       style="fill:#008000" /><path
       d="m 640,6713 c -14,-9 -46,-36 -72,-60 -26,-24 -52,-43 -57,-43 -25,0 -41,-33 -41,-84 0,-28 -5,-57 -12,-64 -8,-8 -8,-15 2,-27 12,-14 15,-14 31,1 27,24 63,15 67,-18 3,-26 7,-28 46,-28 41,0 42,1 80,66 30,52 46,70 79,85 52,23 95,24 119,2 17,-16 20,-16 35,0 16,16 14,20 -36,71 -42,42 -64,56 -110,69 -32,9 -64,23 -71,32 -16,19 -30,19 -60,-2 z"
       id="path10-7"
       style="fill:#008000" /><path
       d="m 2125,6399 -57,-82 11,-84 c 6,-46 13,-88 16,-93 17,-28 25,0 25,91 v 100 l 40,59 c 39,57 50,90 31,90 -5,0 -35,-37 -66,-81 z"
       id="path12"
       style="fill:#008000" /><path
       d="m 300,6394 c -11,-12 -10,-18 4,-32 16,-16 18,-16 31,2 11,14 12,23 4,33 -15,17 -24,16 -39,-3 z"
       id="path14-4"
       style="fill:#008000" /><path
       d="m 272,5858 c -19,-19 -15,-48 7,-48 20,0 37,32 26,50 -8,13 -18,13 -33,-2 z"
       id="path16"
       style="fill:#008000" /><path
       d="m 48,5275 c -15,-13 -33,-25 -40,-28 -23,-8 6,-42 40,-45 22,-2 34,3 46,20 37,52 1,93 -46,53 z"
       id="path18-5"
       style="fill:#008000" /><path
       d="m 7046,3349 c -22,-32 -21,-92 2,-112 10,-10 35,-17 55,-17 h 37 v 59 c 0,62 -8,75 -51,86 -21,5 -30,2 -43,-16 z"
       id="path20"
       style="fill:#008000" /><path
       d="m 3248,1956 c -10,-7 -18,-22 -18,-34 0,-11 -7,-23 -16,-26 -8,-3 -12,-10 -9,-16 9,-15 41,-12 55,5 7,9 28,23 47,32 44,21 41,47 -7,50 -19,2 -43,-3 -52,-11 z"
       id="path22-3"
       style="fill:#008000" /><path
       d="m 7233,1124 c -46,-17 -51,-25 -28,-44 9,-8 15,-29 15,-56 0,-43 0,-43 69,-83 81,-47 101,-56 159,-65 40,-6 42,-5 42,18 0,16 -17,40 -55,74 -56,52 -64,69 -42,91 10,10 9,14 -5,22 -10,6 -18,16 -18,24 0,18 -7,22 -55,28 -24,4 -57,0 -82,-9 z"
       id="path24"
       style="fill:#008000" /></g></svg>
