<?xml version="1.0" encoding="UTF-8" standalone="no"?>
<svg
   width="100%"
   height="100%"
   viewBox="0 0 72 192"
   version="1.1"
   xml:space="preserve"
   style="fill-rule:evenodd;clip-rule:evenodd;stroke-linejoin:round;stroke-miterlimit:1.41421;"
   id="svg111"
   sodipodi:docname="biker-02-outbound.svg"
   inkscape:version="1.1 (c68e22c387, 2021-05-23)"
   xmlns:inkscape="http://www.inkscape.org/namespaces/inkscape"
   xmlns:sodipodi="http://sodipodi.sourceforge.net/DTD/sodipodi-0.dtd"
   xmlns="http://www.w3.org/2000/svg"
   xmlns:svg="http://www.w3.org/2000/svg"><defs
   id="defs115" /><sodipodi:namedview
   id="namedview113"
   pagecolor="#ffffff"
   bordercolor="#666666"
   borderopacity="1.0"
   inkscape:pageshadow="2"
   inkscape:pageopacity="0.0"
   inkscape:pagecheckerboard="0"
   showgrid="false"
   inkscape:zoom="2.7083333"
   inkscape:cx="36"
   inkscape:cy="96.184615"
   inkscape:window-width="1366"
   inkscape:window-height="705"
   inkscape:window-x="-8"
   inkscape:window-y="-8"
   inkscape:window-maximized="1"
   inkscape:current-layer="svg111" />
    <g
   id="biker-02-outbound"
   transform="matrix(0.5,0,0,0.5,-2440.31,-239.75)">
        <g
   transform="matrix(2.00022,0,0,2.00022,-4916.78,-863.694)"
   id="g4">
            <path
   d="M4932.26,816.084L4931.96,793.304L4935.37,793.313L4935.6,815.904L4932.26,816.084Z"
   style="fill:rgb(240,157,116);fill-rule:nonzero;"
   id="path2" />
        </g>
        <g
   transform="matrix(2.00022,0,0,2.00022,-4916.78,-863.694)"
   id="g8">
            <path
   d="M4919.2,822.688L4918.77,832.188L4921.05,837.061L4923.55,836.905L4924.87,832.371L4923.77,822.001L4919.2,822.688Z"
   style="fill:rgb(174,32,37);fill-rule:nonzero;"
   id="path6" />
        </g>
        <g
   transform="matrix(2.00022,0,0,2.00022,-4916.78,-863.694)"
   id="g12">
            <path
   d="M4949.89,823.5L4952.77,832.375L4950.6,835.974L4947.67,836.209L4945.52,833.063L4945.64,823.875"
   style="fill:rgb(174,32,37);fill-rule:nonzero;"
   id="path10" />
        </g>
        <g
   transform="matrix(2.00022,0,0,2.00022,-4916.78,-863.694)"
   id="g16">
            <path
   d="M4932.1,789.815L4935.16,789.853L4942.53,786.911L4942.09,784.839L4935.09,787.19L4932.06,787.228L4925.16,785.041L4924.72,787.329L4932.1,789.815Z"
   style="fill:rgb(232,205,119);fill-rule:nonzero;"
   id="path14" />
        </g>
        <g
   transform="matrix(2.00022,0,0,2.00022,-4916.78,-863.694)"
   id="g20">
            <path
   d="M4943.37,785.214L4943.61,789.666L4959.11,788.185L4958.46,782.838L4943.37,785.214Z"
   style="fill:rgb(206,173,128);fill-rule:nonzero;"
   id="path18" />
        </g>
        <g
   transform="matrix(2.00022,0,0,2.00022,-4916.78,-863.694)"
   id="g24">
            <path
   d="M4923.18,784.491L4922.94,788.946L4907.44,787.462L4908.09,782.115L4923.18,784.491Z"
   style="fill:rgb(206,173,128);fill-rule:nonzero;"
   id="path22" />
        </g>
        <g
   transform="matrix(2.00022,0,0,2.00022,-4916.78,-863.694)"
   id="g28">
            <path
   d="M4932.5,791.209L4924.7,798.966L4923.55,822.36L4919.33,822.875L4918.83,795.812L4924.46,776.922L4938.55,774.406L4941.09,776.844L4947.55,789.653L4949.95,823.625L4945.7,823.813L4941.19,796.297L4936.11,790.859L4932.5,791.209Z"
   style="fill:rgb(49,49,86);fill-rule:nonzero;"
   id="path26" />
        </g>
        <g
   transform="matrix(2.00022,0,0,2.00022,-4916.78,-863.694)"
   id="g32">
            <path
   d="M4924.54,776.962L4923.54,759.087L4916.21,767.003L4916.71,783.255L4913.49,783.171L4912.87,765.253L4922.62,754.337L4929.55,752.998L4935.64,752.71L4942.46,753.42L4952.04,763.336L4951.62,783.588L4948.73,783.11L4948.62,764.837L4941.54,757.503L4941.14,777L4938.52,774.406L4924.54,776.962Z"
   style="fill:rgb(174,32,37);fill-rule:nonzero;"
   id="path30" />
        </g>
        <g
   transform="matrix(2.00022,0,0,2.00022,-4916.78,-863.694)"
   id="g36">
            <path
   d="M4929.51,753.119L4936.29,752.834L4939.42,749.873L4938.64,737.947L4932.16,738.267L4926.1,738.566L4926.25,749.873L4929.51,753.119Z"
   style="fill:rgb(226,198,183);fill-rule:nonzero;"
   id="path34" />
        </g>
        <g
   transform="matrix(2.00022,0,0,2.00022,-4916.78,-863.694)"
   id="g42">
            <g
   opacity="0.5"
   id="g40">
                <path
   d="M4932.39,791.23L4938.25,793.157L4941.21,796.282L4943.14,808.003L4949.29,814.168L4947.52,789.667L4933.95,780.708L4918.87,795.834L4924.73,798.959L4932.39,791.23Z"
   style="fill:rgb(23,24,23);fill-rule:nonzero;"
   id="path38" />
            </g>
        </g>
        <g
   transform="matrix(2.00022,0,0,2.00022,-4916.78,-863.694)"
   id="g46">
            <path
   d="M4926.2,740.47L4924.2,742L4922.7,745.125L4930.75,750.588L4934.67,750.381L4944.4,746.327L4941.83,741.875L4938.8,739.128L4926.2,740.47Z"
   style="fill:rgb(84,62,54);fill-rule:nonzero;"
   id="path44" />
        </g>
        <g
   transform="matrix(2.00022,0,0,2.00022,-4916.78,-863.694)"
   id="g50">
            <path
   d="M4924.91,741.054L4934.71,741.731L4941.35,739.412L4944.05,736.093L4935.11,727.469L4931.2,727.699L4921.29,737.905L4924.91,741.054Z"
   style="fill:rgb(235,219,177);fill-rule:nonzero;"
   id="path48" />
        </g>
        <g
   transform="matrix(2.00022,0,0,2.00022,-4916.78,-863.694)"
   id="g54">
            <path
   d="M4910.59,781.759L4909.99,785.219L4918.18,785.975L4917.58,782.632L4910.59,781.759Z"
   style="fill:rgb(226,198,183);fill-rule:nonzero;"
   id="path52" />
        </g>
        <g
   transform="matrix(2.00022,0,0,2.00022,-4916.78,-863.694)"
   id="g58">
            <path
   d="M4947.37,783.106L4946.97,785.997L4954.31,786.23L4954.53,782.953L4947.37,783.106Z"
   style="fill:rgb(226,198,183);fill-rule:nonzero;"
   id="path56" />
        </g>
        <g
   transform="matrix(2.00022,0,0,2.00022,-4916.78,-863.694)"
   id="g62">
            <path
   d="M4944.17,736.093L4941.72,741.659L4934.75,743.557L4924.72,742.394L4921.29,737.905L4934.5,738.235L4944.17,736.093Z"
   style="fill:rgb(235,219,177);fill-rule:nonzero;"
   id="path60" />
        </g>
        <g
   transform="matrix(2.00022,0,0,2.00022,-4916.78,-863.694)"
   id="g66">
            <path
   d="M4931.76,822.692L4929.55,838.289L4931.64,853.395L4931.76,822.692Z"
   style="fill:rgb(194,191,188);fill-rule:nonzero;"
   id="path64" />
        </g>
        <g
   transform="matrix(2.00022,0,0,2.00022,-4916.78,-863.694)"
   id="g70">
            <path
   d="M4936.49,822.692L4938.7,838.289L4936.61,853.395L4936.49,822.692Z"
   style="fill:rgb(194,191,188);fill-rule:nonzero;"
   id="path68" />
        </g>
        <g
   transform="matrix(2.00022,0,0,2.00022,-4916.78,-863.694)"
   id="g74">
            <path
   d="M4932.86,814.367L4931.62,815.655L4931.67,861.664L4933.05,863.5L4935.3,863.5L4936.63,861.43L4936.45,815.421L4935.07,814.367L4932.86,814.367Z"
   style="fill:rgb(41,43,41);fill-rule:nonzero;"
   id="path72" />
        </g>
        <g
   transform="matrix(2.00022,0,0,2.00022,-4916.78,-863.694)"
   id="g78">
            <path
   d="M4939.82,837.086L4942.87,837.501L4941.05,804.988L4935.75,803.284L4931.85,803.314L4926.08,805.125L4924.89,837.875L4928.26,837.203L4929.78,807.477L4931.95,806.451L4935.89,806.481L4937.61,807.389L4939.82,837.086Z"
   style="fill:rgb(240,157,116);fill-rule:nonzero;"
   id="path76" />
        </g>
        <g
   transform="matrix(2.00022,0,0,2.00022,-4916.78,-863.694)"
   id="g82">
            <path
   d="M4938.53,836.919L4943.12,837.552L4943.12,838.767L4938.57,839.757L4938.53,836.919Z"
   style="fill:rgb(91,93,94);fill-rule:nonzero;"
   id="path80" />
        </g>
        <g
   transform="matrix(2.00022,0,0,2.00022,-4916.78,-863.694)"
   id="g86">
            <path
   d="M4929.82,836.919L4924.88,837.821L4924.88,839.003L4929.78,839.757L4929.82,836.919Z"
   style="fill:rgb(91,93,94);fill-rule:nonzero;"
   id="path84" />
        </g>
        <g
   transform="matrix(2.00022,0,0,2.00022,-4916.78,-863.694)"
   id="g90">
            <path
   d="M4925.13,830.589L4913.2,832.191L4914.26,827.266L4925.37,826.334L4925.13,830.589Z"
   style="fill:rgb(55,56,55);fill-rule:nonzero;"
   id="path88" />
        </g>
        <g
   transform="matrix(2.00022,0,0,2.00022,-4916.78,-863.694)"
   id="g94">
            <path
   d="M4942.48,829.884L4956.37,830.04L4955.75,825.976L4942.24,825.351L4942.48,829.884Z"
   style="fill:rgb(55,56,55);fill-rule:nonzero;"
   id="path92" />
        </g>
        <g
   transform="matrix(2.00022,0,0,2.00022,-4916.78,-863.694)"
   id="g100">
            <g
   opacity="0.5"
   id="g98">
                <path
   d="M4935.47,800.322L4931.97,796.791L4931.97,793.322L4935.37,793.385L4935.47,800.322Z"
   style="fill:rgb(23,24,23);fill-rule:nonzero;"
   id="path96" />
            </g>
        </g>
        <g
   transform="matrix(2.00022,0,0,2.00022,-4916.78,-863.694)"
   id="g104">
            <path
   d="M4926.97,793.362L4940.98,793.371L4939.59,789.302L4928.56,789.263L4926.97,793.362Z"
   style="fill:rgb(193,159,62);fill-rule:nonzero;"
   id="path102" />
        </g>
        <g
   transform="matrix(2.00022,0,0,2.00022,-4916.78,-863.694)"
   id="g108">
            <path
   d="M4931.2,806.001L4930.42,810.417L4937.2,810.417L4936.65,806.001L4931.2,806.001Z"
   style="fill:rgb(175,31,37);fill-rule:nonzero;"
   id="path106" />
        </g>
    </g>
<g
   transform="matrix(0.00227553,0,0,-0.0022072,24.75021,56.212671)"
   fill="#000000"
   stroke="none"
   id="g26"
   style="fill:#008000"><path
     d="m 7610,12773 c -48,-16 -79,-20 -117,-16 -49,5 -57,3 -127,-41 -126,-78 -185,-134 -201,-189 -13,-45 -147,-245 -184,-275 -16,-13 -175,-65 -331,-107 -58,-16 -140,-29 -211,-33 l -115,-8 -110,-61 c -60,-34 -193,-93 -294,-132 -101,-39 -193,-77 -204,-85 -12,-7 -57,-78 -101,-157 -43,-79 -151,-251 -239,-382 l -160,-238 -7,-123 c -8,-149 -16,-164 -110,-209 l -69,-32 6,-46 c 13,-99 -39,-138 -193,-147 l -92,-5 -16,-33 c -8,-18 -18,-47 -21,-66 -9,-47 -47,-83 -110,-103 -69,-22 -91,-53 -169,-235 -31,-74 -87,-191 -123,-259 -57,-105 -86,-144 -190,-260 -112,-123 -129,-147 -178,-251 -35,-74 -70,-131 -98,-160 -41,-43 -43,-49 -54,-132 -12,-99 -35,-150 -96,-217 -23,-25 -54,-65 -70,-88 -16,-23 -43,-51 -61,-61 -26,-16 -33,-28 -38,-63 -3,-24 -27,-86 -53,-138 -41,-83 -61,-109 -158,-207 -61,-61 -124,-121 -139,-132 -25,-18 -33,-39 -62,-156 -19,-74 -44,-154 -55,-178 -14,-26 -92,-112 -204,-223 -172,-171 -185,-187 -257,-310 -115,-195 -129,-227 -129,-285 0,-88 -21,-192 -57,-285 -37,-92 -43,-143 -28,-222 7,-37 3,-49 -29,-106 -20,-36 -36,-72 -36,-80 0,-9 16,-31 35,-49 32,-30 36,-40 45,-114 12,-93 0,-261 -25,-370 -49,-214 -124,-452 -175,-554 -32,-64 -70,-181 -70,-217 0,-6 15,-10 33,-9 27,1 33,-3 35,-23 3,-18 -11,-37 -62,-85 -71,-66 -70,-65 -67,-209 1,-45 30,-77 68,-77 16,0 51,-11 78,-24 44,-20 83,-49 252,-192 l 43,-35 v -95 c 0,-112 29,-209 81,-274 32,-39 33,-43 33,-139 1,-94 2,-100 35,-152 83,-130 102,-166 131,-241 40,-106 45,-143 26,-197 -14,-41 -13,-48 6,-105 50,-149 79,-192 222,-325 26,-23 73,-77 105,-120 79,-103 91,-112 219,-180 61,-33 166,-96 233,-141 67,-45 144,-90 173,-100 183,-63 348,-194 415,-332 17,-35 39,-96 49,-136 15,-59 27,-81 60,-115 22,-23 52,-64 66,-92 47,-95 142,-434 152,-548 l 7,-67 -57,-55 c -69,-68 -71,-86 -11,-145 65,-64 75,-90 63,-179 -10,-87 -7,-101 25,-101 19,0 26,7 30,29 4,17 19,44 35,62 26,29 35,33 80,32 43,-1 68,-10 149,-56 87,-49 163,-79 163,-63 0,3 -7,31 -15,63 -17,63 -12,123 12,161 8,13 40,49 71,80 57,57 122,169 122,210 0,11 -5,33 -11,49 -6,15 -19,68 -29,117 -16,74 -17,103 -9,173 5,46 14,158 19,248 9,158 8,166 -13,212 -16,36 -21,66 -21,118 1,77 4,88 109,320 37,83 114,259 171,392 93,220 107,248 158,305 38,42 54,67 50,78 -4,8 -12,32 -17,52 -21,72 -13,79 235,227 302,181 321,196 379,301 27,47 51,91 55,99 4,8 -4,34 -19,62 -15,26 -27,52 -27,57 0,23 54,72 105,96 92,42 139,95 209,235 34,69 99,183 144,253 72,110 125,212 185,350 12,26 32,46 74,71 47,27 58,38 56,58 -1,13 -2,83 -3,155 -2,142 9,186 55,234 13,14 47,73 76,130 28,58 67,130 88,160 39,57 103,227 146,390 18,64 29,140 35,235 10,154 15,178 66,297 31,72 34,89 32,157 -3,69 0,83 33,156 28,60 38,99 43,155 3,48 20,118 44,191 22,64 45,140 51,170 7,30 25,93 41,140 30,91 80,312 101,441 9,62 17,84 40,108 51,53 51,125 -1,184 -25,28 -30,43 -30,83 0,107 34,170 123,223 47,28 58,53 46,111 -24,128 -7,177 92,256 237,189 306,295 318,484 6,93 10,112 34,148 15,22 27,46 27,53 0,31 23,90 44,115 13,15 26,40 30,56 3,15 21,44 40,65 46,52 56,74 56,127 0,74 36,125 88,125 11,0 23,7 26,16 20,52 -14,240 -78,426 -25,73 -49,167 -54,209 -6,44 -19,93 -33,120 -48,90 -19,304 61,458 109,209 363,440 473,429 31,-3 32,-2 39,42 9,65 3,80 -31,74 -38,-8 -79,35 -131,137 l -40,81 v 125 c 0,111 -2,124 -16,119 -41,-16 -208,-36 -297,-36 -128,0 -234,22 -332,70 -69,34 -101,60 -242,197 -147,144 -163,162 -169,201 -7,42 -8,43 -108,95 l -101,52 z"
     id="path2-1"
     style="fill:#008000" /><path
     d="m 9089,11169 c -14,-27 4,-42 41,-33 33,7 34,9 20,33 -14,27 -46,27 -61,0 z"
     id="path4"
     style="fill:#008000" /><path
     d="m 521,6966 c -18,-19 -21,-30 -15,-49 10,-29 110,-111 124,-102 6,3 10,32 10,64 0,55 -2,60 -34,85 -43,32 -56,33 -85,2 z"
     id="path6-4"
     style="fill:#008000" /><path
     d="m 333,6858 c -11,-14 -19,-43 -35,-133 -13,-71 -52,-119 -110,-137 -49,-15 -39,-28 22,-28 43,0 53,4 85,37 19,20 35,46 35,57 0,12 7,30 15,40 9,12 15,42 15,76 0,31 5,61 11,67 13,13 4,33 -15,33 -8,0 -18,-6 -23,-12 z"
     id="path8"
     style="fill:#008000" /><path
     d="m 640,6713 c -14,-9 -46,-36 -72,-60 -26,-24 -52,-43 -57,-43 -25,0 -41,-33 -41,-84 0,-28 -5,-57 -12,-64 -8,-8 -8,-15 2,-27 12,-14 15,-14 31,1 27,24 63,15 67,-18 3,-26 7,-28 46,-28 41,0 42,1 80,66 30,52 46,70 79,85 52,23 95,24 119,2 17,-16 20,-16 35,0 16,16 14,20 -36,71 -42,42 -64,56 -110,69 -32,9 -64,23 -71,32 -16,19 -30,19 -60,-2 z"
     id="path10-4"
     style="fill:#008000" /><path
     d="m 2125,6399 -57,-82 11,-84 c 6,-46 13,-88 16,-93 17,-28 25,0 25,91 v 100 l 40,59 c 39,57 50,90 31,90 -5,0 -35,-37 -66,-81 z"
     id="path12"
     style="fill:#008000" /><path
     d="m 300,6394 c -11,-12 -10,-18 4,-32 16,-16 18,-16 31,2 11,14 12,23 4,33 -15,17 -24,16 -39,-3 z"
     id="path14-2"
     style="fill:#008000" /><path
     d="m 272,5858 c -19,-19 -15,-48 7,-48 20,0 37,32 26,50 -8,13 -18,13 -33,-2 z"
     id="path16"
     style="fill:#008000" /><path
     d="m 48,5275 c -15,-13 -33,-25 -40,-28 -23,-8 6,-42 40,-45 22,-2 34,3 46,20 37,52 1,93 -46,53 z"
     id="path18-8"
     style="fill:#008000" /><path
     d="m 7046,3349 c -22,-32 -21,-92 2,-112 10,-10 35,-17 55,-17 h 37 v 59 c 0,62 -8,75 -51,86 -21,5 -30,2 -43,-16 z"
     id="path20"
     style="fill:#008000" /><path
     d="m 3248,1956 c -10,-7 -18,-22 -18,-34 0,-11 -7,-23 -16,-26 -8,-3 -12,-10 -9,-16 9,-15 41,-12 55,5 7,9 28,23 47,32 44,21 41,47 -7,50 -19,2 -43,-3 -52,-11 z"
     id="path22-7"
     style="fill:#008000" /><path
     d="m 7233,1124 c -46,-17 -51,-25 -28,-44 9,-8 15,-29 15,-56 0,-43 0,-43 69,-83 81,-47 101,-56 159,-65 40,-6 42,-5 42,18 0,16 -17,40 -55,74 -56,52 -64,69 -42,91 10,10 9,14 -5,22 -10,6 -18,16 -18,24 0,18 -7,22 -55,28 -24,4 -57,0 -82,-9 z"
     id="path24"
     style="fill:#008000" /></g></svg>
