<?xml version="1.0" encoding="UTF-8" standalone="no"?>
<svg
   width="100%"
   height="100%"
   viewBox="0 0 168 168"
   version="1.1"
   xml:space="preserve"
   style="fill-rule:evenodd;clip-rule:evenodd;stroke-linejoin:round;stroke-miterlimit:1.41421;"
   id="svg91"
   sodipodi:docname="bikeshare-left.svg"
   inkscape:version="1.1 (c68e22c387, 2021-05-23)"
   xmlns:inkscape="http://www.inkscape.org/namespaces/inkscape"
   xmlns:sodipodi="http://sodipodi.sourceforge.net/DTD/sodipodi-0.dtd"
   xmlns="http://www.w3.org/2000/svg"
   xmlns:svg="http://www.w3.org/2000/svg"><defs
   id="defs95" /><sodipodi:namedview
   id="namedview93"
   pagecolor="#ffffff"
   bordercolor="#666666"
   borderopacity="1.0"
   inkscape:pageshadow="2"
   inkscape:pageopacity="0.0"
   inkscape:pagecheckerboard="0"
   showgrid="false"
   inkscape:zoom="3.0952381"
   inkscape:cx="83.838462"
   inkscape:cy="83.838462"
   inkscape:window-width="1366"
   inkscape:window-height="705"
   inkscape:window-x="-8"
   inkscape:window-y="-8"
   inkscape:window-maximized="1"
   inkscape:current-layer="svg91" />
    <g
   id="bikeshare-left"
   transform="matrix(1,0,0,1,5.2827,0.5523)">
        <rect
   x="2"
   y="0"
   width="83.373"
   height="167.112"
   style="fill:rgb(248,245,239);fill-rule:nonzero;"
   id="rect2" />
        <path
   d="M77.942,15.926L75.016,79.95L11.978,79.971L9.386,15.926L77.942,15.926Z"
   style="fill:rgb(50,50,87);fill-rule:nonzero;"
   id="path4" />
        <path
   d="M9.387,15.926L10.004,31.197L26.228,15.926L9.387,15.926Z"
   style="fill:rgb(15,25,37);fill-rule:nonzero;"
   id="path6" />
        <path
   d="M77.751,20.793L18.063,79.97L20.91,79.97L75.017,79.953L77.751,20.812L77.751,20.793Z"
   style="fill:rgb(15,25,37);fill-rule:nonzero;"
   id="path8" />
        <path
   d="M77.942,90.922L75.144,83.987L11.978,83.985L9.386,90.922L77.942,90.922Z"
   style="fill:rgb(93,95,96);fill-rule:nonzero;"
   id="path10" />
        <path
   d="M41.371,129.57L43.349,127.591C43.805,127.136 44.543,127.136 44.999,127.591L46.977,129.57C47.433,130.025 47.433,130.764 46.977,131.219L44.999,133.199C44.543,133.654 43.805,133.654 43.349,133.199L41.371,131.219C40.915,130.764 40.915,130.025 41.371,129.57"
   style="fill:white;fill-rule:nonzero;"
   id="path12" />
        <path
   d="M83.804,142.049L83.456,139.006L66.689,138.963L66.222,142.269L83.804,142.049Z"
   style="fill:rgb(228,226,220);fill-rule:nonzero;"
   id="path14" />
        <path
   d="M120.279,126.176L118.374,128.572L130.2,140.459L132.866,138.453L120.279,126.176Z"
   style="fill:rgb(228,226,220);fill-rule:nonzero;"
   id="path16" />
        <path
   d="M137.779,143.676L135.874,146.072L147.7,157.959L150.366,155.953L137.779,143.676Z"
   style="fill:rgb(228,226,220);fill-rule:nonzero;"
   id="path18" />
        <path
   d="M146.461,126.176L148.366,128.572L136.54,140.459L133.874,138.453L146.461,126.176Z"
   style="fill:rgb(228,226,220);fill-rule:nonzero;"
   id="path20" />
        <path
   d="M130.211,142.426L132.091,144.849L119.073,157.926L116.374,155.953L130.211,142.426Z"
   style="fill:rgb(228,226,220);fill-rule:nonzero;"
   id="path22" />
        <path
   d="M153.489,144.049L153.141,141.007L136.374,140.964L135.907,144.269L153.489,144.049Z"
   style="fill:rgb(228,226,220);fill-rule:nonzero;"
   id="path24" />
        <path
   d="M128.741,144.049L128.393,141.006L111.626,140.963L111.159,144.269L128.741,144.049Z"
   style="fill:rgb(228,226,220);fill-rule:nonzero;"
   id="path26" />
        <path
   d="M134.976,163.312L131.935,162.952L131.892,145.467L135.195,144.981L134.976,163.312Z"
   style="fill:rgb(228,226,220);fill-rule:nonzero;"
   id="path28" />
        <path
   d="M134.976,137.813L131.935,137.465L131.892,120.699L135.195,120.231L134.976,137.813Z"
   style="fill:rgb(228,226,220);fill-rule:nonzero;"
   id="path30" />
        <path
   d="M112.806,142.818C112.806,131.772 121.76,122.818 132.806,122.818C143.852,122.818 152.806,131.772 152.806,142.818C152.806,153.865 143.852,162.818 132.806,162.818C121.76,162.818 112.806,153.865 112.806,142.818M108.178,142.819C108.178,156.422 119.204,167.448 132.806,167.448C146.409,167.448 157.435,156.422 157.435,142.819C157.435,129.216 146.409,118.19 132.806,118.19C119.204,118.19 108.178,129.216 108.178,142.819"
   style="fill:rgb(55,56,55);fill-rule:nonzero;"
   id="path32" />
        <path
   d="M98.721,139.986L66.427,101.36L63.832,103.579L95.913,141.844L98.721,139.986Z"
   style="fill:rgb(138,187,107);fill-rule:nonzero;"
   id="path34" />
        <path
   d="M109.92,110.658L67.298,93.151L66.037,96.323L108.334,113.625L109.92,110.658Z"
   style="fill:rgb(138,187,107);fill-rule:nonzero;"
   id="path36" />
        <path
   d="M70.398,92.176L61.63,88.319L60.357,91.486L69.078,95.248L70.398,92.176Z"
   style="fill:rgb(236,219,177);fill-rule:nonzero;"
   id="path38" />
        <path
   d="M100.832,141.464L116.621,94.88L113.375,93.822L97.781,140.043L100.832,141.464Z"
   style="fill:rgb(138,187,107);fill-rule:nonzero;"
   id="path40" />
        <path
   d="M123.988,93.189L123.409,97.191L107.783,97.19L103.155,93.189L123.988,93.189Z"
   style="fill:rgb(55,130,63);fill-rule:nonzero;"
   id="path42" />
        <path
   d="M97.016,134.961L96.495,136.525L91.241,136.602L92.594,138.364L88.447,141.034L90.01,142.439L89.415,147.855L91.539,147.666L94.408,151.242L96.01,149.491L100.779,150.722L101.151,148.783L104.765,146.361L102.903,145.244L104.281,141.779L102.381,140.849L102.195,137.531L100.369,137.756L97.016,134.961Z"
   style="fill:rgb(55,56,55);fill-rule:nonzero;"
   id="path44" />
        <path
   d="M61.631,88.318L60.889,91.774L66.139,94.024L70.615,92.014L61.631,88.318Z"
   style="fill:rgb(103,154,68);fill-rule:nonzero;"
   id="path46" />
        <path
   d="M58.244,92.858L61.575,92.941L62.993,87.524L56.66,87.441L58.244,92.858Z"
   style="fill:rgb(55,130,63);fill-rule:nonzero;"
   id="path48" />
        <path
   d="M33.279,126.176L31.374,128.572L43.2,140.459L45.866,138.453L33.279,126.176Z"
   style="fill:rgb(228,226,220);fill-rule:nonzero;"
   id="path50" />
        <path
   d="M50.779,143.676L48.874,146.072L60.7,157.959L63.366,155.953L50.779,143.676Z"
   style="fill:rgb(228,226,220);fill-rule:nonzero;"
   id="path52" />
        <path
   d="M59.461,126.176L61.366,128.572L49.54,140.459L46.874,138.453L59.461,126.176Z"
   style="fill:rgb(228,226,220);fill-rule:nonzero;"
   id="path54" />
        <path
   d="M43.211,142.426L45.091,144.849L32.073,157.926L29.374,155.953L43.211,142.426Z"
   style="fill:rgb(228,226,220);fill-rule:nonzero;"
   id="path56" />
        <path
   d="M66.489,144.049L66.141,141.007L49.374,140.964L48.907,144.269L66.489,144.049Z"
   style="fill:rgb(228,226,220);fill-rule:nonzero;"
   id="path58" />
        <path
   d="M42.934,144.049L42.586,141.007L25.819,140.964L25.352,144.269L42.934,144.049Z"
   style="fill:rgb(228,226,220);fill-rule:nonzero;"
   id="path60" />
        <path
   d="M47.976,163.312L44.935,162.952L44.892,145.467L48.195,144.981L47.976,163.312Z"
   style="fill:rgb(228,226,220);fill-rule:nonzero;"
   id="path62" />
        <path
   d="M47.976,137.813L44.935,137.465L44.892,120.699L48.195,120.231L47.976,137.813Z"
   style="fill:rgb(228,226,220);fill-rule:nonzero;"
   id="path64" />
        <path
   d="M134.328,134.775L139.328,141.525L133.953,149.525L125.828,142.525L134.328,134.775Z"
   style="fill:rgb(55,56,55);fill-rule:nonzero;"
   id="path66" />
        <path
   d="M45.076,135.149L53.993,141.357L48.618,149.357L40.493,142.357L45.076,135.149Z"
   style="fill:rgb(55,56,55);fill-rule:nonzero;"
   id="path68" />
        <path
   d="M133.524,141.063L109.068,113.434L106.54,115.727L130.845,143.084L133.524,141.063Z"
   style="fill:rgb(138,187,107);fill-rule:nonzero;"
   id="path70" />
        <path
   d="M25.806,142.818C25.806,131.772 34.76,122.818 45.806,122.818C56.852,122.818 65.806,131.772 65.806,142.818C65.806,153.865 56.852,162.818 45.806,162.818C34.76,162.818 25.806,153.865 25.806,142.818M21.178,142.819C21.178,156.422 32.204,167.448 45.806,167.448C59.409,167.448 70.435,156.422 70.435,142.819C70.435,129.216 59.409,118.19 45.806,118.19C32.204,118.19 21.178,129.216 21.178,142.819"
   style="fill:rgb(55,56,55);fill-rule:nonzero;"
   id="path72" />
        <path
   d="M49.527,142.379L70.615,92.015L67.449,90.734L46.601,140.707L49.527,142.379Z"
   style="fill:rgb(138,187,107);fill-rule:nonzero;"
   id="path74" />
        <path
   d="M94.568,143.912L94.083,146.923L84.029,146.044L84.049,142.728L94.568,143.912Z"
   style="fill:rgb(228,226,220);fill-rule:nonzero;"
   id="path76" />
        <path
   d="M83.948,140.524L84.615,146.19L73.444,145.69L72.111,139.357L83.948,140.524Z"
   style="fill:rgb(55,56,55);fill-rule:nonzero;"
   id="path78" />
        <path
   d="M112.2,97.191L110.076,114.024L115.825,97.108L112.2,97.191Z"
   style="fill:rgb(103,154,68);fill-rule:nonzero;"
   id="path80" />
        <path
   d="M49.571,167.448L49.572,103.024L55.426,103.047L119.573,167.448L112.117,167.448L64.226,119.555L54.991,110.19L54.739,167.447L49.571,167.448Z"
   style="fill:rgb(110,87,70);fill-rule:nonzero;"
   id="path82" />
        <rect
   x="2"
   y="158.963"
   width="83.374"
   height="8.419"
   style="fill:rgb(110,87,70);fill-rule:nonzero;"
   id="rect84" />
        <path
   d="M85.374,8.428L2,8.428L0,-0.001L87.374,-0.001L85.374,8.428Z"
   style="fill:rgb(103,154,67);fill-rule:nonzero;"
   id="path86" />
        <path
   d="M18.721,79.97L77.752,20.093L77.943,15.925L75.955,15.923L12.837,79.926L18.721,79.97Z"
   style="fill:rgb(74,75,115);fill-rule:nonzero;"
   id="path88" />
    </g>
<g
   transform="matrix(0.00363614,0,0,-0.00315602,3.7034308,134.60755)"
   fill="#000000"
   stroke="none"
   id="g26"
   style="fill:#008000"><path
     d="m 7610,12773 c -48,-16 -79,-20 -117,-16 -49,5 -57,3 -127,-41 -126,-78 -185,-134 -201,-189 -13,-45 -147,-245 -184,-275 -16,-13 -175,-65 -331,-107 -58,-16 -140,-29 -211,-33 l -115,-8 -110,-61 c -60,-34 -193,-93 -294,-132 -101,-39 -193,-77 -204,-85 -12,-7 -57,-78 -101,-157 -43,-79 -151,-251 -239,-382 l -160,-238 -7,-123 c -8,-149 -16,-164 -110,-209 l -69,-32 6,-46 c 13,-99 -39,-138 -193,-147 l -92,-5 -16,-33 c -8,-18 -18,-47 -21,-66 -9,-47 -47,-83 -110,-103 -69,-22 -91,-53 -169,-235 -31,-74 -87,-191 -123,-259 -57,-105 -86,-144 -190,-260 -112,-123 -129,-147 -178,-251 -35,-74 -70,-131 -98,-160 -41,-43 -43,-49 -54,-132 -12,-99 -35,-150 -96,-217 -23,-25 -54,-65 -70,-88 -16,-23 -43,-51 -61,-61 -26,-16 -33,-28 -38,-63 -3,-24 -27,-86 -53,-138 -41,-83 -61,-109 -158,-207 -61,-61 -124,-121 -139,-132 -25,-18 -33,-39 -62,-156 -19,-74 -44,-154 -55,-178 -14,-26 -92,-112 -204,-223 -172,-171 -185,-187 -257,-310 -115,-195 -129,-227 -129,-285 0,-88 -21,-192 -57,-285 -37,-92 -43,-143 -28,-222 7,-37 3,-49 -29,-106 -20,-36 -36,-72 -36,-80 0,-9 16,-31 35,-49 32,-30 36,-40 45,-114 12,-93 0,-261 -25,-370 -49,-214 -124,-452 -175,-554 -32,-64 -70,-181 -70,-217 0,-6 15,-10 33,-9 27,1 33,-3 35,-23 3,-18 -11,-37 -62,-85 -71,-66 -70,-65 -67,-209 1,-45 30,-77 68,-77 16,0 51,-11 78,-24 44,-20 83,-49 252,-192 l 43,-35 v -95 c 0,-112 29,-209 81,-274 32,-39 33,-43 33,-139 1,-94 2,-100 35,-152 83,-130 102,-166 131,-241 40,-106 45,-143 26,-197 -14,-41 -13,-48 6,-105 50,-149 79,-192 222,-325 26,-23 73,-77 105,-120 79,-103 91,-112 219,-180 61,-33 166,-96 233,-141 67,-45 144,-90 173,-100 183,-63 348,-194 415,-332 17,-35 39,-96 49,-136 15,-59 27,-81 60,-115 22,-23 52,-64 66,-92 47,-95 142,-434 152,-548 l 7,-67 -57,-55 c -69,-68 -71,-86 -11,-145 65,-64 75,-90 63,-179 -10,-87 -7,-101 25,-101 19,0 26,7 30,29 4,17 19,44 35,62 26,29 35,33 80,32 43,-1 68,-10 149,-56 87,-49 163,-79 163,-63 0,3 -7,31 -15,63 -17,63 -12,123 12,161 8,13 40,49 71,80 57,57 122,169 122,210 0,11 -5,33 -11,49 -6,15 -19,68 -29,117 -16,74 -17,103 -9,173 5,46 14,158 19,248 9,158 8,166 -13,212 -16,36 -21,66 -21,118 1,77 4,88 109,320 37,83 114,259 171,392 93,220 107,248 158,305 38,42 54,67 50,78 -4,8 -12,32 -17,52 -21,72 -13,79 235,227 302,181 321,196 379,301 27,47 51,91 55,99 4,8 -4,34 -19,62 -15,26 -27,52 -27,57 0,23 54,72 105,96 92,42 139,95 209,235 34,69 99,183 144,253 72,110 125,212 185,350 12,26 32,46 74,71 47,27 58,38 56,58 -1,13 -2,83 -3,155 -2,142 9,186 55,234 13,14 47,73 76,130 28,58 67,130 88,160 39,57 103,227 146,390 18,64 29,140 35,235 10,154 15,178 66,297 31,72 34,89 32,157 -3,69 0,83 33,156 28,60 38,99 43,155 3,48 20,118 44,191 22,64 45,140 51,170 7,30 25,93 41,140 30,91 80,312 101,441 9,62 17,84 40,108 51,53 51,125 -1,184 -25,28 -30,43 -30,83 0,107 34,170 123,223 47,28 58,53 46,111 -24,128 -7,177 92,256 237,189 306,295 318,484 6,93 10,112 34,148 15,22 27,46 27,53 0,31 23,90 44,115 13,15 26,40 30,56 3,15 21,44 40,65 46,52 56,74 56,127 0,74 36,125 88,125 11,0 23,7 26,16 20,52 -14,240 -78,426 -25,73 -49,167 -54,209 -6,44 -19,93 -33,120 -48,90 -19,304 61,458 109,209 363,440 473,429 31,-3 32,-2 39,42 9,65 3,80 -31,74 -38,-8 -79,35 -131,137 l -40,81 v 125 c 0,111 -2,124 -16,119 -41,-16 -208,-36 -297,-36 -128,0 -234,22 -332,70 -69,34 -101,60 -242,197 -147,144 -163,162 -169,201 -7,42 -8,43 -108,95 l -101,52 z"
     id="path2"
     style="fill:#008000" /><path
     d="m 9089,11169 c -14,-27 4,-42 41,-33 33,7 34,9 20,33 -14,27 -46,27 -61,0 z"
     id="path4-0"
     style="fill:#008000" /><path
     d="m 521,6966 c -18,-19 -21,-30 -15,-49 10,-29 110,-111 124,-102 6,3 10,32 10,64 0,55 -2,60 -34,85 -43,32 -56,33 -85,2 z"
     id="path6-1"
     style="fill:#008000" /><path
     d="m 333,6858 c -11,-14 -19,-43 -35,-133 -13,-71 -52,-119 -110,-137 -49,-15 -39,-28 22,-28 43,0 53,4 85,37 19,20 35,46 35,57 0,12 7,30 15,40 9,12 15,42 15,76 0,31 5,61 11,67 13,13 4,33 -15,33 -8,0 -18,-6 -23,-12 z"
     id="path8-0"
     style="fill:#008000" /><path
     d="m 640,6713 c -14,-9 -46,-36 -72,-60 -26,-24 -52,-43 -57,-43 -25,0 -41,-33 -41,-84 0,-28 -5,-57 -12,-64 -8,-8 -8,-15 2,-27 12,-14 15,-14 31,1 27,24 63,15 67,-18 3,-26 7,-28 46,-28 41,0 42,1 80,66 30,52 46,70 79,85 52,23 95,24 119,2 17,-16 20,-16 35,0 16,16 14,20 -36,71 -42,42 -64,56 -110,69 -32,9 -64,23 -71,32 -16,19 -30,19 -60,-2 z"
     id="path10-9"
     style="fill:#008000" /><path
     d="m 2125,6399 -57,-82 11,-84 c 6,-46 13,-88 16,-93 17,-28 25,0 25,91 v 100 l 40,59 c 39,57 50,90 31,90 -5,0 -35,-37 -66,-81 z"
     id="path12-4"
     style="fill:#008000" /><path
     d="m 300,6394 c -11,-12 -10,-18 4,-32 16,-16 18,-16 31,2 11,14 12,23 4,33 -15,17 -24,16 -39,-3 z"
     id="path14-4"
     style="fill:#008000" /><path
     d="m 272,5858 c -19,-19 -15,-48 7,-48 20,0 37,32 26,50 -8,13 -18,13 -33,-2 z"
     id="path16-4"
     style="fill:#008000" /><path
     d="m 48,5275 c -15,-13 -33,-25 -40,-28 -23,-8 6,-42 40,-45 22,-2 34,3 46,20 37,52 1,93 -46,53 z"
     id="path18-0"
     style="fill:#008000" /><path
     d="m 7046,3349 c -22,-32 -21,-92 2,-112 10,-10 35,-17 55,-17 h 37 v 59 c 0,62 -8,75 -51,86 -21,5 -30,2 -43,-16 z"
     id="path20-8"
     style="fill:#008000" /><path
     d="m 3248,1956 c -10,-7 -18,-22 -18,-34 0,-11 -7,-23 -16,-26 -8,-3 -12,-10 -9,-16 9,-15 41,-12 55,5 7,9 28,23 47,32 44,21 41,47 -7,50 -19,2 -43,-3 -52,-11 z"
     id="path22-5"
     style="fill:#008000" /><path
     d="m 7233,1124 c -46,-17 -51,-25 -28,-44 9,-8 15,-29 15,-56 0,-43 0,-43 69,-83 81,-47 101,-56 159,-65 40,-6 42,-5 42,18 0,16 -17,40 -55,74 -56,52 -64,69 -42,91 10,10 9,14 -5,22 -10,6 -18,16 -18,24 0,18 -7,22 -55,28 -24,4 -57,0 -82,-9 z"
     id="path24-4"
     style="fill:#008000" /></g></svg>
