<?xml version="1.0" encoding="UTF-8" standalone="no"?>
<svg
   width="100%"
   height="100%"
   viewBox="0 0 72 192"
   version="1.1"
   xml:space="preserve"
   style="fill-rule:evenodd;clip-rule:evenodd;stroke-linejoin:round;stroke-miterlimit:1.41421;"
   id="svg121"
   sodipodi:docname="biker-02-inbound.svg"
   inkscape:version="1.1 (c68e22c387, 2021-05-23)"
   xmlns:inkscape="http://www.inkscape.org/namespaces/inkscape"
   xmlns:sodipodi="http://sodipodi.sourceforge.net/DTD/sodipodi-0.dtd"
   xmlns="http://www.w3.org/2000/svg"
   xmlns:svg="http://www.w3.org/2000/svg"><defs
   id="defs125" /><sodipodi:namedview
   id="namedview123"
   pagecolor="#ffffff"
   bordercolor="#666666"
   borderopacity="1.0"
   inkscape:pageshadow="2"
   inkscape:pageopacity="0.0"
   inkscape:pagecheckerboard="0"
   showgrid="false"
   inkscape:zoom="2.7083333"
   inkscape:cx="36"
   inkscape:cy="96.184615"
   inkscape:window-width="1366"
   inkscape:window-height="705"
   inkscape:window-x="-8"
   inkscape:window-y="-8"
   inkscape:window-maximized="1"
   inkscape:current-layer="svg121" />
    <g
   id="biker-02-inbound"
   transform="matrix(0.5,0,0,0.5,-2363.1,-239.75)">
        <g
   transform="matrix(2.00022,0,0,2.00022,-4916.63,-863.694)"
   id="g4">
            <path
   d="M4848.85,751.789L4861.68,751.049L4855.68,760.837L4848.85,751.789Z"
   style="fill:rgb(206,171,151);fill-rule:nonzero;"
   id="path2" />
        </g>
        <g
   transform="matrix(2.00022,0,0,2.00022,-4916.63,-863.694)"
   id="g8">
            <path
   d="M4849.39,830.589L4837.46,832.191L4838.51,827.266L4850.31,826.326L4849.39,830.589Z"
   style="fill:rgb(55,56,55);fill-rule:nonzero;"
   id="path6" />
        </g>
        <g
   transform="matrix(2.00022,0,0,2.00022,-4916.63,-863.694)"
   id="g12">
            <path
   d="M4852.89,788.567L4860.13,788.625L4858.42,783.333L4853.35,782.704L4852.89,788.567Z"
   style="fill:rgb(193,159,62);fill-rule:nonzero;"
   id="path10" />
        </g>
        <g
   transform="matrix(2.00022,0,0,2.00022,-4916.63,-863.694)"
   id="g16">
            <path
   d="M4856.22,783.848L4844.91,799.327L4844.4,823.5L4839.9,824.991L4838.33,797.681L4846.97,776.586L4856.67,777.118L4863.78,776.511L4868.32,788.166L4872.35,823.577L4868.4,824.563L4858.32,783.97L4856.22,783.848Z"
   style="fill:rgb(49,49,86);fill-rule:nonzero;"
   id="path14" />
        </g>
        <g
   transform="matrix(2.00022,0,0,2.00022,-4916.63,-863.694)"
   id="g20">
            <path
   d="M4839.84,823.688L4839.4,833.188L4841.68,838.061L4844.18,837.905L4845.51,833.371L4844.4,823.001L4839.84,823.688Z"
   style="fill:rgb(174,32,37);fill-rule:nonzero;"
   id="path18" />
        </g>
        <g
   transform="matrix(2.00022,0,0,2.00022,-4916.63,-863.694)"
   id="g24">
            <path
   d="M4854.52,822.692L4852.31,838.289L4854.4,853.395L4854.52,822.692Z"
   style="fill:rgb(194,191,188);fill-rule:nonzero;"
   id="path22" />
        </g>
        <g
   transform="matrix(2.00022,0,0,2.00022,-4916.63,-863.694)"
   id="g28">
            <path
   d="M4859.25,822.692L4861.46,838.289L4859.37,853.395L4859.25,822.692Z"
   style="fill:rgb(194,191,188);fill-rule:nonzero;"
   id="path26" />
        </g>
        <g
   transform="matrix(2.00022,0,0,2.00022,-4916.63,-863.694)"
   id="g32">
            <path
   d="M4854.79,815.626L4854.45,791.03L4858.39,791.039L4858.66,815.45L4854.79,815.626Z"
   style="fill:rgb(240,157,116);fill-rule:nonzero;"
   id="path30" />
        </g>
        <g
   transform="matrix(2.00022,0,0,2.00022,-4916.63,-863.694)"
   id="g36">
            <path
   d="M4855.62,814.367L4854.38,815.655L4854.43,861.664L4855.8,863.5L4858.06,863.5L4859.39,861.43L4859.21,815.421L4857.83,814.367L4855.62,814.367Z"
   style="fill:rgb(41,43,41);fill-rule:nonzero;"
   id="path34" />
        </g>
        <g
   transform="matrix(2.00022,0,0,2.00022,-4916.63,-863.694)"
   id="g40">
            <path
   d="M4846.96,776.624L4846.05,758.337L4837.25,767.162L4837.04,782.769L4833.15,781.861L4833.09,764.895L4845.48,752.113L4848.85,751.789L4855.68,760.837L4861.68,751.049L4864.73,751.208L4878.33,765.289L4878.93,783.253L4875.52,783.304L4874.84,767.013L4864.3,756.542L4863.78,776.458L4859.07,778.269L4846.96,776.624Z"
   style="fill:rgb(174,32,37);fill-rule:nonzero;"
   id="path38" />
        </g>
        <g
   transform="matrix(2.00022,0,0,2.00022,-4916.63,-863.694)"
   id="g46">
            <g
   opacity="0.5"
   id="g44">
                <path
   d="M4863.31,803.834L4867.71,785.501L4858.98,778.269L4846.96,776.539L4843.15,785.75L4844.96,799.375L4851.55,790.25L4854.51,791.125L4858.51,802.584L4858.51,790.958L4860.01,790.583L4863.31,803.834Z"
   style="fill:rgb(23,24,23);fill-rule:nonzero;"
   id="path42" />
            </g>
        </g>
        <g
   transform="matrix(2.00022,0,0,2.00022,-4916.63,-863.694)"
   id="g50">
            <path
   d="M4854.61,791.108L4858.15,791.147L4866.66,788.255L4866.15,786.221L4858.06,788.528L4854.56,788.567L4846.59,786.418L4846.08,788.665L4854.61,791.108Z"
   style="fill:rgb(240,157,116);fill-rule:nonzero;"
   id="path48" />
        </g>
        <g
   transform="matrix(2.00022,0,0,2.00022,-4916.63,-863.694)"
   id="g54">
            <path
   d="M4865.2,785.53L4865.48,789.907L4883.39,788.448L4882.65,783.196L4865.2,785.53Z"
   style="fill:rgb(206,173,128);fill-rule:nonzero;"
   id="path52" />
        </g>
        <g
   transform="matrix(2.00022,0,0,2.00022,-4916.63,-863.694)"
   id="g58">
            <path
   d="M4847.37,785.969L4847.08,790.346L4829.18,788.887L4829.92,783.636L4847.37,785.969Z"
   style="fill:rgb(206,173,128);fill-rule:nonzero;"
   id="path56" />
        </g>
        <g
   transform="matrix(2.00022,0,0,2.00022,-4916.63,-863.694)"
   id="g62">
            <path
   d="M4853.19,753.093L4857.15,753.093L4861.56,748.594L4860.65,735.899L4848.32,736.506L4848.43,748.188L4853.19,753.093Z"
   style="fill:rgb(226,198,183);fill-rule:nonzero;"
   id="path60" />
        </g>
        <g
   transform="matrix(2.00022,0,0,2.00022,-4916.63,-863.694)"
   id="g66">
            <path
   d="M4832.79,783.603L4833.97,787.28L4839.91,788.763L4839.2,785.012L4841.24,785.168L4841.16,783.76L4833.11,781.96L4832.79,783.603Z"
   style="fill:rgb(226,198,183);fill-rule:nonzero;"
   id="path64" />
        </g>
        <g
   transform="matrix(2.00022,0,0,2.00022,-4916.63,-863.694)"
   id="g70">
            <path
   d="M4879.15,785.792L4878.45,787.044L4872.51,788.528L4873.21,784.775L4871.18,784.934L4871.26,783.526L4879.46,782.587L4879.15,785.792Z"
   style="fill:rgb(226,198,183);fill-rule:nonzero;"
   id="path68" />
        </g>
        <g
   transform="matrix(2.00022,0,0,2.00022,-4916.63,-863.694)"
   id="g74">
            <path
   d="M4862.99,829.884L4876.88,830.04L4876.26,825.976L4862.75,825.351L4862.99,829.884Z"
   style="fill:rgb(55,56,55);fill-rule:nonzero;"
   id="path72" />
        </g>
        <g
   transform="matrix(2.00022,0,0,2.00022,-4916.63,-863.694)"
   id="g78">
            <path
   d="M4872.4,823.5L4875.28,832.375L4873.11,835.974L4870.18,836.209L4868.03,833.063L4868.15,823.875"
   style="fill:rgb(174,32,37);fill-rule:nonzero;"
   id="path76" />
        </g>
        <g
   transform="matrix(2.00022,0,0,2.00022,-4916.63,-863.694)"
   id="g82">
            <path
   d="M4845.02,740.751L4842.96,747.454L4848.48,746.563L4848.43,742.125L4854.78,740.5L4854.46,738.813L4845.02,740.751Z"
   style="fill:rgb(84,62,54);fill-rule:nonzero;"
   id="path80" />
        </g>
        <g
   transform="matrix(2.00022,0,0,2.00022,-4916.63,-863.694)"
   id="g86">
            <path
   d="M4854.05,739.091L4855.35,742.443L4861.13,743.856L4861.32,746.317L4867.19,745.671L4864.45,739.121L4855.62,738.79L4854.05,739.091Z"
   style="fill:rgb(84,62,54);fill-rule:nonzero;"
   id="path84" />
        </g>
        <g
   transform="matrix(2.00022,0,0,2.00022,-4916.63,-863.694)"
   id="g90">
            <path
   d="M4860.93,741.335L4862.64,741.15L4862.84,744.632L4861.08,744.722L4860.93,741.335Z"
   style="fill:rgb(226,198,183);fill-rule:nonzero;"
   id="path88" />
        </g>
        <g
   transform="matrix(2.00022,0,0,2.00022,-4916.63,-863.694)"
   id="g94">
            <path
   d="M4848.54,742.228L4846.63,742.073L4846.84,745.877L4848.57,745.968L4848.54,742.228Z"
   style="fill:rgb(226,198,183);fill-rule:nonzero;"
   id="path92" />
        </g>
        <g
   transform="matrix(2.00022,0,0,2.00022,-4916.63,-863.694)"
   id="g98">
            <path
   d="M4846.38,740.585L4855.86,738.771L4862.52,738.971L4864.88,734.799L4857.76,727.75L4852.46,727.792L4842.82,737.491L4846.38,740.585Z"
   style="fill:rgb(224,206,168);fill-rule:nonzero;"
   id="path96" />
        </g>
        <g
   transform="matrix(2.00022,0,0,2.00022,-4916.63,-863.694)"
   id="g102">
            <path
   d="M4846.38,740.585L4855.86,738.771L4862.92,739.047L4864.88,734.815L4854.3,734.572L4842.89,737.566L4846.38,740.585Z"
   style="fill:rgb(235,219,177);fill-rule:nonzero;"
   id="path100" />
        </g>
        <g
   transform="matrix(2.00022,0,0,2.00022,-4916.63,-863.694)"
   id="g106">
            <path
   d="M4862.58,837.086L4865.63,837.501L4863.8,804.988L4858.51,803.284L4854.61,803.314L4848.84,805.125L4847.65,837.875L4851.02,837.203L4852.54,807.477L4854.71,806.451L4858.65,806.481L4860.37,807.389L4862.58,837.086Z"
   style="fill:rgb(240,157,116);fill-rule:nonzero;"
   id="path104" />
        </g>
        <g
   transform="matrix(2.00022,0,0,2.00022,-4916.63,-863.694)"
   id="g110">
            <path
   d="M4861.29,836.919L4865.88,837.552L4865.88,838.767L4861.33,839.757L4861.29,836.919Z"
   style="fill:rgb(91,93,94);fill-rule:nonzero;"
   id="path108" />
        </g>
        <g
   transform="matrix(2.00022,0,0,2.00022,-4916.63,-863.694)"
   id="g114">
            <path
   d="M4852.58,836.919L4847.63,837.821L4847.63,839.003L4852.54,839.757L4852.58,836.919Z"
   style="fill:rgb(91,93,94);fill-rule:nonzero;"
   id="path112" />
        </g>
        <g
   transform="matrix(2.00022,0,0,2.00022,-4916.63,-863.694)"
   id="g118">
            <rect
   x="4873.96"
   y="778.499"
   width="0.25"
   height="0.125"
   style="fill:rgb(193,159,62);fill-rule:nonzero;"
   id="rect116" />
        </g>
    </g>
<g
   transform="matrix(0.0021949,0,0,-0.00190835,23.651238,56.030739)"
   fill="#000000"
   stroke="none"
   id="g26"
   style="fill:#008000"><path
     d="m 7610,12773 c -48,-16 -79,-20 -117,-16 -49,5 -57,3 -127,-41 -126,-78 -185,-134 -201,-189 -13,-45 -147,-245 -184,-275 -16,-13 -175,-65 -331,-107 -58,-16 -140,-29 -211,-33 l -115,-8 -110,-61 c -60,-34 -193,-93 -294,-132 -101,-39 -193,-77 -204,-85 -12,-7 -57,-78 -101,-157 -43,-79 -151,-251 -239,-382 l -160,-238 -7,-123 c -8,-149 -16,-164 -110,-209 l -69,-32 6,-46 c 13,-99 -39,-138 -193,-147 l -92,-5 -16,-33 c -8,-18 -18,-47 -21,-66 -9,-47 -47,-83 -110,-103 -69,-22 -91,-53 -169,-235 -31,-74 -87,-191 -123,-259 -57,-105 -86,-144 -190,-260 -112,-123 -129,-147 -178,-251 -35,-74 -70,-131 -98,-160 -41,-43 -43,-49 -54,-132 -12,-99 -35,-150 -96,-217 -23,-25 -54,-65 -70,-88 -16,-23 -43,-51 -61,-61 -26,-16 -33,-28 -38,-63 -3,-24 -27,-86 -53,-138 -41,-83 -61,-109 -158,-207 -61,-61 -124,-121 -139,-132 -25,-18 -33,-39 -62,-156 -19,-74 -44,-154 -55,-178 -14,-26 -92,-112 -204,-223 -172,-171 -185,-187 -257,-310 -115,-195 -129,-227 -129,-285 0,-88 -21,-192 -57,-285 -37,-92 -43,-143 -28,-222 7,-37 3,-49 -29,-106 -20,-36 -36,-72 -36,-80 0,-9 16,-31 35,-49 32,-30 36,-40 45,-114 12,-93 0,-261 -25,-370 -49,-214 -124,-452 -175,-554 -32,-64 -70,-181 -70,-217 0,-6 15,-10 33,-9 27,1 33,-3 35,-23 3,-18 -11,-37 -62,-85 -71,-66 -70,-65 -67,-209 1,-45 30,-77 68,-77 16,0 51,-11 78,-24 44,-20 83,-49 252,-192 l 43,-35 v -95 c 0,-112 29,-209 81,-274 32,-39 33,-43 33,-139 1,-94 2,-100 35,-152 83,-130 102,-166 131,-241 40,-106 45,-143 26,-197 -14,-41 -13,-48 6,-105 50,-149 79,-192 222,-325 26,-23 73,-77 105,-120 79,-103 91,-112 219,-180 61,-33 166,-96 233,-141 67,-45 144,-90 173,-100 183,-63 348,-194 415,-332 17,-35 39,-96 49,-136 15,-59 27,-81 60,-115 22,-23 52,-64 66,-92 47,-95 142,-434 152,-548 l 7,-67 -57,-55 c -69,-68 -71,-86 -11,-145 65,-64 75,-90 63,-179 -10,-87 -7,-101 25,-101 19,0 26,7 30,29 4,17 19,44 35,62 26,29 35,33 80,32 43,-1 68,-10 149,-56 87,-49 163,-79 163,-63 0,3 -7,31 -15,63 -17,63 -12,123 12,161 8,13 40,49 71,80 57,57 122,169 122,210 0,11 -5,33 -11,49 -6,15 -19,68 -29,117 -16,74 -17,103 -9,173 5,46 14,158 19,248 9,158 8,166 -13,212 -16,36 -21,66 -21,118 1,77 4,88 109,320 37,83 114,259 171,392 93,220 107,248 158,305 38,42 54,67 50,78 -4,8 -12,32 -17,52 -21,72 -13,79 235,227 302,181 321,196 379,301 27,47 51,91 55,99 4,8 -4,34 -19,62 -15,26 -27,52 -27,57 0,23 54,72 105,96 92,42 139,95 209,235 34,69 99,183 144,253 72,110 125,212 185,350 12,26 32,46 74,71 47,27 58,38 56,58 -1,13 -2,83 -3,155 -2,142 9,186 55,234 13,14 47,73 76,130 28,58 67,130 88,160 39,57 103,227 146,390 18,64 29,140 35,235 10,154 15,178 66,297 31,72 34,89 32,157 -3,69 0,83 33,156 28,60 38,99 43,155 3,48 20,118 44,191 22,64 45,140 51,170 7,30 25,93 41,140 30,91 80,312 101,441 9,62 17,84 40,108 51,53 51,125 -1,184 -25,28 -30,43 -30,83 0,107 34,170 123,223 47,28 58,53 46,111 -24,128 -7,177 92,256 237,189 306,295 318,484 6,93 10,112 34,148 15,22 27,46 27,53 0,31 23,90 44,115 13,15 26,40 30,56 3,15 21,44 40,65 46,52 56,74 56,127 0,74 36,125 88,125 11,0 23,7 26,16 20,52 -14,240 -78,426 -25,73 -49,167 -54,209 -6,44 -19,93 -33,120 -48,90 -19,304 61,458 109,209 363,440 473,429 31,-3 32,-2 39,42 9,65 3,80 -31,74 -38,-8 -79,35 -131,137 l -40,81 v 125 c 0,111 -2,124 -16,119 -41,-16 -208,-36 -297,-36 -128,0 -234,22 -332,70 -69,34 -101,60 -242,197 -147,144 -163,162 -169,201 -7,42 -8,43 -108,95 l -101,52 z"
     id="path2-8"
     style="fill:#008000" /><path
     d="m 9089,11169 c -14,-27 4,-42 41,-33 33,7 34,9 20,33 -14,27 -46,27 -61,0 z"
     id="path4"
     style="fill:#008000" /><path
     d="m 521,6966 c -18,-19 -21,-30 -15,-49 10,-29 110,-111 124,-102 6,3 10,32 10,64 0,55 -2,60 -34,85 -43,32 -56,33 -85,2 z"
     id="path6-6"
     style="fill:#008000" /><path
     d="m 333,6858 c -11,-14 -19,-43 -35,-133 -13,-71 -52,-119 -110,-137 -49,-15 -39,-28 22,-28 43,0 53,4 85,37 19,20 35,46 35,57 0,12 7,30 15,40 9,12 15,42 15,76 0,31 5,61 11,67 13,13 4,33 -15,33 -8,0 -18,-6 -23,-12 z"
     id="path8"
     style="fill:#008000" /><path
     d="m 640,6713 c -14,-9 -46,-36 -72,-60 -26,-24 -52,-43 -57,-43 -25,0 -41,-33 -41,-84 0,-28 -5,-57 -12,-64 -8,-8 -8,-15 2,-27 12,-14 15,-14 31,1 27,24 63,15 67,-18 3,-26 7,-28 46,-28 41,0 42,1 80,66 30,52 46,70 79,85 52,23 95,24 119,2 17,-16 20,-16 35,0 16,16 14,20 -36,71 -42,42 -64,56 -110,69 -32,9 -64,23 -71,32 -16,19 -30,19 -60,-2 z"
     id="path10-4"
     style="fill:#008000" /><path
     d="m 2125,6399 -57,-82 11,-84 c 6,-46 13,-88 16,-93 17,-28 25,0 25,91 v 100 l 40,59 c 39,57 50,90 31,90 -5,0 -35,-37 -66,-81 z"
     id="path12"
     style="fill:#008000" /><path
     d="m 300,6394 c -11,-12 -10,-18 4,-32 16,-16 18,-16 31,2 11,14 12,23 4,33 -15,17 -24,16 -39,-3 z"
     id="path14-6"
     style="fill:#008000" /><path
     d="m 272,5858 c -19,-19 -15,-48 7,-48 20,0 37,32 26,50 -8,13 -18,13 -33,-2 z"
     id="path16"
     style="fill:#008000" /><path
     d="m 48,5275 c -15,-13 -33,-25 -40,-28 -23,-8 6,-42 40,-45 22,-2 34,3 46,20 37,52 1,93 -46,53 z"
     id="path18-5"
     style="fill:#008000" /><path
     d="m 7046,3349 c -22,-32 -21,-92 2,-112 10,-10 35,-17 55,-17 h 37 v 59 c 0,62 -8,75 -51,86 -21,5 -30,2 -43,-16 z"
     id="path20"
     style="fill:#008000" /><path
     d="m 3248,1956 c -10,-7 -18,-22 -18,-34 0,-11 -7,-23 -16,-26 -8,-3 -12,-10 -9,-16 9,-15 41,-12 55,5 7,9 28,23 47,32 44,21 41,47 -7,50 -19,2 -43,-3 -52,-11 z"
     id="path22-8"
     style="fill:#008000" /><path
     d="m 7233,1124 c -46,-17 -51,-25 -28,-44 9,-8 15,-29 15,-56 0,-43 0,-43 69,-83 81,-47 101,-56 159,-65 40,-6 42,-5 42,18 0,16 -17,40 -55,74 -56,52 -64,69 -42,91 10,10 9,14 -5,22 -10,6 -18,16 -18,24 0,18 -7,22 -55,28 -24,4 -57,0 -82,-9 z"
     id="path24"
     style="fill:#008000" /></g></svg>
